<?xml version="1.0" encoding="utf-8"?>
<!-- Generator: Adobe Illustrator 21.0.2, SVG Export Plug-In . SVG Version: 6.00 Build 0)  -->
<svg version="1.1" id="Слой_1" xmlns="http://www.w3.org/2000/svg" xmlns:xlink="http://www.w3.org/1999/xlink" x="0px" y="0px"
	 viewBox="0 0 500 500" style="enable-background:new 0 0 500 500;" xml:space="preserve">
<style type="text/css">
	.st0{fill:#B99C6A;}
</style>
<g>
	<polygon class="st0" points="194.3,194.3 194.3,157.2 37.3,157.2 37.3,115.8 194.3,115.8 194.3,78.6 37.3,78.6 37.3,37.3 
		194.3,37.3 194.3,0.1 37.3,0.1 0.1,0.1 0.1,37.3 0.1,78.6 0.1,115.8 0.1,157.2 0.1,194.3 37.3,194.3 	"/>
	<polygon class="st0" points="268.6,0.1 231.5,0.1 231.5,231.5 0.1,231.5 0.1,268.7 231.5,268.7 231.5,500.1 268.6,500.1 
		268.6,268.7 500,268.7 500,231.5 268.6,231.5 	"/>
	<polygon class="st0" points="462.9,0.1 421.5,0.1 384.3,0.1 342.9,0.1 305.8,0.1 305.8,37.3 305.8,194.3 342.9,194.3 342.9,37.3 
		384.3,37.3 384.3,194.3 421.5,194.3 421.5,37.3 462.9,37.3 462.9,194.3 500,194.3 500,37.3 500,0.1 	"/>
	<polygon class="st0" points="0.1,305.9 0.1,343 0.1,384.4 0.1,421.5 0.1,462.9 0.1,500.1 37.3,500.1 194.3,500.1 194.3,462.9 
		37.3,462.9 37.3,421.5 194.3,421.5 194.3,384.4 37.3,384.4 37.3,343 194.3,343 194.3,305.9 37.3,305.9 	"/>
	<polygon class="st0" points="305.8,305.9 305.8,343 305.8,384.4 305.8,421.5 342.9,421.5 462.9,421.5 462.9,462.9 305.8,462.9 
		305.8,500.1 462.9,500.1 500,500.1 500,462.9 500,421.5 500,384.4 462.9,384.4 342.9,384.4 342.9,343 500,343 500,305.9 
		342.9,305.9 	"/>
</g>
</svg>
