<?xml version="1.0" encoding="utf-8"?>
<!-- Generator: Adobe Illustrator 21.0.2, SVG Export Plug-In . SVG Version: 6.00 Build 0)  -->
<svg version="1.1" id="Слой_1" xmlns="http://www.w3.org/2000/svg" xmlns:xlink="http://www.w3.org/1999/xlink" x="0px" y="0px"
	 viewBox="0 0 100 100" style="enable-background:new 0 0 100 100;" xml:space="preserve">
<style type="text/css">
	.st0{fill:#B2B2B2;}
</style>
<g>
	<g>
		<g>
			<path class="st0" d="M97.7,73.9c-12.6-2.1-18.3-14.8-18.9-16.3c0,0-0.1-0.1-0.1-0.2c-0.6-1.3-0.8-2.3-0.5-3.1
				c0.7-1.6,3.5-2.5,5.3-3c0.5-0.2,1-0.3,1.4-0.5c3.6-1.4,5.4-3.3,5.4-5.4c0-1.7-1.4-3.3-3.4-4c-0.7-0.3-1.5-0.4-2.3-0.4
				c-0.6,0-1.4,0.1-2.2,0.4c-1.5,0.7-2.9,1.1-3.9,1.1c-0.5,0-0.8-0.1-1.1-0.2c0-0.5,0.1-1.1,0.1-1.7l0-0.3c0.4-6.8,1-15.2-1.3-20.3
				C69.5,5.2,55.3,4,51.1,4l-2,0c-4.2,0-18.4,1.2-25,16.2c-2.3,5.1-1.7,13.5-1.3,20.3c0,0.7,0.1,1.3,0.1,2c-0.3,0.1-0.7,0.2-1.3,0.2
				c-1.2,0-2.6-0.4-4.3-1.2c-2.4-1.1-6.7,0.4-7.3,3.4c-0.3,1.7,0.4,4.1,5.3,6c0.4,0.2,0.9,0.3,1.5,0.5c1.7,0.5,4.5,1.4,5.1,3
				c0.3,0.8,0.2,1.8-0.5,3.2c-0.2,0.6-6.2,14.1-19.3,16.2C1,74.1,0,75.3,0.1,76.7c0,0.4,0.1,0.8,0.3,1.2c1.1,2.6,5.3,4.4,13.2,5.6
				c0.2,0.4,0.4,1.4,0.5,1.9c0.2,0.8,0.3,1.5,0.6,2.4c0.2,0.8,1,2.2,3,2.2c0.7,0,1.5-0.2,2.4-0.3c1.3-0.2,3-0.6,5.1-0.6
				c1.2,0,2.4,0.1,3.7,0.3c2.4,0.4,4.4,1.9,6.8,3.6c3.5,2.5,6.8,4.4,13.2,4.4c0.2,0,0.3,0,0.5,0c0.2,0,0.5,0,0.7,0
				c5.6,0,10.6-1.5,14.7-4.4c2.3-1.6,4.5-3.2,6.8-3.5c1.3-0.2,2.5-0.3,3.7-0.3c2.1,0,3.7,0.3,5.2,0.5c1,0.2,1.8,0.3,2.5,0.3
				c1.4,0,2.5-0.8,2.9-2.2c0.2-0.8,0.4-1.6,0.6-2.3c0.1-0.4,0.3-1.4,0.5-1.9c7.8-1.2,11.8-3,12.9-5.5c0.2-0.4,0.3-0.8,0.3-1.2
				C100.1,75.4,99.1,74.2,97.7,73.9z"/>
		</g>
	</g>
</g>
</svg>
