<?xml version="1.0" encoding="utf-8"?>
<!-- Generator: Adobe Illustrator 21.0.2, SVG Export Plug-In . SVG Version: 6.00 Build 0)  -->
<svg version="1.1" id="Слой_1" xmlns="http://www.w3.org/2000/svg" xmlns:xlink="http://www.w3.org/1999/xlink" x="0px" y="0px"
	 viewBox="0 0 100 100" style="enable-background:new 0 0 100 100;" xml:space="preserve">
<style type="text/css">
	.st0{fill:#B2B2B2;}
</style>
<g>
	<path class="st0" d="M72.5,0H28.1C13,0,0.8,12.3,0.8,27.3v44.4C0.8,86.7,13,99,28.1,99h44.4c15.1,0,27.3-12.3,27.3-27.3V27.3
		C99.8,12.3,87.5,0,72.5,0z M50.3,75c-14.1,0-25.5-11.4-25.5-25.5C24.8,35.4,36.2,24,50.3,24s25.5,11.4,25.5,25.5
		C75.8,63.6,64.4,75,50.3,75z M72.3,27.5c-1.2-1.2-1.9-2.9-1.9-4.6c0-1.7,0.7-3.4,1.9-4.6c1.2-1.2,2.9-1.9,4.5-1.9
		c1.7,0,3.4,0.7,4.6,1.9c1.2,1.2,1.9,2.9,1.9,4.6c0,1.7-0.7,3.4-1.9,4.6c-1.2,1.2-2.9,1.9-4.6,1.9C75.2,29.4,73.5,28.7,72.3,27.5z"
		/>
	<path class="st0" d="M50.3,32.8c-9.2,0-16.7,7.5-16.7,16.7c0,9.2,7.5,16.7,16.7,16.7S67,58.7,67,49.5C67,40.3,59.5,32.8,50.3,32.8z
		"/>
</g>
</svg>
