<?xml version="1.0" standalone="no"?>
<!DOCTYPE svg PUBLIC "-//W3C//DTD SVG 1.1//EN" "http://www.w3.org/Graphics/SVG/1.1/DTD/svg11.dtd" >
<svg>
<metadata>
Created by FontForge 20090914 at Sat Apr 21 19:34:36 2018
 By www-data
Copyright 2016 Google Inc. All Rights Reserved.
</metadata>
<defs>
<font id="SpaceMono-Italic" horiz-adv-x="612" >
  <font-face 
    font-family="Space Mono"
    font-weight="400"
    font-style="italic"
    font-stretch="normal"
    units-per-em="1000"
    panose-1="2 0 5 9 9 0 0 9 0 4"
    ascent="800"
    descent="-200"
    x-height="496"
    cap-height="700"
    bbox="-59 -309.001 735 1090"
    underline-thickness="50"
    underline-position="-50"
    slope="-12"
    unicode-range="U+0020-U+FB02"
  />
<missing-glyph 
 />
    <glyph glyph-name="fi" unicode="fi" 
d="M378 384c1.33301 5.33301 2 9.33398 2 12.001c0 18.667 -10.333 28 -31 28h-142l-90 -424h-78l90 424h-112v72h128l22 106c5.33301 22.667 16.666 41.334 33.999 56.001s37.333 22 60 22h91v-72h-78c-18.667 0 -30 -10 -34 -30l-17 -82h125
c34 0 60.667 -6.83301 80 -20.5s29 -36.5 29 -68.5c0 -10.667 -1.66699 -24.334 -5 -41.001l-61 -279c-2 -8 -1.16699 -14.333 2.5 -19s8.5 -7 14.5 -7c4.66699 0 9.66699 1.66699 15 5l115 78l40 -59l-115 -78c-21.333 -14 -43.666 -21 -66.999 -21
c-22 0 -41.5 6.83301 -58.5 20.5s-25.5 34.5 -25.5 62.5c0 9.33301 1.33301 19.666 4 30.999zM394 644.001c0 19.333 6.83301 35.833 20.5 49.5s30.167 20.5 49.5 20.5s35.833 -6.83301 49.5 -20.5s20.5 -30.167 20.5 -49.5s-6.83301 -35.833 -20.5 -49.5
s-30.167 -20.5 -49.5 -20.5s-35.833 6.83301 -49.5 20.5s-20.5 30.167 -20.5 49.5z" />
    <glyph glyph-name="fl" unicode="fl" 
d="M344 496v-72.001h-137l-90 -424h-78l90 424h-112v72h128l26 126c5.33301 22.667 16.666 41.334 33.999 56.001s37.333 22 60 22h127c34 0 60.667 -6.83301 80 -20.5s29 -36.5 29 -68.5c0 -10.667 -1.66699 -24.334 -5 -41.001l-105 -483c-2 -8 -1.16699 -14.333 2.5 -19
s8.5 -7 14.5 -7c4.66699 0 9.66699 1.66699 15 5l115 78l40 -59l-115 -78c-21.333 -14 -43.666 -21 -66.999 -21c-22 0 -41.5 6.83301 -58.5 20.5s-25.5 34.5 -25.5 62.5c0 5.33301 0.333008 10 1 14s1.66699 9.66699 3 17l106 488
c0.666992 2.66699 1.16699 4.83398 1.5 6.50098s0.5 3.5 0.5 5.5c0 18.667 -10.333 28 -31 28h-115c-18.667 0 -30 -10 -34 -30l-21 -102h121z" />
    <glyph glyph-name=".notdef" 
 />
    <glyph glyph-name="NULL" 
 />
    <glyph glyph-name="NULL" 
 />
    <glyph glyph-name="space" unicode=" " 
 />
    <glyph glyph-name="exclam" unicode="!" 
d="M422 700l-111 -514h-80l111 514h80zM175 56c0 19.333 6.83301 35.833 20.5 49.5s30.167 20.5 49.5 20.5s35.833 -6.83301 49.5 -20.5s20.5 -30.167 20.5 -49.5s-6.83301 -35.833 -20.5 -49.5s-30.167 -20.5 -49.5 -20.5s-35.833 6.83301 -49.5 20.5
s-20.5 30.167 -20.5 49.5z" />
    <glyph glyph-name="quotedbl" unicode="&#x22;" 
d="M204 644c0 19.333 6.83301 35.833 20.5 49.5s30.167 20.5 49.5 20.5s35.833 -6.83301 49.5 -20.5s20.5 -30.167 20.5 -49.5c0 -16.667 -5.33301 -31.5 -16 -44.5s-24 -21.167 -40 -24.5l-23 -107l-53 11l24 106c-9.33301 6.66699 -17 15.167 -23 25.5s-9 21.5 -9 33.5z
M386 644c0 19.333 6.83301 35.833 20.5 49.5s30.167 20.5 49.5 20.5s35.833 -6.83301 49.5 -20.5s20.5 -30.167 20.5 -49.5c0 -16.667 -5.33301 -31.5 -16 -44.5s-24 -21.167 -40 -24.5l-23 -107l-53 11l24 106c-9.33301 6.66699 -17 15.167 -23 25.5s-9 21.5 -9 33.5z" />
    <glyph glyph-name="numbersign" unicode="#" 
d="M306 102l26 122h-106l-26 -122h-74l26 122h-103v72h118l23 108h-103v72h118l26 122h74l-26 -122h106l26 122h74l-26 -122h103v-72h-118l-23 -108h103v-72h-118l-26 -122h-74zM370 404h-106l-23 -108h106z" />
    <glyph glyph-name="dollar" unicode="$" 
d="M386 608c40 -7.33301 70.6641 -22.999 91.9971 -46.999s32 -51 32 -81c0 -10 -1 -19.333 -3 -28l-4 -18h-76l3 12c2 6.66699 3 13.667 3 21c0 17.333 -5.5 32 -16.5 44s-26.167 19.667 -45.5 23l-31 -143c49.333 -6 85.5 -19.667 108.5 -41s34.5 -48 34.5 -80
c0 -27.333 -5.33301 -52 -16 -74s-25.167 -40.667 -43.5 -56s-40.166 -27.333 -65.499 -36s-52.666 -13.667 -81.999 -15l-13 -61h-72l13 63c-24 4 -44.333 10.5 -61 19.5s-30.5 19.833 -41.5 32.5s-19 26.667 -24 42s-7.5 31 -7.5 47c0 6 0.333008 12 1 18s1.66699 12 3 18
l5 24h76l-4 -22c-2 -11.333 -3 -21 -3 -29c0 -43.333 24 -69 72 -77l35 162c-38 5.33301 -69 18.166 -93 38.499s-36 49.833 -36 88.5c0 24 5.83301 45.667 17.5 65s26.834 35.833 45.501 49.5s39 24.167 61 31.5s43.667 11 65 11l13 62h72zM290.997 161.001
c30.667 2.66699 57.001 12.333 79.001 29s33 38.667 33 66c0 19.333 -6.33301 33.5 -19 42.5s-32.334 15.833 -59.001 20.5zM298.998 538c-24.667 -3.33301 -46.166 -12 -64.499 -26s-27.5 -34 -27.5 -60c0 -13.333 4.66699 -24.5 14 -33.5s25.666 -15.167 48.999 -18.5z
" />
    <glyph glyph-name="percent" unicode="%" 
d="M352 579c0 -22.667 -4.00098 -44.501 -12.001 -65.501s-19.5 -39.5 -34.5 -55.5s-33.333 -28.667 -55 -38s-45.834 -14 -72.501 -14c-17.333 0 -33.666 2.83301 -48.999 8.5s-28.666 13.667 -39.999 24s-20.333 23.166 -27 38.499s-10 33 -10 53
c0 25.333 4.16699 48.833 12.5 70.5s20 40.334 35 56.001s32.833 27.834 53.5 36.501s43.667 13 69 13c39.333 0 70.833 -11.167 94.5 -33.5s35.5 -53.5 35.5 -93.5zM179.999 459.999c16.667 0 31.833 3 45.5 9s25.5 14 35.5 24s17.667 21.5 23 34.5s8 26.5 8 40.5
c0 24 -6 44 -18 60s-30.333 24 -55 24c-16 0 -30.5 -3 -43.5 -9s-24.333 -14.167 -34 -24.5s-17 -22.333 -22 -36s-7.5 -28.167 -7.5 -43.5c0 -28 6.33301 -48.167 19 -60.5s29 -18.5 49 -18.5zM560.998 167.999c0 -22.667 -4.00098 -44.501 -12.001 -65.501
s-19.5 -39.5 -34.5 -55.5s-33.333 -28.667 -55 -38s-45.834 -14 -72.501 -14c-17.333 0 -33.666 2.83301 -48.999 8.5s-28.666 13.667 -39.999 24s-20.333 23.166 -27 38.499s-10 33 -10 53c0 25.333 4.16699 48.833 12.5 70.5s20 40.334 35 56.001
s32.833 27.834 53.5 36.501s43.667 13 69 13c39.333 0 70.833 -11.167 94.5 -33.5s35.5 -53.5 35.5 -93.5zM388.997 48.998c16.667 0 31.833 3 45.5 9s25.5 14 35.5 24s17.667 21.5 23 34.5s8 26.5 8 40.5c0 24 -6 44 -18 60s-30.333 24 -55 24c-16 0 -30.5 -3 -43.5 -9
s-24.333 -14.167 -34 -24.5s-17 -22.333 -22 -36s-7.5 -28.167 -7.5 -43.5c0 -28 6.33301 -48.167 19 -60.5s29 -18.5 49 -18.5zM559.996 494.998l22 -46l-531 -244l-22 46z" />
    <glyph glyph-name="ampersand" unicode="&#x26;" 
d="M574 312l-104 -0.000976562l-66 -312h-220c-55.333 0 -98.5 14.5 -129.5 43.5s-46.5 67.5 -46.5 115.5c0 46.667 14 86.5 42 119.5s67 55.167 117 66.5v12c-25.333 8.66699 -46.5 23.667 -63.5 45s-25.5 49 -25.5 83c0 32 6.33301 61.167 19 87.5s30.167 49 52.5 68
s48.833 33.667 79.5 44s64 15.5 100 15.5h111v-78h-122c-21.333 0 -41.5 -3.16699 -60.5 -9.5s-36 -15.666 -51 -27.999s-26.833 -27.5 -35.5 -45.5s-13 -38.333 -13 -61c0 -28 9.5 -49.667 28.5 -65s45.5 -23 79.5 -23h137l23 106h84l-23 -106h87v-78zM337 77.999
l49.001 234h-137c-20.667 0 -40.5 -3.33301 -59.5 -10s-35.833 -16.167 -50.5 -28.5s-26.334 -27 -35.001 -44s-13 -35.833 -13 -56.5c0 -30 10.167 -53.333 30.5 -70s47.5 -25 81.5 -25h134z" />
    <glyph glyph-name="quotesingle" unicode="'" 
d="M292 644c0 19.333 6.83301 35.833 20.5 49.5s30.167 20.5 49.5 20.5s35.833 -6.83301 49.5 -20.5s20.5 -30.167 20.5 -49.5c0 -16.667 -5.33301 -31.5 -16 -44.5s-24 -21.167 -40 -24.5l-23 -107l-53 11l24 106c-9.33301 6.66699 -17 15.167 -23 25.5s-9 21.5 -9 33.5z
" />
    <glyph glyph-name="parenleft" unicode="(" 
d="M413 -82l0.000976562 -73.999h-52c-40 0 -77.167 6.5 -111.5 19.5s-64.333 31.667 -90 56s-45.667 54.5 -60 90.5s-21.5 77 -21.5 123c0 31.333 4 65.666 12 102.999l55 258c14 65.333 33.833 121 59.5 167s56.667 83.5 93 112.5s77.666 50 123.999 63
s97.166 19.5 152.499 19.5h38v-74h-46c-41.333 0 -80.5 -5 -117.5 -15s-70.5 -27 -100.5 -51s-56 -55.833 -78 -95.5s-39.333 -89.167 -52 -148.5l-51 -244c-6.66699 -30.667 -10 -60.334 -10 -89.001c0 -37.333 5.5 -69.666 16.5 -96.999s26.333 -50.333 46 -69
s42.834 -32.5 69.501 -41.5s56 -13.5 88 -13.5h36z" />
    <glyph glyph-name="parenright" unicode=")" 
d="M199 782l-0.000976562 73.9971h52c40 0 77.167 -6.5 111.5 -19.5s64.333 -31.667 90 -56s45.667 -54.5 60 -90.5s21.5 -77 21.5 -123c0 -32 -4 -66.333 -12 -103l-55 -258c-14 -65.333 -33.833 -121 -59.5 -167s-56.667 -83.5 -93 -112.5s-77.666 -50 -123.999 -63
s-97.166 -19.5 -152.499 -19.5h-38v74h46c41.333 0 80.333 5 117 15s70 27 100 51s56.167 55.833 78.5 95.5s39.833 89.167 52.5 148.5l51 244c6.66699 30.667 10 60.334 10 89.001c0 36.667 -5.5 68.834 -16.5 96.501s-26.333 50.834 -46 69.501s-42.834 32.5 -69.501 41.5
s-56 13.5 -88 13.5h-36z" />
    <glyph glyph-name="asterisk" unicode="*" 
d="M534 455l-105 -68l-54 -17l2 -13l47 5l132 -28l-15 -71l-132 28l-41 23l-7 -10l43 -38l67 -105l-60 -39l-68 105l-17 54l-13 -2l5 -47l-28 -132l-71 15l28 132l23 41l-10 7l-38 -43l-105 -67l-39 60l105 68l54 17l-2 13l-47 -5l-132 28l15 71l132 -28l41 -23l7 10l-43 38
l-67 105l60 39l68 -105l17 -54l13 2l-5 47l28 132l71 -15l-28 -132l-23 -41l10 -7l38 43l105 67z" />
    <glyph glyph-name="plus" unicode="+" 
d="M97 386h179l37 173h74l-37 -173h165v-72h-180l-37 -173h-74l37 173h-164v72z" />
    <glyph glyph-name="comma" unicode="," 
d="M192 56c0 19.333 6.83203 35.832 20.499 49.499s30.167 20.5 49.5 20.5s35.833 -6.83301 49.5 -20.5s20.5 -30.167 20.5 -49.5c0 -4.66699 -0.333008 -8.66699 -1 -12l-18 -86c-5.33301 -25.333 -15.666 -44.666 -30.999 -57.999s-36 -20 -62 -20h-52v54h59
c18.667 0 30 10 34 30l5 22h-4c-19.333 0 -35.833 6.83301 -49.5 20.5s-20.5 30.167 -20.5 49.5z" />
    <glyph glyph-name="hyphen" unicode="-" 
d="M156 296h300v-72h-300v72z" />
    <glyph glyph-name="period" unicode="." 
d="M186 56c0 19.333 6.83301 35.833 20.5 49.5s30.167 20.5 49.5 20.5s35.833 -6.83301 49.5 -20.5s20.5 -30.167 20.5 -49.5s-6.83301 -35.833 -20.5 -49.5s-30.167 -20.5 -49.5 -20.5s-35.833 6.83301 -49.5 20.5s-20.5 30.167 -20.5 49.5z" />
    <glyph glyph-name="slash" unicode="/" 
d="M513 806l60 -34l-474 -878l-60 35z" />
    <glyph glyph-name="zero" unicode="0" 
d="M240 350c0 17.333 6.33301 32.333 19 45s27.667 19 45 19s32.333 -6.33301 45 -19s19 -27.667 19 -45s-6.33301 -32.333 -19 -45s-27.667 -19 -45 -19s-32.333 6.33301 -45 19s-19 27.667 -19 45zM75 428c19.333 93.333 53.5 164.333 102.5 213s114.833 73 197.5 73
c64.667 0 114.167 -18.5 148.5 -55.5s51.5 -88.167 51.5 -153.5c0 -13.333 -0.833008 -27.5 -2.5 -42.5s-4.16699 -30.167 -7.5 -45.5l-31 -145c-19.333 -93.333 -53.5 -164.333 -102.5 -213s-114.833 -73 -197.5 -73c-64.667 0 -114.167 18.5 -148.5 55.5
s-51.5 88.167 -51.5 153.5c0 13.333 0.833008 27.5 2.5 42.5s4.16699 30.167 7.5 45.5zM246 62c27.333 0 52.167 5.16602 74.5 15.499s42 25 59 44s31.333 41.667 43 68s21.167 55.833 28.5 88.5l32 150c5.33301 26.667 8 50 8 70c0 43.333 -10.667 77.5 -32 102.5
s-53.333 37.5 -96 37.5c-55.333 0 -99.833 -19.667 -133.5 -59s-57.5 -91.666 -71.5 -156.999l-32 -150c-5.33301 -26.667 -8 -50 -8 -70c0 -43.333 10.667 -77.5 32 -102.5s53.333 -37.5 96 -37.5z" />
    <glyph glyph-name="one" unicode="1" 
d="M222 78l124 585h-12l-176 -263h-91v6l201 294h170l-132 -622h198v-78h-480v78h198z" />
    <glyph glyph-name="two" unicode="2" 
d="M489 78l0.00292969 -77.998h-489l24 120c6.66699 32.667 17.667 60.834 33 84.501s34.666 44 57.999 61s50.333 31.167 81 42.5s64.667 20.666 102 27.999c26 4.66699 51.167 11.667 75.5 21s46 21.5 65 36.5s34.333 33.167 46 54.5s17.5 46.666 17.5 75.999
c0 15.333 -2.5 29.833 -7.5 43.5s-12.667 25.5 -23 35.5s-23.833 18 -40.5 24s-36.334 9 -59.001 9c-51.333 0 -94.166 -15.667 -128.499 -47s-57.166 -73 -68.499 -125l-9 -44h-85l10 50c6.66699 34 17.667 65.833 33 95.5s35 55.5 59 77.5s52.5 39.333 85.5 52
s70.833 19 113.5 19c32.667 0 62 -4.83301 88 -14.5s47.667 -22.667 65 -39s30.666 -35.166 39.999 -56.499s14 -43.333 14 -66c0 -78 -23.333 -139.167 -70 -183.5s-111.334 -74.5 -194.001 -90.5c-33.333 -6.66699 -62.333 -14.334 -87 -23.001s-45.834 -19 -63.501 -31
s-32 -26.333 -43 -43s-19.167 -36.334 -24.5 -59.001l-7 -30h389z" />
    <glyph glyph-name="three" unicode="3" 
d="M239 348l0.000976562 117.998l281 144v12h-375v78h441v-136l-267 -138v-12h42c25.333 0 48.5 -3.83301 69.5 -11.5s39.167 -18.5 54.5 -32.5s27.333 -31 36 -51s13 -42.333 13 -67c0 -40 -8 -76.333 -24 -109s-37.333 -60.667 -64 -84s-57.667 -41.333 -93 -54
s-72.333 -19 -111 -19c-34 0 -64.167 4.83301 -90.5 14.5s-48.333 22.834 -66 39.501s-31 36.334 -40 59.001s-13.5 46.667 -13.5 72c0 7.33301 0.5 15 1.5 23s2.16699 16 3.5 24l11 54h84l-10 -48c-1.33301 -8 -2.5 -15.667 -3.5 -23s-1.5 -14.666 -1.5 -21.999
c0 -40 12.333 -69.167 37 -87.5s57.667 -27.5 99 -27.5c30 0 57 4.5 81 13.5s44.5 21.5 61.5 37.5s30 34.667 39 56s13.5 44.333 13.5 69c0 35.333 -10.833 62.166 -32.5 80.499s-49.834 27.5 -84.501 27.5h-92z" />
    <glyph glyph-name="four" unicode="4" 
d="M375 700h173l-104 -490h91v-78h-108l-28 -132h-84l28 132h-324v132zM83 222v-12h277l96 454h-12z" />
    <glyph glyph-name="five" unicode="5" 
d="M73 330l77.999 370.004h422v-78h-356l-53 -250h12c8 13.333 17.667 26.166 29 38.499s24.5 23.166 39.5 32.499s32.333 16.833 52 22.5s42.167 8.5 67.5 8.5c26 0 50.167 -4.33301 72.5 -13s41.833 -20.834 58.5 -36.501s29.667 -34.167 39 -55.5s14 -44.333 14 -69
c0 -44.667 -7.16699 -86.167 -21.5 -124.5s-34.833 -71.5 -61.5 -99.5s-58.667 -50 -96 -66s-79 -24 -125 -24c-34.667 0 -65.167 4.66699 -91.5 14s-48.5 22.166 -66.5 38.499s-31.5 35.666 -40.5 57.999s-13.5 46.833 -13.5 73.5c0 16.667 2 34.667 6 54l6 28h84l-5 -22
c-2 -10 -3.66699 -19.333 -5 -28s-2 -17 -2 -25c0 -40 12.667 -68.833 38 -86.5s59.333 -26.5 102 -26.5c30 0 57.5 6.33301 82.5 19s46.667 29.334 65 50.001s32.5 44.167 42.5 70.5s15 52.833 15 79.5c0 32.667 -10.167 59.667 -30.5 81s-49.166 32 -86.499 32
c-14.667 0 -28 -2 -40 -6s-22.667 -9.16699 -32 -15.5s-17.333 -13.5 -24 -21.5s-12 -15.667 -16 -23h-159z" />
    <glyph glyph-name="six" unicode="6" 
d="M486 496c2.66699 12.667 4.00488 25.668 4.00488 39.001c0 34 -10.833 60 -32.5 78s-52.5 27 -92.5 27c-22.667 0 -44.334 -4 -65.001 -12s-39.334 -19.5 -56.001 -34.5s-31.167 -32.833 -43.5 -53.5s-21.166 -43.334 -26.499 -68.001l-21 -98h12
c19.333 27.333 44.5 48.833 75.5 64.5s65.5 23.5 103.5 23.5c26 0 50.333 -4 73 -12s42.5 -19.5 59.5 -34.5s30.333 -33.333 40 -55s14.5 -45.834 14.5 -72.501c0 -42.667 -6.5 -82.334 -19.5 -119.001s-32 -68.5 -57 -95.5s-56 -48.333 -93 -64s-79.5 -23.5 -127.5 -23.5
c-30 0 -57.333 4.66699 -82 14s-45.834 22.333 -63.501 39s-31.5 36.5 -41.5 59.5s-15 48.167 -15 75.5c0 8 0.5 15.833 1.5 23.5s2.16699 15.834 3.5 24.501l53 250c8.66699 40.667 22 76.167 40 106.5s39.5 55.5 64.5 75.5s53 35 84 45s64.167 15 99.5 15
c29.333 0 56.166 -4.16699 80.499 -12.5s45.166 -20.166 62.499 -35.499s30.666 -33.5 39.999 -54.5s14 -43.833 14 -68.5c0 -7.33301 -0.333008 -15 -1 -23s-2 -16 -4 -24h-84zM246.005 60.001c28 0 54.167 5.33301 78.5 16s45.333 25.5 63 44.5s31.667 41 42 66
s15.5 52.167 15.5 81.5c0 38 -11 67.5 -33 88.5s-54 31.5 -96 31.5c-27.333 0 -53 -5.5 -77 -16.5s-45.167 -25.833 -63.5 -44.5s-32.833 -40.5 -43.5 -65.5s-16 -51.5 -16 -79.5c0 -39.333 11.5 -69.5 34.5 -90.5s54.833 -31.5 95.5 -31.5z" />
    <glyph glyph-name="seven" unicode="7" 
d="M119 700l485 -0.000976562v-138l-405 -430c-19.333 -20.667 -34.333 -38.667 -45 -54s-17.667 -32.666 -21 -51.999l-5 -26h-91l6 36c4 24 13.167 46.5 27.5 67.5s35.5 46.5 63.5 76.5l404 430v12h-419v78z" />
    <glyph glyph-name="eight" unicode="8" 
d="M226 -14c-32.667 0 -61.832 3.83105 -87.499 11.498s-47.5 18.5 -65.5 32.5s-31.667 30.667 -41 50s-14 40.666 -14 63.999c0 28 4.5 53.833 13.5 77.5s21.167 44.5 36.5 62.5s33.666 33.167 54.999 45.5s44.666 21.5 69.999 27.5v12
c-22 8.66699 -41.5 23.167 -58.5 43.5s-25.5 45.5 -25.5 75.5c0 34.667 7 65.834 21 93.501s33 51.334 57 71.001s52.167 34.834 84.5 45.501s67.166 16 104.499 16c29.333 0 56 -3.66699 80 -11s44.333 -17.5 61 -30.5s29.5 -28.667 38.5 -47s13.5 -38.166 13.5 -59.499
c0 -23.333 -3.5 -45.333 -10.5 -66s-17 -39.667 -30 -57s-29 -32.333 -48 -45s-40.5 -22.334 -64.5 -29.001v-12c12.667 -4 24.834 -9.66699 36.501 -17s22 -16.333 31 -27s16.333 -23.167 22 -37.5s8.5 -30.166 8.5 -47.499c0 -38.667 -7.16699 -73 -21.5 -103
s-34.333 -55.333 -60 -76s-56.167 -36.334 -91.5 -47.001s-73.666 -16 -114.999 -16zM240.002 61.998c24 0 47.3359 3.33203 70.0029 9.99902s43 16.834 61 30.501s32.333 30.5 43 50.5s16 43.333 16 70c0 34 -11.833 59.333 -35.5 76s-56.5 25 -98.5 25
c-24.667 0 -48.334 -3.5 -71.001 -10.5s-42.834 -17.333 -60.501 -31s-31.834 -30.667 -42.501 -51s-16 -43.833 -16 -70.5c0 -32 11.833 -56.5 35.5 -73.5s56.5 -25.5 98.5 -25.5zM313.005 401.997c21.333 0 42.166 3.33398 62.499 10.001s38.333 16.167 54 28.5
s28.334 27.5 38.001 45.5s14.5 38.333 14.5 61c0 28.667 -10.5 51 -31.5 67s-50.167 24 -87.5 24c-20.667 0 -41.167 -3.16699 -61.5 -9.5s-38.5 -15.5 -54.5 -27.5s-28.833 -26.833 -38.5 -44.5s-14.5 -37.834 -14.5 -60.501c0 -28.667 10.667 -51.5 32 -68.5
s50.333 -25.5 87 -25.5z" />
    <glyph glyph-name="nine" unicode="9" 
d="M123 204c-3.33301 -15.333 -4.99805 -28.667 -4.99805 -40c0 -33.333 10.833 -59 32.5 -77s52.834 -27 93.501 -27c22.667 0 44.334 4 65.001 12s39.334 19.5 56.001 34.5s31.167 32.667 43.5 53s21.166 43.166 26.499 68.499l21 98h-12
c-18 -27.333 -42.167 -48.833 -72.5 -64.5s-65.5 -23.5 -105.5 -23.5c-26.667 0 -51.334 4.16699 -74.001 12.5s-42.5 20.166 -59.5 35.499s-30.333 33.833 -40 55.5s-14.5 45.834 -14.5 72.501c0 42 6.83301 81.167 20.5 117.5s33.167 68 58.5 95s56.166 48.333 92.499 64
s77.166 23.5 122.499 23.5c30 0 57.667 -4.66699 83 -14s47 -22.333 65 -39s32 -36.5 42 -59.5s15 -48.167 15 -75.5c0 -13.333 -1.66699 -29.333 -5 -48l-53 -250c-8.66699 -41.333 -21.834 -77.166 -39.501 -107.499s-38.834 -55.5 -63.501 -75.5
s-52.5 -34.833 -83.5 -44.5s-64.5 -14.5 -100.5 -14.5c-30 0 -57.333 4.16699 -82 12.5s-45.667 20 -63 35s-30.666 33 -39.999 54s-14 43.833 -14 68.5c0 14.667 2 30.667 6 48h84zM363.002 639.999c-28 0 -54.166 -5.33301 -78.499 -16s-45.333 -25.5 -63 -44.5
s-31.667 -41.167 -42 -66.5s-15.5 -52.333 -15.5 -81c0 -38 11 -67.5 33 -88.5s54 -31.5 96 -31.5c26.667 0 52.167 5.5 76.5 16.5s45.666 25.833 63.999 44.5s32.833 40.5 43.5 65.5s16 51.5 16 79.5c0 39.333 -11.5 69.5 -34.5 90.5s-54.833 31.5 -95.5 31.5z" />
    <glyph glyph-name="colon" unicode=":" 
d="M178 56c0 19.333 6.83301 35.833 20.5 49.5s30.167 20.5 49.5 20.5s35.833 -6.83301 49.5 -20.5s20.5 -30.167 20.5 -49.5s-6.83301 -35.833 -20.5 -49.5s-30.167 -20.5 -49.5 -20.5s-35.833 6.83301 -49.5 20.5s-20.5 30.167 -20.5 49.5zM262 440
c0 19.333 6.83301 35.833 20.5 49.5s30.167 20.5 49.5 20.5s35.833 -6.83301 49.5 -20.5s20.5 -30.167 20.5 -49.5s-6.83301 -35.833 -20.5 -49.5s-30.167 -20.5 -49.5 -20.5s-35.833 6.83301 -49.5 20.5s-20.5 30.167 -20.5 49.5z" />
    <glyph glyph-name="semicolon" unicode=";" 
d="M262 440c0 19.333 6.83301 35.833 20.5 49.5s30.167 20.5 49.5 20.5s35.833 -6.83301 49.5 -20.5s20.5 -30.167 20.5 -49.5s-6.83301 -35.833 -20.5 -49.5s-30.167 -20.5 -49.5 -20.5s-35.833 6.83301 -49.5 20.5s-20.5 30.167 -20.5 49.5zM178 56
c0 19.333 6.83203 35.832 20.499 49.499s30.167 20.5 49.5 20.5s35.833 -6.83301 49.5 -20.5s20.5 -30.167 20.5 -49.5c0 -4.66699 -0.333008 -8.66699 -1 -12l-18 -86c-5.33301 -25.333 -15.666 -44.666 -30.999 -57.999s-36 -20 -62 -20h-52v54h59c18.667 0 30 10 34 30
l5 22h-4c-19.333 0 -35.833 6.83301 -49.5 20.5s-20.5 30.167 -20.5 49.5z" />
    <glyph glyph-name="less" unicode="&#x3c;" 
d="M96 274v151l448 145v-84l-418 -131v-11l343 -124v-84z" />
    <glyph glyph-name="equal" unicode="=" 
d="M115 458h418v-72h-418v72zM79 314h418v-72h-418v72z" />
    <glyph glyph-name="greater" unicode="&#x3e;" 
d="M514 432v-151l-448 -145v85l418 131v11l-343 124v83z" />
    <glyph glyph-name="question" unicode="?" 
d="M354 366c20.667 0 39.3311 4.16797 55.998 12.501s30.834 19.5 42.501 33.5s20.667 30.333 27 49s9.5 38 9.5 58c0 32.667 -11 60.334 -33 83.001s-54 34 -96 34c-45.333 0 -83.5 -14.167 -114.5 -42.5s-51.833 -67.5 -62.5 -117.5l-9 -42h-84l10 48
c15.333 71.333 45.833 127.833 91.5 169.5s105.167 62.5 178.5 62.5c30.667 0 58.667 -4.83301 84 -14.5s47 -22.834 65 -39.501s32 -36.334 42 -59.001s15 -47.334 15 -74.001c0 -28.667 -5 -57.167 -15 -85.5s-24.667 -53.666 -44 -75.999s-43.166 -40.5 -71.499 -54.5
s-60.833 -21 -97.5 -21h-12c-20 0 -32 -10 -36 -30l-15 -74h-80l20 94c5.33301 27.333 16.833 48.5 34.5 63.5s41.167 22.5 70.5 22.5h24zM149.997 56.001c0 19.333 6.83301 35.833 20.5 49.5s30.167 20.5 49.5 20.5s35.833 -6.83301 49.5 -20.5s20.5 -30.167 20.5 -49.5
s-6.83301 -35.833 -20.5 -49.5s-30.167 -20.5 -49.5 -20.5s-35.833 6.83301 -49.5 20.5s-20.5 30.167 -20.5 49.5z" />
    <glyph glyph-name="at" unicode="@" 
d="M105 510l0.00292969 72.001h306c28 0 52.667 -3.66699 74 -11s39.166 -17.5 53.499 -30.5s25.166 -28.667 32.499 -47s11 -38.166 11 -59.499c0 -12.667 -1.66699 -27.334 -5 -44.001l-66 -312c-5.33301 -24 -16.333 -43 -33 -57s-37 -21 -61 -21h-80
c-21.333 0 -36.5 4.83301 -45.5 14.5s-13.5 21.5 -13.5 35.5c0 4 0.666992 9.33301 2 16h-12c-11.333 -25.333 -28.333 -45 -51 -59s-50 -21 -82 -21c-40.667 0 -72.667 14.333 -96 43s-35 66 -35 112c0 35.333 4.66699 70.666 14 105.999s23.333 67.166 42 95.499
s42.167 51.333 70.5 69s61.166 26.5 98.499 26.5c30 0 52.833 -6 68.5 -18s25.5 -28.667 29.5 -50h12l11 54h78l-68 -322c-0.666992 -3.33301 -1 -5.66602 -1 -6.99902v-4c0 -12.667 7 -19 21 -19h24c18.667 0 30 10 34 30l60 284c3.33301 15.333 5 28.333 5 39
c0 26.667 -8 47.5 -24 62.5s-42 22.5 -78 22.5h-296zM166.003 60.001c27.333 0 50.3301 6.99805 68.9971 20.998s33.834 31.667 45.501 53s20 44.666 25 69.999s7.5 49.333 7.5 72c0 25.333 -6 46.333 -18 63s-33.333 25 -64 25c-24 0 -45.167 -6.66699 -63.5 -20
s-33.666 -30.166 -45.999 -50.499s-21.666 -42.666 -27.999 -66.999s-9.5 -47.833 -9.5 -70.5c0 -29.333 6.83301 -52.666 20.5 -69.999s34.167 -26 61.5 -26z" />
    <glyph glyph-name="A" unicode="A" 
d="M419 174h-281l-85 -174h-95l347 700h160l50 -700h-85zM176 252h238l-26 411h-12z" />
    <glyph glyph-name="B" unicode="B" 
d="M2 78l65.999 0.000976562l115 544h-66v78h276c60.667 0 106.167 -15.5 136.5 -46.5s45.5 -70.5 45.5 -118.5c0 -20 -3.66699 -39.667 -11 -59s-17.666 -36.833 -30.999 -52.5s-29.833 -29.334 -49.5 -41.001s-41.5 -20.167 -65.5 -25.5v-12c28 -8 49.667 -23.5 65 -46.5
s23 -49.5 23 -79.5c0 -32 -6.33301 -61.5 -19 -88.5s-30 -50.167 -52 -69.5s-48.333 -34.333 -79 -45s-64 -16 -100 -16h-254v78zM151.999 78.001l114.999 -0.000976562c22 0 42.833 3.33301 62.5 10s36.834 16.167 51.501 28.5s26.167 27 34.5 44s12.5 35.5 12.5 55.5
c0 30.667 -9.66699 54.334 -29 71.001s-46 25 -80 25h-118zM217.998 390l117.998 -0.000976562c20 0 39.5 3.16699 58.5 9.5s35.833 15.5 50.5 27.5s26.334 26.833 35.001 44.5s13 37.834 13 60.501c0 28 -9.66699 50 -29 66s-46.666 24 -81.999 24h-115z" />
    <glyph glyph-name="C" unicode="C" 
d="M248 64c28.667 0 53.833 4.33105 75.5 12.998s40.167 20.667 55.5 36s28.166 33.833 38.499 55.5s18.833 45.5 25.5 71.5l3 12h84l-3 -12c-10 -40 -22.5 -75.833 -37.5 -107.5s-33.667 -58.334 -56 -80.001s-49.5 -38.167 -81.5 -49.5s-70 -17 -114 -17
c-32.667 0 -61.334 4.66699 -86.001 14s-45.5 22.5 -62.5 39.5s-29.833 37.167 -38.5 60.5s-13 49.333 -13 78c0 14 0.833008 28.833 2.5 44.5s4.16699 32.167 7.5 49.5l33 156c20 94.667 54.833 166 104.5 214s115.167 72 196.5 72c32 0 60.5 -4.66699 85.5 -14
s46 -22.166 63 -38.499s30 -36 39 -59s13.5 -47.833 13.5 -74.5c0 -21.333 -3 -44 -9 -68l-3 -12h-84l3 12c3.33301 12.667 5.5 23.834 6.5 33.501s1.5 19.167 1.5 28.5c0 35.333 -10.167 63.5 -30.5 84.5s-53.166 31.5 -98.499 31.5c-26.667 0 -51 -5.33301 -73 -16
s-41.667 -25.5 -59 -44.5s-32.166 -41.667 -44.499 -68s-21.833 -55.5 -28.5 -87.5l-31 -144c-3.33301 -15.333 -5.83301 -29.666 -7.5 -42.999s-2.5 -26 -2.5 -38c0 -44.667 10 -78 30 -100s51.667 -33 95 -33z" />
    <glyph glyph-name="D" unicode="D" 
d="M115 700h243.001c70.667 0 124 -15.833 160 -47.5s54 -77.5 54 -137.5c0 -12.667 -0.833008 -25.667 -2.5 -39s-4.16699 -27.333 -7.5 -42l-38 -174c-10 -47.333 -22.333 -87.5 -37 -120.5s-33.334 -59.833 -56.001 -80.5s-50.5 -35.667 -83.5 -45
s-73.167 -14 -120.5 -14h-227v78h66l115 544h-66v78zM226.001 78c30.667 0 57.834 3.00098 81.501 9.00098s44.167 16.167 61.5 30.5s32 33.5 44 57.5s21.667 54.333 29 91l35 168c3.33301 17.333 5.66602 31.666 6.99902 42.999s2 22.333 2 33c0 42.667 -12 72 -36 88
s-60.333 24 -109 24h-76l-115 -544h76z" />
    <glyph glyph-name="E" unicode="E" 
d="M177 700h395v-78h-328l-49 -232h305v-78h-322l-49 -234h317v-78h-418z" />
    <glyph glyph-name="F" unicode="F" 
d="M174 700h401v-78h-334l-49 -232h311v-78h-328l-66 -312h-84z" />
    <glyph glyph-name="G" unicode="G" 
d="M242 336l306 -0.00195312l-72 -336h-80l20 84h-12c-17.333 -29.333 -41.666 -53 -72.999 -71s-67.333 -27 -108 -27c-28 0 -53.667 4.16699 -77 12.5s-43.5 20.833 -60.5 37.5s-30.167 37.334 -39.5 62.001s-14 53 -14 85c0 13.333 0.666992 27 2 41s4 30 8 48l33 156
c19.333 93.333 54.666 164.333 105.999 213s117.666 73 198.999 73c32 0 60.5 -4.83301 85.5 -14.5s46 -23.167 63 -40.5s30 -37.833 39 -61.5s13.5 -49.5 13.5 -77.5c0 -21.333 -2.33301 -41.333 -7 -60l-3 -12h-84l3 12c4.66699 18.667 7 37.334 7 56.001
c0 35.333 -10.5 64.5 -31.5 87.5s-54.167 34.5 -99.5 34.5c-27.333 0 -52.166 -5.33301 -74.499 -16s-42.333 -25.5 -60 -44.5s-32.667 -41.667 -45 -68s-21.833 -55.5 -28.5 -87.5l-31 -144c-6 -30 -9 -56.667 -9 -80c0 -44 10.333 -77.667 31 -101s52.667 -35 96 -35
c50.667 0 93 15.667 127 47s57.667 73 71 125l6 24h-207v78z" />
    <glyph glyph-name="H" unicode="H" 
d="M156 700h86l-66 -310h276l66 310h86l-149 -700h-86l66 312h-276l-66 -312h-85z" />
    <glyph glyph-name="I" unicode="I" 
d="M147 700h432v-78h-174l-115 -544h174v-78h-432v78h174l115 544h-174v78z" />
    <glyph glyph-name="J" unicode="J" 
d="M622 622l-65.998 0.000976562l-89 -416c-7.33301 -34.667 -17.5 -65.5 -30.5 -92.5s-29.667 -50 -50 -69s-44.5 -33.5 -72.5 -43.5s-60.667 -15 -98 -15c-58.667 0 -104.334 15.333 -137.001 46s-49 71.667 -49 123c0 17.333 2 35.666 6 54.999l12 54h84l-12 -54
c-4 -18 -6 -34.667 -6 -50c0 -64 37.667 -96 113 -96c46.667 0 82.167 13.5 106.5 40.5s41.166 62.167 50.499 105.5l88 412h-78v78h228v-78z" />
    <glyph glyph-name="K" unicode="K" 
d="M91 0h-86l149 700h86l-66 -310h26l315 310h97v-12l-337 -332v-12l218 -338v-6h-95l-201 312h-40z" />
    <glyph glyph-name="L" unicode="L" 
d="M173 700h84l-132 -622h360v-78h-461z" />
    <glyph glyph-name="M" unicode="M" 
d="M132 700h159l-58 -664h12l219 664h164l-149 -700h-78l141 664h-12l-219 -664h-154l57 664h-12l-141 -664h-77z" />
    <glyph glyph-name="N" unicode="N" 
d="M364 36h12l141 664h84l-149 -700h-165l-40 664h-12l-141 -664h-84l149 700h165z" />
    <glyph glyph-name="O" unicode="O" 
d="M77 428c19.333 93.333 53.5 164.333 102.5 213s114.833 73 197.5 73c64.667 0 114.167 -18.5 148.5 -55.5s51.5 -88.167 51.5 -153.5c0 -13.333 -0.833008 -27.5 -2.5 -42.5s-4.16699 -30.167 -7.5 -45.5l-31 -145c-19.333 -93.333 -53.5 -164.333 -102.5 -213
s-114.833 -73 -197.5 -73c-64.667 0 -114.167 18.5 -148.5 55.5s-51.5 88.167 -51.5 153.5c0 13.333 0.833008 27.5 2.5 42.5s4.16699 30.167 7.5 45.5zM248 62c27.333 0 52.167 5.16602 74.5 15.499s42 25 59 44s31.333 41.667 43 68s21.167 55.833 28.5 88.5l32 150
c5.33301 26.667 8 50 8 70c0 43.333 -10.667 77.5 -32 102.5s-53.333 37.5 -96 37.5c-55.333 0 -99.833 -19.667 -133.5 -59s-57.5 -91.666 -71.5 -156.999l-32 -150c-5.33301 -26.667 -8 -50 -8 -70c0 -43.333 10.667 -77.5 32 -102.5s53.333 -37.5 96 -37.5z" />
    <glyph glyph-name="P" unicode="P" 
d="M157 288l-60.999 -287.999h-84l149 700h228c30 0 56.833 -4.16699 80.5 -12.5s43.667 -19.833 60 -34.5s29 -32.334 38 -53.001s13.5 -43 13.5 -67c0 -34.667 -6 -67 -18 -97s-29.5 -56 -52.5 -78s-50.833 -39.167 -83.5 -51.5s-69.334 -18.5 -110.001 -18.5h-160z
M174.001 366.001h150c24.667 0 47.5 3.5 68.5 10.5s39 17 54 30s26.833 29 35.5 48s13 40.167 13 63.5c0 35.333 -10.167 61.5 -30.5 78.5s-49.5 25.5 -87.5 25.5h-149z" />
    <glyph glyph-name="Q" unicode="Q" 
d="M77 428c19.333 93.333 53.502 164.333 102.502 213s114.833 73 197.5 73c64.667 0 114.167 -18.5 148.5 -55.5s51.5 -88.167 51.5 -153.5c0 -13.333 -0.833008 -27.5 -2.5 -42.5s-4.16699 -30.167 -7.5 -45.5l-31 -145c-18.667 -88.667 -50.334 -157 -95.001 -205
s-104.334 -74.667 -179.001 -80l-9 -41c-0.666992 -3.33301 -1 -5.5 -1 -6.5v-3.5c0 -13.333 7.33301 -20 22 -20h84v-72h-114c-21.333 0 -39 6.66699 -53 20s-21 30.333 -21 51v8c0 2 0.666992 5.66699 2 11l12 57c-48 9.33301 -84.667 31.5 -110 66.5
s-38 80.833 -38 137.5c0 13.333 0.833008 27.5 2.5 42.5s4.16699 30.167 7.5 45.5zM248.002 62c27.333 0 52.167 5.16602 74.5 15.499s42 25 59 44s31.333 41.667 43 68s21.167 55.833 28.5 88.5l32 150c5.33301 26.667 8 50 8 70c0 43.333 -10.667 77.5 -32 102.5
s-53.333 37.5 -96 37.5c-55.333 0 -99.833 -19.667 -133.5 -59s-57.5 -91.666 -71.5 -156.999l-32 -150c-5.33301 -26.667 -8 -50 -8 -70c0 -43.333 10.667 -77.5 32 -102.5s53.333 -37.5 96 -37.5z" />
    <glyph glyph-name="R" unicode="R" 
d="M448 0l-84.001 0.00195312l50 234c1.33301 5.33301 2 11.666 2 18.999c0 11.333 -3.16699 20 -9.5 26s-17.166 9 -32.499 9h-221l-61 -288h-84l149 700h237c59.333 0 105.5 -15 138.5 -45s49.5 -72 49.5 -126c0 -44 -11.667 -82 -35 -114s-55 -56.333 -95 -73v-12
c16.667 -1.33301 29.667 -6.83301 39 -16.5s14 -22.834 14 -39.501c0 -6 -1 -13.333 -3 -22zM169.999 366.002l154.001 0.000976562c24.667 0 47.667 3.83301 69 11.5s39.666 18.5 54.999 32.5s27.333 30.333 36 49s13 39 13 61c0 33.333 -10 58.666 -30 75.999
s-49.667 26 -89 26h-154z" />
    <glyph glyph-name="S" unicode="S" 
d="M497 488c2.66699 13.333 3.99805 24.6719 3.99805 34.0049c0 19.333 -3.66699 36.166 -11 50.499s-17.5 26.166 -30.5 35.499s-28 16.333 -45 21s-35.167 7 -54.5 7c-22 0 -43.667 -2.66699 -65 -8s-40.333 -13.333 -57 -24s-30.167 -23.5 -40.5 -38.5
s-15.5 -32.5 -15.5 -52.5c0 -19.333 3.83301 -35.5 11.5 -48.5s18.834 -24 33.501 -33s32.5 -16.333 53.5 -22s45.167 -10.834 72.5 -15.501c61.333 -10 106.333 -29.833 135 -59.5s43 -68.834 43 -117.501c0 -37.333 -7.16699 -70.333 -21.5 -99
s-34.166 -52.834 -59.499 -72.501s-55.166 -34.5 -89.499 -44.5s-71.5 -15 -111.5 -15c-38 0 -71.5 4.83301 -100.5 14.5s-53 23.167 -72 40.5s-33.333 37.833 -43 61.5s-14.5 49.834 -14.5 78.501c0 19.333 2 39.666 6 60.999l6 30h84l-5 -24c-4 -20 -6 -38.333 -6 -55
c0 -44 13.333 -76.5 40 -97.5s65 -31.5 115 -31.5c24 0 47.167 3.33301 69.5 10s42 16.167 59 28.5s30.667 27.333 41 45s15.5 37.5 15.5 59.5c0 18.667 -2.83301 34.5 -8.5 47.5s-14.834 24 -27.501 33s-29.167 16.5 -49.5 22.5s-44.833 11.333 -73.5 16
c-28 4.66699 -53.5 11.334 -76.5 20.001s-42.833 20 -59.5 34s-29.667 30.833 -39 50.5s-14 42.834 -14 69.501c0 34 7 64.333 21 91s33.167 49 57.5 67s53 31.833 86 41.5s68.5 14.5 106.5 14.5c34.667 0 65.667 -4.66699 93 -14s50.333 -22 69 -38s33 -34.667 43 -56
s15 -44 15 -68c0 -6.66699 -0.333008 -13.334 -1 -20.001s-1.66699 -13.334 -3 -20.001l-8 -36h-84z" />
    <glyph glyph-name="T" unicode="T" 
d="M103 700h503v-78h-203l-132 -622h-84l132 622h-216v78z" />
    <glyph glyph-name="U" unicode="U" 
d="M226 700l-98 -463.998c-2 -10.667 -3.66699 -20.834 -5 -30.501s-2 -18.834 -2 -27.501c0 -77.333 41 -116 123 -116c50 0 91.167 14.667 123.5 44s54.5 72.666 66.5 129.999l98 464h84l-98 -464c-17.333 -83.333 -48.833 -145.833 -94.5 -187.5
s-109.5 -62.5 -191.5 -62.5c-28.667 0 -55 4 -79 12s-44.5 19.833 -61.5 35.5s-30.333 34.834 -40 57.501s-14.5 49 -14.5 79c0 11.333 0.5 22.833 1.5 34.5s3.16699 24.167 6.5 37.5l97 458h84z" />
    <glyph glyph-name="V" unicode="V" 
d="M102 700h84l30 -664h12l312 664h95l-335 -700h-161z" />
    <glyph glyph-name="W" unicode="W" 
d="M450 0h-154l81 664h-12l-199 -664h-154l83 700h76l-79 -664h12l196 664h156l-84 -664h12l202 664h78z" />
    <glyph glyph-name="X" unicode="X" 
d="M211 700l91 -310h18l219 310h95v-6l-247 -344v-12l102 -338h-86l-91 312h-18l-219 -312h-94v6l246 344v12l-102 338h86z" />
    <glyph glyph-name="Y" unicode="Y" 
d="M236 246h-18l-122 454h87l98 -382h12l260 382h97v-6l-312 -448h-18l-52 -246h-84z" />
    <glyph glyph-name="Z" unicode="Z" 
d="M134 700h458v-126l-515 -484v-12h422v-78h-494v126l515 484v12h-386v78z" />
    <glyph glyph-name="bracketleft" unicode="[" 
d="M358 778c5.33301 24 16 43 32 57s36.667 21 62 21h82v-72h-69c-18.667 0 -30 -10 -34 -30l-177 -808c-0.666992 -2 -1 -4.33301 -1 -7v-3c0 -13.333 7.66699 -20 23 -20h67v-72h-89c-24 0 -43.667 5.83301 -59 17.5s-23 29.167 -23 52.5c0 8 1 16.667 3 26z" />
    <glyph glyph-name="backslash" unicode="\" 
d="M397 -97l-73 -9l-104 903l72 9z" />
    <glyph glyph-name="bracketright" unicode="]" 
d="M257 -78c-5.33301 -24 -16 -42.999 -32 -56.999s-36.667 -21 -62 -21h-82v72h69c18.667 0 30 10 34 30l177 808c0 1.33301 0.166992 2.5 0.5 3.5s0.5 2.16699 0.5 3.5v3c0 13.333 -7.66699 20 -23 20h-67v72h89c24 0 43.667 -5.83301 59 -17.5s23 -29.167 23 -52.5
c0 -8.66699 -1 -17.334 -3 -26.001z" />
    <glyph glyph-name="asciicircum" unicode="^" 
d="M546 424h-89l-84 246h-12l-182 -246h-96v6l217 270h148z" />
    <glyph glyph-name="underscore" unicode="_" 
d="M4 -48h466v-72h-466v72z" />
    <glyph glyph-name="grave" unicode="`" 
d="M376 688l41 -118h-66l-59 118h84z" />
    <glyph glyph-name="a" unicode="a" 
d="M347 78c-20.667 -35.333 -45.1699 -59.498 -73.5029 -72.498s-58.166 -19.5 -89.499 -19.5c-26.667 0 -50.667 4.83301 -72 14.5s-39.333 23.167 -54 40.5s-26 38.166 -34 62.499s-12 51.166 -12 80.499c0 42 6 82.667 18 122s29.5 74 52.5 104s51.5 54.167 85.5 72.5
s73.333 27.5 118 27.5c34 0 63 -7.83301 87 -23.5s39.667 -38.5 47 -68.5h12l16 78h78l-88 -412c-1.33301 -6 -0.666016 -10.5 2.00098 -13.5s6.33398 -4.5 11.001 -4.5s9.33398 1.66699 14.001 5l36 26l42 -59l-45 -34c-7.33301 -5.33301 -16.5 -9.66602 -27.5 -12.999
s-22.167 -5 -33.5 -5c-10 0 -19.667 1.33301 -29 4s-17.833 6.83398 -25.5 12.501s-13.834 13 -18.501 22s-7 20.167 -7 33.5c0 3.33301 0.166992 6.66602 0.5 9.99902s0.833008 6.66602 1.5 9.99902h-12zM207.997 60.002c26.667 0 51.834 6.16504 75.501 18.498
s44.334 29.166 62.001 50.499s31.5 46.5 41.5 75.5s15 60.5 15 94.5c0 41.333 -9.33301 74.5 -28 99.5s-47.667 37.5 -87 37.5c-31.333 0 -58.833 -6.66699 -82.5 -20s-43.834 -31.166 -60.501 -53.499s-29.167 -48.166 -37.5 -77.499s-12.5 -59.666 -12.5 -90.999
c0 -44 9.66699 -77.333 29 -100s47.666 -34 84.999 -34z" />
    <glyph glyph-name="b" unicode="b" 
d="M264 714l-63.001 -295.999h12c18.667 27.333 42.667 49.5 72 66.5s63.666 25.5 102.999 25.5c26 0 50.167 -4.5 72.5 -13.5s41.5 -22 57.5 -39s28.667 -37.333 38 -61s14 -49.834 14 -78.501c0 -51.333 -7.33301 -97.333 -22 -138s-34.667 -75.5 -60 -104.5
s-55.166 -51.167 -89.499 -66.5s-71.166 -23 -110.499 -23c-31.333 0 -61 7.5 -89 22.5s-47.333 37.5 -58 67.5h-12l-16 -76h-77l151 714h77zM285.999 60.001c27.333 0 53.333 5.83301 78 17.5s46.167 28.167 64.5 49.5s32.833 47 43.5 77s16 63 16 99
c0 40.667 -10.833 73 -32.5 97s-52.5 36 -92.5 36c-29.333 0 -56.333 -6.33301 -81 -19s-46 -30 -64 -52s-32 -47.333 -42 -76s-15 -59 -15 -91c0 -44 11 -78 33 -102s52.667 -36 92 -36z" />
    <glyph glyph-name="c" unicode="c" 
d="M510 170c-8.66699 -25.333 -20.6689 -49.1611 -36.002 -71.4941s-34.5 -41.833 -57.5 -58.5s-49.667 -29.834 -80 -39.501s-64.5 -14.5 -102.5 -14.5c-31.333 0 -59.833 4.83301 -85.5 14.5s-47.5 23.5 -65.5 41.5s-32 39.667 -42 65s-15 53.666 -15 84.999
c0 43.333 7.5 84.333 22.5 123s36.167 72.5 63.5 101.5s60.333 51.833 99 68.5s81.667 25 129 25c30.667 0 58.334 -4.33301 83.001 -13s45.667 -20.834 63 -36.501s30.666 -34.334 39.999 -56.001s14 -45.5 14 -71.5v-4.5c0 -1.66699 -0.333008 -5.16699 -1 -10.5l-80 -12
c0.666992 4 1 7 1 9v7c0 16 -2.5 30.833 -7.5 44.5s-13 25.667 -24 36s-25 18.5 -42 24.5s-37.167 9 -60.5 9c-31.333 0 -60.166 -6.33301 -86.499 -19s-49.333 -29.834 -69 -51.501s-35 -46.834 -46 -75.501s-16.5 -58.667 -16.5 -90c0 -47.333 12.667 -82.5 38 -105.5
s60 -34.5 104 -34.5c26.667 0 50.334 3.83301 71.001 11.5s38.667 17.667 54 30s28 26.5 38 42.5s17.667 32.667 23 50z" />
    <glyph glyph-name="d" unicode="d" 
d="M351 78c-21.333 -35.333 -46.668 -59.499 -76.001 -72.499s-60.333 -19.5 -93 -19.5c-26.667 0 -51 4.66699 -73 14s-40.667 22.5 -56 39.5s-27.333 37.667 -36 62s-13 51.166 -13 80.499c0 41.333 6.33301 81.666 19 120.999s31 74.333 55 105s53.5 55.334 88.5 74.001
s75.167 28 120.5 28c35.333 0 64.833 -7.33301 88.5 -22s39.834 -38 48.501 -70h12l62 296h78l-134 -630c-2 -12 2.33301 -18 13 -18c4 0 8.33301 1.66699 13 5l36 26l43 -59l-45 -34c-7.33301 -5.33301 -16.166 -9.66602 -26.499 -12.999s-21.833 -5 -34.5 -5
c-10 0 -19.667 1.33301 -29 4s-17.833 6.83398 -25.5 12.501s-13.834 13 -18.501 22s-7 20.167 -7 33.5c0 3.33301 0.166992 6.66602 0.5 9.99902s0.833008 6.66602 1.5 9.99902h-12zM205.998 60.001c26.667 0 52.166 6.16602 76.499 18.499s45.666 29.166 63.999 50.499
s32.833 46.5 43.5 75.5s16 60.5 16 94.5c0 41.333 -10.333 74.5 -31 99.5s-50.667 37.5 -90 37.5c-31.333 0 -59.166 -6.83301 -83.499 -20.5s-45.166 -31.667 -62.499 -54s-30.5 -48.166 -39.5 -77.499s-13.5 -59.666 -13.5 -90.999c0 -88.667 40 -133 120 -133z" />
    <glyph glyph-name="e" unicode="e" 
d="M112 224c-1.33301 -5.33301 -2.33008 -11.332 -2.99707 -17.999s-1 -13.667 -1 -21c0 -36.667 10.667 -66.834 32 -90.501s55.333 -35.5 102 -35.5c23.333 0 44.166 2.66699 62.499 8s34.166 12.833 47.499 22.5s24.833 20.667 34.5 33s17.834 25.5 24.501 39.5l64 -36
c-9.33301 -19.333 -21 -37.5 -35 -54.5s-30.667 -31.833 -50 -44.5s-41.666 -22.667 -66.999 -30s-54.333 -11 -87 -11c-30 0 -57.5 4.5 -82.5 13.5s-46.5 22 -64.5 39s-32 37.833 -42 62.5s-15 52.667 -15 84c0 42 6.66699 82.5 20 121.5s32.666 73.5 57.999 103.5
s56.666 54.167 93.999 72.5s79.666 27.5 126.999 27.5c33.333 0 62.333 -5.16699 87 -15.5s45 -24.333 61 -42s28 -37.667 36 -60s12 -45.5 12 -69.5c0 -18 -2 -35.333 -6 -52l-11 -47h-398zM321.003 436.001c-23.333 0 -45.166 -3.5 -65.499 -10.5
s-38.833 -16.833 -55.5 -29.5s-31 -27.5 -43 -44.5s-21.333 -35.5 -28 -55.5h318c2 10.667 3 20.667 3 30c0 36 -12.333 63.333 -37 82s-55.334 28 -92.001 28z" />
    <glyph glyph-name="f" unicode="f" 
d="M526 496l0.00390625 -72.002h-189l-120 -562c-5.33301 -25.333 -15.833 -44 -31.5 -56s-32.834 -18 -51.501 -18c-21.333 0 -38.5 4.33301 -51.5 13s-24.167 20.334 -33.5 35.001l-44 71l61 39l42 -67c4.66699 -8 10.667 -12 18 -12c5.33301 0 9.16602 1.5 11.499 4.5
s4.16602 6.5 5.49902 10.5l116 542h-153v72h169l26 126c5.33301 22.667 16.666 41.334 33.999 56.001s37.333 22 60 22h179v-72h-166c-18.667 0 -30 -10 -34 -30l-21 -102h173z" />
    <glyph glyph-name="g" unicode="g" 
d="M395 70l-11.999 0.000976562c-19.333 -28 -43.5 -49 -72.5 -63s-60.833 -21 -95.5 -21c-28.667 0 -54.834 4.83301 -78.501 14.5s-43.834 23.167 -60.501 40.5s-29.5 38.333 -38.5 63s-13.5 52 -13.5 82c0 46 6.83301 88.667 20.5 128s33 73.5 58 102.5
s55 51.833 90 68.5s73.5 25 115.5 25c39.333 0 71.833 -8.5 97.5 -25.5s42.5 -39.167 50.5 -66.5h12l17 78h78l-131 -618c-5.33301 -22.667 -16.666 -41.334 -33.999 -56.001s-37.333 -22 -60 -22h-302v72h289c18.667 0 30 10 34 30zM232.001 60.001
c30.667 0 58.667 6.83105 84 20.498s47.166 31.667 65.499 54s32.5 47.833 42.5 76.5s15 57.667 15 87c0 41.333 -11.667 74.666 -35 99.999s-54.666 38 -93.999 38c-31.333 0 -59.666 -6.66699 -84.999 -20s-46.833 -31.166 -64.5 -53.499s-31.334 -48.166 -41.001 -77.499
s-14.5 -59.666 -14.5 -90.999c0 -41.333 10.833 -74 32.5 -98s53.167 -36 94.5 -36z" />
    <glyph glyph-name="h" unicode="h" 
d="M428 294c2 9.33301 3.5 17.498 4.5 24.498s1.5 14.167 1.5 21.5c0 34.667 -10.167 59.334 -30.5 74.001s-45.5 22 -75.5 22c-45.333 0 -82.833 -16.167 -112.5 -48.5s-50.167 -75.5 -61.5 -129.5l-55 -258h-77l152 714h75l-60 -292h12
c16.667 31.333 38.334 53.833 65.001 67.5s56.667 20.5 90 20.5c44 0 80.5 -13.833 109.5 -41.5s43.5 -66.5 43.5 -116.5c0 -21.333 -2.33301 -42.666 -7 -63.999l-44 -209c-2 -10 2.33301 -15 13 -15c4 0 8 1.66699 12 5l39 28l42 -59l-46 -33
c-18 -12.667 -38.333 -19 -61 -19c-20.667 0 -38.834 6 -54.501 18s-23.5 30.667 -23.5 56c0 7.33301 1 16 3 26z" />
    <glyph glyph-name="i" unicode="i" 
d="M303 644c0 19.333 6.83301 35.833 20.5 49.5s30.167 20.5 49.5 20.5s35.833 -6.83301 49.5 -20.5s20.5 -30.167 20.5 -49.5s-6.83301 -35.833 -20.5 -49.5s-30.167 -20.5 -49.5 -20.5s-35.833 6.83301 -49.5 20.5s-20.5 30.167 -20.5 49.5zM287 409
c1.33301 6.66699 0.499023 12.5 -2.50098 17.5s-8.16699 7.5 -15.5 7.5c-5.33301 0 -10.333 -1.33301 -15 -4l-117 -80l-40 59l118 80c20.667 14 43 21 67 21c22.667 0 42.334 -6.66699 59.001 -20s25 -34 25 -62c0 -10.667 -1.33301 -21.334 -4 -32.001l-74 -309
c-2 -8 -1.16699 -14.333 2.5 -19s8.5 -7 14.5 -7c4.66699 0 9.66699 1.66699 15 5l115 78l40 -59l-115 -78c-21.333 -14 -43.666 -21 -66.999 -21c-22.667 0 -42.334 6.66699 -59.001 20s-25 34 -25 62c0 10.667 1.33301 21.334 4 32.001z" />
    <glyph glyph-name="j" unicode="j" 
d="M361 644c0 19.333 6.83301 35.833 20.5 49.5s30.167 20.5 49.5 20.5s35.833 -6.83301 49.5 -20.5s20.5 -30.167 20.5 -49.5s-6.83301 -35.833 -20.5 -49.5s-30.167 -20.5 -49.5 -20.5s-35.833 6.83301 -49.5 20.5s-20.5 30.167 -20.5 49.5zM316 -122
c-4.66699 -22.667 -15.667 -41.333 -33 -56s-37.333 -22 -60 -22h-223v72h210c18 0 29 10 33 30l109 510c1.33301 7.33301 0.333008 12.833 -3 16.5s-7.33301 5.5 -12 5.5c-4 0 -8 -1.33301 -12 -4l-117 -80l-40 59l118 80c20.667 14 41.667 21 63 21c22 0 41 -7.5 57 -22.5
s24 -35.167 24 -60.5c0 -7.33301 -1 -16 -3 -26z" />
    <glyph glyph-name="k" unicode="k" 
d="M279 713l-89.002 -423h12l248 218l48 -51l-221 -194v-18l129 -176c4 -4.66699 8.33301 -7 13 -7c4 0 8.33301 1.66699 13 5l48 35l42 -59l-45 -34c-9.33301 -7.33301 -19 -13 -29 -17s-20.667 -6 -32 -6c-13.333 0 -26.166 3.33301 -38.499 10s-24.166 17.667 -35.499 33
l-138 189h-30l-46 -218h-78l151 713h78z" />
    <glyph glyph-name="l" unicode="l" 
d="M304 614c2 8 1.16797 14.168 -2.49902 18.501s-8.83398 6.5 -15.501 6.5c-4.66699 0 -9.66699 -1.66699 -15 -5l-117 -80l-40 59l118 80c10.667 7.33301 21.667 12.666 33 15.999s22.666 5 33.999 5c22 0 41.5 -6.66699 58.5 -20s25.5 -34 25.5 -62
c0 -11.333 -1.33301 -22 -4 -32l-121 -513c-2 -8 -1.16699 -14.333 2.5 -19s8.5 -7 14.5 -7c4.66699 0 9.66699 1.66699 15 5l115 78l40 -59l-115 -78c-21.333 -14 -43.666 -21 -66.999 -21c-22 0 -41.5 6.66699 -58.5 20s-25.5 34 -25.5 62c0 11.333 1.33301 22 4 32z" />
    <glyph glyph-name="m" unicode="m" 
d="M476 372c0.666992 3.33301 1.16797 6.33398 1.50098 9.00098s0.5 5.66699 0.5 9c0 13.333 -3.66699 24.333 -11 33s-18.666 13 -33.999 13c-19.333 0 -34.5 -6.66699 -45.5 -20s-19.167 -32 -24.5 -56l-77 -360h-78l79 372c1.33301 6.66699 2 13.667 2 21
c0 12 -3.16699 22.167 -9.5 30.5s-17.833 12.5 -34.5 12.5c-21.333 0 -37.333 -7.66699 -48 -23s-18.334 -33 -23.001 -53l-77 -360h-77l105 496h78l-9 -42h12c7.33301 19.333 18.666 33.5 33.999 42.5s32.333 13.5 51 13.5c20.667 0 37.5 -5 50.5 -15
s21.167 -23.667 24.5 -41h12c9.33301 18 21.333 31.833 36 41.5s32.667 14.5 54 14.5c30 0 52.667 -8.83301 68 -26.5s23 -40.834 23 -69.501c0 -6 -0.333008 -12.5 -1 -19.5s-1.66699 -13.167 -3 -18.5l-64 -298c-1.33301 -5.33301 -0.666016 -9.33301 2.00098 -12
s6 -4 10 -4s7.66699 1.33301 11 4l42 31l42 -59l-45 -34c-7.33301 -5.33301 -16.5 -9.66602 -27.5 -12.999s-22.167 -5 -33.5 -5c-10 0 -19.667 1.33301 -29 4s-17.833 6.83398 -25.5 12.501s-13.834 13 -18.501 22s-7 20.167 -7 33.5
c0 3.33301 0.166992 6.66602 0.5 9.99902s0.833008 6.66602 1.5 9.99902z" />
    <glyph glyph-name="n" unicode="n" 
d="M413 298c2 9.33301 3.33496 17.165 4.00195 23.498s1 12.833 1 19.5c0 32 -9.5 55.833 -28.5 71.5s-45.5 23.5 -79.5 23.5c-45.333 0 -82.333 -16.167 -111 -48.5s-48.334 -73.5 -59.001 -123.5l-56 -264h-78l106 496h78l-15 -72h12c16.667 30 38.5 51.833 65.5 65.5
s55.5 20.5 85.5 20.5c21.333 0 41.666 -3.5 60.999 -10.5s36.166 -17.167 50.499 -30.5s25.666 -29.666 33.999 -48.999s12.5 -41.666 12.5 -66.999c0 -16.667 -2 -34.334 -6 -53.001l-48 -222c-1.33301 -5.33301 -0.666016 -9.33301 2.00098 -12s6 -4 10 -4
s7.66699 1.33301 11 4l42 31l42 -59l-39 -29c-20 -15.333 -42.333 -23 -67 -23c-10 0 -19.667 1.16699 -29 3.5s-17.666 6.33301 -24.999 12s-13.333 13.167 -18 22.5s-7 21 -7 35c0 8.66699 1.33301 19.334 4 32.001z" />
    <glyph glyph-name="o" unicode="o" 
d="M329 510c28.667 0 55.334 -5.00098 80.001 -15.001s46 -24 64 -42s32.167 -39.5 42.5 -64.5s15.5 -52.5 15.5 -82.5c0 -41.333 -6.83301 -81.166 -20.5 -119.499s-33.667 -72.333 -60 -102s-58.666 -53.5 -96.999 -71.5s-81.833 -27 -130.5 -27
c-28 0 -54.333 4.83301 -79 14.5s-46.167 23.167 -64.5 40.5s-32.833 38.5 -43.5 63.5s-16 52.833 -16 83.5c0 48 8.16699 91.833 24.5 131.5s38.666 73.5 66.999 101.5s61.166 49.833 98.499 65.5s77 23.5 119 23.5zM240 59.999c30.667 0 59 6.83203 85 20.499
s48.333 31.667 67 54s33.167 47.833 43.5 76.5s15.5 58.334 15.5 89.001c0 39.333 -12.167 71.833 -36.5 97.5s-58.5 38.5 -102.5 38.5c-28.667 0 -55.667 -6.33301 -81 -19s-47.5 -30 -66.5 -52s-34.167 -47.5 -45.5 -76.5s-17 -59.833 -17 -92.5c0 -40 12 -72.667 36 -98
s58 -38 102 -38z" />
    <glyph glyph-name="p" unicode="p" 
d="M77 -200h-76.9971l131 621c1.33301 7.33301 0.666016 12.5 -2.00098 15.5s-6.66699 4.5 -12 4.5c-3.33301 0 -6.33301 -1 -9 -3l-55 -38l-40 59l47 32c18.667 12.667 39 19 61 19c26.667 0 47.834 -7.33301 63.501 -22s23.5 -36 23.5 -64v-6h12
c20 30 44.167 52.833 72.5 68.5s62.166 23.5 101.499 23.5c27.333 0 52.5 -4.83301 75.5 -14.5s42.667 -23 59 -40s29.166 -37.333 38.499 -61s14 -49.167 14 -76.5c0 -44 -5.83301 -86 -17.5 -126s-29.167 -75.333 -52.5 -106s-52.333 -55 -87 -73
s-75.334 -27 -122.001 -27c-37.333 0 -69.5 8.5 -96.5 25.5s-46.167 38.5 -57.5 64.5h-12zM292.003 60c32.667 0 61.832 6.67188 87.499 20.0049s47.334 31.166 65.001 53.499s31 48.166 40 77.499s13.5 59.666 13.5 90.999c0 44 -11.5 77.333 -34.5 100s-53.5 34 -91.5 34
c-30.667 0 -58.5 -7 -83.5 -21s-46.5 -32.333 -64.5 -55s-32 -48.334 -42 -77.001s-15 -58 -15 -88c0 -42.667 11 -75.834 33 -99.501s52.667 -35.5 92 -35.5z" />
    <glyph glyph-name="q" unicode="q" 
d="M391 70h-11.9971c-19.333 -28 -43.5 -49 -72.5 -63s-60.833 -21 -95.5 -21c-28.667 0 -54.834 4.83301 -78.501 14.5s-43.834 23.167 -60.501 40.5s-29.5 38.333 -38.5 63s-13.5 52 -13.5 82c0 46 6.83301 88.667 20.5 128s33 73.5 58 102.5s55 51.833 90 68.5
s73.5 25 115.5 25c39.333 0 71.833 -8.5 97.5 -25.5s42.5 -39.167 50.5 -66.5h12l17 78h78l-129 -607c-2 -8 -1.16699 -14.333 2.5 -19s8.5 -7 14.5 -7c4.66699 0 9.66699 1.66699 15 5l52 35l40 -59l-52 -35c-21.333 -14 -43.333 -21 -66 -21s-42.334 7 -59.001 21
s-25 35 -25 63c0 8.66699 1 18.667 3 30zM228.003 60c30.667 0 58.667 6.83105 84 20.498s47.166 31.667 65.499 54s32.5 47.833 42.5 76.5s15 57.667 15 87c0 41.333 -11.667 74.666 -35 99.999s-54.666 38 -93.999 38c-31.333 0 -59.666 -6.66699 -84.999 -20
s-46.833 -31.166 -64.5 -53.499s-31.334 -48.166 -41.001 -77.499s-14.5 -59.666 -14.5 -90.999c0 -41.333 10.833 -74 32.5 -98s53.167 -36 94.5 -36z" />
    <glyph glyph-name="r" unicode="r" 
d="M194 410c2 8 1 14.167 -3 18.5s-9 6.5 -15 6.5c-5.33301 0 -10.333 -1.66699 -15 -5l-91 -62l-40 59l89 60c22.667 15.333 45.667 23 69 23c20.667 0 38.667 -5.83301 54 -17.5s24 -30.5 26 -56.5h12c19.333 27.333 41 46.5 65 57.5s49 16.5 75 16.5
c48 0 85.667 -13.833 113 -41.5s41 -64.167 41 -109.5c0 -17.333 -2 -35 -6 -53l-85 -6c3.33301 16.667 5 30.667 5 42c0 32 -8.83301 55.667 -26.5 71s-40.5 23 -68.5 23c-20 0 -38.167 -3.83301 -54.5 -11.5s-30.5 -18 -42.5 -31s-22.167 -28.167 -30.5 -45.5
s-14.5 -35.333 -18.5 -54l-47 -222h118v-72h-318v72h122z" />
    <glyph glyph-name="s" unicode="s" 
d="M336 440c-13.333 0 -27.1631 -1.66895 -41.4961 -5.00195s-27.333 -8.33301 -39 -15s-21.167 -15.167 -28.5 -25.5s-11 -22.5 -11 -36.5c0 -21.333 9.5 -37.333 28.5 -48s51.833 -17.667 98.5 -21c48 -3.33301 85.167 -15.333 111.5 -36s39.5 -51 39.5 -91
c0 -28 -5.83301 -53 -17.5 -75s-27.834 -40.5 -48.501 -55.5s-45.167 -26.333 -73.5 -34s-59.5 -11.5 -93.5 -11.5s-62.833 4.5 -86.5 13.5s-43.167 21 -58.5 36s-26.5 32 -33.5 51s-10.5 38.5 -10.5 58.5v10.5c0 3.66699 0.333008 7.16699 1 10.5l78 10
c-0.666992 -5.33301 -1 -8.66602 -1 -9.99902v-6c0 -14.667 2.16699 -28.167 6.5 -40.5s11.5 -23 21.5 -32s23 -16.167 39 -21.5s35.667 -8 59 -8c15.333 0 31.166 1.83301 47.499 5.5s31.166 9.33398 44.499 17.001s24.333 17.334 33 29.001s13 25.834 13 42.501
c0 26 -10.5 43.5 -31.5 52.5s-52.167 15.167 -93.5 18.5c-47.333 3.33301 -84.5 14.666 -111.5 33.999s-40.5 49.666 -40.5 90.999c0 23.333 5 45 15 65s24.167 37.167 42.5 51.5s40.333 25.5 66 33.5s54.167 12 85.5 12c30.667 0 57.167 -4.16699 79.5 -12.5
s40.666 -19.166 54.999 -32.499s25 -28.5 32 -45.5s10.5 -34.5 10.5 -52.5v-11l-77 -11v4c0 1.33301 0.166992 2.5 0.5 3.5s0.5 2.16699 0.5 3.5c0 25.333 -9.5 45.666 -28.5 60.999s-46.5 23 -82.5 23z" />
    <glyph glyph-name="t" unicode="t" 
d="M85 496h172l46 218h78l-46 -218h176v-72h-192l-71 -337c-2 -8 -1.16699 -14.333 2.5 -19s8.5 -7 14.5 -7c4.66699 0 9.66699 1.66699 15 5l133 90l40 -59l-133 -90c-21.333 -14 -43.333 -21 -66 -21c-23.333 0 -43.333 7 -60 21s-25 35 -25 63
c0 4.66699 0.333008 9.5 1 14.5s1.66699 10.167 3 15.5l68 324h-156v72z" />
    <glyph glyph-name="u" unicode="u" 
d="M365 84l-12.0049 0.000976562c-18 -32 -41 -56.333 -69 -73s-62 -25 -102 -25c-44 0 -79.667 12.5 -107 37.5s-41 62.167 -41 111.5c0 10 0.5 20.167 1.5 30.5s3.16699 21.833 6.5 34.5l66 296h78l-64 -286c-4.66699 -20.667 -7 -40 -7 -58c0 -61.333 33 -92 99 -92
c46 0 85.167 16.167 117.5 48.5s54.5 75.5 66.5 129.5l58 258h78l-91 -412c-1.33301 -5.33301 -0.666016 -9.66602 2.00098 -12.999s6.33398 -5 11.001 -5s9.33398 1.66699 14.001 5l43 31l42 -58l-50 -38c-8 -6.66699 -17.833 -11.667 -29.5 -15s-23.5 -5 -35.5 -5
c-10 0 -19.667 1.33301 -29 4s-17.666 7 -24.999 13s-13.166 13.5 -17.499 22.5s-6.5 19.833 -6.5 32.5c0 3.33301 0.166992 6.66602 0.5 9.99902s0.833008 6.66602 1.5 9.99902z" />
    <glyph glyph-name="v" unicode="v" 
d="M253 36h11.999l232 460l73 -37l-240 -459h-152l-38 418c-1.33301 10.667 -7 16 -17 16c-7.33301 0 -13.333 -3 -18 -9l-49 -62l-56 45l48 62c10.667 13.333 23 23.333 37 30s28.333 10 43 10c22 0 41.833 -7 59.5 -21s27.834 -35 30.501 -63z" />
    <glyph glyph-name="w" unicode="w" 
d="M87 36h12l154 460h145l-39 -460h12l149 470l68 -21l-159 -485h-140l37 460h-12l-156 -460h-140l45 496h71z" />
    <glyph glyph-name="x" unicode="x" 
d="M238 252l-67 162c-4 8.66699 -10 13 -18 13s-14 -4 -18 -12l-44 -75l-62 36l45 78c10.667 18 22.5 31.833 35.5 41.5s29.167 14.5 48.5 14.5c36 0 62.333 -19.667 79 -59l59 -143l202 198l53 -53l-224 -219l65 -154c4 -8.66699 10 -13 18 -13c7.33301 0 13 3.66699 17 11
l43 77l63 -34l-43 -79c-10.667 -19.333 -23 -33.5 -37 -42.5s-30 -13.5 -48 -13.5c-16 0 -31.167 4.5 -45.5 13.5s-25.833 23.5 -34.5 43.5l-56 134l-193 -189l-53 53z" />
    <glyph glyph-name="y" unicode="y" 
d="M190 210c-4.66699 -20.667 -7 -40.001 -7 -58.001c0 -61.333 33 -92 99 -92c46 0 85.333 16.167 118 48.5s54.667 75.5 66 129.5l54 258h78l-131 -618c-4.66699 -22.667 -15.667 -41.334 -33 -56.001s-37.333 -22 -60 -22h-271v72h258c18 0 29 10 33 30l38 176h-12
c-20 -30 -43.833 -52.833 -71.5 -68.5s-60.5 -23.5 -98.5 -23.5c-44.667 0 -80.334 13.333 -107.001 40s-40 64.334 -40 113.001c0 20 2.33301 40.333 7 61l45 214c1.33301 6.66699 0.5 11.834 -2.5 15.501s-6.83301 5.5 -11.5 5.5c-4 0 -8.33301 -1.66699 -13 -5l-51 -35
l-40 59l52 35c20.667 14 41.667 21 63 21c22 0 41 -7.33301 57 -22s24 -35 24 -61c0 -4 -0.166992 -7.83301 -0.5 -11.5s-1.16602 -8.5 -2.49902 -14.5z" />
    <glyph glyph-name="z" unicode="z" 
d="M485 72v-72h-421v130l408 282v12h-338v72h404v-126l-408 -286v-12h355z" />
    <glyph glyph-name="braceleft" unicode="{" 
d="M373 778c5.33301 25.333 15.668 44.6699 31.001 58.0029s36.333 20 63 20h82v-72h-69c-18.667 0 -30 -10 -34 -30l-70 -320c-5.33301 -24 -16 -43 -32 -57s-36.667 -21 -62 -21h-15v-12h12c18 0 32.667 -5.33301 44 -16s17 -25.667 17 -45v-9
c0 -2.66699 -0.666992 -6.66699 -2 -12l-69 -317c-0.666992 -3.33301 -1 -6.33301 -1 -9c0 -13.333 8.33301 -20 25 -20h65v-72h-86c-24 0 -44 5.83301 -60 17.5s-24 30.167 -24 55.5c0 5.33301 0.166992 10.166 0.5 14.499s1.16602 9.16602 2.49902 14.499l70 321
c0.666992 3.33301 1 6.66602 1 9.99902c0 12.667 -7.33301 19 -22 19h-39v108h64c18 0 29 9.66699 33 29z" />
    <glyph glyph-name="bar" unicode="|" 
d="M232 -156h-74l224 1012h74z" />
    <glyph glyph-name="braceright" unicode="}" 
d="M239 -78c-5.33301 -25.333 -15.668 -44.6699 -31.001 -58.0029s-36.333 -20 -63 -20h-82v72h69c18.667 0 30 10 34 30l70 320c5.33301 24 16 43 32 57s36.667 21 62 21h15v12h-12c-18 0 -32.667 5.33301 -44 16s-17 25.667 -17 45v9c0 2.66699 0.666992 6.66699 2 12
l69 317c0.666992 3.33301 1 6.33301 1 9c0 13.333 -8.33301 20 -25 20h-65v72h86c24 0 44 -5.83301 60 -17.5s24 -30.167 24 -55.5c0 -5.33301 -0.166992 -10.166 -0.5 -14.499s-1.16602 -9.16602 -2.49902 -14.499l-70 -321c-0.666992 -3.33301 -1 -6.66602 -1 -9.99902
c0 -12.667 7.33301 -19 22 -19h39v-108h-64c-18 0 -29 -9.66699 -33 -29z" />
    <glyph glyph-name="asciitilde" unicode="~" 
d="M338 316c1.33301 -5.33301 3.66504 -10.834 6.99805 -16.501s8.66602 -8.5 15.999 -8.5c5.33301 0 12 3 20 9l129 95l38 -50l-123 -94c-9.33301 -7.33301 -19.166 -13.666 -29.499 -18.999s-23.166 -8 -38.499 -8c-26 0 -44.667 6.83301 -56 20.5
s-20.666 32.167 -27.999 55.5c-1.33301 6 -3.5 12.167 -6.5 18.5s-8.5 9.5 -16.5 9.5c-6 0 -13.667 -3.66699 -23 -11l-126 -93l-38 50l123 94c10 8 20.333 14.5 31 19.5s23 7.5 37 7.5c25.333 0 43.833 -7.16699 55.5 -21.5s21.167 -33.5 28.5 -57.5z" />
    <glyph glyph-name="uni00A0" unicode="&#xa0;" 
 />
    <glyph glyph-name="exclamdown" unicode="&#xa1;" 
d="M154 -200l117 514h80l-117 -514h-80zM407 444c0 -19.333 -6.83301 -35.833 -20.5 -49.5s-30.167 -20.5 -49.5 -20.5s-35.833 6.83301 -49.5 20.5s-20.5 30.167 -20.5 49.5s6.83301 35.833 20.5 49.5s30.167 20.5 49.5 20.5s35.833 -6.83301 49.5 -20.5
s20.5 -30.167 20.5 -49.5z" />
    <glyph glyph-name="cent" unicode="&#xa2;" 
d="M416 672l-12.998 -62.998c24.667 -4 47 -11.167 67 -21.5s36.667 -23.166 50 -38.499s23.666 -32.833 30.999 -52.5s11 -40.834 11 -63.501v-11l-82 -18c0.666992 5.33301 1 8.83301 1 10.5v4.5c0 28 -7.16699 52.667 -21.5 74s-38.5 35 -72.5 41l-79 -369
c40 6.66699 72.667 22.334 98 47.001s43 52.667 53 84l74 -18c-18 -52 -47.333 -94.833 -88 -128.5s-91.667 -53.5 -153 -59.5l-13 -62h-72l13 62c-24.667 3.33301 -47.5 10.166 -68.5 20.499s-39.167 23.666 -54.5 39.999s-27.333 35.666 -36 57.999s-13 47.5 -13 75.5
c0 42 6.66699 82 20 120s32.166 71.5 56.499 100.5s54 52.833 89 71.5s74.167 30 117.5 34l13 62h72zM130.002 297.002c0 -40 9.33301 -70.6689 28 -92.002s44.667 -34.666 78 -39.999l79 370c-28 -4.66699 -53.333 -14.167 -76 -28.5s-42 -32.166 -58 -53.499
s-28.5 -45.333 -37.5 -72s-13.5 -54.667 -13.5 -84z" />
    <glyph glyph-name="sterling" unicode="&#xa3;" 
d="M240 366l74.999 -0.000976562v-72h-90l-25 -120h226v-72h-364v72h60l25 120h-44v72h59l16 74c12.667 59.333 35.834 102.833 69.501 130.5s75.5 41.5 125.5 41.5c20.667 0 39.5 -3.16699 56.5 -9.5s31.667 -15.5 44 -27.5s21.833 -26.167 28.5 -42.5s10 -34.5 10 -54.5
c0 -6 -0.333008 -12.167 -1 -18.5s-1.66699 -12.833 -3 -19.5l-5 -24h-76l5 24c2 10 3 19.333 3 28c0 24.667 -7 42.834 -21 54.501s-31.667 17.5 -53 17.5c-25.333 0 -47.333 -7.66699 -66 -23s-31.667 -41 -39 -77z" />
    <glyph glyph-name="currency" unicode="&#xa4;" 
d="M3 151l67 56.998c-14 28 -21 60 -21 96c0 40 7 77.167 21 111.5s33.667 64.833 59 91.5l-40 50l65 53l40 -52c23.333 13.333 48 23.666 74 30.999s53.333 11 82 11c28 0 53.833 -4.16699 77.5 -12.5s44.5 -20.166 62.5 -35.499l70 58l49 -61l-69 -59
c6.66699 -13.333 11.834 -27.666 15.501 -42.999s5.5 -31.666 5.5 -48.999c0 -41.333 -6.83301 -79.5 -20.5 -114.5s-32.834 -65.833 -57.501 -92.5l39 -48l-65 -53l-40 50c-46 -26.667 -98.667 -40 -158 -40c-57.333 0 -104 15 -140 45l-67 -55zM341 521.998
c-28.667 0 -55.8359 -5.66699 -81.5029 -17s-48.167 -26.5 -67.5 -45.5s-34.666 -41.167 -45.999 -66.5s-17 -52.333 -17 -81c0 -41.333 12.667 -74 38 -98s59 -36 101 -36c28.667 0 55.834 5.33301 81.501 16s48.334 25.5 68.001 44.5s35.167 41 46.5 66s17 52.167 17 81.5
c0 39.333 -12.333 71.833 -37 97.5s-59 38.5 -103 38.5z" />
    <glyph glyph-name="yen" unicode="&#xa5;" 
d="M124 366h92l-73 232h80l69 -232h12l167 232h85v-6l-166 -226h82v-72h-153l-8 -36h138v-72h-153l-18 -84h-72l18 84h-123v72h138l8 36h-123v72z" />
    <glyph glyph-name="brokenbar" unicode="&#xa6;" 
d="M336 314l-104 -470h-74l104 470h74zM278 386l104 470h74l-104 -470h-74z" />
    <glyph glyph-name="section" unicode="&#xa7;" 
d="M206 476c0 15.333 3.16992 28.3281 9.50293 38.9951s13.833 20.667 22.5 30c-2 4.66699 -4 10.334 -6 17.001s-3 14.667 -3 24c0 19.333 3.66699 37 11 53s17.666 29.5 30.999 40.5s28.833 19.5 46.5 25.5s37.167 9 58.5 9c36 0 64 -8.83301 84 -26.5
s30 -38.167 30 -61.5c0 -3.33301 -0.166992 -8.16602 -0.5 -14.499s-1.83301 -14.166 -4.5 -23.499h-69c1.33301 5.33301 2.16602 9.16602 2.49902 11.499s0.5 4.16602 0.5 5.49902c0 11.333 -4.83301 21.333 -14.5 30s-23.167 13 -40.5 13s-32 -4.16699 -44 -12.5
s-18 -19.166 -18 -32.499s5.33301 -23.5 16 -30.5s30.334 -13.167 59.001 -18.5c28 -5.33301 49.5 -15 64.5 -29s22.5 -33 22.5 -57c0 -26.667 -11 -51.667 -33 -75c1.33301 -3.33301 3.16602 -8.16602 5.49902 -14.499s3.5 -15.166 3.5 -26.499
c0 -21.333 -4 -40.166 -12 -56.499s-18.833 -30.333 -32.5 -42s-29.834 -20.5 -48.501 -26.5s-39 -9 -61 -9c-20.667 0 -38.667 2.83301 -54 8.5s-28 13 -38 22s-17.5 19.333 -22.5 31s-7.5 23.834 -7.5 36.501c0 8 0.333008 15.167 1 21.5s2 13.5 4 21.5h68
c-1.33301 -3.33301 -2.16602 -7.33301 -2.49902 -12s-0.5 -8.33398 -0.5 -11.001c0 -14 5.33301 -26.167 16 -36.5s26 -15.5 46 -15.5c19.333 0 35.666 4.66699 48.999 14s20 22 20 38c0 13.333 -5.5 23.333 -16.5 30s-28.5 12.667 -52.5 18
c-11.333 2.66699 -22.5 6 -33.5 10s-20.667 9.5 -29 16.5s-15 15.833 -20 26.5s-7.5 23.667 -7.5 39zM340.003 442.995c13.333 -2.66699 22.167 -4.83398 26.5 -6.50098s8.5 -3.16699 12.5 -4.5c2 2.66699 3.66699 6.33398 5 11.001s2 9 2 13
c0 13.333 -4.83301 22.833 -14.5 28.5s-26.5 11.167 -50.5 16.5l-31 7c-6 -8.66699 -9 -17 -9 -25c0 -9.33301 4.5 -17.5 13.5 -24.5s24.167 -12.167 45.5 -15.5z" />
    <glyph glyph-name="dieresis" unicode="&#xa8;" 
d="M136 644c0 19.333 6.83301 35.833 20.5 49.5s30.167 20.5 49.5 20.5s35.833 -6.83301 49.5 -20.5s20.5 -30.167 20.5 -49.5s-6.83301 -35.833 -20.5 -49.5s-30.167 -20.5 -49.5 -20.5s-35.833 6.83301 -49.5 20.5s-20.5 30.167 -20.5 49.5zM336 644
c0 19.333 6.83301 35.833 20.5 49.5s30.167 20.5 49.5 20.5s35.833 -6.83301 49.5 -20.5s20.5 -30.167 20.5 -49.5s-6.83301 -35.833 -20.5 -49.5s-30.167 -20.5 -49.5 -20.5s-35.833 6.83301 -49.5 20.5s-20.5 30.167 -20.5 49.5z" />
    <glyph glyph-name="copyright" unicode="&#xa9;" 
d="M58 556c0 34 6.5 66.167 19.5 96.5s30.667 56.666 53 78.999s48.666 40 78.999 53s62.5 19.5 96.5 19.5s66.167 -6.5 96.5 -19.5s56.666 -30.667 78.999 -53s40 -48.666 53 -78.999s19.5 -62.5 19.5 -96.5s-6.5 -66.167 -19.5 -96.5s-30.667 -56.666 -53 -78.999
s-48.666 -40 -78.999 -53s-62.5 -19.5 -96.5 -19.5s-66.167 6.5 -96.5 19.5s-56.666 30.667 -78.999 53s-40 48.666 -53 78.999s-19.5 62.5 -19.5 96.5zM106 556c0 -28 5.16699 -54.167 15.5 -78.5s24.5 -45.5 42.5 -63.5s39.167 -32.167 63.5 -42.5s50.5 -15.5 78.5 -15.5
s54.167 5.16699 78.5 15.5s45.5 24.5 63.5 42.5s32.167 39.167 42.5 63.5s15.5 50.5 15.5 78.5s-5.16699 54.167 -15.5 78.5s-24.5 45.5 -42.5 63.5s-39.167 32.167 -63.5 42.5s-50.5 15.5 -78.5 15.5s-54.167 -5.16699 -78.5 -15.5s-45.5 -24.5 -63.5 -42.5
s-32.167 -39.167 -42.5 -63.5s-15.5 -50.5 -15.5 -78.5zM306 454c15.333 0 27.3311 4.83301 35.998 14.5s13 21.834 13 36.501v18h54v-12c0 -30.667 -8.66699 -55.834 -26 -75.501s-43 -29.5 -77 -29.5c-33.333 0 -59.166 9.83301 -77.499 29.5s-27.5 44.834 -27.5 75.501
v90c0 30.667 9.33301 55.834 28 75.501s44.334 29.5 77.001 29.5c34 0 59.667 -9.83301 77 -29.5s26 -44.834 26 -75.501v-12h-54v18c0 14.667 -4.33301 26.834 -13 36.501s-20.667 14.5 -36 14.5s-27.666 -4.83301 -36.999 -14.5s-14 -21.834 -14 -36.501v-102
c0 -14.667 4.66699 -26.834 14 -36.501s21.666 -14.5 36.999 -14.5z" />
    <glyph glyph-name="ordfeminine" unicode="&#xaa;" 
d="M384 452c-16.667 -30.667 -47.6689 -46.001 -93.002 -46.001c-30 0 -55 9.5 -75 28.5s-30 47.5 -30 85.5c0 22.667 3.33301 45.167 10 67.5s16.834 42.333 30.501 60s30.834 31.834 51.501 42.501s45.334 16 74.001 16c22 0 39.167 -3.66699 51.5 -11
s21.166 -17 26.499 -29h6l7 32h66l-45 -209c-2 -11.333 2.33301 -17 13 -17h15v-60h-61c-12 0 -21.833 2.83301 -29.5 8.5s-11.5 14.167 -11.5 25.5v6h-6zM314.998 465.999c14.667 0 28.332 3.33203 40.999 9.99902s23.334 15.5 32.001 26.5s15.5 23.5 20.5 37.5
s7.5 28.667 7.5 44c0 20.667 -5.5 36.167 -16.5 46.5s-26.167 15.5 -45.5 15.5c-15.333 0 -29.166 -3.16699 -41.499 -9.5s-22.833 -15 -31.5 -26s-15.334 -23.667 -20.001 -38s-7 -29.166 -7 -44.499c0 -18 5 -32.833 15 -44.5s25.333 -17.5 46 -17.5z" />
    <glyph glyph-name="guillemotleft" unicode="&#xab;" 
d="M226 12l-185 156v156l286 160h6v-88l-262 -144v-10l161 -134v-96h-6zM465 12l-185 156v156l286 160h6v-88l-262 -144v-10l161 -134v-96h-6z" />
    <glyph glyph-name="logicalnot" unicode="&#xac;" 
d="M98 386h417v-6l-32 -150h-72l19 84h-332v72z" />
    <glyph glyph-name="registered" unicode="&#xae;" 
d="M58 556c0 34 6.5 66.167 19.5 96.5s30.667 56.666 53 78.999s48.666 40 78.999 53s62.5 19.5 96.5 19.5s66.167 -6.5 96.5 -19.5s56.666 -30.667 78.999 -53s40 -48.666 53 -78.999s19.5 -62.5 19.5 -96.5s-6.5 -66.167 -19.5 -96.5s-30.667 -56.666 -53 -78.999
s-48.666 -40 -78.999 -53s-62.5 -19.5 -96.5 -19.5s-66.167 6.5 -96.5 19.5s-56.666 30.667 -78.999 53s-40 48.666 -53 78.999s-19.5 62.5 -19.5 96.5zM106 556c0 -28 5.16699 -54.167 15.5 -78.5s24.5 -45.5 42.5 -63.5s39.167 -32.167 63.5 -42.5s50.5 -15.5 78.5 -15.5
s54.167 5.16699 78.5 15.5s45.5 24.5 63.5 42.5s32.167 39.167 42.5 63.5s15.5 50.5 15.5 78.5s-5.16699 54.167 -15.5 78.5s-24.5 45.5 -42.5 63.5s-39.167 32.167 -63.5 42.5s-50.5 15.5 -78.5 15.5s-54.167 -5.16699 -78.5 -15.5s-45.5 -24.5 -63.5 -42.5
s-32.167 -39.167 -42.5 -63.5s-15.5 -50.5 -15.5 -78.5zM402 412l-54 -0.000976562v83c0 7.33301 -2.16699 13.333 -6.5 18s-10.5 7 -18.5 7h-47v-108h-54v288h96c30 0 52.5 -8 67.5 -24s22.5 -34.667 22.5 -56c0 -17.333 -2.83301 -31.833 -8.5 -43.5
s-16.167 -20.834 -31.5 -27.501v-6c12 -1.33301 20.667 -6.16602 26 -14.499s8 -17.166 8 -26.499v-90zM276 567.999h32c15.333 0 26.833 4.16699 34.5 12.5s11.5 18.833 11.5 31.5s-3.83301 22.667 -11.5 30s-19.167 11 -34.5 11h-32v-85z" />
    <glyph glyph-name="macron" unicode="&#xaf;" 
d="M447 570h-282v66h282v-66z" />
    <glyph glyph-name="degree" unicode="&#xb0;" 
d="M210 569c0 20 3.83301 38.833 11.5 56.5s18 33 31 46s28.333 23.333 46 31s36.5 11.5 56.5 11.5s38.833 -3.83301 56.5 -11.5s33 -18 46 -31s23.333 -28.333 31 -46s11.5 -36.5 11.5 -56.5s-3.83301 -38.833 -11.5 -56.5s-18 -33 -31 -46s-28.333 -23.333 -46 -31
s-36.5 -11.5 -56.5 -11.5s-38.833 3.83301 -56.5 11.5s-33 18 -46 31s-23.333 28.333 -31 46s-11.5 36.5 -11.5 56.5zM282 569c0 -20 7.16699 -37.167 21.5 -51.5s31.5 -21.5 51.5 -21.5s37.167 7.16699 51.5 21.5s21.5 31.5 21.5 51.5s-7.16699 37.167 -21.5 51.5
s-31.5 21.5 -51.5 21.5s-37.167 -7.16699 -51.5 -21.5s-21.5 -31.5 -21.5 -51.5z" />
    <glyph glyph-name="plusminus" unicode="&#xb1;" 
d="M36 72h418v-72h-418v72zM96 386h179l37 173h74l-37 -173h165v-72h-180l-37 -173h-74l37 173h-164v72z" />
    <glyph glyph-name="twosuperior" unicode="&#xb2;" 
d="M383 460l-0.000976562 -48.0049h-203v6l10 48c6.66699 30 18.834 52 36.501 66s40.167 23.667 67.5 29c23.333 4.66699 41.166 12 53.499 22s18.5 23 18.5 39c0 10 -3.16699 18.5 -9.5 25.5s-16.5 10.5 -30.5 10.5c-15.333 0 -28.5 -4.66699 -39.5 -14
s-18.167 -24.666 -21.5 -45.999l-2 -12h-54l3 16c6.66699 34 20.334 59.833 41.001 77.5s47.667 26.5 81 26.5c29.333 0 51.333 -8 66 -24s22 -34.667 22 -56c0 -28 -9.33301 -51 -28 -69s-42.667 -30.667 -72 -38c-14 -3.33301 -25.667 -6.66602 -35 -9.99902
s-17 -7.16602 -23 -11.499s-10.5 -9.16602 -13.5 -14.499s-5.5 -11.666 -7.5 -18.999l-1 -4h141z" />
    <glyph glyph-name="threesuperior" unicode="&#xb3;" 
d="M283 542v74l95 30v6h-143v48h185v-82l-95 -30v-6h8c17.333 0 32.833 -5.5 46.5 -16.5s20.5 -28.167 20.5 -51.5c0 -32 -10.5 -58 -31.5 -78s-50.167 -30 -87.5 -30c-30 0 -52.333 7.83301 -67 23.5s-22 33.834 -22 54.501c0 3.33301 0.166992 6.33301 0.5 9
s0.833008 5.66699 1.5 9l3 16h54l-3 -14c-0.666992 -3.33301 -1 -5.83301 -1 -7.5v-5.5c0 -11.333 3.33301 -20.333 10 -27s16.667 -10 30 -10c16 0 29.5 5 40.5 15s16.5 23.333 16.5 40c0 11.333 -3.33301 19.666 -10 24.999s-15.667 8 -27 8h-24z" />
    <glyph glyph-name="acute" unicode="&#xb4;" 
d="M455 688v-6l-103 -112h-80l91 118h92z" />
    <glyph glyph-name="mu" unicode="&#xb5;" 
d="M365 78c-12 -30 -29.334 -52.833 -52.001 -68.5s-52.667 -23.5 -90 -23.5c-29.333 0 -53.333 6.5 -72 19.5s-30.667 31.167 -36 54.5h-12l-55 -260h-78l147 696h78l-58 -276c-4 -20 -6 -37.667 -6 -53c0 -38 9.66699 -65.333 29 -82s43.333 -25 72 -25
c48.667 0 87.667 16.167 117 48.5s49.666 75.5 60.999 129.5l55 258h78l-87 -410c-1.33301 -6 -0.666016 -10.833 2.00098 -14.5s6.33398 -5.5 11.001 -5.5c4 0 8.33301 1.66699 13 5l36 26l42 -59l-43 -32c-8.66699 -6 -18.667 -10.833 -30 -14.5s-23 -5.5 -35 -5.5
c-20 0 -38 5.5 -54 16.5s-24 28.833 -24 53.5c0 8 0.666992 15.333 2 22h-11z" />
    <glyph glyph-name="paragraph" unicode="&#xb6;" 
d="M278 424c-15.333 2 -30.167 6.16797 -44.5 12.501s-26.833 15 -37.5 26s-19.167 24.167 -25.5 39.5s-9.5 32.666 -9.5 51.999c0 24 4.5 45.833 13.5 65.5s21.667 36.5 38 50.5s36 24.833 59 32.5s48.167 11.5 75.5 11.5h172v-6l-106 -490h-72l92 424h-36l-92 -424h-72z
M324.999 642.001c-26 -0.666992 -47.5 -8.83496 -64.5 -24.502s-25.5 -35.5 -25.5 -59.5c0 -19.333 5.33301 -34.166 16 -44.499s24.667 -16.166 42 -17.499z" />
    <glyph glyph-name="periodcentered" unicode="&#xb7;" 
d="M236 350c0 19.333 6.83301 35.833 20.5 49.5s30.167 20.5 49.5 20.5s35.833 -6.83301 49.5 -20.5s20.5 -30.167 20.5 -49.5s-6.83301 -35.833 -20.5 -49.5s-30.167 -20.5 -49.5 -20.5s-35.833 6.83301 -49.5 20.5s-20.5 30.167 -20.5 49.5z" />
    <glyph glyph-name="cedilla" unicode="&#xb8;" 
d="M298 0l-23.999 -67.999h6c11.333 21.333 29.333 32 54 32c22 0 38.833 -7.33301 50.5 -22s17.5 -32 17.5 -52c0 -30 -8.5 -54.5 -25.5 -73.5s-43.167 -28.5 -78.5 -28.5c-27.333 0 -49 6.5 -65 19.5s-25.667 29.833 -29 50.5l50 17
c1.33301 -10.667 5.5 -19.834 12.5 -27.501s18.167 -11.5 33.5 -11.5s27.166 4.16699 35.499 12.5s12.5 19.5 12.5 33.5c0 12 -3.16699 20.667 -9.5 26s-13.833 8 -22.5 8c-7.33301 0 -13 -1.33301 -17 -4s-7.33301 -6 -10 -10h-75v12l30 86h54z" />
    <glyph glyph-name="onesuperior" unicode="&#xb9;" 
d="M272 460l45 210h-9l-45 -93h-57l64 123h107l-51 -240h71v-48h-203v48h78z" />
    <glyph glyph-name="ordmasculine" unicode="&#xba;" 
d="M204 522c0 24.667 3.83203 48.167 11.499 70.5s19 42 34 59s33.5 30.333 55.5 40s47 14.5 75 14.5c35.333 0 64.5 -10.667 87.5 -32s34.5 -50.666 34.5 -87.999c0 -23.333 -3.66699 -45.833 -11 -67.5s-18.5 -40.834 -33.5 -57.501s-33.667 -30 -56 -40
s-48.166 -15 -77.499 -15c-34 0 -62.5 10 -85.5 30s-34.5 48.667 -34.5 86zM331.999 466c30 0 54.502 10.833 73.502 32.5s28.5 49.5 28.5 83.5c0 19.333 -5.33301 34.833 -16 46.5s-26 17.5 -46 17.5c-16 0 -30.333 -3.16699 -43 -9.5s-23.334 -14.833 -32.001 -25.5
s-15.334 -23 -20.001 -37s-7 -28.667 -7 -44c0 -19.333 5.33301 -34.833 16 -46.5s26 -17.5 46 -17.5z" />
    <glyph glyph-name="guillemotright" unicode="&#xbb;" 
d="M351 484l185 -156v-156l-286 -160h-6v88l262 144v10l-161 134v96h6zM112 484l185 -156v-156l-286 -160h-6v88l262 144v10l-161 134v96h6z" />
    <glyph glyph-name="onequarter" unicode="&#xbc;" 
d="M421 288h101l-39 -186h40v-48h-51l-11 -54h-54l11 54h-123v60zM348 108v-6h81l33 156h-6zM570 495l22 -46l-531 -244l-22 46zM143 460l45 210h-9l-45 -93h-57l64 123h107l-51 -240h71v-48h-203v48h78z" />
    <glyph glyph-name="onehalf" unicode="&#xbd;" 
d="M498 49l-0.000976562 -48.0049h-203v6l10 48c6.66699 30 18.834 52 36.501 66s40.167 23.667 67.5 29c23.333 4.66699 41.166 12 53.499 22s18.5 23 18.5 39c0 10 -3.16699 18.5 -9.5 25.5s-16.5 10.5 -30.5 10.5c-15.333 0 -28.5 -4.66699 -39.5 -14
s-18.167 -24.666 -21.5 -45.999l-2 -12h-54l3 16c6.66699 34 20.334 59.833 41.001 77.5s47.667 26.5 81 26.5c29.333 0 51.333 -8 66 -24s22 -34.667 22 -56c0 -28 -9.33301 -51 -28 -69s-42.667 -30.667 -72 -38c-14 -3.33301 -25.667 -6.66602 -35 -9.99902
s-17 -7.16602 -23 -11.499s-10.5 -9.16602 -13.5 -14.499s-5.5 -11.666 -7.5 -18.999l-1 -4h141zM569.999 494.995l22 -46l-531 -244l-22 46zM143.999 459.995l45 210h-9l-45 -93h-57l64 123h107l-51 -240h71v-48h-203v48h78z" />
    <glyph glyph-name="threequarters" unicode="&#xbe;" 
d="M443 288h101l-39 -186h40v-48h-51l-11 -54h-54l11 54h-123v60zM370 108v-6h81l33 156h-6zM161 542v74l95 30v6h-143v48h185v-82l-95 -30v-6h8c17.333 0 32.833 -5.5 46.5 -16.5s20.5 -28.167 20.5 -51.5c0 -32 -10.5 -58 -31.5 -78s-50.167 -30 -87.5 -30
c-30 0 -52.333 7.83301 -67 23.5s-22 33.834 -22 54.501c0 3.33301 0.166992 6.33301 0.5 9s0.833008 5.66699 1.5 9l3 16h54l-3 -14c-0.666992 -3.33301 -1 -5.83301 -1 -7.5v-5.5c0 -11.333 3.33301 -20.333 10 -27s16.667 -10 30 -10c16 0 29.5 5 40.5 15
s16.5 23.333 16.5 40c0 11.333 -3.33301 19.666 -10 24.999s-15.667 8 -27 8h-24zM570 495l22 -46l-531 -244l-22 46z" />
    <glyph glyph-name="questiondown" unicode="&#xbf;" 
d="M231 136c-20.667 0 -39.332 -4.16895 -55.999 -12.502s-30.834 -19.5 -42.501 -33.5s-20.667 -30.333 -27 -49s-9.5 -38 -9.5 -58c0 -32.667 11 -60.334 33 -83.001s54 -34 96 -34c45.333 0 83.5 14.167 114.5 42.5s51.833 67.5 62.5 117.5l9 42h84l-10 -48
c-15.333 -71.333 -45.833 -127.833 -91.5 -169.5s-105.167 -62.5 -178.5 -62.5c-31.333 0 -59.666 4.83301 -84.999 14.5s-47 22.834 -65 39.501s-31.833 36.334 -41.5 59.001s-14.5 47.334 -14.5 74.001c0 28.667 5 57 15 85s24.667 53.333 44 76s43.166 41 71.499 55
s60.833 21 97.5 21h12c20 0 32 10 36 30l15 74h80l-20 -94c-5.33301 -27.333 -16.833 -48.5 -34.5 -63.5s-41.167 -22.5 -70.5 -22.5h-24zM435.002 445.998c0 -19.333 -6.83301 -35.833 -20.5 -49.5s-30.167 -20.5 -49.5 -20.5s-35.833 6.83301 -49.5 20.5
s-20.5 30.167 -20.5 49.5s6.83301 35.833 20.5 49.5s30.167 20.5 49.5 20.5s35.833 -6.83301 49.5 -20.5s20.5 -30.167 20.5 -49.5z" />
    <glyph glyph-name="Agrave" unicode="&#xc0;" 
d="M419 174h-281l-85 -174h-95l347 700h160l50 -700h-85zM176 252h238l-26 411h-12zM375 892l41 -118h-66l-59 118h84z" />
    <glyph glyph-name="Aacute" unicode="&#xc1;" 
d="M419 174h-281l-85 -174h-95l347 700h160l50 -700h-85zM176 252h238l-26 411h-12zM531 892v-6l-103 -112h-80l91 118h92z" />
    <glyph glyph-name="Acircumflex" unicode="&#xc2;" 
d="M419 174h-281l-85 -174h-95l347 700h160l50 -700h-85zM176 252h238l-26 411h-12zM249 774v6l100 112h124l55 -118h-75l-39 88h-12l-68 -88h-85z" />
    <glyph glyph-name="Atilde" unicode="&#xc3;" 
d="M419 174h-281l-85 -174h-95l347 700h160l50 -700h-85zM176 252h238l-26 411h-12zM437 846c3.33301 -6.66699 6.66699 -11.667 10 -15s8 -5 14 -5c6.66699 0 13 3.33301 19 10l48 55l49 -42l-41 -49c-9.33301 -11.333 -20.333 -21.166 -33 -29.499
s-27.667 -12.5 -45 -12.5c-20.667 0 -36.5 4.66699 -47.5 14s-22.167 24.333 -33.5 45c-4.66699 8 -8.5 13.667 -11.5 17s-7.16699 5 -12.5 5c-7.33301 0 -14.666 -4 -21.999 -12l-46 -53l-49 42l41 49c9.33301 11.333 20.333 21.166 33 29.499s28 12.5 46 12.5
c19.333 0 34.666 -4.83301 45.999 -14.5s23 -25.167 35 -46.5z" />
    <glyph glyph-name="Adieresis" unicode="&#xc4;" 
d="M419 174h-281l-85 -174h-95l347 700h160l50 -700h-85zM176 252h238l-26 411h-12zM230 844c0 19.333 6.83301 35.833 20.5 49.5s30.167 20.5 49.5 20.5s35.833 -6.83301 49.5 -20.5s20.5 -30.167 20.5 -49.5s-6.83301 -35.833 -20.5 -49.5s-30.167 -20.5 -49.5 -20.5
s-35.833 6.83301 -49.5 20.5s-20.5 30.167 -20.5 49.5zM430 844c0 19.333 6.83301 35.833 20.5 49.5s30.167 20.5 49.5 20.5s35.833 -6.83301 49.5 -20.5s20.5 -30.167 20.5 -49.5s-6.83301 -35.833 -20.5 -49.5s-30.167 -20.5 -49.5 -20.5s-35.833 6.83301 -49.5 20.5
s-20.5 30.167 -20.5 49.5z" />
    <glyph glyph-name="Aring" unicode="&#xc5;" 
d="M419 174h-281l-85 -174h-95l347 700h160l50 -700h-85zM176 252h238l-26 411h-12zM292 874c0 28.667 9.83301 52.834 29.5 72.501s43.834 29.5 72.501 29.5s52.834 -9.83301 72.501 -29.5s29.5 -43.834 29.5 -72.501s-9.83301 -52.834 -29.5 -72.501
s-43.834 -29.5 -72.501 -29.5s-52.834 9.83301 -72.501 29.5s-29.5 43.834 -29.5 72.501zM352 874c0 -12 4 -22 12 -30s18 -12 30 -12s22 4 30 12s12 18 12 30s-4 22 -12 30s-18 12 -30 12s-22 -4 -30 -12s-12 -18 -12 -30z" />
    <glyph glyph-name="AE" unicode="&#xc6;" 
d="M276 174h-144l-88 -174h-92l360 700h287v-78h-144l-49 -232h121v-78h-138l-49 -234h133v-78h-234zM172 252h121l78 370h-12z" />
    <glyph glyph-name="Ccedilla" unicode="&#xc7;" 
d="M248 64c28.667 0 53.8311 4.33105 75.498 12.998s40.167 20.667 55.5 36s28.166 33.833 38.499 55.5s18.833 45.5 25.5 71.5l3 12h84l-3 -12c-9.33301 -38 -21.166 -72.5 -35.499 -103.5s-32.333 -57.5 -54 -79.5s-47.667 -39.167 -78 -51.5
s-66.166 -18.833 -107.499 -19.5l-19 -54h6c11.333 21.333 29.333 32 54 32c22 0 38.833 -7.33301 50.5 -22s17.5 -32 17.5 -52c0 -30 -8.5 -54.5 -25.5 -73.5s-43.167 -28.5 -78.5 -28.5c-27.333 0 -49 6.5 -65 19.5s-25.667 29.833 -29 50.5l50 17
c1.33301 -10.667 5.5 -19.834 12.5 -27.501s18.167 -11.5 33.5 -11.5s27.166 4.16699 35.499 12.5s12.5 19.5 12.5 33.5c0 12 -3.16699 20.667 -9.5 26s-13.833 8 -22.5 8c-7.33301 0 -13 -1.33301 -17 -4s-7.33301 -6 -10 -10h-75v12l26 74
c-51.333 7.33301 -91 27.833 -119 61.5s-42 76.5 -42 128.5c0 14 0.833008 28.833 2.5 44.5s4.16699 32.167 7.5 49.5l33 156c20 94.667 54.833 166 104.5 214s115.167 72 196.5 72c32 0 60.5 -4.66699 85.5 -14s46 -22.166 63 -38.499s30 -36 39 -59
s13.5 -47.833 13.5 -74.5c0 -21.333 -3 -44 -9 -68l-3 -12h-84l3 12c3.33301 12.667 5.5 23.834 6.5 33.501s1.5 19.167 1.5 28.5c0 35.333 -10.167 63.5 -30.5 84.5s-53.166 31.5 -98.499 31.5c-26.667 0 -51 -5.33301 -73 -16s-41.667 -25.5 -59 -44.5
s-32.166 -41.667 -44.499 -68s-21.833 -55.5 -28.5 -87.5l-31 -144c-3.33301 -15.333 -5.83301 -29.666 -7.5 -42.999s-2.5 -26 -2.5 -38c0 -44.667 10 -78 30 -100s51.667 -33 95 -33z" />
    <glyph glyph-name="Egrave" unicode="&#xc8;" 
d="M177 700h395v-78h-328l-49 -232h305v-78h-322l-49 -234h317v-78h-418zM384 892l41 -118h-66l-59 118h84z" />
    <glyph glyph-name="Eacute" unicode="&#xc9;" 
d="M177 700h395v-78h-328l-49 -232h305v-78h-322l-49 -234h317v-78h-418zM528 892v-6l-103 -112h-80l91 118h92z" />
    <glyph glyph-name="Ecircumflex" unicode="&#xca;" 
d="M177 700h395v-78h-328l-49 -232h305v-78h-322l-49 -234h317v-78h-418zM252 774v6l100 112h124l55 -118h-75l-39 88h-12l-68 -88h-85z" />
    <glyph glyph-name="Edieresis" unicode="&#xcb;" 
d="M177 700h395v-78h-328l-49 -232h305v-78h-322l-49 -234h317v-78h-418zM230 844c0 19.333 6.83301 35.833 20.5 49.5s30.167 20.5 49.5 20.5s35.833 -6.83301 49.5 -20.5s20.5 -30.167 20.5 -49.5s-6.83301 -35.833 -20.5 -49.5s-30.167 -20.5 -49.5 -20.5
s-35.833 6.83301 -49.5 20.5s-20.5 30.167 -20.5 49.5zM430 844c0 19.333 6.83301 35.833 20.5 49.5s30.167 20.5 49.5 20.5s35.833 -6.83301 49.5 -20.5s20.5 -30.167 20.5 -49.5s-6.83301 -35.833 -20.5 -49.5s-30.167 -20.5 -49.5 -20.5s-35.833 6.83301 -49.5 20.5
s-20.5 30.167 -20.5 49.5z" />
    <glyph glyph-name="Igrave" unicode="&#xcc;" 
d="M147 700h432v-78h-174l-115 -544h174v-78h-432v78h174l115 544h-174v78zM371 892l41 -118h-66l-59 118h84z" />
    <glyph glyph-name="Iacute" unicode="&#xcd;" 
d="M147 700h432v-78h-174l-115 -544h174v-78h-432v78h174l115 544h-174v78zM534 892v-6l-103 -112h-80l91 118h92z" />
    <glyph glyph-name="Icircumflex" unicode="&#xce;" 
d="M147 700h432v-78h-174l-115 -544h174v-78h-432v78h174l115 544h-174v78zM249 774v6l100 112h124l55 -118h-75l-39 88h-12l-68 -88h-85z" />
    <glyph glyph-name="Idieresis" unicode="&#xcf;" 
d="M147 700h432v-78h-174l-115 -544h174v-78h-432v78h174l115 544h-174v78zM217 848c0 19.333 6.83301 35.833 20.5 49.5s30.167 20.5 49.5 20.5s35.833 -6.83301 49.5 -20.5s20.5 -30.167 20.5 -49.5s-6.83301 -35.833 -20.5 -49.5s-30.167 -20.5 -49.5 -20.5
s-35.833 6.83301 -49.5 20.5s-20.5 30.167 -20.5 49.5zM417 848c0 19.333 6.83301 35.833 20.5 49.5s30.167 20.5 49.5 20.5s35.833 -6.83301 49.5 -20.5s20.5 -30.167 20.5 -49.5s-6.83301 -35.833 -20.5 -49.5s-30.167 -20.5 -49.5 -20.5s-35.833 6.83301 -49.5 20.5
s-20.5 30.167 -20.5 49.5z" />
    <glyph glyph-name="Eth" unicode="&#xd0;" 
d="M115 700h243.001c70.667 0 124 -15.833 160 -47.5s54 -77.5 54 -137.5c0 -12.667 -0.833008 -25.667 -2.5 -39s-4.16699 -27.333 -7.5 -42l-38 -174c-10 -47.333 -22.333 -87.5 -37 -120.5s-33.334 -59.833 -56.001 -80.5s-50.5 -35.667 -83.5 -45
s-73.167 -14 -120.5 -14h-227v78h66l49 233h-60v78h77l49 233h-66v78zM226.001 78c30.667 0 57.834 3.00098 81.501 9.00098s44.167 16.167 61.5 30.5s32 33.5 44 57.5s21.667 54.333 29 91l35 168c3.33301 17.333 5.66602 31.666 6.99902 42.999s2 22.333 2 33
c0 42.667 -12 72 -36 88s-60.333 24 -109 24h-76l-49 -233h91v-78h-108l-49 -233h76z" />
    <glyph glyph-name="Ntilde" unicode="&#xd1;" 
d="M364 36h12l141 664h84l-149 -700h-165l-40 664h-12l-141 -664h-84l149 700h165zM433 846c3.33301 -6.66699 6.66699 -11.667 10 -15s8 -5 14 -5c6.66699 0 13 3.33301 19 10l48 55l49 -42l-41 -49c-9.33301 -11.333 -20.333 -21.166 -33 -29.499s-27.667 -12.5 -45 -12.5
c-20.667 0 -36.5 4.66699 -47.5 14s-22.167 24.333 -33.5 45c-4.66699 8 -8.5 13.667 -11.5 17s-7.16699 5 -12.5 5c-7.33301 0 -14.666 -4 -21.999 -12l-46 -53l-49 42l41 49c9.33301 11.333 20.333 21.166 33 29.499s28 12.5 46 12.5
c19.333 0 34.666 -4.83301 45.999 -14.5s23 -25.167 35 -46.5z" />
    <glyph glyph-name="Ograve" unicode="&#xd2;" 
d="M77 428c19.333 93.333 53.5 164.333 102.5 213s114.833 73 197.5 73c64.667 0 114.167 -18.5 148.5 -55.5s51.5 -88.167 51.5 -153.5c0 -13.333 -0.833008 -27.5 -2.5 -42.5s-4.16699 -30.167 -7.5 -45.5l-31 -145c-19.333 -93.333 -53.5 -164.333 -102.5 -213
s-114.833 -73 -197.5 -73c-64.667 0 -114.167 18.5 -148.5 55.5s-51.5 88.167 -51.5 153.5c0 13.333 0.833008 27.5 2.5 42.5s4.16699 30.167 7.5 45.5zM248 62c27.333 0 52.167 5.16602 74.5 15.499s42 25 59 44s31.333 41.667 43 68s21.167 55.833 28.5 88.5l32 150
c5.33301 26.667 8 50 8 70c0 43.333 -10.667 77.5 -32 102.5s-53.333 37.5 -96 37.5c-55.333 0 -99.833 -19.667 -133.5 -59s-57.5 -91.666 -71.5 -156.999l-32 -150c-5.33301 -26.667 -8 -50 -8 -70c0 -43.333 10.667 -77.5 32 -102.5s53.333 -37.5 96 -37.5z
M377.001 891.999l41 -118h-66l-59 118h84z" />
    <glyph glyph-name="Oacute" unicode="&#xd3;" 
d="M77 428c19.333 93.333 53.5 164.333 102.5 213s114.833 73 197.5 73c64.667 0 114.167 -18.5 148.5 -55.5s51.5 -88.167 51.5 -153.5c0 -13.333 -0.833008 -27.5 -2.5 -42.5s-4.16699 -30.167 -7.5 -45.5l-31 -145c-19.333 -93.333 -53.5 -164.333 -102.5 -213
s-114.833 -73 -197.5 -73c-64.667 0 -114.167 18.5 -148.5 55.5s-51.5 88.167 -51.5 153.5c0 13.333 0.833008 27.5 2.5 42.5s4.16699 30.167 7.5 45.5zM248 62c27.333 0 52.167 5.16602 74.5 15.499s42 25 59 44s31.333 41.667 43 68s21.167 55.833 28.5 88.5l32 150
c5.33301 26.667 8 50 8 70c0 43.333 -10.667 77.5 -32 102.5s-53.333 37.5 -96 37.5c-55.333 0 -99.833 -19.667 -133.5 -59s-57.5 -91.666 -71.5 -156.999l-32 -150c-5.33301 -26.667 -8 -50 -8 -70c0 -43.333 10.667 -77.5 32 -102.5s53.333 -37.5 96 -37.5z
M520.001 891.999v-6l-103 -112h-80l91 118h92z" />
    <glyph glyph-name="Ocircumflex" unicode="&#xd4;" 
d="M77 428c19.333 93.333 53.5 164.333 102.5 213s114.833 73 197.5 73c64.667 0 114.167 -18.5 148.5 -55.5s51.5 -88.167 51.5 -153.5c0 -13.333 -0.833008 -27.5 -2.5 -42.5s-4.16699 -30.167 -7.5 -45.5l-31 -145c-19.333 -93.333 -53.5 -164.333 -102.5 -213
s-114.833 -73 -197.5 -73c-64.667 0 -114.167 18.5 -148.5 55.5s-51.5 88.167 -51.5 153.5c0 13.333 0.833008 27.5 2.5 42.5s4.16699 30.167 7.5 45.5zM248 62c27.333 0 52.167 5.16602 74.5 15.499s42 25 59 44s31.333 41.667 43 68s21.167 55.833 28.5 88.5l32 150
c5.33301 26.667 8 50 8 70c0 43.333 -10.667 77.5 -32 102.5s-53.333 37.5 -96 37.5c-55.333 0 -99.833 -19.667 -133.5 -59s-57.5 -91.666 -71.5 -156.999l-32 -150c-5.33301 -26.667 -8 -50 -8 -70c0 -43.333 10.667 -77.5 32 -102.5s53.333 -37.5 96 -37.5z
M262.001 773.999v6l100 112h124l55 -118h-75l-39 88h-12l-68 -88h-85z" />
    <glyph glyph-name="Otilde" unicode="&#xd5;" 
d="M77 428c19.333 93.333 53.5 164.333 102.5 213s114.833 73 197.5 73c64.667 0 114.167 -18.5 148.5 -55.5s51.5 -88.167 51.5 -153.5c0 -13.333 -0.833008 -27.5 -2.5 -42.5s-4.16699 -30.167 -7.5 -45.5l-31 -145c-19.333 -93.333 -53.5 -164.333 -102.5 -213
s-114.833 -73 -197.5 -73c-64.667 0 -114.167 18.5 -148.5 55.5s-51.5 88.167 -51.5 153.5c0 13.333 0.833008 27.5 2.5 42.5s4.16699 30.167 7.5 45.5zM248 62c27.333 0 52.167 5.16602 74.5 15.499s42 25 59 44s31.333 41.667 43 68s21.167 55.833 28.5 88.5l32 150
c5.33301 26.667 8 50 8 70c0 43.333 -10.667 77.5 -32 102.5s-53.333 37.5 -96 37.5c-55.333 0 -99.833 -19.667 -133.5 -59s-57.5 -91.666 -71.5 -156.999l-32 -150c-5.33301 -26.667 -8 -50 -8 -70c0 -43.333 10.667 -77.5 32 -102.5s53.333 -37.5 96 -37.5z
M450.001 845.999c3.33301 -6.66699 6.66699 -11.667 10 -15s8 -5 14 -5c6.66699 0 13 3.33301 19 10l48 55l49 -42l-41 -49c-9.33301 -11.333 -20.333 -21.166 -33 -29.499s-27.667 -12.5 -45 -12.5c-20.667 0 -36.5 4.66699 -47.5 14s-22.167 24.333 -33.5 45
c-4.66699 8 -8.5 13.667 -11.5 17s-7.16699 5 -12.5 5c-7.33301 0 -14.666 -4 -21.999 -12l-46 -53l-49 42l41 49c9.33301 11.333 20.333 21.166 33 29.499s28 12.5 46 12.5c19.333 0 34.666 -4.83301 45.999 -14.5s23 -25.167 35 -46.5z" />
    <glyph glyph-name="Odieresis" unicode="&#xd6;" 
d="M77 428c19.333 93.333 53.5 164.333 102.5 213s114.833 73 197.5 73c64.667 0 114.167 -18.5 148.5 -55.5s51.5 -88.167 51.5 -153.5c0 -13.333 -0.833008 -27.5 -2.5 -42.5s-4.16699 -30.167 -7.5 -45.5l-31 -145c-19.333 -93.333 -53.5 -164.333 -102.5 -213
s-114.833 -73 -197.5 -73c-64.667 0 -114.167 18.5 -148.5 55.5s-51.5 88.167 -51.5 153.5c0 13.333 0.833008 27.5 2.5 42.5s4.16699 30.167 7.5 45.5zM248 62c27.333 0 52.167 5.16602 74.5 15.499s42 25 59 44s31.333 41.667 43 68s21.167 55.833 28.5 88.5l32 150
c5.33301 26.667 8 50 8 70c0 43.333 -10.667 77.5 -32 102.5s-53.333 37.5 -96 37.5c-55.333 0 -99.833 -19.667 -133.5 -59s-57.5 -91.666 -71.5 -156.999l-32 -150c-5.33301 -26.667 -8 -50 -8 -70c0 -43.333 10.667 -77.5 32 -102.5s53.333 -37.5 96 -37.5z
M237.001 847.999c0 19.333 6.83301 35.833 20.5 49.5s30.167 20.5 49.5 20.5s35.833 -6.83301 49.5 -20.5s20.5 -30.167 20.5 -49.5s-6.83301 -35.833 -20.5 -49.5s-30.167 -20.5 -49.5 -20.5s-35.833 6.83301 -49.5 20.5s-20.5 30.167 -20.5 49.5zM437.001 847.999
c0 19.333 6.83301 35.833 20.5 49.5s30.167 20.5 49.5 20.5s35.833 -6.83301 49.5 -20.5s20.5 -30.167 20.5 -49.5s-6.83301 -35.833 -20.5 -49.5s-30.167 -20.5 -49.5 -20.5s-35.833 6.83301 -49.5 20.5s-20.5 30.167 -20.5 49.5z" />
    <glyph glyph-name="multiply" unicode="&#xd7;" 
d="M453 152l-147 147l-147 -147l-51 51l147 147l-147 147l51 51l147 -147l147 147l51 -51l-147 -147l147 -147z" />
    <glyph glyph-name="Oslash" unicode="&#xd8;" 
d="M77 428c19.333 93.333 53.499 164.334 102.499 213.001s114.833 73 197.5 73c28.667 0 55.334 -4.33301 80.001 -13l40 73l60 -34l-40 -74c40 -36.667 60 -90.334 60 -161.001c0 -13.333 -0.833008 -27.5 -2.5 -42.5s-4.16699 -30.167 -7.5 -45.5l-31 -145
c-19.333 -93.333 -53.5 -164.333 -102.5 -213s-114.833 -73 -197.5 -73c-29.333 0 -56 4 -80 12l-45 -84l-60 35l45 84c-40 36.667 -60 90.667 -60 162c0 13.333 0.833008 27.5 2.5 42.5s4.16699 30.167 7.5 45.5zM119.999 202.001c0 -36 6.66699 -65.001 20 -87.001
l278 514c-15.333 6 -33 9 -53 9c-55.333 0 -99.833 -19.667 -133.5 -59s-57.5 -91.666 -71.5 -156.999l-32 -150c-5.33301 -26.667 -8 -50 -8 -70zM247.999 62c27.333 0 52.167 5.16699 74.5 15.5s42 25 59 44s31.333 41.667 43 68s21.167 55.833 28.5 88.5l32 150
c5.33301 26.667 8 50 8 70c0 34 -6.66699 62.667 -20 86l-278 -514c16 -5.33301 33.667 -8 53 -8z" />
    <glyph glyph-name="Ugrave" unicode="&#xd9;" 
d="M226 700l-98 -463.998c-2 -10.667 -3.66699 -20.834 -5 -30.501s-2 -18.834 -2 -27.501c0 -77.333 41 -116 123 -116c50 0 91.167 14.667 123.5 44s54.5 72.666 66.5 129.999l98 464h84l-98 -464c-17.333 -83.333 -48.833 -145.833 -94.5 -187.5
s-109.5 -62.5 -191.5 -62.5c-28.667 0 -55 4 -79 12s-44.5 19.833 -61.5 35.5s-30.333 34.834 -40 57.501s-14.5 49 -14.5 79c0 11.333 0.5 22.833 1.5 34.5s3.16699 24.167 6.5 37.5l97 458h84zM385 892.002l41 -118h-66l-59 118h84z" />
    <glyph glyph-name="Uacute" unicode="&#xda;" 
d="M226 700l-98 -463.998c-2 -10.667 -3.66699 -20.834 -5 -30.501s-2 -18.834 -2 -27.501c0 -77.333 41 -116 123 -116c50 0 91.167 14.667 123.5 44s54.5 72.666 66.5 129.999l98 464h84l-98 -464c-17.333 -83.333 -48.833 -145.833 -94.5 -187.5
s-109.5 -62.5 -191.5 -62.5c-28.667 0 -55 4 -79 12s-44.5 19.833 -61.5 35.5s-30.333 34.834 -40 57.501s-14.5 49 -14.5 79c0 11.333 0.5 22.833 1.5 34.5s3.16699 24.167 6.5 37.5l97 458h84zM538 892.002v-6l-103 -112h-80l91 118h92z" />
    <glyph glyph-name="Ucircumflex" unicode="&#xdb;" 
d="M226 700l-98 -463.998c-2 -10.667 -3.66699 -20.834 -5 -30.501s-2 -18.834 -2 -27.501c0 -77.333 41 -116 123 -116c50 0 91.167 14.667 123.5 44s54.5 72.666 66.5 129.999l98 464h84l-98 -464c-17.333 -83.333 -48.833 -145.833 -94.5 -187.5
s-109.5 -62.5 -191.5 -62.5c-28.667 0 -55 4 -79 12s-44.5 19.833 -61.5 35.5s-30.333 34.834 -40 57.501s-14.5 49 -14.5 79c0 11.333 0.5 22.833 1.5 34.5s3.16699 24.167 6.5 37.5l97 458h84zM248 774.002v6l100 112h124l55 -118h-75l-39 88h-12l-68 -88h-85z" />
    <glyph glyph-name="Udieresis" unicode="&#xdc;" 
d="M226 700l-98 -463.998c-2 -10.667 -3.66699 -20.834 -5 -30.501s-2 -18.834 -2 -27.501c0 -77.333 41 -116 123 -116c50 0 91.167 14.667 123.5 44s54.5 72.666 66.5 129.999l98 464h84l-98 -464c-17.333 -83.333 -48.833 -145.833 -94.5 -187.5
s-109.5 -62.5 -191.5 -62.5c-28.667 0 -55 4 -79 12s-44.5 19.833 -61.5 35.5s-30.333 34.834 -40 57.501s-14.5 49 -14.5 79c0 11.333 0.5 22.833 1.5 34.5s3.16699 24.167 6.5 37.5l97 458h84zM215 848.002c0 19.333 6.83301 35.833 20.5 49.5s30.167 20.5 49.5 20.5
s35.833 -6.83301 49.5 -20.5s20.5 -30.167 20.5 -49.5s-6.83301 -35.833 -20.5 -49.5s-30.167 -20.5 -49.5 -20.5s-35.833 6.83301 -49.5 20.5s-20.5 30.167 -20.5 49.5zM415 848.002c0 19.333 6.83301 35.833 20.5 49.5s30.167 20.5 49.5 20.5s35.833 -6.83301 49.5 -20.5
s20.5 -30.167 20.5 -49.5s-6.83301 -35.833 -20.5 -49.5s-30.167 -20.5 -49.5 -20.5s-35.833 6.83301 -49.5 20.5s-20.5 30.167 -20.5 49.5z" />
    <glyph glyph-name="Yacute" unicode="&#xdd;" 
d="M236 246h-18l-122 454h87l98 -382h12l260 382h97v-6l-312 -448h-18l-52 -246h-84zM514 892v-6l-103 -112h-80l91 118h92z" />
    <glyph glyph-name="Thorn" unicode="&#xde;" 
d="M128 150l-31.999 -149.999h-84l149 700h84l-29 -138h144c30 0 56.833 -4.16699 80.5 -12.5s43.667 -19.833 60 -34.5s29 -32.334 38 -53.001s13.5 -43 13.5 -67c0 -34.667 -6 -67 -18 -97s-29.5 -56 -52.5 -78s-50.833 -39.167 -83.5 -51.5s-69.334 -18.5 -110.001 -18.5
h-160zM145.001 228.001h150c24.667 0 47.5 3.5 68.5 10.5s39 17 54 30s26.833 29 35.5 48s13 40.167 13 63.5c0 35.333 -10.167 61.5 -30.5 78.5s-49.5 25.5 -87.5 25.5h-149z" />
    <glyph glyph-name="germandbls" unicode="&#xdf;" 
d="M349 355l12.999 0.00390625c24 0 46.333 -3.66699 67 -11s38.834 -17.833 54.501 -31.5s28 -30.667 37 -51s13.5 -43.5 13.5 -69.5c0 -28.667 -4.5 -55.5 -13.5 -80.5s-22 -46.833 -39 -65.5s-38 -33.334 -63 -44.001s-53.5 -16 -85.5 -16
c-28 0 -52.333 3.83301 -73 11.5s-37.5 17.834 -50.5 30.501s-22.667 27 -29 43s-9.5 32.333 -9.5 49v13.5c0 4.33301 0.666992 8.5 2 12.5l76 8c-0.666992 -3.33301 -1 -6.16602 -1 -8.49902v-7.5c0 -24 7.5 -43.333 22.5 -58s37.833 -22 68.5 -22c14.667 0 29 2.5 43 7.5
s26.333 12.667 37 23s19.167 23.166 25.5 38.499s9.5 33.666 9.5 54.999c0 38 -11.833 64.333 -35.5 79s-53.834 22 -90.501 22h-54v147h49c40 0 73.167 11.167 99.5 33.5s39.5 53.166 39.5 92.499c0 28 -9.16699 49.333 -27.5 64s-42.166 22 -71.499 22
c-37.333 0 -69 -10.833 -95 -32.5s-44.333 -57.5 -55 -107.5l-107 -502h-78l90 424h-60v72h76l3 14c15.333 72 43.333 124 84 156s90 48 148 48c24.667 0 47.5 -3.5 68.5 -10.5s39.167 -17.167 54.5 -30.5s27.5 -29.833 36.5 -49.5s13.5 -42.167 13.5 -67.5
c0 -24.667 -4.5 -47.834 -13.5 -69.501s-21.667 -40.834 -38 -57.501s-36.5 -30.5 -60.5 -41.5s-51 -17.833 -81 -20.5v-12z" />
    <glyph glyph-name="agrave" unicode="&#xe0;" 
d="M347 78c-20.667 -35.333 -45.1699 -59.498 -73.5029 -72.498s-58.166 -19.5 -89.499 -19.5c-26.667 0 -50.667 4.83301 -72 14.5s-39.333 23.167 -54 40.5s-26 38.166 -34 62.499s-12 51.166 -12 80.499c0 42 6 82.667 18 122s29.5 74 52.5 104s51.5 54.167 85.5 72.5
s73.333 27.5 118 27.5c34 0 63 -7.83301 87 -23.5s39.667 -38.5 47 -68.5h12l16 78h78l-88 -412c-1.33301 -6 -0.666016 -10.5 2.00098 -13.5s6.33398 -4.5 11.001 -4.5s9.33398 1.66699 14.001 5l36 26l42 -59l-45 -34c-7.33301 -5.33301 -16.5 -9.66602 -27.5 -12.999
s-22.167 -5 -33.5 -5c-10 0 -19.667 1.33301 -29 4s-17.833 6.83398 -25.5 12.501s-13.834 13 -18.501 22s-7 20.167 -7 33.5c0 3.33301 0.166992 6.66602 0.5 9.99902s0.833008 6.66602 1.5 9.99902h-12zM207.997 60.002c26.667 0 51.834 6.16504 75.501 18.498
s44.334 29.166 62.001 50.499s31.5 46.5 41.5 75.5s15 60.5 15 94.5c0 41.333 -9.33301 74.5 -28 99.5s-47.667 37.5 -87 37.5c-31.333 0 -58.833 -6.66699 -82.5 -20s-43.834 -31.166 -60.501 -53.499s-29.167 -48.166 -37.5 -77.499s-12.5 -59.666 -12.5 -90.999
c0 -44 9.66699 -77.333 29 -100s47.666 -34 84.999 -34zM298.997 688l41 -118h-66l-59 118h84z" />
    <glyph glyph-name="aacute" unicode="&#xe1;" 
d="M347 78c-20.667 -35.333 -45.1699 -59.498 -73.5029 -72.498s-58.166 -19.5 -89.499 -19.5c-26.667 0 -50.667 4.83301 -72 14.5s-39.333 23.167 -54 40.5s-26 38.166 -34 62.499s-12 51.166 -12 80.499c0 42 6 82.667 18 122s29.5 74 52.5 104s51.5 54.167 85.5 72.5
s73.333 27.5 118 27.5c34 0 63 -7.83301 87 -23.5s39.667 -38.5 47 -68.5h12l16 78h78l-88 -412c-1.33301 -6 -0.666016 -10.5 2.00098 -13.5s6.33398 -4.5 11.001 -4.5s9.33398 1.66699 14.001 5l36 26l42 -59l-45 -34c-7.33301 -5.33301 -16.5 -9.66602 -27.5 -12.999
s-22.167 -5 -33.5 -5c-10 0 -19.667 1.33301 -29 4s-17.833 6.83398 -25.5 12.501s-13.834 13 -18.501 22s-7 20.167 -7 33.5c0 3.33301 0.166992 6.66602 0.5 9.99902s0.833008 6.66602 1.5 9.99902h-12zM207.997 60.002c26.667 0 51.834 6.16504 75.501 18.498
s44.334 29.166 62.001 50.499s31.5 46.5 41.5 75.5s15 60.5 15 94.5c0 41.333 -9.33301 74.5 -28 99.5s-47.667 37.5 -87 37.5c-31.333 0 -58.833 -6.66699 -82.5 -20s-43.834 -31.166 -60.501 -53.499s-29.167 -48.166 -37.5 -77.499s-12.5 -59.666 -12.5 -90.999
c0 -44 9.66699 -77.333 29 -100s47.666 -34 84.999 -34zM452.997 688v-6l-103 -112h-80l91 118h92z" />
    <glyph glyph-name="acircumflex" unicode="&#xe2;" 
d="M347 78c-20.667 -35.333 -45.1699 -59.498 -73.5029 -72.498s-58.166 -19.5 -89.499 -19.5c-26.667 0 -50.667 4.83301 -72 14.5s-39.333 23.167 -54 40.5s-26 38.166 -34 62.499s-12 51.166 -12 80.499c0 42 6 82.667 18 122s29.5 74 52.5 104s51.5 54.167 85.5 72.5
s73.333 27.5 118 27.5c34 0 63 -7.83301 87 -23.5s39.667 -38.5 47 -68.5h12l16 78h78l-88 -412c-1.33301 -6 -0.666016 -10.5 2.00098 -13.5s6.33398 -4.5 11.001 -4.5s9.33398 1.66699 14.001 5l36 26l42 -59l-45 -34c-7.33301 -5.33301 -16.5 -9.66602 -27.5 -12.999
s-22.167 -5 -33.5 -5c-10 0 -19.667 1.33301 -29 4s-17.833 6.83398 -25.5 12.501s-13.834 13 -18.501 22s-7 20.167 -7 33.5c0 3.33301 0.166992 6.66602 0.5 9.99902s0.833008 6.66602 1.5 9.99902h-12zM207.997 60.002c26.667 0 51.834 6.16504 75.501 18.498
s44.334 29.166 62.001 50.499s31.5 46.5 41.5 75.5s15 60.5 15 94.5c0 41.333 -9.33301 74.5 -28 99.5s-47.667 37.5 -87 37.5c-31.333 0 -58.833 -6.66699 -82.5 -20s-43.834 -31.166 -60.501 -53.499s-29.167 -48.166 -37.5 -77.499s-12.5 -59.666 -12.5 -90.999
c0 -44 9.66699 -77.333 29 -100s47.666 -34 84.999 -34zM174.997 570v6l100 112h124l55 -118h-75l-39 88h-12l-68 -88h-85z" />
    <glyph glyph-name="atilde" unicode="&#xe3;" 
d="M347 78c-20.667 -35.333 -45.1699 -59.498 -73.5029 -72.498s-58.166 -19.5 -89.499 -19.5c-26.667 0 -50.667 4.83301 -72 14.5s-39.333 23.167 -54 40.5s-26 38.166 -34 62.499s-12 51.166 -12 80.499c0 42 6 82.667 18 122s29.5 74 52.5 104s51.5 54.167 85.5 72.5
s73.333 27.5 118 27.5c34 0 63 -7.83301 87 -23.5s39.667 -38.5 47 -68.5h12l16 78h78l-88 -412c-1.33301 -6 -0.666016 -10.5 2.00098 -13.5s6.33398 -4.5 11.001 -4.5s9.33398 1.66699 14.001 5l36 26l42 -59l-45 -34c-7.33301 -5.33301 -16.5 -9.66602 -27.5 -12.999
s-22.167 -5 -33.5 -5c-10 0 -19.667 1.33301 -29 4s-17.833 6.83398 -25.5 12.501s-13.834 13 -18.501 22s-7 20.167 -7 33.5c0 3.33301 0.166992 6.66602 0.5 9.99902s0.833008 6.66602 1.5 9.99902h-12zM207.997 60.002c26.667 0 51.834 6.16504 75.501 18.498
s44.334 29.166 62.001 50.499s31.5 46.5 41.5 75.5s15 60.5 15 94.5c0 41.333 -9.33301 74.5 -28 99.5s-47.667 37.5 -87 37.5c-31.333 0 -58.833 -6.66699 -82.5 -20s-43.834 -31.166 -60.501 -53.499s-29.167 -48.166 -37.5 -77.499s-12.5 -59.666 -12.5 -90.999
c0 -44 9.66699 -77.333 29 -100s47.666 -34 84.999 -34zM370.997 639c3.33301 -6.66699 6.66699 -11.667 10 -15s8 -5 14 -5c6.66699 0 13 3.33301 19 10l48 55l49 -42l-41 -49c-9.33301 -11.333 -20.333 -21.166 -33 -29.499s-27.667 -12.5 -45 -12.5
c-20.667 0 -36.5 4.66699 -47.5 14s-22.167 24.333 -33.5 45c-4.66699 8 -8.5 13.667 -11.5 17s-7.16699 5 -12.5 5c-7.33301 0 -14.666 -4 -21.999 -12l-46 -53l-49 42l41 49c9.33301 11.333 20.333 21.166 33 29.499s28 12.5 46 12.5
c19.333 0 34.666 -4.83301 45.999 -14.5s23 -25.167 35 -46.5z" />
    <glyph glyph-name="adieresis" unicode="&#xe4;" 
d="M347 78c-20.667 -35.333 -45.1699 -59.498 -73.5029 -72.498s-58.166 -19.5 -89.499 -19.5c-26.667 0 -50.667 4.83301 -72 14.5s-39.333 23.167 -54 40.5s-26 38.166 -34 62.499s-12 51.166 -12 80.499c0 42 6 82.667 18 122s29.5 74 52.5 104s51.5 54.167 85.5 72.5
s73.333 27.5 118 27.5c34 0 63 -7.83301 87 -23.5s39.667 -38.5 47 -68.5h12l16 78h78l-88 -412c-1.33301 -6 -0.666016 -10.5 2.00098 -13.5s6.33398 -4.5 11.001 -4.5s9.33398 1.66699 14.001 5l36 26l42 -59l-45 -34c-7.33301 -5.33301 -16.5 -9.66602 -27.5 -12.999
s-22.167 -5 -33.5 -5c-10 0 -19.667 1.33301 -29 4s-17.833 6.83398 -25.5 12.501s-13.834 13 -18.501 22s-7 20.167 -7 33.5c0 3.33301 0.166992 6.66602 0.5 9.99902s0.833008 6.66602 1.5 9.99902h-12zM207.997 60.002c26.667 0 51.834 6.16504 75.501 18.498
s44.334 29.166 62.001 50.499s31.5 46.5 41.5 75.5s15 60.5 15 94.5c0 41.333 -9.33301 74.5 -28 99.5s-47.667 37.5 -87 37.5c-31.333 0 -58.833 -6.66699 -82.5 -20s-43.834 -31.166 -60.501 -53.499s-29.167 -48.166 -37.5 -77.499s-12.5 -59.666 -12.5 -90.999
c0 -44 9.66699 -77.333 29 -100s47.666 -34 84.999 -34zM135.997 644c0 19.333 6.83301 35.833 20.5 49.5s30.167 20.5 49.5 20.5s35.833 -6.83301 49.5 -20.5s20.5 -30.167 20.5 -49.5s-6.83301 -35.833 -20.5 -49.5s-30.167 -20.5 -49.5 -20.5s-35.833 6.83301 -49.5 20.5
s-20.5 30.167 -20.5 49.5zM335.997 644c0 19.333 6.83301 35.833 20.5 49.5s30.167 20.5 49.5 20.5s35.833 -6.83301 49.5 -20.5s20.5 -30.167 20.5 -49.5s-6.83301 -35.833 -20.5 -49.5s-30.167 -20.5 -49.5 -20.5s-35.833 6.83301 -49.5 20.5s-20.5 30.167 -20.5 49.5z
" />
    <glyph glyph-name="aring" unicode="&#xe5;" 
d="M347 78c-20.667 -35.333 -45.1699 -59.498 -73.5029 -72.498s-58.166 -19.5 -89.499 -19.5c-26.667 0 -50.667 4.83301 -72 14.5s-39.333 23.167 -54 40.5s-26 38.166 -34 62.499s-12 51.166 -12 80.499c0 42 6 82.667 18 122s29.5 74 52.5 104s51.5 54.167 85.5 72.5
s73.333 27.5 118 27.5c34 0 63 -7.83301 87 -23.5s39.667 -38.5 47 -68.5h12l16 78h78l-88 -412c-1.33301 -6 -0.666016 -10.5 2.00098 -13.5s6.33398 -4.5 11.001 -4.5s9.33398 1.66699 14.001 5l36 26l42 -59l-45 -34c-7.33301 -5.33301 -16.5 -9.66602 -27.5 -12.999
s-22.167 -5 -33.5 -5c-10 0 -19.667 1.33301 -29 4s-17.833 6.83398 -25.5 12.501s-13.834 13 -18.501 22s-7 20.167 -7 33.5c0 3.33301 0.166992 6.66602 0.5 9.99902s0.833008 6.66602 1.5 9.99902h-12zM207.997 60.002c26.667 0 51.834 6.16504 75.501 18.498
s44.334 29.166 62.001 50.499s31.5 46.5 41.5 75.5s15 60.5 15 94.5c0 41.333 -9.33301 74.5 -28 99.5s-47.667 37.5 -87 37.5c-31.333 0 -58.833 -6.66699 -82.5 -20s-43.834 -31.166 -60.501 -53.499s-29.167 -48.166 -37.5 -77.499s-12.5 -59.666 -12.5 -90.999
c0 -44 9.66699 -77.333 29 -100s47.666 -34 84.999 -34zM228.997 672c0 28.667 9.83301 52.834 29.5 72.501s43.834 29.5 72.501 29.5s52.834 -9.83301 72.501 -29.5s29.5 -43.834 29.5 -72.501s-9.83301 -52.834 -29.5 -72.501s-43.834 -29.5 -72.501 -29.5
s-52.834 9.83301 -72.501 29.5s-29.5 43.834 -29.5 72.501zM288.997 672c0 -12 4 -22 12 -30s18 -12 30 -12s22 4 30 12s12 18 12 30s-4 22 -12 30s-18 12 -30 12s-22 -4 -30 -12s-12 -18 -12 -30z" />
    <glyph glyph-name="ae" unicode="&#xe6;" 
d="M319 510c33.333 0 62.667 -5.3291 88 -15.9961s46.666 -24.834 63.999 -42.501s30.5 -38 39.5 -61s13.5 -46.5 13.5 -70.5c0 -12.667 -1.66699 -26.667 -5 -42l-12 -54h-199l-34 -162c34.667 4 63.834 15.5 87.501 34.5s41.167 40.833 52.5 65.5l70 -20
c-21.333 -46 -53.833 -83.5 -97.5 -112.5s-98.167 -43.5 -163.5 -43.5h-44c-23.333 0 -45 3 -65 9s-37.333 14.667 -52 26s-26 25.5 -34 42.5s-12 36.5 -12 58.5c0 26 5 49.667 15 71s24.167 39.666 42.5 54.999s40.5 27.166 66.5 35.499s55 12.5 87 12.5h19l30 141
c-30 -3.33301 -56 -14 -78 -32s-38.667 -43 -50 -75l-66 28c8 19.333 18.333 38.166 31 56.499s28.667 34.5 48 48.5s42 25.333 68 34s56 13 90 13zM219.001 224.004c-15.333 0 -30.333 -1.83398 -45 -5.50098s-27.667 -9.5 -39 -17.5s-20.5 -18.167 -27.5 -30.5
s-10.5 -27.166 -10.5 -44.499c0 -22 7.33301 -38.833 22 -50.5s36 -17.5 64 -17.5h12l35 166h-11zM445.001 296.003c0.666992 3.33301 1.16699 7 1.5 11s0.5 8.33301 0.5 13c0 30 -8.5 54.833 -25.5 74.5s-39.833 32.167 -68.5 37.5l-29 -136h121z" />
    <glyph glyph-name="ccedilla" unicode="&#xe7;" 
d="M510 170c-8 -24.667 -19.501 -47.9961 -34.501 -69.9961s-33.5 -41.167 -55.5 -57.5s-47.333 -29.5 -76 -39.5s-61 -15.667 -97 -17l-19 -54h6c11.333 21.333 29.333 32 54 32c22 0 38.833 -7.33301 50.5 -22s17.5 -32 17.5 -52c0 -30 -8.5 -54.5 -25.5 -73.5
s-43.167 -28.5 -78.5 -28.5c-27.333 0 -49 6.5 -65 19.5s-25.667 29.833 -29 50.5l50 17c1.33301 -10.667 5.5 -19.834 12.5 -27.501s18.167 -11.5 33.5 -11.5s27.166 4.16699 35.499 12.5s12.5 19.5 12.5 33.5c0 12 -3.16699 20.667 -9.5 26s-13.833 8 -22.5 8
c-7.33301 0 -13 -1.33301 -17 -4s-7.33301 -6 -10 -10h-75v12l26 75c-52 7.33301 -93 28.833 -123 64.5s-45 81.834 -45 138.501c0 43.333 7.5 84.333 22.5 123s36.167 72.5 63.5 101.5s60.333 51.833 99 68.5s81.667 25 129 25c30.667 0 58.334 -4.33301 83.001 -13
s45.667 -20.834 63 -36.501s30.666 -34.334 39.999 -56.001s14 -45.5 14 -71.5v-4.5c0 -1.66699 -0.333008 -5.16699 -1 -10.5l-80 -12c0.666992 4 1 7 1 9v7c0 16 -2.5 30.833 -7.5 44.5s-13 25.667 -24 36s-25 18.5 -42 24.5s-37.167 9 -60.5 9
c-31.333 0 -60.166 -6.33301 -86.499 -19s-49.333 -29.834 -69 -51.501s-35 -46.834 -46 -75.501s-16.5 -58.667 -16.5 -90c0 -47.333 12.667 -82.5 38 -105.5s60 -34.5 104 -34.5c26.667 0 50.334 3.83301 71.001 11.5s38.667 17.667 54 30s28 26.5 38 42.5
s17.667 32.667 23 50z" />
    <glyph glyph-name="egrave" unicode="&#xe8;" 
d="M112 224c-1.33301 -5.33301 -2.33008 -11.332 -2.99707 -17.999s-1 -13.667 -1 -21c0 -36.667 10.667 -66.834 32 -90.501s55.333 -35.5 102 -35.5c23.333 0 44.166 2.66699 62.499 8s34.166 12.833 47.499 22.5s24.833 20.667 34.5 33s17.834 25.5 24.501 39.5l64 -36
c-9.33301 -19.333 -21 -37.5 -35 -54.5s-30.667 -31.833 -50 -44.5s-41.666 -22.667 -66.999 -30s-54.333 -11 -87 -11c-30 0 -57.5 4.5 -82.5 13.5s-46.5 22 -64.5 39s-32 37.833 -42 62.5s-15 52.667 -15 84c0 42 6.66699 82.5 20 121.5s32.666 73.5 57.999 103.5
s56.666 54.167 93.999 72.5s79.666 27.5 126.999 27.5c33.333 0 62.333 -5.16699 87 -15.5s45 -24.333 61 -42s28 -37.667 36 -60s12 -45.5 12 -69.5c0 -18 -2 -35.333 -6 -52l-11 -47h-398zM321.003 436.001c-23.333 0 -45.166 -3.5 -65.499 -10.5
s-38.833 -16.833 -55.5 -29.5s-31 -27.5 -43 -44.5s-21.333 -35.5 -28 -55.5h318c2 10.667 3 20.667 3 30c0 36 -12.333 63.333 -37 82s-55.334 28 -92.001 28zM332.003 688.001l41 -118h-66l-59 118h84z" />
    <glyph glyph-name="eacute" unicode="&#xe9;" 
d="M112 224c-1.33301 -5.33301 -2.33008 -11.332 -2.99707 -17.999s-1 -13.667 -1 -21c0 -36.667 10.667 -66.834 32 -90.501s55.333 -35.5 102 -35.5c23.333 0 44.166 2.66699 62.499 8s34.166 12.833 47.499 22.5s24.833 20.667 34.5 33s17.834 25.5 24.501 39.5l64 -36
c-9.33301 -19.333 -21 -37.5 -35 -54.5s-30.667 -31.833 -50 -44.5s-41.666 -22.667 -66.999 -30s-54.333 -11 -87 -11c-30 0 -57.5 4.5 -82.5 13.5s-46.5 22 -64.5 39s-32 37.833 -42 62.5s-15 52.667 -15 84c0 42 6.66699 82.5 20 121.5s32.666 73.5 57.999 103.5
s56.666 54.167 93.999 72.5s79.666 27.5 126.999 27.5c33.333 0 62.333 -5.16699 87 -15.5s45 -24.333 61 -42s28 -37.667 36 -60s12 -45.5 12 -69.5c0 -18 -2 -35.333 -6 -52l-11 -47h-398zM321.003 436.001c-23.333 0 -45.166 -3.5 -65.499 -10.5
s-38.833 -16.833 -55.5 -29.5s-31 -27.5 -43 -44.5s-21.333 -35.5 -28 -55.5h318c2 10.667 3 20.667 3 30c0 36 -12.333 63.333 -37 82s-55.334 28 -92.001 28zM486.003 688.001v-6l-103 -112h-80l91 118h92z" />
    <glyph glyph-name="ecircumflex" unicode="&#xea;" 
d="M112 224c-1.33301 -5.33301 -2.33008 -11.332 -2.99707 -17.999s-1 -13.667 -1 -21c0 -36.667 10.667 -66.834 32 -90.501s55.333 -35.5 102 -35.5c23.333 0 44.166 2.66699 62.499 8s34.166 12.833 47.499 22.5s24.833 20.667 34.5 33s17.834 25.5 24.501 39.5l64 -36
c-9.33301 -19.333 -21 -37.5 -35 -54.5s-30.667 -31.833 -50 -44.5s-41.666 -22.667 -66.999 -30s-54.333 -11 -87 -11c-30 0 -57.5 4.5 -82.5 13.5s-46.5 22 -64.5 39s-32 37.833 -42 62.5s-15 52.667 -15 84c0 42 6.66699 82.5 20 121.5s32.666 73.5 57.999 103.5
s56.666 54.167 93.999 72.5s79.666 27.5 126.999 27.5c33.333 0 62.333 -5.16699 87 -15.5s45 -24.333 61 -42s28 -37.667 36 -60s12 -45.5 12 -69.5c0 -18 -2 -35.333 -6 -52l-11 -47h-398zM321.003 436.001c-23.333 0 -45.166 -3.5 -65.499 -10.5
s-38.833 -16.833 -55.5 -29.5s-31 -27.5 -43 -44.5s-21.333 -35.5 -28 -55.5h318c2 10.667 3 20.667 3 30c0 36 -12.333 63.333 -37 82s-55.334 28 -92.001 28zM213.003 570.001v6l100 112h124l55 -118h-75l-39 88h-12l-68 -88h-85z" />
    <glyph glyph-name="edieresis" unicode="&#xeb;" 
d="M112 224c-1.33301 -5.33301 -2.33008 -11.332 -2.99707 -17.999s-1 -13.667 -1 -21c0 -36.667 10.667 -66.834 32 -90.501s55.333 -35.5 102 -35.5c23.333 0 44.166 2.66699 62.499 8s34.166 12.833 47.499 22.5s24.833 20.667 34.5 33s17.834 25.5 24.501 39.5l64 -36
c-9.33301 -19.333 -21 -37.5 -35 -54.5s-30.667 -31.833 -50 -44.5s-41.666 -22.667 -66.999 -30s-54.333 -11 -87 -11c-30 0 -57.5 4.5 -82.5 13.5s-46.5 22 -64.5 39s-32 37.833 -42 62.5s-15 52.667 -15 84c0 42 6.66699 82.5 20 121.5s32.666 73.5 57.999 103.5
s56.666 54.167 93.999 72.5s79.666 27.5 126.999 27.5c33.333 0 62.333 -5.16699 87 -15.5s45 -24.333 61 -42s28 -37.667 36 -60s12 -45.5 12 -69.5c0 -18 -2 -35.333 -6 -52l-11 -47h-398zM321.003 436.001c-23.333 0 -45.166 -3.5 -65.499 -10.5
s-38.833 -16.833 -55.5 -29.5s-31 -27.5 -43 -44.5s-21.333 -35.5 -28 -55.5h318c2 10.667 3 20.667 3 30c0 36 -12.333 63.333 -37 82s-55.334 28 -92.001 28zM161.003 644.001c0 19.333 6.83301 35.833 20.5 49.5s30.167 20.5 49.5 20.5s35.833 -6.83301 49.5 -20.5
s20.5 -30.167 20.5 -49.5s-6.83301 -35.833 -20.5 -49.5s-30.167 -20.5 -49.5 -20.5s-35.833 6.83301 -49.5 20.5s-20.5 30.167 -20.5 49.5zM361.003 644.001c0 19.333 6.83301 35.833 20.5 49.5s30.167 20.5 49.5 20.5s35.833 -6.83301 49.5 -20.5s20.5 -30.167 20.5 -49.5
s-6.83301 -35.833 -20.5 -49.5s-30.167 -20.5 -49.5 -20.5s-35.833 6.83301 -49.5 20.5s-20.5 30.167 -20.5 49.5z" />
    <glyph glyph-name="igrave" unicode="&#xec;" 
d="M287 409c1.33301 6.66699 0.499023 12.5 -2.50098 17.5s-8.16699 7.5 -15.5 7.5c-5.33301 0 -10.333 -1.33301 -15 -4l-117 -80l-40 59l118 80c20.667 14 43 21 67 21c22.667 0 42.334 -6.66699 59.001 -20s25 -34 25 -62c0 -10.667 -1.33301 -21.334 -4 -32.001
l-74 -309c-2 -8 -1.16699 -14.333 2.5 -19s8.5 -7 14.5 -7c4.66699 0 9.66699 1.66699 15 5l115 78l40 -59l-115 -78c-21.333 -14 -43.666 -21 -66.999 -21c-22.667 0 -42.334 6.66699 -59.001 20s-25 34 -25 62c0 10.667 1.33301 21.334 4 32.001zM319.999 688l41 -118h-66
l-59 118h84z" />
    <glyph glyph-name="iacute" unicode="&#xed;" 
d="M287 409c1.33301 6.66699 0.499023 12.5 -2.50098 17.5s-8.16699 7.5 -15.5 7.5c-5.33301 0 -10.333 -1.33301 -15 -4l-117 -80l-40 59l118 80c20.667 14 43 21 67 21c22.667 0 42.334 -6.66699 59.001 -20s25 -34 25 -62c0 -10.667 -1.33301 -21.334 -4 -32.001
l-74 -309c-2 -8 -1.16699 -14.333 2.5 -19s8.5 -7 14.5 -7c4.66699 0 9.66699 1.66699 15 5l115 78l40 -59l-115 -78c-21.333 -14 -43.666 -21 -66.999 -21c-22.667 0 -42.334 6.66699 -59.001 20s-25 34 -25 62c0 10.667 1.33301 21.334 4 32.001zM466.999 688v-6
l-103 -112h-80l91 118h92z" />
    <glyph glyph-name="icircumflex" unicode="&#xee;" 
d="M287 409c1.33301 6.66699 0.499023 12.5 -2.50098 17.5s-8.16699 7.5 -15.5 7.5c-5.33301 0 -10.333 -1.33301 -15 -4l-117 -80l-40 59l118 80c20.667 14 43 21 67 21c22.667 0 42.334 -6.66699 59.001 -20s25 -34 25 -62c0 -10.667 -1.33301 -21.334 -4 -32.001
l-74 -309c-2 -8 -1.16699 -14.333 2.5 -19s8.5 -7 14.5 -7c4.66699 0 9.66699 1.66699 15 5l115 78l40 -59l-115 -78c-21.333 -14 -43.666 -21 -66.999 -21c-22.667 0 -42.334 6.66699 -59.001 20s-25 34 -25 62c0 10.667 1.33301 21.334 4 32.001zM178.999 570v6l100 112
h124l55 -118h-75l-39 88h-12l-68 -88h-85z" />
    <glyph glyph-name="idieresis" unicode="&#xef;" 
d="M287 409c1.33301 6.66699 0.499023 12.5 -2.50098 17.5s-8.16699 7.5 -15.5 7.5c-5.33301 0 -10.333 -1.33301 -15 -4l-117 -80l-40 59l118 80c20.667 14 43 21 67 21c22.667 0 42.334 -6.66699 59.001 -20s25 -34 25 -62c0 -10.667 -1.33301 -21.334 -4 -32.001
l-74 -309c-2 -8 -1.16699 -14.333 2.5 -19s8.5 -7 14.5 -7c4.66699 0 9.66699 1.66699 15 5l115 78l40 -59l-115 -78c-21.333 -14 -43.666 -21 -66.999 -21c-22.667 0 -42.334 6.66699 -59.001 20s-25 34 -25 62c0 10.667 1.33301 21.334 4 32.001zM157.999 644
c0 19.333 6.83301 35.833 20.5 49.5s30.167 20.5 49.5 20.5s35.833 -6.83301 49.5 -20.5s20.5 -30.167 20.5 -49.5s-6.83301 -35.833 -20.5 -49.5s-30.167 -20.5 -49.5 -20.5s-35.833 6.83301 -49.5 20.5s-20.5 30.167 -20.5 49.5zM357.999 644
c0 19.333 6.83301 35.833 20.5 49.5s30.167 20.5 49.5 20.5s35.833 -6.83301 49.5 -20.5s20.5 -30.167 20.5 -49.5s-6.83301 -35.833 -20.5 -49.5s-30.167 -20.5 -49.5 -20.5s-35.833 6.83301 -49.5 20.5s-20.5 30.167 -20.5 49.5z" />
    <glyph glyph-name="eth" unicode="&#xf0;" 
d="M319 618c-28 10 -59.333 17.002 -94 21.002l15 75c21.333 -2.66699 41.333 -6.33398 60 -11.001s36.667 -10.334 54 -17.001l19 36l62 -31l-19 -37c42.667 -28 74.834 -64.833 96.501 -110.5s32.5 -101.5 32.5 -167.5c0 -48 -6 -95.167 -18 -141.5s-31 -88 -57 -125
s-59 -66.833 -99 -89.5s-88 -34 -144 -34c-29.333 0 -56.5 4.66699 -81.5 14s-46.833 23 -65.5 41s-33.334 40.167 -44.001 66.5s-16 56.833 -16 91.5c0 41.333 7.16699 80.833 21.5 118.5s34.5 70.667 60.5 99s57.167 51 93.5 68s76.166 25.5 119.499 25.5
c38 0 68 -7.33301 90 -22s37.333 -32 46 -52h12c-2.66699 34 -11.167 63.5 -25.5 88.5s-33.166 45.5 -56.499 61.5l-20 -39l-63 31zM237 60.002c30.667 0 59 6.83203 85 20.499s48.667 31.334 68 53.001s34.5 46.167 45.5 73.5s16.5 54.666 16.5 81.999
c0 46.667 -12.5 82.834 -37.5 108.501s-57.5 38.5 -97.5 38.5c-31.333 0 -60 -6.66699 -86 -20s-48.667 -31 -68 -53s-34.333 -47.167 -45 -75.5s-16 -57.5 -16 -87.5c0 -44 12 -78.333 36 -103s57 -37 99 -37z" />
    <glyph glyph-name="ntilde" unicode="&#xf1;" 
d="M413 298c2 9.33301 3.33496 17.165 4.00195 23.498s1 12.833 1 19.5c0 32 -9.5 55.833 -28.5 71.5s-45.5 23.5 -79.5 23.5c-45.333 0 -82.333 -16.167 -111 -48.5s-48.334 -73.5 -59.001 -123.5l-56 -264h-78l106 496h78l-15 -72h12c16.667 30 38.5 51.833 65.5 65.5
s55.5 20.5 85.5 20.5c21.333 0 41.666 -3.5 60.999 -10.5s36.166 -17.167 50.499 -30.5s25.666 -29.666 33.999 -48.999s12.5 -41.666 12.5 -66.999c0 -16.667 -2 -34.334 -6 -53.001l-48 -222c-1.33301 -5.33301 -0.666016 -9.33301 2.00098 -12s6 -4 10 -4
s7.66699 1.33301 11 4l42 31l42 -59l-39 -29c-20 -15.333 -42.333 -23 -67 -23c-10 0 -19.667 1.16699 -29 3.5s-17.666 6.33301 -24.999 12s-13.333 13.167 -18 22.5s-7 21 -7 35c0 8.66699 1.33301 19.334 4 32.001zM388.002 638.999
c3.33301 -6.66699 6.66699 -11.667 10 -15s8 -5 14 -5c6.66699 0 13 3.33301 19 10l48 55l49 -42l-41 -49c-9.33301 -11.333 -20.333 -21.166 -33 -29.499s-27.667 -12.5 -45 -12.5c-20.667 0 -36.5 4.66699 -47.5 14s-22.167 24.333 -33.5 45
c-4.66699 8 -8.5 13.667 -11.5 17s-7.16699 5 -12.5 5c-7.33301 0 -14.666 -4 -21.999 -12l-46 -53l-49 42l41 49c9.33301 11.333 20.333 21.166 33 29.499s28 12.5 46 12.5c19.333 0 34.666 -4.83301 45.999 -14.5s23 -25.167 35 -46.5z" />
    <glyph glyph-name="ograve" unicode="&#xf2;" 
d="M329 510c28.667 0 55.334 -5.00098 80.001 -15.001s46 -24 64 -42s32.167 -39.5 42.5 -64.5s15.5 -52.5 15.5 -82.5c0 -41.333 -6.83301 -81.166 -20.5 -119.499s-33.667 -72.333 -60 -102s-58.666 -53.5 -96.999 -71.5s-81.833 -27 -130.5 -27
c-28 0 -54.333 4.83301 -79 14.5s-46.167 23.167 -64.5 40.5s-32.833 38.5 -43.5 63.5s-16 52.833 -16 83.5c0 48 8.16699 91.833 24.5 131.5s38.666 73.5 66.999 101.5s61.166 49.833 98.499 65.5s77 23.5 119 23.5zM240 59.999c30.667 0 59 6.83203 85 20.499
s48.333 31.667 67 54s33.167 47.833 43.5 76.5s15.5 58.334 15.5 89.001c0 39.333 -12.167 71.833 -36.5 97.5s-58.5 38.5 -102.5 38.5c-28.667 0 -55.667 -6.33301 -81 -19s-47.5 -30 -66.5 -52s-34.167 -47.5 -45.5 -76.5s-17 -59.833 -17 -92.5c0 -40 12 -72.667 36 -98
s58 -38 102 -38zM345 687.998l41 -118h-66l-59 118h84z" />
    <glyph glyph-name="oacute" unicode="&#xf3;" 
d="M329 510c28.667 0 55.334 -5.00098 80.001 -15.001s46 -24 64 -42s32.167 -39.5 42.5 -64.5s15.5 -52.5 15.5 -82.5c0 -41.333 -6.83301 -81.166 -20.5 -119.499s-33.667 -72.333 -60 -102s-58.666 -53.5 -96.999 -71.5s-81.833 -27 -130.5 -27
c-28 0 -54.333 4.83301 -79 14.5s-46.167 23.167 -64.5 40.5s-32.833 38.5 -43.5 63.5s-16 52.833 -16 83.5c0 48 8.16699 91.833 24.5 131.5s38.666 73.5 66.999 101.5s61.166 49.833 98.499 65.5s77 23.5 119 23.5zM240 59.999c30.667 0 59 6.83203 85 20.499
s48.333 31.667 67 54s33.167 47.833 43.5 76.5s15.5 58.334 15.5 89.001c0 39.333 -12.167 71.833 -36.5 97.5s-58.5 38.5 -102.5 38.5c-28.667 0 -55.667 -6.33301 -81 -19s-47.5 -30 -66.5 -52s-34.167 -47.5 -45.5 -76.5s-17 -59.833 -17 -92.5c0 -40 12 -72.667 36 -98
s58 -38 102 -38zM475 687.998v-6l-103 -112h-80l91 118h92z" />
    <glyph glyph-name="ocircumflex" unicode="&#xf4;" 
d="M329 510c28.667 0 55.334 -5.00098 80.001 -15.001s46 -24 64 -42s32.167 -39.5 42.5 -64.5s15.5 -52.5 15.5 -82.5c0 -41.333 -6.83301 -81.166 -20.5 -119.499s-33.667 -72.333 -60 -102s-58.666 -53.5 -96.999 -71.5s-81.833 -27 -130.5 -27
c-28 0 -54.333 4.83301 -79 14.5s-46.167 23.167 -64.5 40.5s-32.833 38.5 -43.5 63.5s-16 52.833 -16 83.5c0 48 8.16699 91.833 24.5 131.5s38.666 73.5 66.999 101.5s61.166 49.833 98.499 65.5s77 23.5 119 23.5zM240 59.999c30.667 0 59 6.83203 85 20.499
s48.333 31.667 67 54s33.167 47.833 43.5 76.5s15.5 58.334 15.5 89.001c0 39.333 -12.167 71.833 -36.5 97.5s-58.5 38.5 -102.5 38.5c-28.667 0 -55.667 -6.33301 -81 -19s-47.5 -30 -66.5 -52s-34.167 -47.5 -45.5 -76.5s-17 -59.833 -17 -92.5c0 -40 12 -72.667 36 -98
s58 -38 102 -38zM217 569.998v6l100 112h124l55 -118h-75l-39 88h-12l-68 -88h-85z" />
    <glyph glyph-name="otilde" unicode="&#xf5;" 
d="M329 510c28.667 0 55.334 -5.00098 80.001 -15.001s46 -24 64 -42s32.167 -39.5 42.5 -64.5s15.5 -52.5 15.5 -82.5c0 -41.333 -6.83301 -81.166 -20.5 -119.499s-33.667 -72.333 -60 -102s-58.666 -53.5 -96.999 -71.5s-81.833 -27 -130.5 -27
c-28 0 -54.333 4.83301 -79 14.5s-46.167 23.167 -64.5 40.5s-32.833 38.5 -43.5 63.5s-16 52.833 -16 83.5c0 48 8.16699 91.833 24.5 131.5s38.666 73.5 66.999 101.5s61.166 49.833 98.499 65.5s77 23.5 119 23.5zM240 59.999c30.667 0 59 6.83203 85 20.499
s48.333 31.667 67 54s33.167 47.833 43.5 76.5s15.5 58.334 15.5 89.001c0 39.333 -12.167 71.833 -36.5 97.5s-58.5 38.5 -102.5 38.5c-28.667 0 -55.667 -6.33301 -81 -19s-47.5 -30 -66.5 -52s-34.167 -47.5 -45.5 -76.5s-17 -59.833 -17 -92.5c0 -40 12 -72.667 36 -98
s58 -38 102 -38zM417 638.998c3.33301 -6.66699 6.66699 -11.667 10 -15s8 -5 14 -5c6.66699 0 13 3.33301 19 10l48 55l49 -42l-41 -49c-9.33301 -11.333 -20.333 -21.166 -33 -29.499s-27.667 -12.5 -45 -12.5c-20.667 0 -36.5 4.66699 -47.5 14s-22.167 24.333 -33.5 45
c-4.66699 8 -8.5 13.667 -11.5 17s-7.16699 5 -12.5 5c-7.33301 0 -14.666 -4 -21.999 -12l-46 -53l-49 42l41 49c9.33301 11.333 20.333 21.166 33 29.499s28 12.5 46 12.5c19.333 0 34.666 -4.83301 45.999 -14.5s23 -25.167 35 -46.5z" />
    <glyph glyph-name="odieresis" unicode="&#xf6;" 
d="M329 510c28.667 0 55.334 -5.00098 80.001 -15.001s46 -24 64 -42s32.167 -39.5 42.5 -64.5s15.5 -52.5 15.5 -82.5c0 -41.333 -6.83301 -81.166 -20.5 -119.499s-33.667 -72.333 -60 -102s-58.666 -53.5 -96.999 -71.5s-81.833 -27 -130.5 -27
c-28 0 -54.333 4.83301 -79 14.5s-46.167 23.167 -64.5 40.5s-32.833 38.5 -43.5 63.5s-16 52.833 -16 83.5c0 48 8.16699 91.833 24.5 131.5s38.666 73.5 66.999 101.5s61.166 49.833 98.499 65.5s77 23.5 119 23.5zM240 59.999c30.667 0 59 6.83203 85 20.499
s48.333 31.667 67 54s33.167 47.833 43.5 76.5s15.5 58.334 15.5 89.001c0 39.333 -12.167 71.833 -36.5 97.5s-58.5 38.5 -102.5 38.5c-28.667 0 -55.667 -6.33301 -81 -19s-47.5 -30 -66.5 -52s-34.167 -47.5 -45.5 -76.5s-17 -59.833 -17 -92.5c0 -40 12 -72.667 36 -98
s58 -38 102 -38zM182 643.998c0 19.333 6.83301 35.833 20.5 49.5s30.167 20.5 49.5 20.5s35.833 -6.83301 49.5 -20.5s20.5 -30.167 20.5 -49.5s-6.83301 -35.833 -20.5 -49.5s-30.167 -20.5 -49.5 -20.5s-35.833 6.83301 -49.5 20.5s-20.5 30.167 -20.5 49.5zM382 643.998
c0 19.333 6.83301 35.833 20.5 49.5s30.167 20.5 49.5 20.5s35.833 -6.83301 49.5 -20.5s20.5 -30.167 20.5 -49.5s-6.83301 -35.833 -20.5 -49.5s-30.167 -20.5 -49.5 -20.5s-35.833 6.83301 -49.5 20.5s-20.5 30.167 -20.5 49.5z" />
    <glyph glyph-name="divide" unicode="&#xf7;" 
d="M97 386h418v-72h-418v72zM199 184c0 19.333 6.83301 35.833 20.5 49.5s30.167 20.5 49.5 20.5s35.833 -6.83301 49.5 -20.5s20.5 -30.167 20.5 -49.5s-6.83301 -35.833 -20.5 -49.5s-30.167 -20.5 -49.5 -20.5s-35.833 6.83301 -49.5 20.5s-20.5 30.167 -20.5 49.5z
M273 516c0 19.333 6.83301 35.833 20.5 49.5s30.167 20.5 49.5 20.5s35.833 -6.83301 49.5 -20.5s20.5 -30.167 20.5 -49.5s-6.83301 -35.833 -20.5 -49.5s-30.167 -20.5 -49.5 -20.5s-35.833 6.83301 -49.5 20.5s-20.5 30.167 -20.5 49.5z" />
    <glyph glyph-name="oslash" unicode="&#xf8;" 
d="M329 510c8 0 15.835 -0.499023 23.502 -1.49902s15.167 -2.16699 22.5 -3.5l29 53l60 -34l-24 -45c28 -17.333 50.167 -40.833 66.5 -70.5s24.5 -63.834 24.5 -102.501c0 -41.333 -6.83301 -81.166 -20.5 -119.499s-33.667 -72.333 -60 -102s-58.666 -53.5 -96.999 -71.5
s-81.833 -27 -130.5 -27c-14.667 0 -30.334 1.66699 -47.001 5l-31 -59l-60 35l26 49c-28 16.667 -50.167 39.667 -66.5 69s-24.5 63.666 -24.5 102.999c0 48 8.16699 91.833 24.5 131.5s38.666 73.5 66.999 101.5s61.166 49.833 98.499 65.5s77 23.5 119 23.5z
M240.002 60.001c30.667 0 59 6.83203 85 20.499s48.333 31.667 67 54s33.167 47.833 43.5 76.5s15.5 58.334 15.5 89.001c0 46 -16.667 82 -50 108l-186 -347c4 -0.666992 8 -1 12 -1h13zM102.002 196c0 -48 16 -84.333 48 -109l187 347c-4 0.666992 -8 1.16699 -12 1.5
s-8.33301 0.5 -13 0.5c-28.667 0 -55.667 -6.33301 -81 -19s-47.5 -30 -66.5 -52s-34.167 -47.5 -45.5 -76.5s-17 -59.833 -17 -92.5z" />
    <glyph glyph-name="ugrave" unicode="&#xf9;" 
d="M365 84l-12.0049 0.000976562c-18 -32 -41 -56.333 -69 -73s-62 -25 -102 -25c-44 0 -79.667 12.5 -107 37.5s-41 62.167 -41 111.5c0 10 0.5 20.167 1.5 30.5s3.16699 21.833 6.5 34.5l66 296h78l-64 -286c-4.66699 -20.667 -7 -40 -7 -58c0 -61.333 33 -92 99 -92
c46 0 85.167 16.167 117.5 48.5s54.5 75.5 66.5 129.5l58 258h78l-91 -412c-1.33301 -5.33301 -0.666016 -9.66602 2.00098 -12.999s6.33398 -5 11.001 -5s9.33398 1.66699 14.001 5l43 31l42 -58l-50 -38c-8 -6.66699 -17.833 -11.667 -29.5 -15s-23.5 -5 -35.5 -5
c-10 0 -19.667 1.33301 -29 4s-17.666 7 -24.999 13s-13.166 13.5 -17.499 22.5s-6.5 19.833 -6.5 32.5c0 3.33301 0.166992 6.66602 0.5 9.99902s0.833008 6.66602 1.5 9.99902zM320.995 688.001l41 -118h-66l-59 118h84z" />
    <glyph glyph-name="uacute" unicode="&#xfa;" 
d="M365 84l-12.0049 0.000976562c-18 -32 -41 -56.333 -69 -73s-62 -25 -102 -25c-44 0 -79.667 12.5 -107 37.5s-41 62.167 -41 111.5c0 10 0.5 20.167 1.5 30.5s3.16699 21.833 6.5 34.5l66 296h78l-64 -286c-4.66699 -20.667 -7 -40 -7 -58c0 -61.333 33 -92 99 -92
c46 0 85.167 16.167 117.5 48.5s54.5 75.5 66.5 129.5l58 258h78l-91 -412c-1.33301 -5.33301 -0.666016 -9.66602 2.00098 -12.999s6.33398 -5 11.001 -5s9.33398 1.66699 14.001 5l43 31l42 -58l-50 -38c-8 -6.66699 -17.833 -11.667 -29.5 -15s-23.5 -5 -35.5 -5
c-10 0 -19.667 1.33301 -29 4s-17.666 7 -24.999 13s-13.166 13.5 -17.499 22.5s-6.5 19.833 -6.5 32.5c0 3.33301 0.166992 6.66602 0.5 9.99902s0.833008 6.66602 1.5 9.99902zM477.995 688.001v-6l-103 -112h-80l91 118h92z" />
    <glyph glyph-name="ucircumflex" unicode="&#xfb;" 
d="M365 84l-12.0049 0.000976562c-18 -32 -41 -56.333 -69 -73s-62 -25 -102 -25c-44 0 -79.667 12.5 -107 37.5s-41 62.167 -41 111.5c0 10 0.5 20.167 1.5 30.5s3.16699 21.833 6.5 34.5l66 296h78l-64 -286c-4.66699 -20.667 -7 -40 -7 -58c0 -61.333 33 -92 99 -92
c46 0 85.167 16.167 117.5 48.5s54.5 75.5 66.5 129.5l58 258h78l-91 -412c-1.33301 -5.33301 -0.666016 -9.66602 2.00098 -12.999s6.33398 -5 11.001 -5s9.33398 1.66699 14.001 5l43 31l42 -58l-50 -38c-8 -6.66699 -17.833 -11.667 -29.5 -15s-23.5 -5 -35.5 -5
c-10 0 -19.667 1.33301 -29 4s-17.666 7 -24.999 13s-13.166 13.5 -17.499 22.5s-6.5 19.833 -6.5 32.5c0 3.33301 0.166992 6.66602 0.5 9.99902s0.833008 6.66602 1.5 9.99902zM187.995 570.001v6l100 112h124l55 -118h-75l-39 88h-12l-68 -88h-85z" />
    <glyph glyph-name="udieresis" unicode="&#xfc;" 
d="M365 84l-12.0049 0.000976562c-18 -32 -41 -56.333 -69 -73s-62 -25 -102 -25c-44 0 -79.667 12.5 -107 37.5s-41 62.167 -41 111.5c0 10 0.5 20.167 1.5 30.5s3.16699 21.833 6.5 34.5l66 296h78l-64 -286c-4.66699 -20.667 -7 -40 -7 -58c0 -61.333 33 -92 99 -92
c46 0 85.167 16.167 117.5 48.5s54.5 75.5 66.5 129.5l58 258h78l-91 -412c-1.33301 -5.33301 -0.666016 -9.66602 2.00098 -12.999s6.33398 -5 11.001 -5s9.33398 1.66699 14.001 5l43 31l42 -58l-50 -38c-8 -6.66699 -17.833 -11.667 -29.5 -15s-23.5 -5 -35.5 -5
c-10 0 -19.667 1.33301 -29 4s-17.666 7 -24.999 13s-13.166 13.5 -17.499 22.5s-6.5 19.833 -6.5 32.5c0 3.33301 0.166992 6.66602 0.5 9.99902s0.833008 6.66602 1.5 9.99902zM164.995 644.001c0 19.333 6.83301 35.833 20.5 49.5s30.167 20.5 49.5 20.5
s35.833 -6.83301 49.5 -20.5s20.5 -30.167 20.5 -49.5s-6.83301 -35.833 -20.5 -49.5s-30.167 -20.5 -49.5 -20.5s-35.833 6.83301 -49.5 20.5s-20.5 30.167 -20.5 49.5zM364.995 644.001c0 19.333 6.83301 35.833 20.5 49.5s30.167 20.5 49.5 20.5
s35.833 -6.83301 49.5 -20.5s20.5 -30.167 20.5 -49.5s-6.83301 -35.833 -20.5 -49.5s-30.167 -20.5 -49.5 -20.5s-35.833 6.83301 -49.5 20.5s-20.5 30.167 -20.5 49.5z" />
    <glyph glyph-name="yacute" unicode="&#xfd;" 
d="M190 210c-4.66699 -20.667 -7 -40.001 -7 -58.001c0 -61.333 33 -92 99 -92c46 0 85.333 16.167 118 48.5s54.667 75.5 66 129.5l54 258h78l-131 -618c-4.66699 -22.667 -15.667 -41.334 -33 -56.001s-37.333 -22 -60 -22h-271v72h258c18 0 29 10 33 30l38 176h-12
c-20 -30 -43.833 -52.833 -71.5 -68.5s-60.5 -23.5 -98.5 -23.5c-44.667 0 -80.334 13.333 -107.001 40s-40 64.334 -40 113.001c0 20 2.33301 40.333 7 61l45 214c1.33301 6.66699 0.5 11.834 -2.5 15.501s-6.83301 5.5 -11.5 5.5c-4 0 -8.33301 -1.66699 -13 -5l-51 -35
l-40 59l52 35c20.667 14 41.667 21 63 21c22 0 41 -7.33301 57 -22s24 -35 24 -61c0 -4 -0.166992 -7.83301 -0.5 -11.5s-1.16602 -8.5 -2.49902 -14.5zM524 687.999v-6l-103 -112h-80l91 118h92z" />
    <glyph glyph-name="thorn" unicode="&#xfe;" 
d="M23 -200l-77.0049 0.00292969l193 914h78l-63 -296h12c23.333 32 51.5 55.333 84.5 70s67.5 22 103.5 22c25.333 0 49.333 -4.33301 72 -13s42.334 -21.334 59.001 -38.001s29.834 -37 39.501 -61s14.5 -51.333 14.5 -82c0 -42.667 -6.16699 -83.834 -18.5 -123.501
s-30.666 -74.834 -54.999 -105.501s-55 -55.167 -92 -73.5s-80.167 -27.5 -129.5 -27.5c-16 0 -31.667 2 -47 6s-29.666 9.83301 -42.999 17.5s-25.166 17 -35.499 28s-18.5 23.833 -24.5 38.5h-12zM246.995 60.0029c31.333 0 59.8359 6.66406 85.5029 19.9971
s47.667 30.833 66 52.5s32.5 46.334 42.5 74.001s15 55.834 15 84.501c0 46 -12.333 81.667 -37 107s-58.334 38 -101.001 38c-28.667 0 -55.5 -6.66699 -80.5 -20s-46.833 -31.166 -65.5 -53.499s-33.334 -48 -44.001 -77s-16 -59.167 -16 -90.5
c0 -44 12.667 -77.5 38 -100.5s57.666 -34.5 96.999 -34.5z" />
    <glyph glyph-name="ydieresis" unicode="&#xff;" 
d="M190 210c-4.66699 -20.667 -7 -40.001 -7 -58.001c0 -61.333 33 -92 99 -92c46 0 85.333 16.167 118 48.5s54.667 75.5 66 129.5l54 258h78l-131 -618c-4.66699 -22.667 -15.667 -41.334 -33 -56.001s-37.333 -22 -60 -22h-271v72h258c18 0 29 10 33 30l38 176h-12
c-20 -30 -43.833 -52.833 -71.5 -68.5s-60.5 -23.5 -98.5 -23.5c-44.667 0 -80.334 13.333 -107.001 40s-40 64.334 -40 113.001c0 20 2.33301 40.333 7 61l45 214c1.33301 6.66699 0.5 11.834 -2.5 15.501s-6.83301 5.5 -11.5 5.5c-4 0 -8.33301 -1.66699 -13 -5l-51 -35
l-40 59l52 35c20.667 14 41.667 21 63 21c22 0 41 -7.33301 57 -22s24 -35 24 -61c0 -4 -0.166992 -7.83301 -0.5 -11.5s-1.16602 -8.5 -2.49902 -14.5zM220 643.999c0 19.333 6.83301 35.833 20.5 49.5s30.167 20.5 49.5 20.5s35.833 -6.83301 49.5 -20.5
s20.5 -30.167 20.5 -49.5s-6.83301 -35.833 -20.5 -49.5s-30.167 -20.5 -49.5 -20.5s-35.833 6.83301 -49.5 20.5s-20.5 30.167 -20.5 49.5zM420 643.999c0 19.333 6.83301 35.833 20.5 49.5s30.167 20.5 49.5 20.5s35.833 -6.83301 49.5 -20.5s20.5 -30.167 20.5 -49.5
s-6.83301 -35.833 -20.5 -49.5s-30.167 -20.5 -49.5 -20.5s-35.833 6.83301 -49.5 20.5s-20.5 30.167 -20.5 49.5z" />
    <glyph glyph-name="Amacron" unicode="&#x100;" 
d="M419 174h-281l-85 -174h-95l347 700h160l50 -700h-85zM176 252h238l-26 411h-12zM529 774h-282v66h282v-66z" />
    <glyph glyph-name="amacron" unicode="&#x101;" 
d="M347 78c-20.667 -35.333 -45.1699 -59.498 -73.5029 -72.498s-58.166 -19.5 -89.499 -19.5c-26.667 0 -50.667 4.83301 -72 14.5s-39.333 23.167 -54 40.5s-26 38.166 -34 62.499s-12 51.166 -12 80.499c0 42 6 82.667 18 122s29.5 74 52.5 104s51.5 54.167 85.5 72.5
s73.333 27.5 118 27.5c34 0 63 -7.83301 87 -23.5s39.667 -38.5 47 -68.5h12l16 78h78l-88 -412c-1.33301 -6 -0.666016 -10.5 2.00098 -13.5s6.33398 -4.5 11.001 -4.5s9.33398 1.66699 14.001 5l36 26l42 -59l-45 -34c-7.33301 -5.33301 -16.5 -9.66602 -27.5 -12.999
s-22.167 -5 -33.5 -5c-10 0 -19.667 1.33301 -29 4s-17.833 6.83398 -25.5 12.501s-13.834 13 -18.501 22s-7 20.167 -7 33.5c0 3.33301 0.166992 6.66602 0.5 9.99902s0.833008 6.66602 1.5 9.99902h-12zM207.997 60.002c26.667 0 51.834 6.16504 75.501 18.498
s44.334 29.166 62.001 50.499s31.5 46.5 41.5 75.5s15 60.5 15 94.5c0 41.333 -9.33301 74.5 -28 99.5s-47.667 37.5 -87 37.5c-31.333 0 -58.833 -6.66699 -82.5 -20s-43.834 -31.166 -60.501 -53.499s-29.167 -48.166 -37.5 -77.499s-12.5 -59.666 -12.5 -90.999
c0 -44 9.66699 -77.333 29 -100s47.666 -34 84.999 -34zM446.997 570h-282v66h282v-66z" />
    <glyph glyph-name="Abreve" unicode="&#x102;" 
d="M419 174h-281l-85 -174h-95l347 700h160l50 -700h-85zM176 252h238l-26 411h-12zM528 892l-3.00195 -13.999c-7.33301 -34 -21.166 -59.833 -41.499 -77.5s-48.5 -26.5 -84.5 -26.5c-33.333 0 -58.5 10 -75.5 30s-22.5 44.667 -16.5 74l3 14h68l-3 -11
c-3.33301 -12.667 -1.83301 -22.834 4.5 -30.501s16.166 -11.5 29.499 -11.5c14.667 0 25.334 4.16699 32.001 12.5s11.334 17.833 14.001 28.5l3 12h70z" />
    <glyph glyph-name="abreve" unicode="&#x103;" 
d="M347 78c-20.667 -35.333 -45.1699 -59.498 -73.5029 -72.498s-58.166 -19.5 -89.499 -19.5c-26.667 0 -50.667 4.83301 -72 14.5s-39.333 23.167 -54 40.5s-26 38.166 -34 62.499s-12 51.166 -12 80.499c0 42 6 82.667 18 122s29.5 74 52.5 104s51.5 54.167 85.5 72.5
s73.333 27.5 118 27.5c34 0 63 -7.83301 87 -23.5s39.667 -38.5 47 -68.5h12l16 78h78l-88 -412c-1.33301 -6 -0.666016 -10.5 2.00098 -13.5s6.33398 -4.5 11.001 -4.5s9.33398 1.66699 14.001 5l36 26l42 -59l-45 -34c-7.33301 -5.33301 -16.5 -9.66602 -27.5 -12.999
s-22.167 -5 -33.5 -5c-10 0 -19.667 1.33301 -29 4s-17.833 6.83398 -25.5 12.501s-13.834 13 -18.501 22s-7 20.167 -7 33.5c0 3.33301 0.166992 6.66602 0.5 9.99902s0.833008 6.66602 1.5 9.99902h-12zM207.997 60.002c26.667 0 51.834 6.16504 75.501 18.498
s44.334 29.166 62.001 50.499s31.5 46.5 41.5 75.5s15 60.5 15 94.5c0 41.333 -9.33301 74.5 -28 99.5s-47.667 37.5 -87 37.5c-31.333 0 -58.833 -6.66699 -82.5 -20s-43.834 -31.166 -60.501 -53.499s-29.167 -48.166 -37.5 -77.499s-12.5 -59.666 -12.5 -90.999
c0 -44 9.66699 -77.333 29 -100s47.666 -34 84.999 -34zM443.997 688l-3.00195 -13.999c-7.33301 -34 -21.166 -59.833 -41.499 -77.5s-48.5 -26.5 -84.5 -26.5c-33.333 0 -58.5 10 -75.5 30s-22.5 44.667 -16.5 74l3 14h68l-3 -11
c-3.33301 -12.667 -1.83301 -22.834 4.5 -30.501s16.166 -11.5 29.499 -11.5c14.667 0 25.334 4.16699 32.001 12.5s11.334 17.833 14.001 28.5l3 12h70z" />
    <glyph glyph-name="Aogonek" unicode="&#x104;" 
d="M419 174l-281 -0.000976562l-85 -174h-95l347 700h160l50 -700h-17l-30 -68c-2 -5.33301 -3 -9.66602 -3 -12.999c0 -11.333 6.33301 -17 19 -17h42v-66h-70c-16.667 0 -31.167 5.33301 -43.5 16s-18.5 25.667 -18.5 45c0 12 2.66699 24.333 8 37l28 66zM176 251.999h238
l-26 411h-12z" />
    <glyph glyph-name="aogonek" unicode="&#x105;" 
d="M347 78c-20.667 -35.333 -45.1709 -59.4951 -73.5039 -72.4951s-58.166 -19.5 -89.499 -19.5c-26.667 0 -50.667 4.83301 -72 14.5s-39.333 23.167 -54 40.5s-26 38.166 -34 62.499s-12 51.166 -12 80.499c0 42 6 82.667 18 122s29.5 74 52.5 104s51.5 54.167 85.5 72.5
s73.333 27.5 118 27.5c34 0 63 -7.83301 87 -23.5s39.667 -38.5 47 -68.5h12l16 78h78l-88 -412c-1.33301 -6 -0.666016 -10.5 2.00098 -13.5s6.33398 -4.5 11.001 -4.5s9.33398 1.66699 14.001 5l36 26l42 -59l-141 -105c-7.33301 -5.33301 -11 -11 -11 -17
c0 -9.33301 5.33301 -14 16 -14h87v-66h-104c-22 0 -39.833 7.16699 -53.5 21.5s-20.5 31.166 -20.5 50.499c0 12 3.33301 24.333 10 37s17 24 31 34l29 21c-8.66699 5.33301 -15.667 12.833 -21 22.5s-8 21.5 -8 35.5c0 3.33301 0.166992 6.66602 0.5 9.99902
s0.833008 6.66602 1.5 9.99902h-12zM207.996 60.0049c26.667 0 51.834 6.16504 75.501 18.498s44.334 29.166 62.001 50.499s31.5 46.5 41.5 75.5s15 60.5 15 94.5c0 41.333 -9.33301 74.5 -28 99.5s-47.667 37.5 -87 37.5c-31.333 0 -58.833 -6.66699 -82.5 -20
s-43.834 -31.166 -60.501 -53.499s-29.167 -48.166 -37.5 -77.499s-12.5 -59.666 -12.5 -90.999c0 -44 9.66699 -77.333 29 -100s47.666 -34 84.999 -34z" />
    <glyph glyph-name="Cacute" unicode="&#x106;" 
d="M248 64c28.667 0 53.833 4.33105 75.5 12.998s40.167 20.667 55.5 36s28.166 33.833 38.499 55.5s18.833 45.5 25.5 71.5l3 12h84l-3 -12c-10 -40 -22.5 -75.833 -37.5 -107.5s-33.667 -58.334 -56 -80.001s-49.5 -38.167 -81.5 -49.5s-70 -17 -114 -17
c-32.667 0 -61.334 4.66699 -86.001 14s-45.5 22.5 -62.5 39.5s-29.833 37.167 -38.5 60.5s-13 49.333 -13 78c0 14 0.833008 28.833 2.5 44.5s4.16699 32.167 7.5 49.5l33 156c20 94.667 54.833 166 104.5 214s115.167 72 196.5 72c32 0 60.5 -4.66699 85.5 -14
s46 -22.166 63 -38.499s30 -36 39 -59s13.5 -47.833 13.5 -74.5c0 -21.333 -3 -44 -9 -68l-3 -12h-84l3 12c3.33301 12.667 5.5 23.834 6.5 33.501s1.5 19.167 1.5 28.5c0 35.333 -10.167 63.5 -30.5 84.5s-53.166 31.5 -98.499 31.5c-26.667 0 -51 -5.33301 -73 -16
s-41.667 -25.5 -59 -44.5s-32.166 -41.667 -44.499 -68s-21.833 -55.5 -28.5 -87.5l-31 -144c-3.33301 -15.333 -5.83301 -29.666 -7.5 -42.999s-2.5 -26 -2.5 -38c0 -44.667 10 -78 30 -100s51.667 -33 95 -33zM534.999 891.998v-6l-103 -112h-80l91 118h92z" />
    <glyph glyph-name="cacute" unicode="&#x107;" 
d="M510 170c-8.66699 -25.333 -20.6689 -49.1611 -36.002 -71.4941s-34.5 -41.833 -57.5 -58.5s-49.667 -29.834 -80 -39.501s-64.5 -14.5 -102.5 -14.5c-31.333 0 -59.833 4.83301 -85.5 14.5s-47.5 23.5 -65.5 41.5s-32 39.667 -42 65s-15 53.666 -15 84.999
c0 43.333 7.5 84.333 22.5 123s36.167 72.5 63.5 101.5s60.333 51.833 99 68.5s81.667 25 129 25c30.667 0 58.334 -4.33301 83.001 -13s45.667 -20.834 63 -36.501s30.666 -34.334 39.999 -56.001s14 -45.5 14 -71.5v-4.5c0 -1.66699 -0.333008 -5.16699 -1 -10.5l-80 -12
c0.666992 4 1 7 1 9v7c0 16 -2.5 30.833 -7.5 44.5s-13 25.667 -24 36s-25 18.5 -42 24.5s-37.167 9 -60.5 9c-31.333 0 -60.166 -6.33301 -86.499 -19s-49.333 -29.834 -69 -51.501s-35 -46.834 -46 -75.501s-16.5 -58.667 -16.5 -90c0 -47.333 12.667 -82.5 38 -105.5
s60 -34.5 104 -34.5c26.667 0 50.334 3.83301 71.001 11.5s38.667 17.667 54 30s28 26.5 38 42.5s17.667 32.667 23 50zM486.998 688.005v-6l-103 -112h-80l91 118h92z" />
    <glyph glyph-name="Ccircumflex" unicode="&#x108;" 
d="M248 64c28.667 0 53.833 4.33105 75.5 12.998s40.167 20.667 55.5 36s28.166 33.833 38.499 55.5s18.833 45.5 25.5 71.5l3 12h84l-3 -12c-10 -40 -22.5 -75.833 -37.5 -107.5s-33.667 -58.334 -56 -80.001s-49.5 -38.167 -81.5 -49.5s-70 -17 -114 -17
c-32.667 0 -61.334 4.66699 -86.001 14s-45.5 22.5 -62.5 39.5s-29.833 37.167 -38.5 60.5s-13 49.333 -13 78c0 14 0.833008 28.833 2.5 44.5s4.16699 32.167 7.5 49.5l33 156c20 94.667 54.833 166 104.5 214s115.167 72 196.5 72c32 0 60.5 -4.66699 85.5 -14
s46 -22.166 63 -38.499s30 -36 39 -59s13.5 -47.833 13.5 -74.5c0 -21.333 -3 -44 -9 -68l-3 -12h-84l3 12c3.33301 12.667 5.5 23.834 6.5 33.501s1.5 19.167 1.5 28.5c0 35.333 -10.167 63.5 -30.5 84.5s-53.166 31.5 -98.499 31.5c-26.667 0 -51 -5.33301 -73 -16
s-41.667 -25.5 -59 -44.5s-32.166 -41.667 -44.499 -68s-21.833 -55.5 -28.5 -87.5l-31 -144c-3.33301 -15.333 -5.83301 -29.666 -7.5 -42.999s-2.5 -26 -2.5 -38c0 -44.667 10 -78 30 -100s51.667 -33 95 -33zM261.999 773.998v6l100 112h124l55 -118h-75l-39 88h-12
l-68 -88h-85z" />
    <glyph glyph-name="ccircumflex" unicode="&#x109;" 
d="M510 170c-8.66699 -25.333 -20.6689 -49.1611 -36.002 -71.4941s-34.5 -41.833 -57.5 -58.5s-49.667 -29.834 -80 -39.501s-64.5 -14.5 -102.5 -14.5c-31.333 0 -59.833 4.83301 -85.5 14.5s-47.5 23.5 -65.5 41.5s-32 39.667 -42 65s-15 53.666 -15 84.999
c0 43.333 7.5 84.333 22.5 123s36.167 72.5 63.5 101.5s60.333 51.833 99 68.5s81.667 25 129 25c30.667 0 58.334 -4.33301 83.001 -13s45.667 -20.834 63 -36.501s30.666 -34.334 39.999 -56.001s14 -45.5 14 -71.5v-4.5c0 -1.66699 -0.333008 -5.16699 -1 -10.5l-80 -12
c0.666992 4 1 7 1 9v7c0 16 -2.5 30.833 -7.5 44.5s-13 25.667 -24 36s-25 18.5 -42 24.5s-37.167 9 -60.5 9c-31.333 0 -60.166 -6.33301 -86.499 -19s-49.333 -29.834 -69 -51.501s-35 -46.834 -46 -75.501s-16.5 -58.667 -16.5 -90c0 -47.333 12.667 -82.5 38 -105.5
s60 -34.5 104 -34.5c26.667 0 50.334 3.83301 71.001 11.5s38.667 17.667 54 30s28 26.5 38 42.5s17.667 32.667 23 50zM215.998 570.005v6l100 112h124l55 -118h-75l-39 88h-12l-68 -88h-85z" />
    <glyph glyph-name="Cdotaccent" unicode="&#x10a;" 
d="M248 64c28.667 0 53.833 4.33105 75.5 12.998s40.167 20.667 55.5 36s28.166 33.833 38.499 55.5s18.833 45.5 25.5 71.5l3 12h84l-3 -12c-10 -40 -22.5 -75.833 -37.5 -107.5s-33.667 -58.334 -56 -80.001s-49.5 -38.167 -81.5 -49.5s-70 -17 -114 -17
c-32.667 0 -61.334 4.66699 -86.001 14s-45.5 22.5 -62.5 39.5s-29.833 37.167 -38.5 60.5s-13 49.333 -13 78c0 14 0.833008 28.833 2.5 44.5s4.16699 32.167 7.5 49.5l33 156c20 94.667 54.833 166 104.5 214s115.167 72 196.5 72c32 0 60.5 -4.66699 85.5 -14
s46 -22.166 63 -38.499s30 -36 39 -59s13.5 -47.833 13.5 -74.5c0 -21.333 -3 -44 -9 -68l-3 -12h-84l3 12c3.33301 12.667 5.5 23.834 6.5 33.501s1.5 19.167 1.5 28.5c0 35.333 -10.167 63.5 -30.5 84.5s-53.166 31.5 -98.499 31.5c-26.667 0 -51 -5.33301 -73 -16
s-41.667 -25.5 -59 -44.5s-32.166 -41.667 -44.499 -68s-21.833 -55.5 -28.5 -87.5l-31 -144c-3.33301 -15.333 -5.83301 -29.666 -7.5 -42.999s-2.5 -26 -2.5 -38c0 -44.667 10 -78 30 -100s51.667 -33 95 -33zM335.999 847.998c0 19.333 6.83301 35.833 20.5 49.5
s30.167 20.5 49.5 20.5s35.833 -6.83301 49.5 -20.5s20.5 -30.167 20.5 -49.5s-6.83301 -35.833 -20.5 -49.5s-30.167 -20.5 -49.5 -20.5s-35.833 6.83301 -49.5 20.5s-20.5 30.167 -20.5 49.5z" />
    <glyph glyph-name="cdotaccent" unicode="&#x10b;" 
d="M510 170c-8.66699 -25.333 -20.6689 -49.1611 -36.002 -71.4941s-34.5 -41.833 -57.5 -58.5s-49.667 -29.834 -80 -39.501s-64.5 -14.5 -102.5 -14.5c-31.333 0 -59.833 4.83301 -85.5 14.5s-47.5 23.5 -65.5 41.5s-32 39.667 -42 65s-15 53.666 -15 84.999
c0 43.333 7.5 84.333 22.5 123s36.167 72.5 63.5 101.5s60.333 51.833 99 68.5s81.667 25 129 25c30.667 0 58.334 -4.33301 83.001 -13s45.667 -20.834 63 -36.501s30.666 -34.334 39.999 -56.001s14 -45.5 14 -71.5v-4.5c0 -1.66699 -0.333008 -5.16699 -1 -10.5l-80 -12
c0.666992 4 1 7 1 9v7c0 16 -2.5 30.833 -7.5 44.5s-13 25.667 -24 36s-25 18.5 -42 24.5s-37.167 9 -60.5 9c-31.333 0 -60.166 -6.33301 -86.499 -19s-49.333 -29.834 -69 -51.501s-35 -46.834 -46 -75.501s-16.5 -58.667 -16.5 -90c0 -47.333 12.667 -82.5 38 -105.5
s60 -34.5 104 -34.5c26.667 0 50.334 3.83301 71.001 11.5s38.667 17.667 54 30s28 26.5 38 42.5s17.667 32.667 23 50zM270.998 644.005c0 19.333 6.83301 35.833 20.5 49.5s30.167 20.5 49.5 20.5s35.833 -6.83301 49.5 -20.5s20.5 -30.167 20.5 -49.5
s-6.83301 -35.833 -20.5 -49.5s-30.167 -20.5 -49.5 -20.5s-35.833 6.83301 -49.5 20.5s-20.5 30.167 -20.5 49.5z" />
    <glyph glyph-name="Ccaron" unicode="&#x10c;" 
d="M248 64c28.667 0 53.833 4.33105 75.5 12.998s40.167 20.667 55.5 36s28.166 33.833 38.499 55.5s18.833 45.5 25.5 71.5l3 12h84l-3 -12c-10 -40 -22.5 -75.833 -37.5 -107.5s-33.667 -58.334 -56 -80.001s-49.5 -38.167 -81.5 -49.5s-70 -17 -114 -17
c-32.667 0 -61.334 4.66699 -86.001 14s-45.5 22.5 -62.5 39.5s-29.833 37.167 -38.5 60.5s-13 49.333 -13 78c0 14 0.833008 28.833 2.5 44.5s4.16699 32.167 7.5 49.5l33 156c20 94.667 54.833 166 104.5 214s115.167 72 196.5 72c32 0 60.5 -4.66699 85.5 -14
s46 -22.166 63 -38.499s30 -36 39 -59s13.5 -47.833 13.5 -74.5c0 -21.333 -3 -44 -9 -68l-3 -12h-84l3 12c3.33301 12.667 5.5 23.834 6.5 33.501s1.5 19.167 1.5 28.5c0 35.333 -10.167 63.5 -30.5 84.5s-53.166 31.5 -98.499 31.5c-26.667 0 -51 -5.33301 -73 -16
s-41.667 -25.5 -59 -44.5s-32.166 -41.667 -44.499 -68s-21.833 -55.5 -28.5 -87.5l-31 -144c-3.33301 -15.333 -5.83301 -29.666 -7.5 -42.999s-2.5 -26 -2.5 -38c0 -44.667 10 -78 30 -100s51.667 -33 95 -33zM555.999 891.998v-6l-100 -112h-124l-55 118h81l34 -88h12
l69 88h83z" />
    <glyph glyph-name="ccaron" unicode="&#x10d;" 
d="M510 170c-8.66699 -25.333 -20.6689 -49.1611 -36.002 -71.4941s-34.5 -41.833 -57.5 -58.5s-49.667 -29.834 -80 -39.501s-64.5 -14.5 -102.5 -14.5c-31.333 0 -59.833 4.83301 -85.5 14.5s-47.5 23.5 -65.5 41.5s-32 39.667 -42 65s-15 53.666 -15 84.999
c0 43.333 7.5 84.333 22.5 123s36.167 72.5 63.5 101.5s60.333 51.833 99 68.5s81.667 25 129 25c30.667 0 58.334 -4.33301 83.001 -13s45.667 -20.834 63 -36.501s30.666 -34.334 39.999 -56.001s14 -45.5 14 -71.5v-4.5c0 -1.66699 -0.333008 -5.16699 -1 -10.5l-80 -12
c0.666992 4 1 7 1 9v7c0 16 -2.5 30.833 -7.5 44.5s-13 25.667 -24 36s-25 18.5 -42 24.5s-37.167 9 -60.5 9c-31.333 0 -60.166 -6.33301 -86.499 -19s-49.333 -29.834 -69 -51.501s-35 -46.834 -46 -75.501s-16.5 -58.667 -16.5 -90c0 -47.333 12.667 -82.5 38 -105.5
s60 -34.5 104 -34.5c26.667 0 50.334 3.83301 71.001 11.5s38.667 17.667 54 30s28 26.5 38 42.5s17.667 32.667 23 50zM515.998 688.005v-6l-100 -112h-124l-55 118h81l34 -88h12l69 88h83z" />
    <glyph glyph-name="Dcaron" unicode="&#x10e;" 
d="M115 700h243.001c70.667 0 124 -15.833 160 -47.5s54 -77.5 54 -137.5c0 -12.667 -0.833008 -25.667 -2.5 -39s-4.16699 -27.333 -7.5 -42l-38 -174c-10 -47.333 -22.333 -87.5 -37 -120.5s-33.334 -59.833 -56.001 -80.5s-50.5 -35.667 -83.5 -45
s-73.167 -14 -120.5 -14h-227v78h66l115 544h-66v78zM226.001 78c30.667 0 57.834 3.00098 81.501 9.00098s44.167 16.167 61.5 30.5s32 33.5 44 57.5s21.667 54.333 29 91l35 168c3.33301 17.333 5.66602 31.666 6.99902 42.999s2 22.333 2 33c0 42.667 -12 72 -36 88
s-60.333 24 -109 24h-76l-115 -544h76zM525.001 892.001v-6l-100 -112h-124l-55 118h81l34 -88h12l69 88h83z" />
    <glyph glyph-name="dcaron" unicode="&#x10f;" 
d="M363 84c-2 -12 2.33301 -18.0029 13 -18.0029c4 0 8.33301 1.66699 13 5l36 26l43 -59l-45 -34c-7.33301 -5.33301 -16.5 -9.66602 -27.5 -12.999s-22.167 -5 -33.5 -5c-20 0 -38.333 5.5 -55 16.5s-25 29.5 -25 55.5v6h-12c-10.667 -23.333 -27.5 -42.166 -50.5 -56.499
s-48.5 -21.5 -76.5 -21.5c-44.667 0 -81 14.833 -109 44.5s-42 76.834 -42 141.501c0 36 5 74 15 114s25.333 76.5 46 109.5s47 60.333 79 82s69.667 32.5 113 32.5c30 0 53.5 -6.5 70.5 -19.5s28.167 -29.167 33.5 -48.5h12l57 272h78zM166 59.9971
c29.333 0 54.333 8.83398 75 26.501s37.667 39.5 51 65.5s23 53.5 29 82.5s9 55.167 9 78.5c0 82 -29.667 123 -89 123c-30 0 -55.667 -8.5 -77 -25.5s-38.833 -38.333 -52.5 -64s-23.5 -53.334 -29.5 -83.001s-9 -57.167 -9 -82.5c0 -40 8 -70.167 24 -90.5
s39 -30.5 69 -30.5zM516 629.998c0 19.333 6.83203 35.832 20.499 49.499s30.167 20.5 49.5 20.5s35.833 -6.83301 49.5 -20.5s20.5 -30.167 20.5 -49.5c0 -4.66699 -0.333008 -8.66699 -1 -12l-18 -86c-5.33301 -25.333 -15.666 -44.666 -30.999 -57.999s-36 -20 -62 -20
h-52v54h59c18.667 0 30 10 34 30l5 22h-4c-19.333 0 -35.833 6.83301 -49.5 20.5s-20.5 30.167 -20.5 49.5z" />
    <glyph glyph-name="Dcroat" unicode="&#x110;" 
d="M115 700h243.001c70.667 0 124 -15.833 160 -47.5s54 -77.5 54 -137.5c0 -12.667 -0.833008 -25.667 -2.5 -39s-4.16699 -27.333 -7.5 -42l-38 -174c-10 -47.333 -22.333 -87.5 -37 -120.5s-33.334 -59.833 -56.001 -80.5s-50.5 -35.667 -83.5 -45
s-73.167 -14 -120.5 -14h-227v78h66l49 233h-60v78h77l49 233h-66v78zM226.001 78c30.667 0 57.834 3.00098 81.501 9.00098s44.167 16.167 61.5 30.5s32 33.5 44 57.5s21.667 54.333 29 91l35 168c3.33301 17.333 5.66602 31.666 6.99902 42.999s2 22.333 2 33
c0 42.667 -12 72 -36 88s-60.333 24 -109 24h-76l-49 -233h91v-78h-108l-49 -233h76z" />
    <glyph glyph-name="dcroat" unicode="&#x111;" 
d="M305 634l175.998 0.000976562l17 80h78l-17 -80h60v-72h-76l-101 -478c-2 -12 2.33301 -18 13 -18c4 0 8.33301 1.66699 13 5l36 26l43 -59l-45 -34c-7.33301 -5.33301 -16.166 -9.66602 -26.499 -12.999s-21.833 -5 -34.5 -5c-10 0 -19.667 1.33301 -29 4
s-17.833 6.83398 -25.5 12.501s-13.834 13 -18.501 22s-7 20.167 -7 33.5c0 3.33301 0.166992 6.66602 0.5 9.99902s0.833008 6.66602 1.5 9.99902h-12c-21.333 -35.333 -46.666 -59.5 -75.999 -72.5s-60.333 -19.5 -93 -19.5c-26.667 0 -51 4.66699 -73 14
s-40.667 22.5 -56 39.5s-27.333 37.667 -36 62s-13 51.166 -13 80.499c0 41.333 6.33301 81.666 19 120.999s31 74.333 55 105s53.5 55.334 88.5 74.001s75.167 28 120.5 28c35.333 0 64.833 -7.33301 88.5 -22s39.834 -38 48.501 -70h12l30 144h-161v72zM205.998 60.001
c26.667 0 52.166 6.16602 76.499 18.499s45.666 29.166 63.999 50.499s32.833 46.5 43.5 75.5s16 60.5 16 94.5c0 41.333 -10.333 74.5 -31 99.5s-50.667 37.5 -90 37.5c-31.333 0 -59.166 -6.83301 -83.499 -20.5s-45.166 -31.667 -62.499 -54s-30.5 -48.166 -39.5 -77.499
s-13.5 -59.666 -13.5 -90.999c0 -88.667 40 -133 120 -133z" />
    <glyph glyph-name="Emacron" unicode="&#x112;" 
d="M177 700h395v-78h-328l-49 -232h305v-78h-322l-49 -234h317v-78h-418zM526 774h-282v66h282v-66z" />
    <glyph glyph-name="emacron" unicode="&#x113;" 
d="M112 224c-1.33301 -5.33301 -2.33008 -11.332 -2.99707 -17.999s-1 -13.667 -1 -21c0 -36.667 10.667 -66.834 32 -90.501s55.333 -35.5 102 -35.5c23.333 0 44.166 2.66699 62.499 8s34.166 12.833 47.499 22.5s24.833 20.667 34.5 33s17.834 25.5 24.501 39.5l64 -36
c-9.33301 -19.333 -21 -37.5 -35 -54.5s-30.667 -31.833 -50 -44.5s-41.666 -22.667 -66.999 -30s-54.333 -11 -87 -11c-30 0 -57.5 4.5 -82.5 13.5s-46.5 22 -64.5 39s-32 37.833 -42 62.5s-15 52.667 -15 84c0 42 6.66699 82.5 20 121.5s32.666 73.5 57.999 103.5
s56.666 54.167 93.999 72.5s79.666 27.5 126.999 27.5c33.333 0 62.333 -5.16699 87 -15.5s45 -24.333 61 -42s28 -37.667 36 -60s12 -45.5 12 -69.5c0 -18 -2 -35.333 -6 -52l-11 -47h-398zM321.003 436.001c-23.333 0 -45.166 -3.5 -65.499 -10.5
s-38.833 -16.833 -55.5 -29.5s-31 -27.5 -43 -44.5s-21.333 -35.5 -28 -55.5h318c2 10.667 3 20.667 3 30c0 36 -12.333 63.333 -37 82s-55.334 28 -92.001 28zM478.003 570.001h-282v66h282v-66z" />
    <glyph glyph-name="Ebreve" unicode="&#x114;" 
d="M177 700h395v-78h-328l-49 -232h305v-78h-322l-49 -234h317v-78h-418zM512 892l-3.00195 -13.999c-7.33301 -34 -21.166 -59.833 -41.499 -77.5s-48.5 -26.5 -84.5 -26.5c-33.333 0 -58.5 10 -75.5 30s-22.5 44.667 -16.5 74l3 14h68l-3 -11
c-3.33301 -12.667 -1.83301 -22.834 4.5 -30.501s16.166 -11.5 29.499 -11.5c14.667 0 25.334 4.16699 32.001 12.5s11.334 17.833 14.001 28.5l3 12h70z" />
    <glyph glyph-name="ebreve" unicode="&#x115;" 
d="M112 224c-1.33301 -5.33301 -2.33008 -11.332 -2.99707 -17.999s-1 -13.667 -1 -21c0 -36.667 10.667 -66.834 32 -90.501s55.333 -35.5 102 -35.5c23.333 0 44.166 2.66699 62.499 8s34.166 12.833 47.499 22.5s24.833 20.667 34.5 33s17.834 25.5 24.501 39.5l64 -36
c-9.33301 -19.333 -21 -37.5 -35 -54.5s-30.667 -31.833 -50 -44.5s-41.666 -22.667 -66.999 -30s-54.333 -11 -87 -11c-30 0 -57.5 4.5 -82.5 13.5s-46.5 22 -64.5 39s-32 37.833 -42 62.5s-15 52.667 -15 84c0 42 6.66699 82.5 20 121.5s32.666 73.5 57.999 103.5
s56.666 54.167 93.999 72.5s79.666 27.5 126.999 27.5c33.333 0 62.333 -5.16699 87 -15.5s45 -24.333 61 -42s28 -37.667 36 -60s12 -45.5 12 -69.5c0 -18 -2 -35.333 -6 -52l-11 -47h-398zM321.003 436.001c-23.333 0 -45.166 -3.5 -65.499 -10.5
s-38.833 -16.833 -55.5 -29.5s-31 -27.5 -43 -44.5s-21.333 -35.5 -28 -55.5h318c2 10.667 3 20.667 3 30c0 36 -12.333 63.333 -37 82s-55.334 28 -92.001 28zM488.003 688.001l-3.00195 -13.999c-7.33301 -34 -21.166 -59.833 -41.499 -77.5s-48.5 -26.5 -84.5 -26.5
c-33.333 0 -58.5 10 -75.5 30s-22.5 44.667 -16.5 74l3 14h68l-3 -11c-3.33301 -12.667 -1.83301 -22.834 4.5 -30.501s16.166 -11.5 29.499 -11.5c14.667 0 25.334 4.16699 32.001 12.5s11.334 17.833 14.001 28.5l3 12h70z" />
    <glyph glyph-name="Edotaccent" unicode="&#x116;" 
d="M177 700h395v-78h-328l-49 -232h305v-78h-322l-49 -234h317v-78h-418zM318 848c0 19.333 6.83301 35.833 20.5 49.5s30.167 20.5 49.5 20.5s35.833 -6.83301 49.5 -20.5s20.5 -30.167 20.5 -49.5s-6.83301 -35.833 -20.5 -49.5s-30.167 -20.5 -49.5 -20.5
s-35.833 6.83301 -49.5 20.5s-20.5 30.167 -20.5 49.5z" />
    <glyph glyph-name="edotaccent" unicode="&#x117;" 
d="M112 224c-1.33301 -5.33301 -2.33008 -11.332 -2.99707 -17.999s-1 -13.667 -1 -21c0 -36.667 10.667 -66.834 32 -90.501s55.333 -35.5 102 -35.5c23.333 0 44.166 2.66699 62.499 8s34.166 12.833 47.499 22.5s24.833 20.667 34.5 33s17.834 25.5 24.501 39.5l64 -36
c-9.33301 -19.333 -21 -37.5 -35 -54.5s-30.667 -31.833 -50 -44.5s-41.666 -22.667 -66.999 -30s-54.333 -11 -87 -11c-30 0 -57.5 4.5 -82.5 13.5s-46.5 22 -64.5 39s-32 37.833 -42 62.5s-15 52.667 -15 84c0 42 6.66699 82.5 20 121.5s32.666 73.5 57.999 103.5
s56.666 54.167 93.999 72.5s79.666 27.5 126.999 27.5c33.333 0 62.333 -5.16699 87 -15.5s45 -24.333 61 -42s28 -37.667 36 -60s12 -45.5 12 -69.5c0 -18 -2 -35.333 -6 -52l-11 -47h-398zM321.003 436.001c-23.333 0 -45.166 -3.5 -65.499 -10.5
s-38.833 -16.833 -55.5 -29.5s-31 -27.5 -43 -44.5s-21.333 -35.5 -28 -55.5h318c2 10.667 3 20.667 3 30c0 36 -12.333 63.333 -37 82s-55.334 28 -92.001 28zM293.003 644.001c0 19.333 6.83301 35.833 20.5 49.5s30.167 20.5 49.5 20.5s35.833 -6.83301 49.5 -20.5
s20.5 -30.167 20.5 -49.5s-6.83301 -35.833 -20.5 -49.5s-30.167 -20.5 -49.5 -20.5s-35.833 6.83301 -49.5 20.5s-20.5 30.167 -20.5 49.5z" />
    <glyph glyph-name="Eogonek" unicode="&#x118;" 
d="M177 700l395 -0.000976562v-78h-328l-49 -232h305v-78h-322l-49 -234h317v-78l-31 -68c-2 -5.33301 -3 -9.66602 -3 -12.999c0 -11.333 6.33301 -17 19 -17h42v-66h-70c-16.667 0 -31.167 5.33301 -43.5 16s-18.5 25.667 -18.5 45c0 12 2.66699 24.333 8 37l28 66h-349z
" />
    <glyph glyph-name="eogonek" unicode="&#x119;" 
d="M112 224c-1.33301 -5.33301 -2.3291 -11.332 -2.99609 -17.999s-1 -13.667 -1 -21c0 -36.667 10.667 -66.834 32 -90.501s55.333 -35.5 102 -35.5c23.333 0 44.166 2.66699 62.499 8s34.166 12.833 47.499 22.5s24.833 20.667 34.5 33s17.834 25.5 24.501 39.5l64 -36
c-6 -12 -11.833 -22.5 -17.5 -31.5s-12 -17.5 -19 -25.5s-15 -15.833 -24 -23.5s-19.833 -15.5 -32.5 -23.5l-135 -89c-9.33301 -6.66699 -12.5 -13.5 -9.5 -20.5s8.16699 -10.5 15.5 -10.5h87v-66h-107c-17.333 0 -31.5 4.83301 -42.5 14.5s-18.167 21.5 -21.5 35.5
s-1.83301 29 4.5 45s18.5 30.667 36.5 44l15 11c-27.333 0.666992 -52.833 5.66699 -76.5 15s-44.167 22.5 -61.5 39.5s-30.833 37.667 -40.5 62s-14.5 51.833 -14.5 82.5c0 42 6.66699 82.5 20 121.5s32.666 73.5 57.999 103.5s56.666 54.167 93.999 72.5
s79.666 27.5 126.999 27.5c33.333 0 62.333 -5.16699 87 -15.5s45 -24.333 61 -42s28 -37.667 36 -60s12 -45.5 12 -69.5c0 -18 -2 -35.333 -6 -52l-11 -47h-398zM321.004 436.001c-23.333 0 -45.166 -3.5 -65.499 -10.5s-38.833 -16.833 -55.5 -29.5s-31 -27.5 -43 -44.5
s-21.333 -35.5 -28 -55.5h318c2 10.667 3 20.667 3 30c0 36 -12.333 63.333 -37 82s-55.334 28 -92.001 28z" />
    <glyph glyph-name="Ecaron" unicode="&#x11a;" 
d="M177 700h395v-78h-328l-49 -232h305v-78h-322l-49 -234h317v-78h-418zM546 892v-6l-100 -112h-124l-55 118h81l34 -88h12l69 88h83z" />
    <glyph glyph-name="ecaron" unicode="&#x11b;" 
d="M112 224c-1.33301 -5.33301 -2.33008 -11.332 -2.99707 -17.999s-1 -13.667 -1 -21c0 -36.667 10.667 -66.834 32 -90.501s55.333 -35.5 102 -35.5c23.333 0 44.166 2.66699 62.499 8s34.166 12.833 47.499 22.5s24.833 20.667 34.5 33s17.834 25.5 24.501 39.5l64 -36
c-9.33301 -19.333 -21 -37.5 -35 -54.5s-30.667 -31.833 -50 -44.5s-41.666 -22.667 -66.999 -30s-54.333 -11 -87 -11c-30 0 -57.5 4.5 -82.5 13.5s-46.5 22 -64.5 39s-32 37.833 -42 62.5s-15 52.667 -15 84c0 42 6.66699 82.5 20 121.5s32.666 73.5 57.999 103.5
s56.666 54.167 93.999 72.5s79.666 27.5 126.999 27.5c33.333 0 62.333 -5.16699 87 -15.5s45 -24.333 61 -42s28 -37.667 36 -60s12 -45.5 12 -69.5c0 -18 -2 -35.333 -6 -52l-11 -47h-398zM321.003 436.001c-23.333 0 -45.166 -3.5 -65.499 -10.5
s-38.833 -16.833 -55.5 -29.5s-31 -27.5 -43 -44.5s-21.333 -35.5 -28 -55.5h318c2 10.667 3 20.667 3 30c0 36 -12.333 63.333 -37 82s-55.334 28 -92.001 28zM510.003 688.001v-6l-100 -112h-124l-55 118h81l34 -88h12l69 88h83z" />
    <glyph glyph-name="Gcircumflex" unicode="&#x11c;" 
d="M242 336l306 -0.00195312l-72 -336h-80l20 84h-12c-17.333 -29.333 -41.666 -53 -72.999 -71s-67.333 -27 -108 -27c-28 0 -53.667 4.16699 -77 12.5s-43.5 20.833 -60.5 37.5s-30.167 37.334 -39.5 62.001s-14 53 -14 85c0 13.333 0.666992 27 2 41s4 30 8 48l33 156
c19.333 93.333 54.666 164.333 105.999 213s117.666 73 198.999 73c32 0 60.5 -4.83301 85.5 -14.5s46 -23.167 63 -40.5s30 -37.833 39 -61.5s13.5 -49.5 13.5 -77.5c0 -21.333 -2.33301 -41.333 -7 -60l-3 -12h-84l3 12c4.66699 18.667 7 37.334 7 56.001
c0 35.333 -10.5 64.5 -31.5 87.5s-54.167 34.5 -99.5 34.5c-27.333 0 -52.166 -5.33301 -74.499 -16s-42.333 -25.5 -60 -44.5s-32.667 -41.667 -45 -68s-21.833 -55.5 -28.5 -87.5l-31 -144c-6 -30 -9 -56.667 -9 -80c0 -44 10.333 -77.667 31 -101s52.667 -35 96 -35
c50.667 0 93 15.667 127 47s57.667 73 71 125l6 24h-207v78zM259 773.998v6l100 112h124l55 -118h-75l-39 88h-12l-68 -88h-85z" />
    <glyph glyph-name="gcircumflex" unicode="&#x11d;" 
d="M395 70l-11.999 0.000976562c-19.333 -28 -43.5 -49 -72.5 -63s-60.833 -21 -95.5 -21c-28.667 0 -54.834 4.83301 -78.501 14.5s-43.834 23.167 -60.501 40.5s-29.5 38.333 -38.5 63s-13.5 52 -13.5 82c0 46 6.83301 88.667 20.5 128s33 73.5 58 102.5
s55 51.833 90 68.5s73.5 25 115.5 25c39.333 0 71.833 -8.5 97.5 -25.5s42.5 -39.167 50.5 -66.5h12l17 78h78l-131 -618c-5.33301 -22.667 -16.666 -41.334 -33.999 -56.001s-37.333 -22 -60 -22h-302v72h289c18.667 0 30 10 34 30zM232.001 60.001
c30.667 0 58.667 6.83105 84 20.498s47.166 31.667 65.499 54s32.5 47.833 42.5 76.5s15 57.667 15 87c0 41.333 -11.667 74.666 -35 99.999s-54.666 38 -93.999 38c-31.333 0 -59.666 -6.66699 -84.999 -20s-46.833 -31.166 -64.5 -53.499s-31.334 -48.166 -41.001 -77.499
s-14.5 -59.666 -14.5 -90.999c0 -41.333 10.833 -74 32.5 -98s53.167 -36 94.5 -36zM195.001 569.999v6l100 112h124l55 -118h-75l-39 88h-12l-68 -88h-85z" />
    <glyph glyph-name="Gbreve" unicode="&#x11e;" 
d="M242 336l306 -0.00195312l-72 -336h-80l20 84h-12c-17.333 -29.333 -41.666 -53 -72.999 -71s-67.333 -27 -108 -27c-28 0 -53.667 4.16699 -77 12.5s-43.5 20.833 -60.5 37.5s-30.167 37.334 -39.5 62.001s-14 53 -14 85c0 13.333 0.666992 27 2 41s4 30 8 48l33 156
c19.333 93.333 54.666 164.333 105.999 213s117.666 73 198.999 73c32 0 60.5 -4.83301 85.5 -14.5s46 -23.167 63 -40.5s30 -37.833 39 -61.5s13.5 -49.5 13.5 -77.5c0 -21.333 -2.33301 -41.333 -7 -60l-3 -12h-84l3 12c4.66699 18.667 7 37.334 7 56.001
c0 35.333 -10.5 64.5 -31.5 87.5s-54.167 34.5 -99.5 34.5c-27.333 0 -52.166 -5.33301 -74.499 -16s-42.333 -25.5 -60 -44.5s-32.667 -41.667 -45 -68s-21.833 -55.5 -28.5 -87.5l-31 -144c-6 -30 -9 -56.667 -9 -80c0 -44 10.333 -77.667 31 -101s52.667 -35 96 -35
c50.667 0 93 15.667 127 47s57.667 73 71 125l6 24h-207v78zM521 891.998l-3.00195 -13.999c-7.33301 -34 -21.166 -59.833 -41.499 -77.5s-48.5 -26.5 -84.5 -26.5c-33.333 0 -58.5 10 -75.5 30s-22.5 44.667 -16.5 74l3 14h68l-3 -11
c-3.33301 -12.667 -1.83301 -22.834 4.5 -30.501s16.166 -11.5 29.499 -11.5c14.667 0 25.334 4.16699 32.001 12.5s11.334 17.833 14.001 28.5l3 12h70z" />
    <glyph glyph-name="gbreve" unicode="&#x11f;" 
d="M395 70l-11.999 0.000976562c-19.333 -28 -43.5 -49 -72.5 -63s-60.833 -21 -95.5 -21c-28.667 0 -54.834 4.83301 -78.501 14.5s-43.834 23.167 -60.501 40.5s-29.5 38.333 -38.5 63s-13.5 52 -13.5 82c0 46 6.83301 88.667 20.5 128s33 73.5 58 102.5
s55 51.833 90 68.5s73.5 25 115.5 25c39.333 0 71.833 -8.5 97.5 -25.5s42.5 -39.167 50.5 -66.5h12l17 78h78l-131 -618c-5.33301 -22.667 -16.666 -41.334 -33.999 -56.001s-37.333 -22 -60 -22h-302v72h289c18.667 0 30 10 34 30zM232.001 60.001
c30.667 0 58.667 6.83105 84 20.498s47.166 31.667 65.499 54s32.5 47.833 42.5 76.5s15 57.667 15 87c0 41.333 -11.667 74.666 -35 99.999s-54.666 38 -93.999 38c-31.333 0 -59.666 -6.66699 -84.999 -20s-46.833 -31.166 -64.5 -53.499s-31.334 -48.166 -41.001 -77.499
s-14.5 -59.666 -14.5 -90.999c0 -41.333 10.833 -74 32.5 -98s53.167 -36 94.5 -36zM466.001 687.999l-3.00195 -13.999c-7.33301 -34 -21.166 -59.833 -41.499 -77.5s-48.5 -26.5 -84.5 -26.5c-33.333 0 -58.5 10 -75.5 30s-22.5 44.667 -16.5 74l3 14h68l-3 -11
c-3.33301 -12.667 -1.83301 -22.834 4.5 -30.501s16.166 -11.5 29.499 -11.5c14.667 0 25.334 4.16699 32.001 12.5s11.334 17.833 14.001 28.5l3 12h70z" />
    <glyph glyph-name="Gdotaccent" unicode="&#x120;" 
d="M242 336l306 -0.00195312l-72 -336h-80l20 84h-12c-17.333 -29.333 -41.666 -53 -72.999 -71s-67.333 -27 -108 -27c-28 0 -53.667 4.16699 -77 12.5s-43.5 20.833 -60.5 37.5s-30.167 37.334 -39.5 62.001s-14 53 -14 85c0 13.333 0.666992 27 2 41s4 30 8 48l33 156
c19.333 93.333 54.666 164.333 105.999 213s117.666 73 198.999 73c32 0 60.5 -4.83301 85.5 -14.5s46 -23.167 63 -40.5s30 -37.833 39 -61.5s13.5 -49.5 13.5 -77.5c0 -21.333 -2.33301 -41.333 -7 -60l-3 -12h-84l3 12c4.66699 18.667 7 37.334 7 56.001
c0 35.333 -10.5 64.5 -31.5 87.5s-54.167 34.5 -99.5 34.5c-27.333 0 -52.166 -5.33301 -74.499 -16s-42.333 -25.5 -60 -44.5s-32.667 -41.667 -45 -68s-21.833 -55.5 -28.5 -87.5l-31 -144c-6 -30 -9 -56.667 -9 -80c0 -44 10.333 -77.667 31 -101s52.667 -35 96 -35
c50.667 0 93 15.667 127 47s57.667 73 71 125l6 24h-207v78zM310 847.998c0 19.333 6.83301 35.833 20.5 49.5s30.167 20.5 49.5 20.5s35.833 -6.83301 49.5 -20.5s20.5 -30.167 20.5 -49.5s-6.83301 -35.833 -20.5 -49.5s-30.167 -20.5 -49.5 -20.5
s-35.833 6.83301 -49.5 20.5s-20.5 30.167 -20.5 49.5z" />
    <glyph glyph-name="gdotaccent" unicode="&#x121;" 
d="M395 70l-11.999 0.000976562c-19.333 -28 -43.5 -49 -72.5 -63s-60.833 -21 -95.5 -21c-28.667 0 -54.834 4.83301 -78.501 14.5s-43.834 23.167 -60.501 40.5s-29.5 38.333 -38.5 63s-13.5 52 -13.5 82c0 46 6.83301 88.667 20.5 128s33 73.5 58 102.5
s55 51.833 90 68.5s73.5 25 115.5 25c39.333 0 71.833 -8.5 97.5 -25.5s42.5 -39.167 50.5 -66.5h12l17 78h78l-131 -618c-5.33301 -22.667 -16.666 -41.334 -33.999 -56.001s-37.333 -22 -60 -22h-302v72h289c18.667 0 30 10 34 30zM232.001 60.001
c30.667 0 58.667 6.83105 84 20.498s47.166 31.667 65.499 54s32.5 47.833 42.5 76.5s15 57.667 15 87c0 41.333 -11.667 74.666 -35 99.999s-54.666 38 -93.999 38c-31.333 0 -59.666 -6.66699 -84.999 -20s-46.833 -31.166 -64.5 -53.499s-31.334 -48.166 -41.001 -77.499
s-14.5 -59.666 -14.5 -90.999c0 -41.333 10.833 -74 32.5 -98s53.167 -36 94.5 -36zM277.001 643.999c0 19.333 6.83301 35.833 20.5 49.5s30.167 20.5 49.5 20.5s35.833 -6.83301 49.5 -20.5s20.5 -30.167 20.5 -49.5s-6.83301 -35.833 -20.5 -49.5
s-30.167 -20.5 -49.5 -20.5s-35.833 6.83301 -49.5 20.5s-20.5 30.167 -20.5 49.5z" />
    <glyph glyph-name="uni0122" unicode="&#x122;" 
d="M242 336l306 -0.00195312l-72 -336h-80l20 84h-12c-17.333 -29.333 -41.666 -53 -72.999 -71s-67.333 -27 -108 -27c-28 0 -53.667 4.16699 -77 12.5s-43.5 20.833 -60.5 37.5s-30.167 37.334 -39.5 62.001s-14 53 -14 85c0 13.333 0.666992 27 2 41s4 30 8 48l33 156
c19.333 93.333 54.666 164.333 105.999 213s117.666 73 198.999 73c32 0 60.5 -4.83301 85.5 -14.5s46 -23.167 63 -40.5s30 -37.833 39 -61.5s13.5 -49.5 13.5 -77.5c0 -21.333 -2.33301 -41.333 -7 -60l-3 -12h-84l3 12c4.66699 18.667 7 37.334 7 56.001
c0 35.333 -10.5 64.5 -31.5 87.5s-54.167 34.5 -99.5 34.5c-27.333 0 -52.166 -5.33301 -74.499 -16s-42.333 -25.5 -60 -44.5s-32.667 -41.667 -45 -68s-21.833 -55.5 -28.5 -87.5l-31 -144c-6 -30 -9 -56.667 -9 -80c0 -44 10.333 -77.667 31 -101s52.667 -35 96 -35
c50.667 0 93 15.667 127 47s57.667 73 71 125l6 24h-207v78zM134 -113.002c0 19.333 6.83203 35.832 20.499 49.499s30.167 20.5 49.5 20.5s35.833 -6.83301 49.5 -20.5s20.5 -30.167 20.5 -49.5c0 -4.66699 -0.333008 -8.66699 -1 -12l-18 -86
c-5.33301 -25.333 -15.666 -44.666 -30.999 -57.999s-36 -20 -62 -20h-52v54h59c18.667 0 30 10 34 30l5 22h-4c-19.333 0 -35.833 6.83301 -49.5 20.5s-20.5 30.167 -20.5 49.5z" />
    <glyph glyph-name="uni0123" unicode="&#x123;" 
d="M395 70l-11.999 0.000976562c-19.333 -28 -43.5 -49 -72.5 -63s-60.833 -21 -95.5 -21c-28.667 0 -54.834 4.83301 -78.501 14.5s-43.834 23.167 -60.501 40.5s-29.5 38.333 -38.5 63s-13.5 52 -13.5 82c0 46 6.83301 88.667 20.5 128s33 73.5 58 102.5
s55 51.833 90 68.5s73.5 25 115.5 25c39.333 0 71.833 -8.5 97.5 -25.5s42.5 -39.167 50.5 -66.5h12l17 78h78l-131 -618c-5.33301 -22.667 -16.666 -41.334 -33.999 -56.001s-37.333 -22 -60 -22h-302v72h289c18.667 0 30 10 34 30zM232.001 60.001
c30.667 0 58.667 6.83105 84 20.498s47.166 31.667 65.499 54s32.5 47.833 42.5 76.5s15 57.667 15 87c0 41.333 -11.667 74.666 -35 99.999s-54.666 38 -93.999 38c-31.333 0 -59.666 -6.66699 -84.999 -20s-46.833 -31.166 -64.5 -53.499s-31.334 -48.166 -41.001 -77.499
s-14.5 -59.666 -14.5 -90.999c0 -41.333 10.833 -74 32.5 -98s53.167 -36 94.5 -36zM411.001 643.999c0 -19.333 -6.83203 -35.832 -20.499 -49.499s-30.167 -20.5 -49.5 -20.5s-35.833 6.83301 -49.5 20.5s-20.5 30.167 -20.5 49.5c0 4.66699 0.333008 8.66699 1 12l18 86
c5.33301 25.333 15.666 44.666 30.999 57.999s36 20 62 20h52v-54h-59c-18.667 0 -30 -10 -34 -30l-5 -22h4c19.333 0 35.833 -6.83301 49.5 -20.5s20.5 -30.167 20.5 -49.5z" />
    <glyph glyph-name="Hcircumflex" unicode="&#x124;" 
d="M156 700h86l-66 -310h276l66 310h86l-149 -700h-86l66 312h-276l-66 -312h-85zM242 774v6l100 112h124l55 -118h-75l-39 88h-12l-68 -88h-85z" />
    <glyph glyph-name="hcircumflex" unicode="&#x125;" 
d="M428 294c2 9.33301 3.5 17.498 4.5 24.498s1.5 14.167 1.5 21.5c0 34.667 -10.167 59.334 -30.5 74.001s-45.5 22 -75.5 22c-45.333 0 -82.833 -16.167 -112.5 -48.5s-50.167 -75.5 -61.5 -129.5l-55 -258h-77l152 714h75l-60 -292h12
c16.667 31.333 38.334 53.833 65.001 67.5s56.667 20.5 90 20.5c44 0 80.5 -13.833 109.5 -41.5s43.5 -66.5 43.5 -116.5c0 -21.333 -2.33301 -42.666 -7 -63.999l-44 -209c-2 -10 2.33301 -15 13 -15c4 0 8 1.66699 12 5l39 28l42 -59l-46 -33
c-18 -12.667 -38.333 -19 -61 -19c-20.667 0 -38.834 6 -54.501 18s-23.5 30.667 -23.5 56c0 7.33301 1 16 3 26zM188 773.998v6l100 112h124l55 -118h-75l-39 88h-12l-68 -88h-85z" />
    <glyph glyph-name="Hbar" unicode="&#x126;" 
d="M113 496h-59v78h75l27 126h86l-27 -126h276l27 126h86l-27 -126h53v-78h-70l-105 -496h-86l66 312h-276l-66 -312h-85zM452 390l22 106h-276l-22 -106h276z" />
    <glyph glyph-name="hbar" unicode="&#x127;" 
d="M89 634l68 -0.00195312l14 66h75l-14 -66h173v-72h-188l-28 -140h12c16.667 31.333 38.334 53.833 65.001 67.5s56.667 20.5 90 20.5c44 0 80.5 -13.833 109.5 -41.5s43.5 -66.5 43.5 -116.5c0 -21.333 -2.33301 -42.666 -7 -63.999l-44 -209c-2 -10 2.33301 -15 13 -15
c4 0 8 1.66699 12 5l39 28l42 -59l-46 -33c-18 -12.667 -38.333 -19 -61 -19c-20.667 0 -38.834 6 -54.501 18s-23.5 30.667 -23.5 56c0 7.33301 1 16 3 26l46 208c2 9.33301 3.5 17.5 4.5 24.5s1.5 14.167 1.5 21.5c0 34.667 -10.167 59.334 -30.5 74.001
s-45.5 22 -75.5 22c-45.333 0 -82.833 -16.167 -112.5 -48.5s-50.167 -75.5 -61.5 -129.5l-55 -258h-77l119 562h-52v72z" />
    <glyph glyph-name="Itilde" unicode="&#x128;" 
d="M147 700h432v-78h-174l-115 -544h174v-78h-432v78h174l115 544h-174v78zM423 846c3.33301 -6.66699 6.66699 -11.667 10 -15s8 -5 14 -5c6.66699 0 13 3.33301 19 10l48 55l49 -42l-41 -49c-9.33301 -11.333 -20.333 -21.166 -33 -29.499s-27.667 -12.5 -45 -12.5
c-20.667 0 -36.5 4.66699 -47.5 14s-22.167 24.333 -33.5 45c-4.66699 8 -8.5 13.667 -11.5 17s-7.16699 5 -12.5 5c-7.33301 0 -14.666 -4 -21.999 -12l-46 -53l-49 42l41 49c9.33301 11.333 20.333 21.166 33 29.499s28 12.5 46 12.5
c19.333 0 34.666 -4.83301 45.999 -14.5s23 -25.167 35 -46.5z" />
    <glyph glyph-name="itilde" unicode="&#x129;" 
d="M287 409c1.33301 6.66699 0.499023 12.5 -2.50098 17.5s-8.16699 7.5 -15.5 7.5c-5.33301 0 -10.333 -1.33301 -15 -4l-117 -80l-40 59l118 80c20.667 14 43 21 67 21c22.667 0 42.334 -6.66699 59.001 -20s25 -34 25 -62c0 -10.667 -1.33301 -21.334 -4 -32.001
l-74 -309c-2 -8 -1.16699 -14.333 2.5 -19s8.5 -7 14.5 -7c4.66699 0 9.66699 1.66699 15 5l115 78l40 -59l-115 -78c-21.333 -14 -43.666 -21 -66.999 -21c-22.667 0 -42.334 6.66699 -59.001 20s-25 34 -25 62c0 10.667 1.33301 21.334 4 32.001zM367.999 639
c3.33301 -6.66699 6.66699 -11.667 10 -15s8 -5 14 -5c6.66699 0 13 3.33301 19 10l48 55l49 -42l-41 -49c-9.33301 -11.333 -20.333 -21.166 -33 -29.499s-27.667 -12.5 -45 -12.5c-20.667 0 -36.5 4.66699 -47.5 14s-22.167 24.333 -33.5 45
c-4.66699 8 -8.5 13.667 -11.5 17s-7.16699 5 -12.5 5c-7.33301 0 -14.666 -4 -21.999 -12l-46 -53l-49 42l41 49c9.33301 11.333 20.333 21.166 33 29.499s28 12.5 46 12.5c19.333 0 34.666 -4.83301 45.999 -14.5s23 -25.167 35 -46.5z" />
    <glyph glyph-name="Imacron" unicode="&#x12a;" 
d="M147 700h432v-78h-174l-115 -544h174v-78h-432v78h174l115 544h-174v78zM510 774h-282v66h282v-66z" />
    <glyph glyph-name="imacron" unicode="&#x12b;" 
d="M287 409c1.33301 6.66699 0.499023 12.5 -2.50098 17.5s-8.16699 7.5 -15.5 7.5c-5.33301 0 -10.333 -1.33301 -15 -4l-117 -80l-40 59l118 80c20.667 14 43 21 67 21c22.667 0 42.334 -6.66699 59.001 -20s25 -34 25 -62c0 -10.667 -1.33301 -21.334 -4 -32.001
l-74 -309c-2 -8 -1.16699 -14.333 2.5 -19s8.5 -7 14.5 -7c4.66699 0 9.66699 1.66699 15 5l115 78l40 -59l-115 -78c-21.333 -14 -43.666 -21 -66.999 -21c-22.667 0 -42.334 6.66699 -59.001 20s-25 34 -25 62c0 10.667 1.33301 21.334 4 32.001zM446.999 570h-282v66h282
v-66z" />
    <glyph glyph-name="Ibreve" unicode="&#x12c;" 
d="M147 700h432v-78h-174l-115 -544h174v-78h-432v78h174l115 544h-174v78zM519 892l-3.00195 -13.999c-7.33301 -34 -21.166 -59.833 -41.499 -77.5s-48.5 -26.5 -84.5 -26.5c-33.333 0 -58.5 10 -75.5 30s-22.5 44.667 -16.5 74l3 14h68l-3 -11
c-3.33301 -12.667 -1.83301 -22.834 4.5 -30.501s16.166 -11.5 29.499 -11.5c14.667 0 25.334 4.16699 32.001 12.5s11.334 17.833 14.001 28.5l3 12h70z" />
    <glyph glyph-name="ibreve" unicode="&#x12d;" 
d="M287 409c1.33301 6.66699 0.499023 12.5 -2.50098 17.5s-8.16699 7.5 -15.5 7.5c-5.33301 0 -10.333 -1.33301 -15 -4l-117 -80l-40 59l118 80c20.667 14 43 21 67 21c22.667 0 42.334 -6.66699 59.001 -20s25 -34 25 -62c0 -10.667 -1.33301 -21.334 -4 -32.001
l-74 -309c-2 -8 -1.16699 -14.333 2.5 -19s8.5 -7 14.5 -7c4.66699 0 9.66699 1.66699 15 5l115 78l40 -59l-115 -78c-21.333 -14 -43.666 -21 -66.999 -21c-22.667 0 -42.334 6.66699 -59.001 20s-25 34 -25 62c0 10.667 1.33301 21.334 4 32.001zM465.999 688
l-3.00195 -13.999c-7.33301 -34 -21.166 -59.833 -41.499 -77.5s-48.5 -26.5 -84.5 -26.5c-33.333 0 -58.5 10 -75.5 30s-22.5 44.667 -16.5 74l3 14h68l-3 -11c-3.33301 -12.667 -1.83301 -22.834 4.5 -30.501s16.166 -11.5 29.499 -11.5
c14.667 0 25.334 4.16699 32.001 12.5s11.334 17.833 14.001 28.5l3 12h70z" />
    <glyph glyph-name="Iogonek" unicode="&#x12e;" 
d="M147 700l432 -0.000976562v-78h-174l-115 -544h174v-78l-31 -68c-2 -5.33301 -3 -9.66602 -3 -12.999c0 -11.333 6.33301 -17 19 -17h42v-66h-70c-16.667 0 -31.167 5.33301 -43.5 16s-18.5 25.667 -18.5 45c0 12 2.66699 24.333 8 37l28 66h-363v78h174l115 544h-174v78
z" />
    <glyph glyph-name="iogonek" unicode="&#x12f;" 
d="M287 409c1.33301 6.66699 0.499023 12.498 -2.50098 17.498s-8.16699 7.5 -15.5 7.5c-5.33301 0 -10.333 -1.33301 -15 -4l-117 -80l-40 59l118 80c20.667 14 43 21 67 21c22.667 0 42.334 -6.66699 59.001 -20s25 -34 25 -62c0 -10.667 -1.33301 -21.334 -4 -32.001
l-74 -309c-2 -8 -1.16699 -14.333 2.5 -19s8.5 -7 14.5 -7c4.66699 0 9.66699 1.66699 15 5l115 78l40 -59l-224 -152c-6.66699 -4.66699 -10 -10 -10 -16c0 -4 1.33301 -7.5 4 -10.5s6.66699 -4.5 12 -4.5h87v-66h-107c-20 0 -36 6.5 -48 19.5s-18 28.167 -18 45.5
c0 12.667 3.33301 25.334 10 38.001s17.667 24.667 33 36l32 24c-11.333 6 -20.333 14.833 -27 26.5s-10 25.834 -10 42.501c0 10.667 1.33301 21.334 4 32.001zM302.999 643.998c0 19.333 6.83301 35.833 20.5 49.5s30.167 20.5 49.5 20.5s35.833 -6.83301 49.5 -20.5
s20.5 -30.167 20.5 -49.5s-6.83301 -35.833 -20.5 -49.5s-30.167 -20.5 -49.5 -20.5s-35.833 6.83301 -49.5 20.5s-20.5 30.167 -20.5 49.5z" />
    <glyph glyph-name="Idotaccent" unicode="&#x130;" 
d="M147 700h432v-78h-174l-115 -544h174v-78h-432v78h174l115 544h-174v78zM302 848c0 19.333 6.83301 35.833 20.5 49.5s30.167 20.5 49.5 20.5s35.833 -6.83301 49.5 -20.5s20.5 -30.167 20.5 -49.5s-6.83301 -35.833 -20.5 -49.5s-30.167 -20.5 -49.5 -20.5
s-35.833 6.83301 -49.5 20.5s-20.5 30.167 -20.5 49.5z" />
    <glyph glyph-name="dotlessi" unicode="&#x131;" 
d="M287 409c1.33301 6.66699 0.499023 12.5 -2.50098 17.5s-8.16699 7.5 -15.5 7.5c-5.33301 0 -10.333 -1.33301 -15 -4l-117 -80l-40 59l118 80c20.667 14 43 21 67 21c22.667 0 42.334 -6.66699 59.001 -20s25 -34 25 -62c0 -10.667 -1.33301 -21.334 -4 -32.001
l-74 -309c-2 -8 -1.16699 -14.333 2.5 -19s8.5 -7 14.5 -7c4.66699 0 9.66699 1.66699 15 5l115 78l40 -59l-115 -78c-21.333 -14 -43.666 -21 -66.999 -21c-22.667 0 -42.334 6.66699 -59.001 20s-25 34 -25 62c0 10.667 1.33301 21.334 4 32.001z" />
    <glyph glyph-name="IJ" unicode="&#x132;" 
d="M149 700h84l-76 -358h-84zM630 622l-65.998 0.000976562l-89 -416c-7.33301 -34.667 -17.5 -65.5 -30.5 -92.5s-29.667 -50 -50 -69s-44.5 -33.5 -72.5 -43.5s-60.667 -15 -98 -15c-58.667 0 -104.334 15.333 -137.001 46s-49 71.667 -49 123c0 17.333 2 35.666 6 54.999
l12 54h84l-12 -54c-4 -18 -6 -34.667 -6 -50c0 -64 37.667 -96 113 -96c46.667 0 82.167 13.5 106.5 40.5s41.166 62.167 50.499 105.5l88 412h-78v78h228v-78z" />
    <glyph glyph-name="ij" unicode="&#x133;" 
d="M483 644c0 19.333 6.83301 35.833 20.5 49.5s30.167 20.5 49.5 20.5s35.833 -6.83301 49.5 -20.5s20.5 -30.167 20.5 -49.5s-6.83301 -35.833 -20.5 -49.5s-30.167 -20.5 -49.5 -20.5s-35.833 6.83301 -49.5 20.5s-20.5 30.167 -20.5 49.5zM138 644
c0 19.333 6.83301 35.833 20.5 49.5s30.167 20.5 49.5 20.5s35.833 -6.83301 49.5 -20.5s20.5 -30.167 20.5 -49.5s-6.83301 -35.833 -20.5 -49.5s-30.167 -20.5 -49.5 -20.5s-35.833 6.83301 -49.5 20.5s-20.5 30.167 -20.5 49.5zM158 210
c-4.66699 -20.667 -6.99805 -40.001 -6.99805 -58.001c0 -61.333 33 -92 99 -92c46 0 85.333 16.167 118 48.5s54.667 75.5 66 129.5l54 258h78l-131 -618c-4.66699 -22.667 -15.667 -41.334 -33 -56.001s-37.333 -22 -60 -22h-208v72h195c18 0 29 10 33 30l38 176h-12
c-20 -30 -43.833 -52.833 -71.5 -68.5s-60.5 -23.5 -98.5 -23.5c-44.667 0 -80.334 13.333 -107.001 40s-40 64.334 -40 113.001c0 18 2.33301 38.333 7 61l45 214c1.33301 6.66699 0.666016 11.834 -2.00098 15.501s-6.66699 5.5 -12 5.5c-4.66699 0 -9 -1.66699 -13 -5
l-51 -35l-40 59l52 35c20.667 14 41.667 21 63 21c22 0 41 -7.5 57 -22.5s24 -35.167 24 -60.5c0 -7.33301 -1 -16 -3 -26z" />
    <glyph glyph-name="Jcircumflex" unicode="&#x134;" 
d="M622 622l-65.998 0.000976562l-89 -416c-7.33301 -34.667 -17.5 -65.5 -30.5 -92.5s-29.667 -50 -50 -69s-44.5 -33.5 -72.5 -43.5s-60.667 -15 -98 -15c-58.667 0 -104.334 15.333 -137.001 46s-49 71.667 -49 123c0 17.333 2 35.666 6 54.999l12 54h84l-12 -54
c-4 -18 -6 -34.667 -6 -50c0 -64 37.667 -96 113 -96c46.667 0 82.167 13.5 106.5 40.5s41.166 62.167 50.499 105.5l88 412h-78v78h228v-78zM387.002 774.001v6l100 112h124l55 -118h-75l-39 88h-12l-68 -88h-85z" />
    <glyph glyph-name="jcircumflex" unicode="&#x135;" 
d="M316 -122c-4.66699 -22.667 -15.667 -41.333 -33 -56s-37.333 -22 -60 -22h-223v72h210c18 0 29 10 33 30l109 510c1.33301 7.33301 0.333008 12.833 -3 16.5s-7.33301 5.5 -12 5.5c-4 0 -8 -1.33301 -12 -4l-117 -80l-40 59l118 80c20.667 14 41.667 21 63 21
c22 0 41 -7.5 57 -22.5s24 -35.167 24 -60.5c0 -7.33301 -1 -16 -3 -26zM241 570.001v6l100 112h124l55 -118h-75l-39 88h-12l-68 -88h-85z" />
    <glyph glyph-name="uni0136" unicode="&#x136;" 
d="M91 0h-86l149 700h86l-66 -310h26l315 310h97v-12l-337 -332v-12l218 -338v-6h-95l-201 312h-40zM158 -113c0 19.333 6.83203 35.832 20.499 49.499s30.167 20.5 49.5 20.5s35.833 -6.83301 49.5 -20.5s20.5 -30.167 20.5 -49.5c0 -4.66699 -0.333008 -8.66699 -1 -12
l-18 -86c-5.33301 -25.333 -15.666 -44.666 -30.999 -57.999s-36 -20 -62 -20h-52v54h59c18.667 0 30 10 34 30l5 22h-4c-19.333 0 -35.833 6.83301 -49.5 20.5s-20.5 30.167 -20.5 49.5z" />
    <glyph glyph-name="uni0137" unicode="&#x137;" 
d="M279 713l-89.002 -423h12l248 218l48 -51l-221 -194v-18l129 -176c4 -4.66699 8.33301 -7 13 -7c4 0 8.33301 1.66699 13 5l48 35l42 -59l-45 -34c-9.33301 -7.33301 -19 -13 -29 -17s-20.667 -6 -32 -6c-13.333 0 -26.166 3.33301 -38.499 10s-24.166 17.667 -35.499 33
l-138 189h-30l-46 -218h-78l151 713h78zM187.998 -113c0 19.333 6.83203 35.832 20.499 49.499s30.167 20.5 49.5 20.5s35.833 -6.83301 49.5 -20.5s20.5 -30.167 20.5 -49.5c0 -4.66699 -0.333008 -8.66699 -1 -12l-18 -86
c-5.33301 -25.333 -15.666 -44.666 -30.999 -57.999s-36 -20 -62 -20h-52v54h59c18.667 0 30 10 34 30l5 22h-4c-19.333 0 -35.833 6.83301 -49.5 20.5s-20.5 30.167 -20.5 49.5z" />
    <glyph glyph-name="kgreenlandic" unicode="&#x138;" 
d="M233 496l-43.002 -206h12l248 218l48 -51l-221 -194v-18l129 -176c4 -4.66699 8.33301 -7 13 -7c4 0 8.33301 1.66699 13 5l48 35l42 -59l-45 -34c-9.33301 -7.33301 -19 -13 -29 -17s-20.667 -6 -32 -6c-13.333 0 -26.166 3.33301 -38.499 10s-24.166 17.667 -35.499 33
l-138 189h-30l-46 -218h-78l105 496h78z" />
    <glyph glyph-name="Lacute" unicode="&#x139;" 
d="M173 700h84l-132 -622h360v-78h-461zM377 892v-6l-103 -112h-80l91 118h92z" />
    <glyph glyph-name="lacute" unicode="&#x13a;" 
d="M304 614c2 8 1.16797 14.168 -2.49902 18.501s-8.83398 6.5 -15.501 6.5c-4.66699 0 -9.66699 -1.66699 -15 -5l-117 -80l-40 59l118 80c10.667 7.33301 21.667 12.666 33 15.999s22.666 5 33.999 5c22 0 41.5 -6.66699 58.5 -20s25.5 -34 25.5 -62
c0 -11.333 -1.33301 -22 -4 -32l-121 -513c-2 -8 -1.16699 -14.333 2.5 -19s8.5 -7 14.5 -7c4.66699 0 9.66699 1.66699 15 5l115 78l40 -59l-115 -78c-21.333 -14 -43.666 -21 -66.999 -21c-22 0 -41.5 6.66699 -58.5 20s-25.5 34 -25.5 62c0 11.333 1.33301 22 4 32z
M490.001 896.001v-6l-103 -112h-80l91 118h92z" />
    <glyph glyph-name="uni013B" unicode="&#x13b;" 
d="M173 700h84l-132 -622h360v-78h-461zM192 -113c0 19.333 6.83203 35.832 20.499 49.499s30.167 20.5 49.5 20.5s35.833 -6.83301 49.5 -20.5s20.5 -30.167 20.5 -49.5c0 -4.66699 -0.333008 -8.66699 -1 -12l-18 -86c-5.33301 -25.333 -15.666 -44.666 -30.999 -57.999
s-36 -20 -62 -20h-52v54h59c18.667 0 30 10 34 30l5 22h-4c-19.333 0 -35.833 6.83301 -49.5 20.5s-20.5 30.167 -20.5 49.5z" />
    <glyph glyph-name="uni013C" unicode="&#x13c;" 
d="M304 614c2 8 1.16797 14.168 -2.49902 18.501s-8.83398 6.5 -15.501 6.5c-4.66699 0 -9.66699 -1.66699 -15 -5l-117 -80l-40 59l118 80c10.667 7.33301 21.667 12.666 33 15.999s22.666 5 33.999 5c22 0 41.5 -6.66699 58.5 -20s25.5 -34 25.5 -62
c0 -11.333 -1.33301 -22 -4 -32l-121 -513c-2 -8 -1.16699 -14.333 2.5 -19s8.5 -7 14.5 -7c4.66699 0 9.66699 1.66699 15 5l115 78l40 -59l-115 -78c-21.333 -14 -43.666 -21 -66.999 -21c-22 0 -41.5 6.66699 -58.5 20s-25.5 34 -25.5 62c0 11.333 1.33301 22 4 32z
M142.001 -112.999c0 19.333 6.83203 35.832 20.499 49.499s30.167 20.5 49.5 20.5s35.833 -6.83301 49.5 -20.5s20.5 -30.167 20.5 -49.5c0 -4.66699 -0.333008 -8.66699 -1 -12l-18 -86c-5.33301 -25.333 -15.666 -44.666 -30.999 -57.999s-36 -20 -62 -20h-52v54h59
c18.667 0 30 10 34 30l5 22h-4c-19.333 0 -35.833 6.83301 -49.5 20.5s-20.5 30.167 -20.5 49.5z" />
    <glyph glyph-name="Lcaron" unicode="&#x13d;" 
d="M173 700h84l-132 -622h360v-78h-461zM452 631c0 19.333 6.83203 35.832 20.499 49.499s30.167 20.5 49.5 20.5s35.833 -6.83301 49.5 -20.5s20.5 -30.167 20.5 -49.5c0 -4.66699 -0.333008 -8.66699 -1 -12l-18 -86c-5.33301 -25.333 -15.666 -44.666 -30.999 -57.999
s-36 -20 -62 -20h-52v54h59c18.667 0 30 10 34 30l5 22h-4c-19.333 0 -35.833 6.83301 -49.5 20.5s-20.5 30.167 -20.5 49.5z" />
    <glyph glyph-name="lcaron" unicode="&#x13e;" 
d="M304 614c2 8 1.16797 14.168 -2.49902 18.501s-8.83398 6.5 -15.501 6.5c-4.66699 0 -9.66699 -1.66699 -15 -5l-117 -80l-40 59l118 80c10.667 7.33301 21.667 12.666 33 15.999s22.666 5 33.999 5c22 0 41.5 -6.66699 58.5 -20s25.5 -34 25.5 -62
c0 -11.333 -1.33301 -22 -4 -32l-121 -513c-2 -8 -1.16699 -14.333 2.5 -19s8.5 -7 14.5 -7c4.66699 0 9.66699 1.66699 15 5l115 78l40 -59l-115 -78c-21.333 -14 -43.666 -21 -66.999 -21c-22 0 -41.5 6.66699 -58.5 20s-25.5 34 -25.5 62c0 11.333 1.33301 22 4 32z
M435.001 631.001c0 19.333 6.83203 35.832 20.499 49.499s30.167 20.5 49.5 20.5s35.833 -6.83301 49.5 -20.5s20.5 -30.167 20.5 -49.5c0 -4.66699 -0.333008 -8.66699 -1 -12l-18 -86c-5.33301 -25.333 -15.666 -44.666 -30.999 -57.999s-36 -20 -62 -20h-52v54h59
c18.667 0 30 10 34 30l5 22h-4c-19.333 0 -35.833 6.83301 -49.5 20.5s-20.5 30.167 -20.5 49.5z" />
    <glyph glyph-name="Ldot" unicode="&#x13f;" 
d="M173 700h84l-132 -622h360v-78h-461zM415 350c0 19.333 6.83301 35.833 20.5 49.5s30.167 20.5 49.5 20.5s35.833 -6.83301 49.5 -20.5s20.5 -30.167 20.5 -49.5s-6.83301 -35.833 -20.5 -49.5s-30.167 -20.5 -49.5 -20.5s-35.833 6.83301 -49.5 20.5
s-20.5 30.167 -20.5 49.5z" />
    <glyph glyph-name="ldot" unicode="&#x140;" 
d="M304 614c2 8 1.16797 14.168 -2.49902 18.501s-8.83398 6.5 -15.501 6.5c-4.66699 0 -9.66699 -1.66699 -15 -5l-117 -80l-40 59l118 80c10.667 7.33301 21.667 12.666 33 15.999s22.666 5 33.999 5c22 0 41.5 -6.66699 58.5 -20s25.5 -34 25.5 -62
c0 -11.333 -1.33301 -22 -4 -32l-121 -513c-2 -8 -1.16699 -14.333 2.5 -19s8.5 -7 14.5 -7c4.66699 0 9.66699 1.66699 15 5l115 78l40 -59l-115 -78c-21.333 -14 -43.666 -21 -66.999 -21c-22 0 -41.5 6.66699 -58.5 20s-25.5 34 -25.5 62c0 11.333 1.33301 22 4 32z
M385.001 350.001c0 19.333 6.83301 35.833 20.5 49.5s30.167 20.5 49.5 20.5s35.833 -6.83301 49.5 -20.5s20.5 -30.167 20.5 -49.5s-6.83301 -35.833 -20.5 -49.5s-30.167 -20.5 -49.5 -20.5s-35.833 6.83301 -49.5 20.5s-20.5 30.167 -20.5 49.5z" />
    <glyph glyph-name="Lslash" unicode="&#x141;" 
d="M96 283l-64 -17l-20 74l102 27l71 333h84l-66 -310l81 22l20 -72l-119 -33l-48 -229h360v-78h-461z" />
    <glyph glyph-name="lslash" unicode="&#x142;" 
d="M226 284l-65.999 -17.999l-20 74l106 28l58 246c2 8 1.16699 14.167 -2.5 18.5s-8.83398 6.5 -15.501 6.5c-4.66699 0 -9.66699 -1.66699 -15 -5l-117 -80l-40 59l118 80c10.667 7.33301 21.667 12.666 33 15.999s22.666 5 33.999 5c22 0 41.5 -6.66699 58.5 -20
s25.5 -34 25.5 -62c0 -11.333 -1.33301 -22 -4 -32l-50 -210l81 21l20 -72l-120 -33l-52 -219c-2 -8 -1.16699 -14.333 2.5 -19s8.5 -7 14.5 -7c4.66699 0 9.66699 1.66699 15 5l115 78l40 -59l-115 -78c-21.333 -14 -43.666 -21 -66.999 -21c-22 0 -41.5 6.66699 -58.5 20
s-25.5 34 -25.5 62c0 11.333 1.33301 22 4 32z" />
    <glyph glyph-name="Nacute" unicode="&#x143;" 
d="M364 36h12l141 664h84l-149 -700h-165l-40 664h-12l-141 -664h-84l149 700h165zM571 892v-6l-103 -112h-80l91 118h92z" />
    <glyph glyph-name="nacute" unicode="&#x144;" 
d="M413 298c2 9.33301 3.33496 17.165 4.00195 23.498s1 12.833 1 19.5c0 32 -9.5 55.833 -28.5 71.5s-45.5 23.5 -79.5 23.5c-45.333 0 -82.333 -16.167 -111 -48.5s-48.334 -73.5 -59.001 -123.5l-56 -264h-78l106 496h78l-15 -72h12c16.667 30 38.5 51.833 65.5 65.5
s55.5 20.5 85.5 20.5c21.333 0 41.666 -3.5 60.999 -10.5s36.166 -17.167 50.499 -30.5s25.666 -29.666 33.999 -48.999s12.5 -41.666 12.5 -66.999c0 -16.667 -2 -34.334 -6 -53.001l-48 -222c-1.33301 -5.33301 -0.666016 -9.33301 2.00098 -12s6 -4 10 -4
s7.66699 1.33301 11 4l42 31l42 -59l-39 -29c-20 -15.333 -42.333 -23 -67 -23c-10 0 -19.667 1.16699 -29 3.5s-17.666 6.33301 -24.999 12s-13.333 13.167 -18 22.5s-7 21 -7 35c0 8.66699 1.33301 19.334 4 32.001zM511.002 687.999v-6l-103 -112h-80l91 118h92z" />
    <glyph glyph-name="uni0145" unicode="&#x145;" 
d="M364 36h12l141 664h84l-149 -700h-165l-40 664h-12l-141 -664h-84l149 700h165zM119 -113c0 19.333 6.83203 35.832 20.499 49.499s30.167 20.5 49.5 20.5s35.833 -6.83301 49.5 -20.5s20.5 -30.167 20.5 -49.5c0 -4.66699 -0.333008 -8.66699 -1 -12l-18 -86
c-5.33301 -25.333 -15.666 -44.666 -30.999 -57.999s-36 -20 -62 -20h-52v54h59c18.667 0 30 10 34 30l5 22h-4c-19.333 0 -35.833 6.83301 -49.5 20.5s-20.5 30.167 -20.5 49.5z" />
    <glyph glyph-name="uni0146" unicode="&#x146;" 
d="M413 298c2 9.33301 3.33496 17.165 4.00195 23.498s1 12.833 1 19.5c0 32 -9.5 55.833 -28.5 71.5s-45.5 23.5 -79.5 23.5c-45.333 0 -82.333 -16.167 -111 -48.5s-48.334 -73.5 -59.001 -123.5l-56 -264h-78l106 496h78l-15 -72h12c16.667 30 38.5 51.833 65.5 65.5
s55.5 20.5 85.5 20.5c21.333 0 41.666 -3.5 60.999 -10.5s36.166 -17.167 50.499 -30.5s25.666 -29.666 33.999 -48.999s12.5 -41.666 12.5 -66.999c0 -16.667 -2 -34.334 -6 -53.001l-48 -222c-1.33301 -5.33301 -0.666016 -9.33301 2.00098 -12s6 -4 10 -4
s7.66699 1.33301 11 4l42 31l42 -59l-39 -29c-20 -15.333 -42.333 -23 -67 -23c-10 0 -19.667 1.16699 -29 3.5s-17.666 6.33301 -24.999 12s-13.333 13.167 -18 22.5s-7 21 -7 35c0 8.66699 1.33301 19.334 4 32.001zM145.002 -113.001
c0 19.333 6.83203 35.832 20.499 49.499s30.167 20.5 49.5 20.5s35.833 -6.83301 49.5 -20.5s20.5 -30.167 20.5 -49.5c0 -4.66699 -0.333008 -8.66699 -1 -12l-18 -86c-5.33301 -25.333 -15.666 -44.666 -30.999 -57.999s-36 -20 -62 -20h-52v54h59c18.667 0 30 10 34 30
l5 22h-4c-19.333 0 -35.833 6.83301 -49.5 20.5s-20.5 30.167 -20.5 49.5z" />
    <glyph glyph-name="Ncaron" unicode="&#x147;" 
d="M364 36h12l141 664h84l-149 -700h-165l-40 664h-12l-141 -664h-84l149 700h165zM588 892v-6l-100 -112h-124l-55 118h81l34 -88h12l69 88h83z" />
    <glyph glyph-name="ncaron" unicode="&#x148;" 
d="M413 298c2 9.33301 3.33496 17.165 4.00195 23.498s1 12.833 1 19.5c0 32 -9.5 55.833 -28.5 71.5s-45.5 23.5 -79.5 23.5c-45.333 0 -82.333 -16.167 -111 -48.5s-48.334 -73.5 -59.001 -123.5l-56 -264h-78l106 496h78l-15 -72h12c16.667 30 38.5 51.833 65.5 65.5
s55.5 20.5 85.5 20.5c21.333 0 41.666 -3.5 60.999 -10.5s36.166 -17.167 50.499 -30.5s25.666 -29.666 33.999 -48.999s12.5 -41.666 12.5 -66.999c0 -16.667 -2 -34.334 -6 -53.001l-48 -222c-1.33301 -5.33301 -0.666016 -9.33301 2.00098 -12s6 -4 10 -4
s7.66699 1.33301 11 4l42 31l42 -59l-39 -29c-20 -15.333 -42.333 -23 -67 -23c-10 0 -19.667 1.16699 -29 3.5s-17.666 6.33301 -24.999 12s-13.333 13.167 -18 22.5s-7 21 -7 35c0 8.66699 1.33301 19.334 4 32.001zM517.002 687.999v-6l-100 -112h-124l-55 118h81l34 -88
h12l69 88h83z" />
    <glyph glyph-name="napostrophe" unicode="&#x149;" 
d="M413 298c2 9.33301 3.33496 17.165 4.00195 23.498s1 12.833 1 19.5c0 32 -9.5 55.833 -28.5 71.5s-45.5 23.5 -79.5 23.5c-45.333 0 -82.333 -16.167 -111 -48.5s-48.334 -73.5 -59.001 -123.5l-56 -264h-78l106 496h78l-15 -72h12c16.667 30 38.5 51.833 65.5 65.5
s55.5 20.5 85.5 20.5c21.333 0 41.666 -3.5 60.999 -10.5s36.166 -17.167 50.499 -30.5s25.666 -29.666 33.999 -48.999s12.5 -41.666 12.5 -66.999c0 -16.667 -2 -34.334 -6 -53.001l-48 -222c-1.33301 -5.33301 -0.666016 -9.33301 2.00098 -12s6 -4 10 -4
s7.66699 1.33301 11 4l42 31l42 -59l-39 -29c-20 -15.333 -42.333 -23 -67 -23c-10 0 -19.667 1.16699 -29 3.5s-17.666 6.33301 -24.999 12s-13.333 13.167 -18 22.5s-7 21 -7 35c0 8.66699 1.33301 19.334 4 32.001zM158.002 749.999
c0 19.333 6.83203 35.832 20.499 49.499s30.167 20.5 49.5 20.5s35.833 -6.83301 49.5 -20.5s20.5 -30.167 20.5 -49.5c0 -4.66699 -0.333008 -8.66699 -1 -12l-18 -86c-5.33301 -25.333 -15.666 -44.666 -30.999 -57.999s-36 -20 -62 -20h-52v54h59c18.667 0 30 10 34 30
l5 22h-4c-19.333 0 -35.833 6.83301 -49.5 20.5s-20.5 30.167 -20.5 49.5z" />
    <glyph glyph-name="Eng" unicode="&#x14a;" 
d="M364 36l12 -0.000976562l141 664h84l-166 -780c-9.33301 -43.333 -26 -74.166 -50 -92.499s-55.667 -27.5 -95 -27.5h-162v78h160c20 0 35 4 45 12s17 22 21 42l14 68h-81l-40 664h-12l-141 -664h-84l149 700h165z" />
    <glyph glyph-name="eng" unicode="&#x14b;" 
d="M413 298c2 9.33301 3.33594 17.167 4.00293 23.5s1 12.833 1 19.5c0 32 -9.5 55.833 -28.5 71.5s-45.5 23.5 -79.5 23.5c-45.333 0 -82.333 -16.167 -111 -48.5s-48.334 -73.5 -59.001 -123.5l-56 -264h-78l106 496h78l-15 -72h12c16.667 30 38.5 51.833 65.5 65.5
s55.5 20.5 85.5 20.5c21.333 0 41.666 -3.5 60.999 -10.5s36.166 -17.167 50.499 -30.5s25.666 -29.666 33.999 -48.999s12.5 -41.666 12.5 -66.999c0 -16.667 -2 -34.334 -6 -53.001l-89 -422c-5.33301 -22.667 -16.666 -41.334 -33.999 -56.001s-37.333 -22 -60 -22h-131
v72h118c18.667 0 30 10 34 30z" />
    <glyph glyph-name="Omacron" unicode="&#x14c;" 
d="M77 428c19.333 93.333 53.5 164.333 102.5 213s114.833 73 197.5 73c64.667 0 114.167 -18.5 148.5 -55.5s51.5 -88.167 51.5 -153.5c0 -13.333 -0.833008 -27.5 -2.5 -42.5s-4.16699 -30.167 -7.5 -45.5l-31 -145c-19.333 -93.333 -53.5 -164.333 -102.5 -213
s-114.833 -73 -197.5 -73c-64.667 0 -114.167 18.5 -148.5 55.5s-51.5 88.167 -51.5 153.5c0 13.333 0.833008 27.5 2.5 42.5s4.16699 30.167 7.5 45.5zM248 62c27.333 0 52.167 5.16602 74.5 15.499s42 25 59 44s31.333 41.667 43 68s21.167 55.833 28.5 88.5l32 150
c5.33301 26.667 8 50 8 70c0 43.333 -10.667 77.5 -32 102.5s-53.333 37.5 -96 37.5c-55.333 0 -99.833 -19.667 -133.5 -59s-57.5 -91.666 -71.5 -156.999l-32 -150c-5.33301 -26.667 -8 -50 -8 -70c0 -43.333 10.667 -77.5 32 -102.5s53.333 -37.5 96 -37.5z
M529.001 773.999h-282v66h282v-66z" />
    <glyph glyph-name="omacron" unicode="&#x14d;" 
d="M329 510c28.667 0 55.334 -5.00098 80.001 -15.001s46 -24 64 -42s32.167 -39.5 42.5 -64.5s15.5 -52.5 15.5 -82.5c0 -41.333 -6.83301 -81.166 -20.5 -119.499s-33.667 -72.333 -60 -102s-58.666 -53.5 -96.999 -71.5s-81.833 -27 -130.5 -27
c-28 0 -54.333 4.83301 -79 14.5s-46.167 23.167 -64.5 40.5s-32.833 38.5 -43.5 63.5s-16 52.833 -16 83.5c0 48 8.16699 91.833 24.5 131.5s38.666 73.5 66.999 101.5s61.166 49.833 98.499 65.5s77 23.5 119 23.5zM240 59.999c30.667 0 59 6.83203 85 20.499
s48.333 31.667 67 54s33.167 47.833 43.5 76.5s15.5 58.334 15.5 89.001c0 39.333 -12.167 71.833 -36.5 97.5s-58.5 38.5 -102.5 38.5c-28.667 0 -55.667 -6.33301 -81 -19s-47.5 -30 -66.5 -52s-34.167 -47.5 -45.5 -76.5s-17 -59.833 -17 -92.5c0 -40 12 -72.667 36 -98
s58 -38 102 -38zM486 569.998h-282v66h282v-66z" />
    <glyph glyph-name="Obreve" unicode="&#x14e;" 
d="M77 428c19.333 93.333 53.5 164.333 102.5 213s114.833 73 197.5 73c64.667 0 114.167 -18.5 148.5 -55.5s51.5 -88.167 51.5 -153.5c0 -13.333 -0.833008 -27.5 -2.5 -42.5s-4.16699 -30.167 -7.5 -45.5l-31 -145c-19.333 -93.333 -53.5 -164.333 -102.5 -213
s-114.833 -73 -197.5 -73c-64.667 0 -114.167 18.5 -148.5 55.5s-51.5 88.167 -51.5 153.5c0 13.333 0.833008 27.5 2.5 42.5s4.16699 30.167 7.5 45.5zM248 62c27.333 0 52.167 5.16602 74.5 15.499s42 25 59 44s31.333 41.667 43 68s21.167 55.833 28.5 88.5l32 150
c5.33301 26.667 8 50 8 70c0 43.333 -10.667 77.5 -32 102.5s-53.333 37.5 -96 37.5c-55.333 0 -99.833 -19.667 -133.5 -59s-57.5 -91.666 -71.5 -156.999l-32 -150c-5.33301 -26.667 -8 -50 -8 -70c0 -43.333 10.667 -77.5 32 -102.5s53.333 -37.5 96 -37.5z
M532.001 891.999l-3.00195 -13.999c-7.33301 -34 -21.166 -59.833 -41.499 -77.5s-48.5 -26.5 -84.5 -26.5c-33.333 0 -58.5 10 -75.5 30s-22.5 44.667 -16.5 74l3 14h68l-3 -11c-3.33301 -12.667 -1.83301 -22.834 4.5 -30.501s16.166 -11.5 29.499 -11.5
c14.667 0 25.334 4.16699 32.001 12.5s11.334 17.833 14.001 28.5l3 12h70z" />
    <glyph glyph-name="obreve" unicode="&#x14f;" 
d="M329 510c28.667 0 55.334 -5.00098 80.001 -15.001s46 -24 64 -42s32.167 -39.5 42.5 -64.5s15.5 -52.5 15.5 -82.5c0 -41.333 -6.83301 -81.166 -20.5 -119.499s-33.667 -72.333 -60 -102s-58.666 -53.5 -96.999 -71.5s-81.833 -27 -130.5 -27
c-28 0 -54.333 4.83301 -79 14.5s-46.167 23.167 -64.5 40.5s-32.833 38.5 -43.5 63.5s-16 52.833 -16 83.5c0 48 8.16699 91.833 24.5 131.5s38.666 73.5 66.999 101.5s61.166 49.833 98.499 65.5s77 23.5 119 23.5zM240 59.999c30.667 0 59 6.83203 85 20.499
s48.333 31.667 67 54s33.167 47.833 43.5 76.5s15.5 58.334 15.5 89.001c0 39.333 -12.167 71.833 -36.5 97.5s-58.5 38.5 -102.5 38.5c-28.667 0 -55.667 -6.33301 -81 -19s-47.5 -30 -66.5 -52s-34.167 -47.5 -45.5 -76.5s-17 -59.833 -17 -92.5c0 -40 12 -72.667 36 -98
s58 -38 102 -38zM485 687.998l-3.00195 -13.999c-7.33301 -34 -21.166 -59.833 -41.499 -77.5s-48.5 -26.5 -84.5 -26.5c-33.333 0 -58.5 10 -75.5 30s-22.5 44.667 -16.5 74l3 14h68l-3 -11c-3.33301 -12.667 -1.83301 -22.834 4.5 -30.501s16.166 -11.5 29.499 -11.5
c14.667 0 25.334 4.16699 32.001 12.5s11.334 17.833 14.001 28.5l3 12h70z" />
    <glyph glyph-name="Ohungarumlaut" unicode="&#x150;" 
d="M77 428c19.333 93.333 53.5 164.333 102.5 213s114.833 73 197.5 73c64.667 0 114.167 -18.5 148.5 -55.5s51.5 -88.167 51.5 -153.5c0 -13.333 -0.833008 -27.5 -2.5 -42.5s-4.16699 -30.167 -7.5 -45.5l-31 -145c-19.333 -93.333 -53.5 -164.333 -102.5 -213
s-114.833 -73 -197.5 -73c-64.667 0 -114.167 18.5 -148.5 55.5s-51.5 88.167 -51.5 153.5c0 13.333 0.833008 27.5 2.5 42.5s4.16699 30.167 7.5 45.5zM248 62c27.333 0 52.167 5.16602 74.5 15.499s42 25 59 44s31.333 41.667 43 68s21.167 55.833 28.5 88.5l32 150
c5.33301 26.667 8 50 8 70c0 43.333 -10.667 77.5 -32 102.5s-53.333 37.5 -96 37.5c-55.333 0 -99.833 -19.667 -133.5 -59s-57.5 -91.666 -71.5 -156.999l-32 -150c-5.33301 -26.667 -8 -50 -8 -70c0 -43.333 10.667 -77.5 32 -102.5s53.333 -37.5 96 -37.5z
M457.001 891.999v-6l-103 -112h-80l91 118h92zM616.001 891.999v-6l-103 -112h-80l91 118h92z" />
    <glyph glyph-name="ohungarumlaut" unicode="&#x151;" 
d="M329 510c28.667 0 55.334 -5.00098 80.001 -15.001s46 -24 64 -42s32.167 -39.5 42.5 -64.5s15.5 -52.5 15.5 -82.5c0 -41.333 -6.83301 -81.166 -20.5 -119.499s-33.667 -72.333 -60 -102s-58.666 -53.5 -96.999 -71.5s-81.833 -27 -130.5 -27
c-28 0 -54.333 4.83301 -79 14.5s-46.167 23.167 -64.5 40.5s-32.833 38.5 -43.5 63.5s-16 52.833 -16 83.5c0 48 8.16699 91.833 24.5 131.5s38.666 73.5 66.999 101.5s61.166 49.833 98.499 65.5s77 23.5 119 23.5zM240 59.999c30.667 0 59 6.83203 85 20.499
s48.333 31.667 67 54s33.167 47.833 43.5 76.5s15.5 58.334 15.5 89.001c0 39.333 -12.167 71.833 -36.5 97.5s-58.5 38.5 -102.5 38.5c-28.667 0 -55.667 -6.33301 -81 -19s-47.5 -30 -66.5 -52s-34.167 -47.5 -45.5 -76.5s-17 -59.833 -17 -92.5c0 -40 12 -72.667 36 -98
s58 -38 102 -38zM402 687.998v-6l-103 -112h-80l91 118h92zM561 687.998v-6l-103 -112h-80l91 118h92z" />
    <glyph glyph-name="OE" unicode="&#x152;" 
d="M233 0c-64.667 0 -114.001 17.502 -148.001 52.502s-51 83.833 -51 146.5c0 13.333 0.833008 26.666 2.5 39.999s4.16699 29 7.5 47l29 138c18.667 89.333 52.834 157.666 102.501 204.999s116.167 71 199.5 71h230v-78h-163l-49 -232h140v-78h-157l-49 -234h152v-78
h-246zM357.999 622.002c-52.667 0 -95.832 -17.5 -129.499 -52.5s-57.834 -86.167 -72.501 -153.5l-29 -134c-3.33301 -15.333 -5.83301 -29.5 -7.5 -42.5s-2.5 -25.167 -2.5 -36.5c0 -83.333 42 -125 126 -125z" />
    <glyph glyph-name="oe" unicode="&#x153;" 
d="M238 -14c-28 0 -54.3311 4.49707 -78.998 13.4971s-46.334 22 -65.001 39s-33.334 38 -44.001 63s-16 53.833 -16 86.5c0 42.667 7.16699 83.334 21.5 122.001s34.833 72.834 61.5 102.501s58.667 53.334 96 71.001s79 26.5 125 26.5c34 0 63.5 -5.33301 88.5 -16
s45.833 -24.834 62.5 -42.501s29 -37.5 37 -59.5s12 -44.333 12 -67c0 -13.333 -1.66699 -27.666 -5 -42.999l-13 -58h-200l-34 -162c36 6 64.333 18.333 85 37s37.667 40 51 64l67 -35c-10 -19.333 -22.667 -37.5 -38 -54.5s-33.166 -32 -53.499 -45
s-43.833 -23.333 -70.5 -31s-56.334 -11.5 -89.001 -11.5zM286.002 429.997c-26 -6.66699 -49.5 -17.668 -70.5 -33.001s-39 -33.666 -54 -54.999s-26.5 -44.833 -34.5 -70.5s-12 -52.167 -12 -79.5c0 -34 8.5 -62 25.5 -84s39.833 -36.333 68.5 -43zM457.002 295.996
c2 10 3 19.667 3 29c0 30 -8.83301 54.5 -26.5 73.5s-40.5 30.167 -68.5 33.5l-29 -136h121z" />
    <glyph glyph-name="Racute" unicode="&#x154;" 
d="M448 0l-84.001 0.00195312l50 234c1.33301 5.33301 2 11.666 2 18.999c0 11.333 -3.16699 20 -9.5 26s-17.166 9 -32.499 9h-221l-61 -288h-84l149 700h237c59.333 0 105.5 -15 138.5 -45s49.5 -72 49.5 -126c0 -44 -11.667 -82 -35 -114s-55 -56.333 -95 -73v-12
c16.667 -1.33301 29.667 -6.83301 39 -16.5s14 -22.834 14 -39.501c0 -6 -1 -13.333 -3 -22zM169.999 366.002l154.001 0.000976562c24.667 0 47.667 3.83301 69 11.5s39.666 18.5 54.999 32.5s27.333 30.333 36 49s13 39 13 61c0 33.333 -10 58.666 -30 75.999
s-49.667 26 -89 26h-154zM497 892.003v-6l-103 -112h-80l91 118h92z" />
    <glyph glyph-name="racute" unicode="&#x155;" 
d="M194 410c2 8 1 14.167 -3 18.5s-9 6.5 -15 6.5c-5.33301 0 -10.333 -1.66699 -15 -5l-91 -62l-40 59l89 60c22.667 15.333 45.667 23 69 23c20.667 0 38.667 -5.83301 54 -17.5s24 -30.5 26 -56.5h12c19.333 27.333 41 46.5 65 57.5s49 16.5 75 16.5
c48 0 85.667 -13.833 113 -41.5s41 -64.167 41 -109.5c0 -17.333 -2 -35 -6 -53l-85 -6c3.33301 16.667 5 30.667 5 42c0 32 -8.83301 55.667 -26.5 71s-40.5 23 -68.5 23c-20 0 -38.167 -3.83301 -54.5 -11.5s-30.5 -18 -42.5 -31s-22.167 -28.167 -30.5 -45.5
s-14.5 -35.333 -18.5 -54l-47 -222h118v-72h-318v72h122zM555 688v-6l-103 -112h-80l91 118h92z" />
    <glyph glyph-name="uni0156" unicode="&#x156;" 
d="M448 0l-84.001 0.00195312l50 234c1.33301 5.33301 2 11.666 2 18.999c0 11.333 -3.16699 20 -9.5 26s-17.166 9 -32.499 9h-221l-61 -288h-84l149 700h237c59.333 0 105.5 -15 138.5 -45s49.5 -72 49.5 -126c0 -44 -11.667 -82 -35 -114s-55 -56.333 -95 -73v-12
c16.667 -1.33301 29.667 -6.83301 39 -16.5s14 -22.834 14 -39.501c0 -6 -1 -13.333 -3 -22zM169.999 366.002l154.001 0.000976562c24.667 0 47.667 3.83301 69 11.5s39.666 18.5 54.999 32.5s27.333 30.333 36 49s13 39 13 61c0 33.333 -10 58.666 -30 75.999
s-49.667 26 -89 26h-154zM154 -112.997c0 19.333 6.83203 35.832 20.499 49.499s30.167 20.5 49.5 20.5s35.833 -6.83301 49.5 -20.5s20.5 -30.167 20.5 -49.5c0 -4.66699 -0.333008 -8.66699 -1 -12l-18 -86c-5.33301 -25.333 -15.666 -44.666 -30.999 -57.999
s-36 -20 -62 -20h-52v54h59c18.667 0 30 10 34 30l5 22h-4c-19.333 0 -35.833 6.83301 -49.5 20.5s-20.5 30.167 -20.5 49.5z" />
    <glyph glyph-name="uni0157" unicode="&#x157;" 
d="M194 410c2 8 1 14.167 -3 18.5s-9 6.5 -15 6.5c-5.33301 0 -10.333 -1.66699 -15 -5l-91 -62l-40 59l89 60c22.667 15.333 45.667 23 69 23c20.667 0 38.667 -5.83301 54 -17.5s24 -30.5 26 -56.5h12c19.333 27.333 41 46.5 65 57.5s49 16.5 75 16.5
c48 0 85.667 -13.833 113 -41.5s41 -64.167 41 -109.5c0 -17.333 -2 -35 -6 -53l-85 -6c3.33301 16.667 5 30.667 5 42c0 32 -8.83301 55.667 -26.5 71s-40.5 23 -68.5 23c-20 0 -38.167 -3.83301 -54.5 -11.5s-30.5 -18 -42.5 -31s-22.167 -28.167 -30.5 -45.5
s-14.5 -35.333 -18.5 -54l-47 -222h118v-72h-318v72h122zM52 -123c0 19.333 6.83203 35.832 20.499 49.499s30.167 20.5 49.5 20.5s35.833 -6.83301 49.5 -20.5s20.5 -30.167 20.5 -49.5c0 -4.66699 -0.333008 -8.66699 -1 -12l-18 -86
c-5.33301 -25.333 -15.666 -44.666 -30.999 -57.999s-36 -20 -62 -20h-52v54h59c18.667 0 30 10 34 30l5 22h-4c-19.333 0 -35.833 6.83301 -49.5 20.5s-20.5 30.167 -20.5 49.5z" />
    <glyph glyph-name="Rcaron" unicode="&#x158;" 
d="M448 0l-84.001 0.00195312l50 234c1.33301 5.33301 2 11.666 2 18.999c0 11.333 -3.16699 20 -9.5 26s-17.166 9 -32.499 9h-221l-61 -288h-84l149 700h237c59.333 0 105.5 -15 138.5 -45s49.5 -72 49.5 -126c0 -44 -11.667 -82 -35 -114s-55 -56.333 -95 -73v-12
c16.667 -1.33301 29.667 -6.83301 39 -16.5s14 -22.834 14 -39.501c0 -6 -1 -13.333 -3 -22zM169.999 366.002l154.001 0.000976562c24.667 0 47.667 3.83301 69 11.5s39.666 18.5 54.999 32.5s27.333 30.333 36 49s13 39 13 61c0 33.333 -10 58.666 -30 75.999
s-49.667 26 -89 26h-154zM507 892.003v-6l-100 -112h-124l-55 118h81l34 -88h12l69 88h83z" />
    <glyph glyph-name="rcaron" unicode="&#x159;" 
d="M194 410c2 8 1 14.167 -3 18.5s-9 6.5 -15 6.5c-5.33301 0 -10.333 -1.66699 -15 -5l-91 -62l-40 59l89 60c22.667 15.333 45.667 23 69 23c20.667 0 38.667 -5.83301 54 -17.5s24 -30.5 26 -56.5h12c19.333 27.333 41 46.5 65 57.5s49 16.5 75 16.5
c48 0 85.667 -13.833 113 -41.5s41 -64.167 41 -109.5c0 -17.333 -2 -35 -6 -53l-85 -6c3.33301 16.667 5 30.667 5 42c0 32 -8.83301 55.667 -26.5 71s-40.5 23 -68.5 23c-20 0 -38.167 -3.83301 -54.5 -11.5s-30.5 -18 -42.5 -31s-22.167 -28.167 -30.5 -45.5
s-14.5 -35.333 -18.5 -54l-47 -222h118v-72h-318v72h122zM530 688v-6l-100 -112h-124l-55 118h81l34 -88h12l69 88h83z" />
    <glyph glyph-name="Sacute" unicode="&#x15a;" 
d="M497 488c2.66699 13.333 3.99805 24.6719 3.99805 34.0049c0 19.333 -3.66699 36.166 -11 50.499s-17.5 26.166 -30.5 35.499s-28 16.333 -45 21s-35.167 7 -54.5 7c-22 0 -43.667 -2.66699 -65 -8s-40.333 -13.333 -57 -24s-30.167 -23.5 -40.5 -38.5
s-15.5 -32.5 -15.5 -52.5c0 -19.333 3.83301 -35.5 11.5 -48.5s18.834 -24 33.501 -33s32.5 -16.333 53.5 -22s45.167 -10.834 72.5 -15.501c61.333 -10 106.333 -29.833 135 -59.5s43 -68.834 43 -117.501c0 -37.333 -7.16699 -70.333 -21.5 -99
s-34.166 -52.834 -59.499 -72.501s-55.166 -34.5 -89.499 -44.5s-71.5 -15 -111.5 -15c-38 0 -71.5 4.83301 -100.5 14.5s-53 23.167 -72 40.5s-33.333 37.833 -43 61.5s-14.5 49.834 -14.5 78.501c0 19.333 2 39.666 6 60.999l6 30h84l-5 -24c-4 -20 -6 -38.333 -6 -55
c0 -44 13.333 -76.5 40 -97.5s65 -31.5 115 -31.5c24 0 47.167 3.33301 69.5 10s42 16.167 59 28.5s30.667 27.333 41 45s15.5 37.5 15.5 59.5c0 18.667 -2.83301 34.5 -8.5 47.5s-14.834 24 -27.501 33s-29.167 16.5 -49.5 22.5s-44.833 11.333 -73.5 16
c-28 4.66699 -53.5 11.334 -76.5 20.001s-42.833 20 -59.5 34s-29.667 30.833 -39 50.5s-14 42.834 -14 69.501c0 34 7 64.333 21 91s33.167 49 57.5 67s53 31.833 86 41.5s68.5 14.5 106.5 14.5c34.667 0 65.667 -4.66699 93 -14s50.333 -22 69 -38s33 -34.667 43 -56
s15 -44 15 -68c0 -6.66699 -0.333008 -13.334 -1 -20.001s-1.66699 -13.334 -3 -20.001l-8 -36h-84zM518.998 892.006v-6l-103 -112h-80l91 118h92z" />
    <glyph glyph-name="sacute" unicode="&#x15b;" 
d="M336 440c-13.333 0 -27.1631 -1.66895 -41.4961 -5.00195s-27.333 -8.33301 -39 -15s-21.167 -15.167 -28.5 -25.5s-11 -22.5 -11 -36.5c0 -21.333 9.5 -37.333 28.5 -48s51.833 -17.667 98.5 -21c48 -3.33301 85.167 -15.333 111.5 -36s39.5 -51 39.5 -91
c0 -28 -5.83301 -53 -17.5 -75s-27.834 -40.5 -48.501 -55.5s-45.167 -26.333 -73.5 -34s-59.5 -11.5 -93.5 -11.5s-62.833 4.5 -86.5 13.5s-43.167 21 -58.5 36s-26.5 32 -33.5 51s-10.5 38.5 -10.5 58.5v10.5c0 3.66699 0.333008 7.16699 1 10.5l78 10
c-0.666992 -5.33301 -1 -8.66602 -1 -9.99902v-6c0 -14.667 2.16699 -28.167 6.5 -40.5s11.5 -23 21.5 -32s23 -16.167 39 -21.5s35.667 -8 59 -8c15.333 0 31.166 1.83301 47.499 5.5s31.166 9.33398 44.499 17.001s24.333 17.334 33 29.001s13 25.834 13 42.501
c0 26 -10.5 43.5 -31.5 52.5s-52.167 15.167 -93.5 18.5c-47.333 3.33301 -84.5 14.666 -111.5 33.999s-40.5 49.666 -40.5 90.999c0 23.333 5 45 15 65s24.167 37.167 42.5 51.5s40.333 25.5 66 33.5s54.167 12 85.5 12c30.667 0 57.167 -4.16699 79.5 -12.5
s40.666 -19.166 54.999 -32.499s25 -28.5 32 -45.5s10.5 -34.5 10.5 -52.5v-11l-77 -11v4c0 1.33301 0.166992 2.5 0.5 3.5s0.5 2.16699 0.5 3.5c0 25.333 -9.5 45.666 -28.5 60.999s-46.5 23 -82.5 23zM511.003 687.998v-6l-103 -112h-80l91 118h92z" />
    <glyph glyph-name="Scircumflex" unicode="&#x15c;" 
d="M497 488c2.66699 13.333 3.99805 24.6719 3.99805 34.0049c0 19.333 -3.66699 36.166 -11 50.499s-17.5 26.166 -30.5 35.499s-28 16.333 -45 21s-35.167 7 -54.5 7c-22 0 -43.667 -2.66699 -65 -8s-40.333 -13.333 -57 -24s-30.167 -23.5 -40.5 -38.5
s-15.5 -32.5 -15.5 -52.5c0 -19.333 3.83301 -35.5 11.5 -48.5s18.834 -24 33.501 -33s32.5 -16.333 53.5 -22s45.167 -10.834 72.5 -15.501c61.333 -10 106.333 -29.833 135 -59.5s43 -68.834 43 -117.501c0 -37.333 -7.16699 -70.333 -21.5 -99
s-34.166 -52.834 -59.499 -72.501s-55.166 -34.5 -89.499 -44.5s-71.5 -15 -111.5 -15c-38 0 -71.5 4.83301 -100.5 14.5s-53 23.167 -72 40.5s-33.333 37.833 -43 61.5s-14.5 49.834 -14.5 78.501c0 19.333 2 39.666 6 60.999l6 30h84l-5 -24c-4 -20 -6 -38.333 -6 -55
c0 -44 13.333 -76.5 40 -97.5s65 -31.5 115 -31.5c24 0 47.167 3.33301 69.5 10s42 16.167 59 28.5s30.667 27.333 41 45s15.5 37.5 15.5 59.5c0 18.667 -2.83301 34.5 -8.5 47.5s-14.834 24 -27.501 33s-29.167 16.5 -49.5 22.5s-44.833 11.333 -73.5 16
c-28 4.66699 -53.5 11.334 -76.5 20.001s-42.833 20 -59.5 34s-29.667 30.833 -39 50.5s-14 42.834 -14 69.501c0 34 7 64.333 21 91s33.167 49 57.5 67s53 31.833 86 41.5s68.5 14.5 106.5 14.5c34.667 0 65.667 -4.66699 93 -14s50.333 -22 69 -38s33 -34.667 43 -56
s15 -44 15 -68c0 -6.66699 -0.333008 -13.334 -1 -20.001s-1.66699 -13.334 -3 -20.001l-8 -36h-84zM240.998 774.006v6l100 112h124l55 -118h-75l-39 88h-12l-68 -88h-85z" />
    <glyph glyph-name="scircumflex" unicode="&#x15d;" 
d="M336 440c-13.333 0 -27.1631 -1.66895 -41.4961 -5.00195s-27.333 -8.33301 -39 -15s-21.167 -15.167 -28.5 -25.5s-11 -22.5 -11 -36.5c0 -21.333 9.5 -37.333 28.5 -48s51.833 -17.667 98.5 -21c48 -3.33301 85.167 -15.333 111.5 -36s39.5 -51 39.5 -91
c0 -28 -5.83301 -53 -17.5 -75s-27.834 -40.5 -48.501 -55.5s-45.167 -26.333 -73.5 -34s-59.5 -11.5 -93.5 -11.5s-62.833 4.5 -86.5 13.5s-43.167 21 -58.5 36s-26.5 32 -33.5 51s-10.5 38.5 -10.5 58.5v10.5c0 3.66699 0.333008 7.16699 1 10.5l78 10
c-0.666992 -5.33301 -1 -8.66602 -1 -9.99902v-6c0 -14.667 2.16699 -28.167 6.5 -40.5s11.5 -23 21.5 -32s23 -16.167 39 -21.5s35.667 -8 59 -8c15.333 0 31.166 1.83301 47.499 5.5s31.166 9.33398 44.499 17.001s24.333 17.334 33 29.001s13 25.834 13 42.501
c0 26 -10.5 43.5 -31.5 52.5s-52.167 15.167 -93.5 18.5c-47.333 3.33301 -84.5 14.666 -111.5 33.999s-40.5 49.666 -40.5 90.999c0 23.333 5 45 15 65s24.167 37.167 42.5 51.5s40.333 25.5 66 33.5s54.167 12 85.5 12c30.667 0 57.167 -4.16699 79.5 -12.5
s40.666 -19.166 54.999 -32.499s25 -28.5 32 -45.5s10.5 -34.5 10.5 -52.5v-11l-77 -11v4c0 1.33301 0.166992 2.5 0.5 3.5s0.5 2.16699 0.5 3.5c0 25.333 -9.5 45.666 -28.5 60.999s-46.5 23 -82.5 23zM233.003 569.998v6l100 112h124l55 -118h-75l-39 88h-12l-68 -88h-85z
" />
    <glyph glyph-name="Scedilla" unicode="&#x15e;" 
d="M497 488c2.66699 13.333 3.99902 24.6738 3.99902 34.0068c0 19.333 -3.66699 36.166 -11 50.499s-17.5 26.166 -30.5 35.499s-28 16.333 -45 21s-35.167 7 -54.5 7c-22 0 -43.667 -2.66699 -65 -8s-40.333 -13.333 -57 -24s-30.167 -23.5 -40.5 -38.5
s-15.5 -32.5 -15.5 -52.5c0 -19.333 3.83301 -35.5 11.5 -48.5s18.834 -24 33.501 -33s32.5 -16.333 53.5 -22s45.167 -10.834 72.5 -15.501c61.333 -10 106.333 -29.833 135 -59.5s43 -68.834 43 -117.501c0 -37.333 -7.16699 -70.333 -21.5 -99
s-34.166 -52.834 -59.499 -72.501s-55.166 -34.5 -89.499 -44.5s-71.5 -15 -111.5 -15h-8l-19 -54h6c11.333 21.333 29.333 32 54 32c22 0 38.833 -7.33301 50.5 -22s17.5 -32 17.5 -52c0 -30 -8.5 -54.5 -25.5 -73.5s-43.167 -28.5 -78.5 -28.5c-27.333 0 -49 6.5 -65 19.5
s-25.667 29.833 -29 50.5l50 17c1.33301 -10.667 5.5 -19.834 12.5 -27.501s18.167 -11.5 33.5 -11.5s27.166 4.16699 35.499 12.5s12.5 19.5 12.5 33.5c0 12 -3.16699 20.667 -9.5 26s-13.833 8 -22.5 8c-7.33301 0 -13 -1.33301 -17 -4s-7.33301 -6 -10 -10h-75v12l26 77
c-56.667 9.33301 -99 30.833 -127 64.5s-42 75.5 -42 125.5c0 19.333 2 39.666 6 60.999l6 30h84l-5 -24c-4 -20 -6 -38.333 -6 -55c0 -44 13.333 -76.5 40 -97.5s65 -31.5 115 -31.5c24 0 47.167 3.33301 69.5 10s42 16.167 59 28.5s30.667 27.333 41 45
s15.5 37.5 15.5 59.5c0 18.667 -2.83301 34.5 -8.5 47.5s-14.834 24 -27.501 33s-29.167 16.5 -49.5 22.5s-44.833 11.333 -73.5 16c-28 4.66699 -53.5 11.334 -76.5 20.001s-42.833 20 -59.5 34s-29.667 30.833 -39 50.5s-14 42.834 -14 69.501c0 34 7 64.333 21 91
s33.167 49 57.5 67s53 31.833 86 41.5s68.5 14.5 106.5 14.5c34.667 0 65.667 -4.66699 93 -14s50.333 -22 69 -38s33 -34.667 43 -56s15 -44 15 -68c0 -6.66699 -0.333008 -13.334 -1 -20.001s-1.66699 -13.334 -3 -20.001l-8 -36h-84z" />
    <glyph glyph-name="scedilla" unicode="&#x15f;" 
d="M336 440c-13.333 0 -27.1641 -1.66797 -41.4971 -5.00098s-27.333 -8.33301 -39 -15s-21.167 -15.167 -28.5 -25.5s-11 -22.5 -11 -36.5c0 -21.333 9.5 -37.333 28.5 -48s51.833 -17.667 98.5 -21c48 -3.33301 85.167 -15.333 111.5 -36s39.5 -51 39.5 -91
c0 -28 -5.66699 -52.667 -17 -74s-27.166 -39.5 -47.499 -54.5s-44.5 -26.5 -72.5 -34.5s-58.667 -12.333 -92 -13l-19 -54h6c11.333 21.333 29.333 32 54 32c22 0 38.833 -7.33301 50.5 -22s17.5 -32 17.5 -52c0 -30 -8.5 -54.5 -25.5 -73.5s-43.167 -28.5 -78.5 -28.5
c-27.333 0 -49 6.5 -65 19.5s-25.667 29.833 -29 50.5l50 17c1.33301 -10.667 5.5 -19.834 12.5 -27.501s18.167 -11.5 33.5 -11.5s27.166 4.16699 35.499 12.5s12.5 19.5 12.5 33.5c0 12 -3.16699 20.667 -9.5 26s-13.833 8 -22.5 8c-7.33301 0 -13 -1.33301 -17 -4
s-7.33301 -6 -10 -10h-75v12l26 76c-24.667 4 -45.834 11.167 -63.501 21.5s-32.167 22.5 -43.5 36.5s-19.666 29.333 -24.999 46s-8 33.667 -8 51v10.5c0 3.66699 0.333008 7.16699 1 10.5l78 10c-0.666992 -5.33301 -1 -8.66602 -1 -9.99902v-6
c0 -14.667 2.16699 -28.167 6.5 -40.5s11.5 -23 21.5 -32s23 -16.167 39 -21.5s35.667 -8 59 -8c15.333 0 31.166 1.83301 47.499 5.5s31.166 9.33398 44.499 17.001s24.333 17.334 33 29.001s13 25.834 13 42.501c0 26 -10.5 43.5 -31.5 52.5s-52.167 15.167 -93.5 18.5
c-47.333 3.33301 -84.5 14.666 -111.5 33.999s-40.5 49.666 -40.5 90.999c0 23.333 5 45 15 65s24.167 37.167 42.5 51.5s40.333 25.5 66 33.5s54.167 12 85.5 12c30.667 0 57.167 -4.16699 79.5 -12.5s40.666 -19.166 54.999 -32.499s25 -28.5 32 -45.5
s10.5 -34.5 10.5 -52.5v-11l-77 -11v4c0 1.33301 0.166992 2.5 0.5 3.5s0.5 2.16699 0.5 3.5c0 25.333 -9.5 45.666 -28.5 60.999s-46.5 23 -82.5 23z" />
    <glyph glyph-name="Scaron" unicode="&#x160;" 
d="M497 488c2.66699 13.333 3.99805 24.6719 3.99805 34.0049c0 19.333 -3.66699 36.166 -11 50.499s-17.5 26.166 -30.5 35.499s-28 16.333 -45 21s-35.167 7 -54.5 7c-22 0 -43.667 -2.66699 -65 -8s-40.333 -13.333 -57 -24s-30.167 -23.5 -40.5 -38.5
s-15.5 -32.5 -15.5 -52.5c0 -19.333 3.83301 -35.5 11.5 -48.5s18.834 -24 33.501 -33s32.5 -16.333 53.5 -22s45.167 -10.834 72.5 -15.501c61.333 -10 106.333 -29.833 135 -59.5s43 -68.834 43 -117.501c0 -37.333 -7.16699 -70.333 -21.5 -99
s-34.166 -52.834 -59.499 -72.501s-55.166 -34.5 -89.499 -44.5s-71.5 -15 -111.5 -15c-38 0 -71.5 4.83301 -100.5 14.5s-53 23.167 -72 40.5s-33.333 37.833 -43 61.5s-14.5 49.834 -14.5 78.501c0 19.333 2 39.666 6 60.999l6 30h84l-5 -24c-4 -20 -6 -38.333 -6 -55
c0 -44 13.333 -76.5 40 -97.5s65 -31.5 115 -31.5c24 0 47.167 3.33301 69.5 10s42 16.167 59 28.5s30.667 27.333 41 45s15.5 37.5 15.5 59.5c0 18.667 -2.83301 34.5 -8.5 47.5s-14.834 24 -27.501 33s-29.167 16.5 -49.5 22.5s-44.833 11.333 -73.5 16
c-28 4.66699 -53.5 11.334 -76.5 20.001s-42.833 20 -59.5 34s-29.667 30.833 -39 50.5s-14 42.834 -14 69.501c0 34 7 64.333 21 91s33.167 49 57.5 67s53 31.833 86 41.5s68.5 14.5 106.5 14.5c34.667 0 65.667 -4.66699 93 -14s50.333 -22 69 -38s33 -34.667 43 -56
s15 -44 15 -68c0 -6.66699 -0.333008 -13.334 -1 -20.001s-1.66699 -13.334 -3 -20.001l-8 -36h-84zM559.998 892.006v-6l-100 -112h-124l-55 118h81l34 -88h12l69 88h83z" />
    <glyph glyph-name="scaron" unicode="&#x161;" 
d="M336 440c-13.333 0 -27.1631 -1.66895 -41.4961 -5.00195s-27.333 -8.33301 -39 -15s-21.167 -15.167 -28.5 -25.5s-11 -22.5 -11 -36.5c0 -21.333 9.5 -37.333 28.5 -48s51.833 -17.667 98.5 -21c48 -3.33301 85.167 -15.333 111.5 -36s39.5 -51 39.5 -91
c0 -28 -5.83301 -53 -17.5 -75s-27.834 -40.5 -48.501 -55.5s-45.167 -26.333 -73.5 -34s-59.5 -11.5 -93.5 -11.5s-62.833 4.5 -86.5 13.5s-43.167 21 -58.5 36s-26.5 32 -33.5 51s-10.5 38.5 -10.5 58.5v10.5c0 3.66699 0.333008 7.16699 1 10.5l78 10
c-0.666992 -5.33301 -1 -8.66602 -1 -9.99902v-6c0 -14.667 2.16699 -28.167 6.5 -40.5s11.5 -23 21.5 -32s23 -16.167 39 -21.5s35.667 -8 59 -8c15.333 0 31.166 1.83301 47.499 5.5s31.166 9.33398 44.499 17.001s24.333 17.334 33 29.001s13 25.834 13 42.501
c0 26 -10.5 43.5 -31.5 52.5s-52.167 15.167 -93.5 18.5c-47.333 3.33301 -84.5 14.666 -111.5 33.999s-40.5 49.666 -40.5 90.999c0 23.333 5 45 15 65s24.167 37.167 42.5 51.5s40.333 25.5 66 33.5s54.167 12 85.5 12c30.667 0 57.167 -4.16699 79.5 -12.5
s40.666 -19.166 54.999 -32.499s25 -28.5 32 -45.5s10.5 -34.5 10.5 -52.5v-11l-77 -11v4c0 1.33301 0.166992 2.5 0.5 3.5s0.5 2.16699 0.5 3.5c0 25.333 -9.5 45.666 -28.5 60.999s-46.5 23 -82.5 23zM525.003 687.998v-6l-100 -112h-124l-55 118h81l34 -88h12l69 88h83z
" />
    <glyph glyph-name="uni0162" unicode="&#x162;" 
d="M103 700l503.001 0.000976562v-78h-203l-132 -622h-29l-16 -68h6c11.333 21.333 30 32 56 32c22 0 38.833 -7.33301 50.5 -22s17.5 -32 17.5 -52c0 -30 -8.5 -54.5 -25.5 -73.5s-43.167 -28.5 -78.5 -28.5c-27.333 0 -49 6.5 -65 19.5s-25.667 29.833 -29 50.5l50 17
c1.33301 -10.667 5.5 -19.834 12.5 -27.501s18.167 -11.5 33.5 -11.5s27.166 4.16699 35.499 12.5s12.5 19.5 12.5 33.5c0 12 -3.16699 20.667 -9.5 26s-13.833 8 -22.5 8c-7.33301 0 -13 -1.33301 -17 -4s-7.33301 -6 -10 -10h-75v12l151 708h-216v78z" />
    <glyph glyph-name="uni0163" unicode="&#x163;" 
d="M85 496l172.001 0.00292969l46 218h78l-46 -218h176v-72h-192l-71 -337c-2 -8 -1.16699 -14.333 2.5 -19s8.5 -7 14.5 -7c4.66699 0 9.66699 1.66699 15 5l133 90l40 -59l-133 -90c-21.333 -14 -43.333 -21 -66 -21h-4l-19 -54h6c11.333 21.333 29.333 32 54 32
c22 0 38.833 -7.33301 50.5 -22s17.5 -32 17.5 -52c0 -30 -8.5 -54.5 -25.5 -73.5s-43.167 -28.5 -78.5 -28.5c-27.333 0 -49 6.5 -65 19.5s-25.667 29.833 -29 50.5l50 17c1.33301 -10.667 5.5 -19.834 12.5 -27.501s18.167 -11.5 33.5 -11.5s27.166 4.16699 35.499 12.5
s12.5 19.5 12.5 33.5c0 12 -3.16699 20.667 -9.5 26s-13.833 8 -22.5 8c-7.33301 0 -13 -1.33301 -17 -4s-7.33301 -6 -10 -10h-75v12l30 88c-9.33301 7.33301 -17 16.666 -23 27.999s-9 24.666 -9 39.999c0 4.66699 0.333008 9.5 1 14.5s1.66699 10.167 3 15.5l68 324h-156
v72z" />
    <glyph glyph-name="Tcaron" unicode="&#x164;" 
d="M103 700h503v-78h-203l-132 -622h-84l132 622h-216v78zM543 892v-6l-100 -112h-124l-55 118h81l34 -88h12l69 88h83z" />
    <glyph glyph-name="tcaron" unicode="&#x165;" 
d="M93 496h164l46 218h78l-46 -218h64v-72h-80l-71 -337c-2 -8 -1.16699 -14.333 2.5 -19s8.5 -7 14.5 -7c4.66699 0 9.66699 1.66699 15 5l133 90l40 -59l-133 -90c-21.333 -14 -43.333 -21 -66 -21c-23.333 0 -43.333 7 -60 21s-25 35 -25 63
c0 4.66699 0.333008 9.5 1 14.5s1.66699 10.167 3 15.5l68 324h-148v72zM451 630c0 19.333 6.83203 35.832 20.499 49.499s30.167 20.5 49.5 20.5s35.833 -6.83301 49.5 -20.5s20.5 -30.167 20.5 -49.5c0 -4.66699 -0.333008 -8.66699 -1 -12l-24 -116
c-5.33301 -25.333 -15.666 -44.666 -30.999 -57.999s-36 -20 -62 -20h-52v54h59c18.667 0 30 10 34 30l11 52h-4c-19.333 0 -35.833 6.83301 -49.5 20.5s-20.5 30.167 -20.5 49.5z" />
    <glyph glyph-name="Tbar" unicode="&#x166;" 
d="M116 700h491v-78h-203l-41 -194h140v-78h-157l-74 -350h-84l74 350h-139v78h156l41 194h-204v78z" />
    <glyph glyph-name="tbar" unicode="&#x167;" 
d="M85 496h172l46 218h78l-46 -218h176v-72h-192l-16 -74h150v-72h-165l-40 -191c-2 -8 -1.16699 -14.333 2.5 -19s8.5 -7 14.5 -7c4.66699 0 9.66699 1.66699 15 5l133 90l40 -59l-133 -90c-21.333 -14 -43.333 -21 -66 -21c-23.333 0 -43.333 7 -60 21s-25 35 -25 63
c0 4.66699 0.333008 9.5 1 14.5s1.66699 10.167 3 15.5l37 178h-111v72h126l16 74h-156v72z" />
    <glyph glyph-name="Utilde" unicode="&#x168;" 
d="M226 700l-98 -463.998c-2 -10.667 -3.66699 -20.834 -5 -30.501s-2 -18.834 -2 -27.501c0 -77.333 41 -116 123 -116c50 0 91.167 14.667 123.5 44s54.5 72.666 66.5 129.999l98 464h84l-98 -464c-17.333 -83.333 -48.833 -145.833 -94.5 -187.5
s-109.5 -62.5 -191.5 -62.5c-28.667 0 -55 4 -79 12s-44.5 19.833 -61.5 35.5s-30.333 34.834 -40 57.501s-14.5 49 -14.5 79c0 11.333 0.5 22.833 1.5 34.5s3.16699 24.167 6.5 37.5l97 458h84zM434 846.002c3.33301 -6.66699 6.66699 -11.667 10 -15s8 -5 14 -5
c6.66699 0 13 3.33301 19 10l48 55l49 -42l-41 -49c-9.33301 -11.333 -20.333 -21.166 -33 -29.499s-27.667 -12.5 -45 -12.5c-20.667 0 -36.5 4.66699 -47.5 14s-22.167 24.333 -33.5 45c-4.66699 8 -8.5 13.667 -11.5 17s-7.16699 5 -12.5 5
c-7.33301 0 -14.666 -4 -21.999 -12l-46 -53l-49 42l41 49c9.33301 11.333 20.333 21.166 33 29.499s28 12.5 46 12.5c19.333 0 34.666 -4.83301 45.999 -14.5s23 -25.167 35 -46.5z" />
    <glyph glyph-name="utilde" unicode="&#x169;" 
d="M365 84l-12.0049 0.000976562c-18 -32 -41 -56.333 -69 -73s-62 -25 -102 -25c-44 0 -79.667 12.5 -107 37.5s-41 62.167 -41 111.5c0 10 0.5 20.167 1.5 30.5s3.16699 21.833 6.5 34.5l66 296h78l-64 -286c-4.66699 -20.667 -7 -40 -7 -58c0 -61.333 33 -92 99 -92
c46 0 85.167 16.167 117.5 48.5s54.5 75.5 66.5 129.5l58 258h78l-91 -412c-1.33301 -5.33301 -0.666016 -9.66602 2.00098 -12.999s6.33398 -5 11.001 -5s9.33398 1.66699 14.001 5l43 31l42 -58l-50 -38c-8 -6.66699 -17.833 -11.667 -29.5 -15s-23.5 -5 -35.5 -5
c-10 0 -19.667 1.33301 -29 4s-17.666 7 -24.999 13s-13.166 13.5 -17.499 22.5s-6.5 19.833 -6.5 32.5c0 3.33301 0.166992 6.66602 0.5 9.99902s0.833008 6.66602 1.5 9.99902zM375.995 639.001c3.33301 -6.66699 6.66699 -11.667 10 -15s8 -5 14 -5
c6.66699 0 13 3.33301 19 10l48 55l49 -42l-41 -49c-9.33301 -11.333 -20.333 -21.166 -33 -29.499s-27.667 -12.5 -45 -12.5c-20.667 0 -36.5 4.66699 -47.5 14s-22.167 24.333 -33.5 45c-4.66699 8 -8.5 13.667 -11.5 17s-7.16699 5 -12.5 5
c-7.33301 0 -14.666 -4 -21.999 -12l-46 -53l-49 42l41 49c9.33301 11.333 20.333 21.166 33 29.499s28 12.5 46 12.5c19.333 0 34.666 -4.83301 45.999 -14.5s23 -25.167 35 -46.5z" />
    <glyph glyph-name="Umacron" unicode="&#x16a;" 
d="M226 700l-98 -463.998c-2 -10.667 -3.66699 -20.834 -5 -30.501s-2 -18.834 -2 -27.501c0 -77.333 41 -116 123 -116c50 0 91.167 14.667 123.5 44s54.5 72.666 66.5 129.999l98 464h84l-98 -464c-17.333 -83.333 -48.833 -145.833 -94.5 -187.5
s-109.5 -62.5 -191.5 -62.5c-28.667 0 -55 4 -79 12s-44.5 19.833 -61.5 35.5s-30.333 34.834 -40 57.501s-14.5 49 -14.5 79c0 11.333 0.5 22.833 1.5 34.5s3.16699 24.167 6.5 37.5l97 458h84zM526 774.002h-282v66h282v-66z" />
    </font>
</defs>
</svg>
