<?xml version="1.0" standalone="no"?>
<!DOCTYPE svg PUBLIC "-//W3C//DTD SVG 1.1//EN" "http://www.w3.org/Graphics/SVG/1.1/DTD/svg11.dtd" >
<svg>
<metadata>
Created by FontForge 20090914 at Sat Apr 21 19:34:32 2018
 By www-data
Copyright 2016 Google Inc. All Rights Reserved.
</metadata>
<defs>
<font id="SpaceMono-BoldItalic" horiz-adv-x="612" >
  <font-face 
    font-family="Space Mono"
    font-weight="700"
    font-style="italic"
    font-stretch="normal"
    units-per-em="1000"
    panose-1="2 0 8 9 4 0 0 9 0 4"
    ascent="800"
    descent="-200"
    x-height="496"
    cap-height="700"
    bbox="-68 -359.999 787 1120"
    underline-thickness="50"
    underline-position="-50"
    slope="-12"
    unicode-range="U+0020-U+FB02"
  />
<missing-glyph 
 />
    <glyph glyph-name="fi" unicode="fi" 
d="M500 12c-13.333 -9.33301 -27 -16.001 -41 -20.001s-27.667 -6 -41 -6c-14.667 0 -28.667 2.5 -42 7.5s-25 12 -35 21s-17.833 20 -23.5 33s-8.5 27.5 -8.5 43.5c0 10.667 1.33301 22.334 4 35.001l52 218c0.666992 3.33301 1 6.66602 1 9.99902
c0 14.667 -9.66699 22 -29 22h-108l-80 -376h-126l80 376h-99v120h125l21 102c2.66699 14 8 27.333 16 40s17.5 23.5 28.5 32.5s23.333 16.167 37 21.5s27.5 8 41.5 8h82v-120h-56c-18 0 -29 -10 -33 -30l-11 -54h128c37.333 0 65.833 -10 85.5 -30s29.5 -45.667 29.5 -77
c0 -13.333 -1.33301 -25.666 -4 -36.999l-56 -233l10 -7l86 60l63 -94zM587 642.999c0 -13.333 -2.5 -25.833 -7.5 -37.5s-11.833 -21.667 -20.5 -30s-18.834 -15 -30.501 -20s-23.834 -7.5 -36.501 -7.5c-13.333 0 -25.666 2.5 -36.999 7.5s-21.333 11.667 -30 20
s-15.5 18.333 -20.5 30s-7.5 24.167 -7.5 37.5s2.5 25.833 7.5 37.5s11.833 21.667 20.5 30s18.667 15 30 20s23.666 7.5 36.999 7.5c12.667 0 24.834 -2.5 36.501 -7.5s21.834 -11.667 30.501 -20s15.5 -18.333 20.5 -30s7.5 -24.167 7.5 -37.5z" />
    <glyph glyph-name="fl" unicode="fl" 
d="M295 580c-18 0 -29 -10.002 -33 -30.002l-11 -54h90v-120h-116l-80 -376h-126l80 376h-93v120h119l21 102c2.66699 14 8 27.333 16 40s17.5 23.5 28.5 32.5s23.333 16.167 37 21.5s27.5 8 41.5 8h165c37.333 0 65.833 -10 85.5 -30s29.5 -45.667 29.5 -77
c0 -13.333 -1.33301 -25.666 -4 -36.999l-105 -437l10 -7l86 60l63 -94l-97 -66c-13.333 -9.33301 -27 -16 -41 -20s-27.667 -6 -41 -6c-14.667 0 -28.667 2.5 -42 7.5s-25 12 -35 21s-17.833 20 -23.5 33s-8.5 27.5 -8.5 43.5c0 12.667 1.33301 24.334 4 35.001l101 422
c0.666992 3.33301 1 6 1 8c0 8 -2.83301 14 -8.5 18s-12.5 6 -20.5 6h-93v0z" />
    <glyph glyph-name=".notdef" 
 />
    <glyph glyph-name="NULL" 
 />
    <glyph glyph-name="NULL" 
 />
    <glyph glyph-name="space" unicode=" " 
 />
    <glyph glyph-name="exclam" unicode="!" 
d="M454 700l-104 -482h-132l104 482h132zM356 81c0 -13.333 -2.5 -25.833 -7.5 -37.5s-11.833 -21.667 -20.5 -30s-18.834 -15 -30.501 -20s-23.834 -7.5 -36.501 -7.5c-13.333 0 -25.666 2.5 -36.999 7.5s-21.333 11.667 -30 20s-15.5 18.333 -20.5 30
s-7.5 24.167 -7.5 37.5s2.5 25.833 7.5 37.5s11.833 21.667 20.5 30s18.667 15 30 20s23.666 7.5 36.999 7.5c12.667 0 24.834 -2.5 36.501 -7.5s21.834 -11.667 30.501 -20s15.5 -18.333 20.5 -30s7.5 -24.167 7.5 -37.5z" />
    <glyph glyph-name="quotedbl" unicode="&#x22;" 
d="M190 542c-12 9.33301 -21.667 20.833 -29 34.5s-11 28.167 -11 43.5c0 12.667 2.5 24.834 7.5 36.501s11.833 21.667 20.5 30s18.667 15 30 20s23.666 7.5 36.999 7.5c12.667 0 24.834 -2.5 36.501 -7.5s21.667 -11.667 30 -20s15 -18.333 20 -30
s7.5 -23.834 7.5 -36.501c0 -21.333 -6.5 -40.833 -19.5 -58.5s-31.167 -29.5 -54.5 -35.5l-26 -121l-76 15zM415 542c-12 9.33301 -21.666 20.832 -28.999 34.499s-11 28.167 -11 43.5c0 12.667 2.5 24.834 7.5 36.501s11.833 21.667 20.5 30s18.667 15 30 20
s23.666 7.5 36.999 7.5c26 0 48.167 -9.16699 66.5 -27.5s27.5 -40.5 27.5 -66.5c0 -21.333 -6.5 -40.833 -19.5 -58.5s-31.167 -29.5 -54.5 -35.5l-26 -121l-76 15z" />
    <glyph glyph-name="numbersign" unicode="#" 
d="M288 90l24 114h-76l-24 -114h-108l24 114h-91v108h114l17 76h-91v108h114l24 114h108l-24 -114h76l24 114h108l-24 -114h90v-108h-113l-17 -76h90v-108h-113l-24 -114h-108zM352 388h-76l-17 -76h76z" />
    <glyph glyph-name="dollar" unicode="$" 
d="M399 606c38 -8.66699 67.333 -24.834 88 -48.501s31 -51.167 31 -82.5c0 -7.33301 -1 -17 -3 -29l-2 -10h-114l2 10c1.33301 9.33301 0 18.166 -4 26.499s-11.333 15.166 -22 20.499l-20 -95c40 -7.33301 71.333 -21 94 -41s34 -48 34 -84
c0 -30 -5.16699 -55.833 -15.5 -77.5s-24.333 -40 -42 -55s-38.167 -26.667 -61.5 -35s-48.333 -13.833 -75 -16.5l-13 -61h-96l14 65c-42 9.33301 -74 26.833 -96 52.5s-33 55.5 -33 89.5c0 10 1 20.667 3 32l4 20h114l-3 -14c-1.33301 -6.66699 -2 -12.667 -2 -18
c0 -10 3 -19.5 9 -28.5s15 -16.167 27 -21.5l24 113c-15.333 2.66699 -30.333 7.16699 -45 13.5s-27.667 14.5 -39 24.5s-20.5 22.333 -27.5 37s-10.5 32.334 -10.5 53.001c0 20 4.16699 39.333 12.5 58s20.5 35.334 36.5 50.001s35.333 26.834 58 36.501
s48.667 16.167 78 19.5l13 62h96zM365 255c0 9.33301 -2.16699 17.833 -6.5 25.5s-12.5 14.167 -24.5 19.5l-22 -101c35.333 7.33301 53 26 53 56zM237 457c0 -8.66699 1.83301 -16.167 5.5 -22.5s10.5 -11.833 20.5 -16.5l17 82c-12.667 -2.66699 -23 -7.5 -31 -14.5
s-12 -16.5 -12 -28.5z" />
    <glyph glyph-name="percent" unicode="%" 
d="M362 583c0 -25.333 -5.00098 -48.5 -15.001 -69.5s-23.167 -39 -39.5 -54s-34.833 -26.667 -55.5 -35s-41.334 -12.5 -62.001 -12.5c-19.333 0 -37.666 2.66699 -54.999 8s-32.5 13.166 -45.5 23.499s-23.167 23.333 -30.5 39s-11 33.834 -11 54.501
c0 23.333 4 45.5 12 66.5s19.833 39.5 35.5 55.5s34.834 28.833 57.501 38.5s48.667 14.5 78 14.5c16.667 0 32.834 -2.66699 48.501 -8s29.667 -13.333 42 -24s22.166 -24 29.499 -40s11 -35 11 -57zM195.999 496c20 0 37.333 7.33203 52 21.999s22 33.334 22 56.001
c0 18 -5 31.5 -15 40.5s-23.667 13.5 -41 13.5c-21.333 0 -39 -8.16699 -53 -24.5s-21 -34.833 -21 -55.5c0 -17.333 5.16699 -30.333 15.5 -39s23.833 -13 40.5 -13zM560.999 158.999c0 -25.333 -5.00098 -48.5 -15.001 -69.5s-23.167 -39 -39.5 -54
s-34.833 -26.667 -55.5 -35s-41.334 -12.5 -62.001 -12.5c-19.333 0 -37.666 2.66699 -54.999 8s-32.5 13.166 -45.5 23.499s-23.167 23.333 -30.5 39s-11 33.834 -11 54.501c0 23.333 4 45.5 12 66.5s19.833 39.5 35.5 55.5s34.834 28.833 57.501 38.5s48.667 14.5 78 14.5
c16.667 0 32.834 -2.66699 48.501 -8s29.667 -13.333 42 -24s22.166 -24 29.499 -40s11 -35 11 -57zM394.998 71.999c20 0 37.333 7.33203 52 21.999s22 33.334 22 56.001c0 18 -5 31.5 -15 40.5s-23.667 13.5 -41 13.5c-21.333 0 -39 -8.16699 -53 -24.5
s-21 -34.833 -21 -55.5c0 -17.333 5.16699 -30.333 15.5 -39s23.833 -13 40.5 -13zM525.998 509.998l41 -78l-472 -242l-41 78z" />
    <glyph glyph-name="ampersand" unicode="&#x26;" 
d="M355 294h-105c-15.333 0 -30 -2.5 -44 -7.5s-26.333 -12 -37 -21s-19.167 -20 -25.5 -33s-9.5 -27.833 -9.5 -44.5c0 -23.333 7.5 -40.5 22.5 -51.5s34.167 -16.5 57.5 -16.5h104zM524 496l-18 -82h80v-126h-107l-61 -288h-242c-53.333 0 -95.666 13.5 -126.999 40.5
s-47 63.5 -47 109.5c0 49.333 14.167 91.166 42.5 125.499s67.5 56.5 117.5 66.5v18c-24 10 -45.167 24.833 -63.5 44.5s-27.5 47.5 -27.5 83.5c0 30.667 5.5 58.834 16.5 84.501s26.833 48 47.5 67s46 33.833 76 44.5s64.333 16 103 16h104v-120h-108
c-15.333 0 -29.833 -2 -43.5 -6s-25.834 -10.167 -36.501 -18.5s-19 -19 -25 -32s-9 -28.167 -9 -45.5c0 -22 7.83301 -38.167 23.5 -48.5s35.167 -15.5 58.5 -15.5h102l18 82h126z" />
    <glyph glyph-name="quotesingle" unicode="'" 
d="M300 542c-12 9.33301 -21.667 20.833 -29 34.5s-11 28.167 -11 43.5c0 12.667 2.5 24.834 7.5 36.501s11.833 21.667 20.5 30s18.667 15 30 20s23.666 7.5 36.999 7.5c12.667 0 24.834 -2.5 36.501 -7.5s21.667 -11.667 30 -20s15 -18.333 20 -30
s7.5 -23.834 7.5 -36.501c0 -21.333 -6.5 -40.833 -19.5 -58.5s-31.167 -29.5 -54.5 -35.5l-26 -121l-76 15z" />
    <glyph glyph-name="parenleft" unicode="(" 
d="M436 -30l0.00292969 -126.002h-81c-40 0 -77.167 6.5 -111.5 19.5s-64.333 31.667 -90 56s-45.667 54.5 -60 90.5s-21.5 77 -21.5 123c0 31.333 4 65.666 12 102.999l55 258c14 66 33.833 122 59.5 168s56.667 83.333 93 112s77.666 49.5 123.999 62.5
s97.166 19.5 152.499 19.5h44v-126h-58c-81.333 0 -145.333 -20.667 -192 -62s-79.334 -106.666 -98.001 -195.999l-51 -244c-6 -29.333 -9 -55.666 -9 -78.999c0 -36 5.83301 -65.5 17.5 -88.5s26.5 -41.167 44.5 -54.5s37.833 -22.666 59.5 -27.999s42.5 -8 62.5 -8h48z
" />
    <glyph glyph-name="parenright" unicode=")" 
d="M176 730l-0.00292969 126.002h81c40 0 77.167 -6.5 111.5 -19.5s64.333 -31.667 90 -56s45.667 -54.5 60 -90.5s21.5 -77 21.5 -123c0 -32 -4 -66.333 -12 -103l-55 -258c-14 -66 -33.833 -122 -59.5 -168s-56.667 -83.333 -93 -112s-77.666 -49.5 -123.999 -62.5
s-97.166 -19.5 -152.499 -19.5h-44v126h58c81.333 0 145.333 20.667 192 62s79.334 106.666 98.001 195.999l51 244c6 28.667 9 55 9 79c0 36 -5.83301 65.5 -17.5 88.5s-26.5 41.167 -44.5 54.5s-37.833 22.666 -59.5 27.999s-42.5 8 -62.5 8h-48z" />
    <glyph glyph-name="asterisk" unicode="*" 
d="M401 116l-56 87l-17 79l-17 -4l12 -77l-22 -104l-94 20l23 104l42 66l-14 10l-48 -66l-86 -56l-52 80l87 56l79 17l-4 17l-77 -12l-104 22l20 94l104 -23l66 -42l10 14l-66 48l-56 86l80 52l56 -87l17 -79l17 4l-12 77l22 104l94 -20l-23 -104l-42 -66l14 -10l48 66
l86 56l52 -80l-87 -56l-79 -17l4 -17l77 12l104 -22l-20 -94l-104 23l-66 42l-10 -14l66 -48l56 -86z" />
    <glyph glyph-name="plus" unicode="+" 
d="M96 407h165l32 152h114l-32 -152h139v-114h-164l-32 -152h-114l32 152h-140v114z" />
    <glyph glyph-name="comma" unicode="," 
d="M174 82c0 13.333 2.49902 25.8301 7.49902 37.4971s11.833 21.667 20.5 30s18.667 14.833 30 19.5s23.666 7 36.999 7c12.667 0 24.834 -2.5 36.501 -7.5s21.834 -11.667 30.501 -20s15.5 -18.333 20.5 -30s7.5 -24.167 7.5 -37.5
c0 -3.33301 -0.166992 -6.66602 -0.5 -9.99902s-0.833008 -6.66602 -1.5 -9.99902l-25 -119c-5.33301 -25.333 -17.333 -43.833 -36 -55.5s-41.667 -17.5 -69 -17.5h-82v78h76c20.667 0 33 9.33301 37 28l3 17c-11.333 0 -22.5 1.83301 -33.5 5.5
s-20.833 9.33398 -29.5 17.001s-15.667 17 -21 28s-8 24.167 -8 39.5z" />
    <glyph glyph-name="hyphen" unicode="-" 
d="M150 332h312v-114h-312v114z" />
    <glyph glyph-name="period" unicode="." 
d="M401 81c0 -13.333 -2.5 -25.833 -7.5 -37.5s-11.833 -21.667 -20.5 -30s-18.834 -15 -30.501 -20s-23.834 -7.5 -36.501 -7.5c-13.333 0 -25.666 2.5 -36.999 7.5s-21.333 11.667 -30 20s-15.5 18.333 -20.5 30s-7.5 24.167 -7.5 37.5s2.5 25.833 7.5 37.5
s11.833 21.667 20.5 30s18.667 15 30 20s23.666 7.5 36.999 7.5c12.667 0 24.834 -2.5 36.501 -7.5s21.834 -11.667 30.501 -20s15.5 -18.333 20.5 -30s7.5 -24.167 7.5 -37.5z" />
    <glyph glyph-name="slash" unicode="/" 
d="M514 825l104 -59l-519 -891l-105 59z" />
    <glyph glyph-name="zero" unicode="0" 
d="M223 350c0 22.667 8.33301 42.334 25 59.001s36.334 25 59.001 25s42.334 -8.33301 59.001 -25s25 -36.334 25 -59.001s-8.33301 -42.334 -25 -59.001s-36.334 -25 -59.001 -25s-42.334 8.33301 -59.001 25s-25 36.334 -25 59.001zM65 428
c20.667 98.667 56.334 171 107.001 217s118.667 69 204 69c33.333 0 63.166 -5.66699 89.499 -17s48.5 -26.833 66.5 -46.5s31.833 -42.834 41.5 -69.501s14.5 -55.334 14.5 -86.001c0 -23.333 -2.33301 -45.666 -7 -66.999l-33 -156
c-20.667 -98.667 -56.334 -171 -107.001 -217s-118.667 -69 -204 -69c-33.333 0 -63.166 5.66699 -89.499 17s-48.5 26.833 -66.5 46.5s-31.833 42.834 -41.5 69.501s-14.5 55.334 -14.5 86.001c0 23.333 2.33301 45.666 7 66.999zM257 106c44 0 78.5 14 103.5 42
s42.167 64 51.5 108l39 180c4 18 6 35 6 51c0 32.667 -8.33301 58.667 -25 78s-42 29 -76 29c-44 0 -78.5 -14 -103.5 -42s-42.167 -64 -51.5 -108l-39 -180c-4 -18 -6 -35 -6 -51c0 -32.667 8.33301 -58.667 25 -78s42 -29 76 -29z" />
    <glyph glyph-name="one" unicode="1" 
d="M212 126l108 508h-18l-117 -240h-132v12l155 294h258l-122 -574h173v-126h-503v126h198z" />
    <glyph glyph-name="two" unicode="2" 
d="M498 126l-0.000976562 -125.997h-506l29 138c8 39.333 20.167 72.5 36.5 99.5s36.333 49.333 60 67s51.167 31.667 82.5 42s66.333 18.833 105 25.5c20 3.33301 39.5 8.16602 58.5 14.499s36 14.5 51 24.5s27 22.667 36 38s13.5 33.666 13.5 54.999
c0 25.333 -8.33301 45.666 -25 60.999s-41 23 -73 23c-39.333 0 -72.166 -11.5 -98.499 -34.5s-43.833 -54.833 -52.5 -95.5l-9 -44h-132l12 56c16.667 77.333 50.167 137.333 100.5 180s116.166 64 197.499 64c33.333 0 63.333 -5.16699 90 -15.5s49.167 -24.333 67.5 -42
s32.5 -38.167 42.5 -61.5s15 -47.666 15 -72.999c0 -72.667 -22.5 -130.5 -67.5 -173.5s-108.167 -73.167 -189.5 -90.5c-36 -7.33301 -65.333 -15 -88 -23s-40.667 -16.667 -54 -26s-23.166 -19.833 -29.499 -31.5s-11.5 -24.834 -15.5 -39.501l-3 -12h346z" />
    <glyph glyph-name="three" unicode="3" 
d="M244 300l-0.000976562 208l209 48v18h-320v126h428v-220l-219 -54v-18h23c22 0 43.167 -3.66699 63.5 -11s38.5 -18.333 54.5 -33s28.833 -33 38.5 -55s14.5 -47.667 14.5 -77c0 -36.667 -6.66699 -70 -20 -100s-32.166 -55.833 -56.499 -77.5s-54 -38.5 -89 -50.5
s-73.833 -18 -116.5 -18c-34.667 0 -66.167 5 -94.5 15s-52.5 24 -72.5 42s-35.5 39.333 -46.5 64s-16.5 51.667 -16.5 81c0 17.333 2 35 6 53l5 25h132l-4 -21c-1.33301 -8 -2.33301 -14.5 -3 -19.5s-1 -10.167 -1 -15.5c0 -30 9.16699 -53.833 27.5 -71.5
s45.5 -26.5 81.5 -26.5c38 0 69.333 9.16699 94 27.5s37 44.5 37 78.5c0 25.333 -8.5 45.333 -25.5 60s-40.167 22 -69.5 22h-60z" />
    <glyph glyph-name="four" unicode="4" 
d="M314 700h254l-94 -442h88v-126h-115l-28 -132h-132l28 132h-304v186zM122 276v-18h220l80 376h-18z" />
    <glyph glyph-name="five" unicode="5" 
d="M49 312l82 388.002h448v-126h-342l-41 -190h18c14.667 29.333 35 52.666 61 69.999s60.667 26 104 26c26.667 0 51 -4.66699 73 -14s41 -22.5 57 -39.5s28.333 -37.833 37 -62.5s13 -52.334 13 -83.001c0 -40 -6.83301 -78 -20.5 -114s-33.5 -67.333 -59.5 -94
s-58.167 -47.834 -96.5 -63.501s-82.166 -23.5 -131.499 -23.5c-36 0 -68.667 4.66699 -98 14s-54.333 22.333 -75 39s-36.667 36.834 -48 60.501s-17 49.5 -17 77.5c0 13.333 1.66699 28.333 5 45l5 24h132l-3 -14c-1.33301 -6.66699 -2.33301 -11.834 -3 -15.501
s-1 -8.16699 -1 -13.5c0 -26.667 10 -48.5 30 -65.5s51 -25.5 93 -25.5c22 0 42.333 3.66699 61 11s34.667 17.5 48 30.5s23.666 28.167 30.999 45.5s11 36.333 11 57c0 35.333 -8 60.5 -24 75.5s-36 22.5 -60 22.5c-19.333 0 -34.833 -4.16699 -46.5 -12.5
s-20.5 -18.166 -26.5 -29.499h-216z" />
    <glyph glyph-name="six" unicode="6" 
d="M446 502c0.666992 3.33301 0.99707 5.83105 0.99707 7.49805v6.5c0 18.667 -6.83301 35.334 -20.5 50.001s-36.167 22 -67.5 22c-40 0 -71.667 -10.5 -95 -31.5s-38.666 -48.5 -45.999 -82.5l-19 -90h18c15.333 26 35.833 45.5 61.5 58.5s53.167 19.5 82.5 19.5
c24.667 0 47.834 -4.33301 69.501 -13s40.667 -21 57 -37s29.166 -35.833 38.499 -59.5s14 -50.5 14 -80.5c0 -39.333 -6.33301 -76.333 -19 -111s-31.167 -65 -55.5 -91s-54.666 -46.5 -90.999 -61.5s-78.166 -22.5 -125.499 -22.5c-32 0 -61.333 4.5 -88 13.5
s-49.667 21.833 -69 38.5s-34.333 37.167 -45 61.5s-16 51.833 -16 82.5c0 18 2 37.667 6 59l52 250c6.66699 33.333 18.167 63.666 34.5 90.999s36.5 50.833 60.5 70.5s51.333 34.834 82 45.501s64 16 100 16c35.333 0 66.333 -4.66699 93 -14s49 -22.166 67 -38.499
s31.667 -35.333 41 -57s14 -44.5 14 -68.5c0 -10.667 -1 -22 -3 -34h-132zM268.997 111.998c15.333 0 30.999 2.66699 46.999 8s30.333 13.333 43 24s23 24.167 31 40.5s12 35.5 12 57.5c0 26 -9 48.167 -27 66.5s-44 27.5 -78 27.5c-19.333 0 -37.166 -3 -53.499 -9
s-30.5 -14.5 -42.5 -25.5s-21.5 -24.667 -28.5 -41s-10.5 -34.833 -10.5 -55.5c0 -30 10 -53 30 -69s45.667 -24 77 -24z" />
    <glyph glyph-name="seven" unicode="7" 
d="M107 700l499 -0.000976562v-199l-340 -377c-18 -19.333 -32.167 -36.333 -42.5 -51s-17.5 -31 -21.5 -49l-5 -24h-158l6 30c2.66699 12 5.66699 23 9 33s8.33301 20.333 15 31s15 22.334 25 35.001s23 27.667 39 45l343 382v18h-369v126z" />
    <glyph glyph-name="eight" unicode="8" 
d="M242 -14c-38 0 -71.335 4.99805 -100.002 14.998s-52.667 23.333 -72 40s-34 36 -44 58s-15 45.333 -15 70c0 50 15.333 91 46 123s71.334 52.667 122.001 62v18c-8.66699 4.66699 -17.667 10.334 -27 17.001s-17.666 15 -24.999 25s-13.5 22 -18.5 36
s-7.5 30.667 -7.5 50c0 32.667 6.83301 62.167 20.5 88.5s32.5 48.833 56.5 67.5s52.333 33 85 43s68 15 106 15c27.333 0 54 -3.5 80 -10.5s49 -17.5 69 -31.5s36.167 -32 48.5 -54s18.5 -48 18.5 -78c0 -46 -14 -83.167 -42 -111.5s-63.333 -47.166 -106 -56.499v-18
c26.667 -10 49 -26.333 67 -49s27 -53.667 27 -93c0 -32 -6.16699 -61.833 -18.5 -89.5s-30.833 -51.5 -55.5 -71.5s-55 -35.833 -91 -47.5s-77.333 -17.5 -124 -17.5zM255.998 111.998c20 0 38.6689 2.16699 56.002 6.5s32.5 10.833 45.5 19.5s23.333 19.834 31 33.501
s11.5 29.5 11.5 47.5c0 22 -9.16699 41 -27.5 57s-46.5 24 -84.5 24c-18 0 -35.333 -2.33301 -52 -7s-31.334 -11.5 -44.001 -20.5s-22.834 -20.333 -30.501 -34s-11.5 -29.834 -11.5 -48.501c0 -22 9.16699 -40.5 27.5 -55.5s44.5 -22.5 78.5 -22.5zM354 587.998
c-16 0 -31.333 -1.83301 -46 -5.5s-27.667 -9.5 -39 -17.5s-20.333 -17.833 -27 -29.5s-10 -25.5 -10 -41.5c0 -19.333 8.16699 -35.5 24.5 -48.5s38.166 -19.5 65.499 -19.5c16 0 31.5 2 46.5 6s28.333 9.83301 40 17.5s20.834 17.167 27.501 28.5s10 24.333 10 39
c0 21.333 -8.33301 38.5 -25 51.5s-39 19.5 -67 19.5z" />
    <glyph glyph-name="nine" unicode="9" 
d="M166 198c-1.33301 -5.33301 -1.99707 -10.999 -1.99707 -16.999c0 -18.667 6.83301 -34.834 20.5 -48.501s36.5 -20.5 68.5 -20.5c40 0 71.667 10.5 95 31.5s38.666 48.5 45.999 82.5l19 90h-18c-24 -52 -71.333 -78 -142 -78c-22.667 0 -44.834 4.16699 -66.501 12.5
s-41 20.5 -58 36.5s-30.667 36.167 -41 60.5s-15.5 52.5 -15.5 84.5c0 40.667 6.5 78.167 19.5 112.5s31.833 64 56.5 89s55 44.667 91 59s76.667 21.5 122 21.5c31.333 0 60.5 -4.83301 87.5 -14.5s50.333 -23.334 70 -41.001s35 -39 46 -64s16.5 -52.5 16.5 -82.5
c0 -8.66699 -0.5 -17 -1.5 -25s-2.5 -17.333 -4.5 -28l-52 -250c-7.33301 -34 -18.833 -64.833 -34.5 -92.5s-35.334 -51.167 -59.001 -70.5s-51 -34.166 -82 -44.499s-64.833 -15.5 -101.5 -15.5c-35.333 0 -66.333 4.5 -93 13.5s-49 21.5 -67 37.5s-31.667 34.667 -41 56
s-14 44.333 -14 69c0 12 1 24 3 36h132zM345.003 588.001c-17.333 0 -33.999 -2.66797 -49.999 -8.00098s-30.333 -13.5 -43 -24.5s-22.834 -24.5 -30.501 -40.5s-11.5 -35 -11.5 -57c0 -26.667 8.83301 -49 26.5 -67s43.167 -27 76.5 -27
c18.667 0 36.334 3.16699 53.001 9.5s31.167 15.333 43.5 27s22.166 25.5 29.499 41.5s11 33.667 11 53c0 30.667 -10 53.834 -30 69.501s-45 23.5 -75 23.5z" />
    <glyph glyph-name="colon" unicode=":" 
d="M354 81c0 -13.333 -2.5 -25.833 -7.5 -37.5s-11.833 -21.667 -20.5 -30s-18.834 -15 -30.501 -20s-23.834 -7.5 -36.501 -7.5c-13.333 0 -25.666 2.5 -36.999 7.5s-21.333 11.667 -30 20s-15.5 18.333 -20.5 30s-7.5 24.167 -7.5 37.5s2.5 25.833 7.5 37.5
s11.833 21.667 20.5 30s18.667 15 30 20s23.666 7.5 36.999 7.5c12.667 0 24.834 -2.5 36.501 -7.5s21.834 -11.667 30.501 -20s15.5 -18.333 20.5 -30s7.5 -24.167 7.5 -37.5zM420 415c0 -13.333 -2.5 -25.833 -7.5 -37.5s-11.833 -21.667 -20.5 -30
s-18.834 -15 -30.501 -20s-23.834 -7.5 -36.501 -7.5c-13.333 0 -25.666 2.5 -36.999 7.5s-21.333 11.667 -30 20s-15.5 18.333 -20.5 30s-7.5 24.167 -7.5 37.5s2.5 25.833 7.5 37.5s11.833 21.667 20.5 30s18.667 15 30 20s23.666 7.5 36.999 7.5
c12.667 0 24.834 -2.5 36.501 -7.5s21.834 -11.667 30.501 -20s15.5 -18.333 20.5 -30s7.5 -24.167 7.5 -37.5z" />
    <glyph glyph-name="semicolon" unicode=";" 
d="M420 415c0 -13.333 -2.5 -25.833 -7.5 -37.5s-11.833 -21.667 -20.5 -30s-18.834 -15 -30.501 -20s-23.834 -7.5 -36.501 -7.5c-13.333 0 -25.666 2.5 -36.999 7.5s-21.333 11.667 -30 20s-15.5 18.333 -20.5 30s-7.5 24.167 -7.5 37.5s2.5 25.833 7.5 37.5
s11.833 21.667 20.5 30s18.667 15 30 20s23.666 7.5 36.999 7.5c12.667 0 24.834 -2.5 36.501 -7.5s21.834 -11.667 30.501 -20s15.5 -18.333 20.5 -30s7.5 -24.167 7.5 -37.5zM164 82c0 13.333 2.49902 25.8301 7.49902 37.4971s11.833 21.667 20.5 30
s18.667 14.833 30 19.5s23.666 7 36.999 7c12.667 0 24.834 -2.5 36.501 -7.5s21.834 -11.667 30.501 -20s15.5 -18.333 20.5 -30s7.5 -24.167 7.5 -37.5c0 -3.33301 -0.166992 -6.66602 -0.5 -9.99902s-0.833008 -6.66602 -1.5 -9.99902l-25 -119
c-5.33301 -25.333 -17.333 -43.833 -36 -55.5s-41.667 -17.5 -69 -17.5h-82v78h76c20.667 0 33 9.33301 37 28l3 17c-11.333 0 -22.5 1.83301 -33.5 5.5s-20.833 9.33398 -29.5 17.001s-15.667 17 -21 28s-8 24.167 -8 39.5z" />
    <glyph glyph-name="less" unicode="&#x3c;" 
d="M95 240v208l466 122v-121l-388 -98v-17l295 -84v-120z" />
    <glyph glyph-name="equal" unicode="=" 
d="M121 494h418v-114h-418v114zM73 320h418v-114h-418v114z" />
    <glyph glyph-name="greater" unicode="&#x3e;" 
d="M517 460v-208l-466 -122v121l388 98v17l-295 84v120z" />
    <glyph glyph-name="question" unicode="?" 
d="M334 390c35.333 0 63.0059 11.335 83.0059 34.002s30 50.667 30 84c0 22 -8 40.833 -24 56.5s-39 23.5 -69 23.5c-18.667 0 -35.667 -3.16699 -51 -9.5s-28.666 -14.833 -39.999 -25.5s-20.833 -23.167 -28.5 -37.5s-12.834 -29.5 -15.501 -45.5l-7 -36h-132l10 48
c7.33301 34.667 18.666 66.167 33.999 94.5s34.666 52.666 57.999 72.999s50.666 36.166 81.999 47.499s66.666 17 105.999 17c32 0 61 -5.16699 87 -15.5s48.333 -24.333 67 -42s33 -38.167 43 -61.5s15 -48.333 15 -75c0 -30 -5.33301 -59.667 -16 -89
s-25.834 -55.5 -45.501 -78.5s-43.667 -41.667 -72 -56s-59.833 -21.5 -94.5 -21.5c-21.333 0 -34 -10.333 -38 -31l-6 -26h-126l17 80c6 28 18.667 50.333 38 67s43.666 25 72.999 25h22zM324.006 81.002c0 -13.333 -2.5 -25.833 -7.5 -37.5s-11.833 -21.667 -20.5 -30
s-18.834 -15 -30.501 -20s-23.834 -7.5 -36.501 -7.5c-13.333 0 -25.666 2.5 -36.999 7.5s-21.333 11.667 -30 20s-15.5 18.333 -20.5 30s-7.5 24.167 -7.5 37.5s2.5 25.833 7.5 37.5s11.833 21.667 20.5 30s18.667 15 30 20s23.666 7.5 36.999 7.5
c12.667 0 24.834 -2.5 36.501 -7.5s21.834 -11.667 30.501 -20s15.5 -18.333 20.5 -30s7.5 -24.167 7.5 -37.5z" />
    <glyph glyph-name="at" unicode="@" 
d="M112 510l-0.000976562 119.998h286c28.667 0 55.167 -3.83301 79.5 -11.5s45.333 -19 63 -34s31.334 -33.333 41.001 -55s14.5 -46.834 14.5 -75.501c0 -18 -2 -37.333 -6 -58l-67 -314c-6.66699 -31.333 -20.167 -55.166 -40.5 -71.499s-45.166 -24.5 -74.499 -24.5
h-110c-22 0 -38.167 6 -48.5 18s-15.5 26.667 -15.5 44h-18c-7.33301 -17.333 -18.5 -32 -33.5 -44s-36.5 -18 -64.5 -18c-34 0 -62.5 13.5 -85.5 40.5s-34.5 67.5 -34.5 121.5c0 32.667 3.66699 66.167 11 100.5s19 65.5 35 93.5s36.667 51 62 69s56 27 92 27
c27.333 0 46.666 -5.33301 57.999 -16s18.333 -22 21 -34h18l7 36h120l-62 -292c-0.666992 -3.33301 -1 -6 -1 -8c0 -7.33301 2.16699 -13.166 6.5 -17.499s10.5 -6.5 18.5 -6.5c15.333 0 25 9.33301 29 28l55 258c3.33301 16.667 5 30.334 5 41.001c0 27.333 -8 48 -24 62
s-41 21 -75 21h-262zM173.999 99.998c16.667 0 30.667 4.83203 42 14.499s20.5 22 27.5 37s12 31.5 15 49.5s4.5 35.667 4.5 53c0 19.333 -3.83301 35.833 -11.5 49.5s-20.167 20.5 -37.5 20.5c-16.667 0 -30.834 -4.5 -42.501 -13.5s-21.167 -20.667 -28.5 -35
s-12.666 -30.5 -15.999 -48.5s-5 -36.333 -5 -55c0 -23.333 4.33301 -41.166 13 -53.499s21.667 -18.5 39 -18.5z" />
    <glyph glyph-name="A" unicode="A" 
d="M388 150h-231l-64 -150h-141l308 700h244l17 -700h-131zM210 276h176l-5 358h-18z" />
    <glyph glyph-name="B" unicode="B" 
d="M2 126h65.999l95 448h-66v126h299c33.333 0 62.333 -4.16699 87 -12.5s45 -19.833 61 -34.5s27.833 -32 35.5 -52s11.5 -41.333 11.5 -64c0 -25.333 -4.16699 -47.833 -12.5 -67.5s-19.833 -36.834 -34.5 -51.501s-31.5 -27 -50.5 -37s-39.5 -17.667 -61.5 -23v-18
c26.667 -8 48.334 -22.333 65.001 -43s25 -49.667 25 -87c0 -29.333 -6.16699 -56.666 -18.5 -81.999s-29.5 -47.5 -51.5 -66.5s-48.167 -34 -78.5 -45s-63.5 -16.5 -99.5 -16.5h-272v126zM197.999 126l85.999 -0.000976562c32.667 0 59.834 8 81.501 24s32.5 39 32.5 69
c0 24.667 -7.16699 42.334 -21.5 53.001s-33.833 16 -58.5 16h-86zM258.998 413.999l86 -0.000976562c34.667 0 62.167 7.83301 82.5 23.5s30.5 38.834 30.5 69.501c0 22 -7 38.667 -21 50s-33.333 17 -58 17h-86z" />
    <glyph glyph-name="C" unicode="C" 
d="M255 106c24.667 0 45.833 3.99805 63.5 11.998s32.5 18.5 44.5 31.5s21.5 28 28.5 45s12.5 34.167 16.5 51.5l4 18h132l-4 -18c-9.33301 -43.333 -22 -81.166 -38 -113.499s-36.333 -59.333 -61 -81s-54 -38 -88 -49s-74 -16.5 -120 -16.5c-31.333 0 -60 4.66699 -86 14
s-48.333 23 -67 41s-33.167 39.833 -43.5 65.5s-15.5 55.167 -15.5 88.5c0 12 0.666992 24 2 36s3.66602 25.667 6.99902 41l33 156c20.667 96.667 57.334 168.5 110.001 215.5s121.334 70.5 206.001 70.5c33.333 0 63.166 -5.33301 89.499 -16s48.666 -25.167 66.999 -43.5
s32.333 -39.833 42 -64.5s14.5 -51 14.5 -79c0 -9.33301 -0.666992 -18.666 -2 -27.999s-3 -19 -5 -29l-4 -18h-132l4 18c4 16 6 31.333 6 46c0 26 -7.5 48.167 -22.5 66.5s-41.167 27.5 -78.5 27.5c-22 0 -42 -4.16699 -60 -12.5s-33.667 -19.666 -47 -33.999
s-24.5 -31 -33.5 -50s-15.833 -38.833 -20.5 -59.5l-37 -176c-2 -10 -3.66699 -19.833 -5 -29.5s-2 -18.834 -2 -27.501c0 -30 7.83301 -54 23.5 -72s41.834 -27 78.501 -27z" />
    <glyph glyph-name="D" unicode="D" 
d="M103 700h264.999c68 0 120.667 -17.167 158 -51.5s56 -79.833 56 -136.5c0 -9.33301 -0.666992 -19 -2 -29s-3 -20.333 -5 -31l-44 -210c-9.33301 -42.667 -22 -79.167 -38 -109.5s-36.5 -55.333 -61.5 -75s-54.667 -34.167 -89 -43.5s-74.166 -14 -119.499 -14h-221v126
h72l95 448h-66v126zM249.999 126c46 0 80.5 10.834 103.5 32.501s39.167 55.5 48.5 101.5l41 192c1.33301 5.33301 2.5 11.5 3.5 18.5s1.5 13.5 1.5 19.5c0 27.333 -8.33301 48.166 -25 62.499s-42.667 21.5 -78 21.5h-44l-95 -448h44z" />
    <glyph glyph-name="E" unicode="E" 
d="M18 12l146 688h415v-126h-310l-34 -160h271v-126h-298l-34 -162h295v-126h-451v12z" />
    <glyph glyph-name="F" unicode="F" 
d="M165 700h421v-126h-316l-34 -160h283v-126h-310l-61 -288h-132z" />
    <glyph glyph-name="G" unicode="G" 
d="M252 354l309.003 -0.000976562v-12l-72 -342h-120l17 78h-18c-13.333 -26 -33.333 -47.833 -60 -65.5s-62.667 -26.5 -108 -26.5c-26 0 -50 4.16699 -72 12.5s-41 20.833 -57 37.5s-28.5 37.167 -37.5 61.5s-13.5 52.5 -13.5 84.5c0 26 3.33301 54.667 10 86l35 164
c20.667 96.667 57.5 167.834 110.5 213.501s121.833 68.5 206.5 68.5c33.333 0 63.166 -5.16699 89.499 -15.5s48.5 -24.5 66.5 -42.5s31.833 -38.833 41.5 -62.5s14.5 -48.834 14.5 -75.501c0 -9.33301 -0.666992 -19.166 -2 -29.499s-3 -19.833 -5 -28.5l-3 -12h-132l3 12
c2 8 3.33301 15 4 21s1 12 1 18c0 28 -8.66699 49.833 -26 65.5s-42.666 23.5 -75.999 23.5c-18.667 0 -36.334 -3 -53.001 -9s-32.167 -15.5 -46.5 -28.5s-26.833 -30 -37.5 -51s-19.334 -46.833 -26.001 -77.5l-32 -148c-2.66699 -12 -4.33398 -22 -5.00098 -30
s-1 -16 -1 -24c0 -36 9.33301 -63 28 -81s44 -27 76 -27c39.333 0 71.5 10.5 96.5 31.5s41.167 49.167 48.5 84.5h-154v126z" />
    <glyph glyph-name="H" unicode="H" 
d="M148 700h132l-61 -286h200l61 286h132l-149 -700h-132l61 288h-200l-61 -288h-131z" />
    <glyph glyph-name="I" unicode="I" 
d="M125 700h456v-126h-162l-95 -448h162v-126h-456v126h162l95 448h-162v126z" />
    <glyph glyph-name="J" unicode="J" 
d="M476 210c-8.66699 -39.333 -20.166 -73.166 -34.499 -101.499s-32.166 -51.5 -53.499 -69.5s-46.333 -31.333 -75 -40s-61.334 -13 -98.001 -13c-28 0 -53.667 4 -77 12s-43.5 19.667 -60.5 35s-30.333 34.166 -40 56.499s-14.5 48.166 -14.5 77.499
c0 20.667 2.33301 41.334 7 62.001l10 47h132l-14 -66c-2 -9.33301 -3 -19 -3 -29c0 -22.667 6.66699 -40.167 20 -52.5s32.666 -18.5 57.999 -18.5c28.667 0 52.667 8.66699 72 26s32.333 42 39 74l78 366h-75v124h274v-124h-67z" />
    <glyph glyph-name="K" unicode="K" 
d="M128 0h-132l149 700h132l-61 -287h24l226 287h154v-12l-266 -332v-18l168 -332v-6h-146l-146 287h-42z" />
    <glyph glyph-name="L" unicode="L" 
d="M15 12l146 688h132l-122 -574h304v-126h-460v12z" />
    <glyph glyph-name="M" unicode="M" 
d="M114 700h214l-68 -502l-24 -114h24l26 120l140 496h220l-149 -700h-114l98 460l45 156h-24l-179 -616h-179l79 616h-24l-20 -150l-100 -466h-113z" />
    <glyph glyph-name="N" unicode="N" 
d="M340 66h18l135 634h126l-149 -700h-246l47 634h-18l-135 -634h-125l148 700h246z" />
    <glyph glyph-name="O" unicode="O" 
d="M65 428c20.667 98.667 55.167 171.003 103.5 217.003s114.833 69 199.5 69c35.333 0 66.666 -5.5 93.999 -16.5s50.333 -26.333 69 -46s32.834 -42.834 42.501 -69.501s14.5 -55.334 14.5 -86.001c0 -11.333 -0.5 -22.666 -1.5 -33.999s-2.83301 -22.666 -5.5 -33.999
l-33 -156c-20.667 -98.667 -55.167 -171 -103.5 -217s-114.833 -69 -199.5 -69c-35.333 0 -66.666 5.5 -93.999 16.5s-50.333 26.333 -69 46s-32.834 42.667 -42.501 69s-14.5 55.166 -14.5 86.499c0 11.333 0.5 22.666 1.5 33.999s2.83301 22.666 5.5 33.999zM257 106.003
c22.667 0 42.667 4.16602 60 12.499s32.5 19.5 45.5 33.5s23.667 30.667 32 50s14.833 40 19.5 62l37 172c2 10.667 3.5 19.834 4.5 27.501s1.5 15.167 1.5 22.5c0 34 -8.83301 60.5 -26.5 79.5s-42.5 28.5 -74.5 28.5c-22.667 0 -42.667 -4.16699 -60 -12.5
s-32.5 -19.5 -45.5 -33.5s-23.667 -30.667 -32 -50s-14.833 -40 -19.5 -62l-37 -172c-4 -18 -6 -34.667 -6 -50c0 -34 8.83301 -60.5 26.5 -79.5s42.5 -28.5 74.5 -28.5z" />
    <glyph glyph-name="P" unicode="P" 
d="M187 264l-56.001 -263.998h-131l148 700h250c29.333 0 55.833 -4.66699 79.5 -14s43.834 -22.333 60.501 -39s29.5 -36.334 38.5 -59.001s13.5 -47.334 13.5 -74.001c0 -37.333 -6.33301 -71.333 -19 -102s-30.667 -57 -54 -79s-51.333 -39 -84 -51s-69 -18 -109 -18
h-137zM213.999 390.002h122c34 0 62.333 10 85 30s34 46 34 78c0 24.667 -7.83301 43.5 -23.5 56.5s-36.167 19.5 -61.5 19.5h-117z" />
    <glyph glyph-name="Q" unicode="Q" 
d="M65 428c20.667 98.667 55.167 171.001 103.5 217.001s114.833 69 199.5 69c35.333 0 66.666 -5.5 93.999 -16.5s50.333 -26.333 69 -46s32.834 -42.834 42.501 -69.501s14.5 -55.334 14.5 -86.001c0 -11.333 -0.5 -22.666 -1.5 -33.999s-2.83301 -22.666 -5.5 -33.999
l-33 -156c-19.333 -92.667 -51 -162 -95 -208s-103.333 -71.667 -178 -77l-3 -13c-0.666992 -3.33301 -1 -6.33301 -1 -9c0 -12.667 7.33301 -19 22 -19h56v-120h-119c-28 0 -50.667 7.83301 -68 23.5s-26 35.834 -26 60.501c0 5.33301 0.333008 10.333 1 15
s1.66699 9.66699 3 15l14 61c-42 15.333 -74 41 -96 77s-33 78 -33 126c0 11.333 0.5 22.666 1.5 33.999s2.83301 22.666 5.5 33.999zM257 106.001c22.667 0 42.667 4.16602 60 12.499s32.5 19.5 45.5 33.5s23.667 30.667 32 50s14.833 40 19.5 62l37 172
c2 10.667 3.5 19.834 4.5 27.501s1.5 15.167 1.5 22.5c0 34 -8.83301 60.5 -26.5 79.5s-42.5 28.5 -74.5 28.5c-22.667 0 -42.667 -4.16699 -60 -12.5s-32.5 -19.5 -45.5 -33.5s-23.667 -30.667 -32 -50s-14.833 -40 -19.5 -62l-37 -172c-4 -18 -6 -34.667 -6 -50
c0 -34 8.83301 -60.5 26.5 -79.5s42.5 -28.5 74.5 -28.5z" />
    <glyph glyph-name="R" unicode="R" 
d="M464 0l-134 0.000976562l45 210c1.33301 6.66699 2 12 2 16c0 11.333 -3.66699 20.5 -11 27.5s-18.666 10.5 -33.999 10.5h-145l-56 -264h-131l148 700h246c32.667 0 61.5 -4.5 86.5 -13.5s46 -21 63 -36s29.667 -32.833 38 -53.5s12.5 -42.334 12.5 -65.001
c0 -48.667 -11.167 -88.167 -33.5 -118.5s-56.5 -53.166 -102.5 -68.499v-18c19.333 -2 34.166 -8.83301 44.499 -20.5s15.5 -26.5 15.5 -44.5c0 -6.66699 -0.666992 -13.334 -2 -20.001zM214 390.001h120c35.333 0 64.333 9.33301 87 28s34 44 34 76
c0 25.333 -6.83301 45 -20.5 59s-34.5 21 -62.5 21h-119z" />
    <glyph glyph-name="S" unicode="S" 
d="M457 475c2 10 3 18.9971 3 26.9971c0 26 -9.33301 47.167 -28 63.5s-47.334 24.5 -86.001 24.5c-15.333 0 -30.333 -1.66699 -45 -5s-27.667 -8.5 -39 -15.5s-20.333 -15.833 -27 -26.5s-10 -23 -10 -37c0 -23.333 9.83301 -41.666 29.5 -54.999
s51.5 -23.666 95.5 -30.999c62 -10 110.833 -29.833 146.5 -59.5s53.5 -72.834 53.5 -129.501c0 -38 -6.83301 -72 -20.5 -102s-33 -55.667 -58 -77s-55.167 -37.666 -90.5 -48.999s-75 -17 -119 -17c-42 0 -78.667 5.5 -110 16.5s-57.166 26 -77.499 45
s-35.5 41.167 -45.5 66.5s-15 52.666 -15 81.999c0 8.66699 0.333008 17.334 1 26.001s2 17.667 4 27l5 23h132l-4 -17c-2.66699 -12.667 -4 -27 -4 -43c0 -32 10.167 -57 30.5 -75s50.833 -27 91.5 -27c44 0 78.333 9.16699 103 27.5s37 43.5 37 75.5
c0 25.333 -10.5 45 -31.5 59s-56.167 24.667 -105.5 32c-23.333 3.33301 -46.166 9.33301 -68.499 18s-42.166 20.667 -59.499 36s-31.333 34.166 -42 56.499s-16 48.833 -16 79.5c0 31.333 5.83301 60.5 17.5 87.5s29 50.333 52 70s51.333 35 85 46s72.5 16.5 116.5 16.5
c37.333 0 70.666 -4.66699 99.999 -14s54.166 -22.333 74.499 -39s35.833 -36.5 46.5 -59.5s16 -47.833 16 -74.5c0 -7.33301 -0.333008 -14.666 -1 -21.999s-2 -15.666 -4 -24.999l-4 -18h-132z" />
    <glyph glyph-name="T" unicode="T" 
d="M100 700h504v-126h-186l-122 -574h-132l122 574h-186v126z" />
    <glyph glyph-name="U" unicode="U" 
d="M626 700l-96.999 -457.997c-9.33301 -45.333 -21.833 -84 -37.5 -116s-35.167 -58.5 -58.5 -79.5s-50.5 -36.333 -81.5 -46s-66.833 -14.5 -107.5 -14.5c-30 0 -58 4.5 -84 13.5s-48.333 22 -67 39s-33.334 38 -44.001 63s-16 53.5 -16 85.5
c0 10.667 0.333008 21.167 1 31.5s2.66699 22.166 6 35.499l94 446h132l-97 -458c-1.33301 -7.33301 -2.5 -14.333 -3.5 -21s-1.5 -13.334 -1.5 -20.001c0 -28.667 7.83301 -51 23.5 -67s39.167 -24 70.5 -24c40 0 70.833 10.667 92.5 32s37.167 54.666 46.5 99.999l97 458
h132z" />
    <glyph glyph-name="V" unicode="V" 
d="M60 700h134l23 -634h18l269 634h138v-12l-302 -688h-246z" />
    <glyph glyph-name="W" unicode="W" 
d="M505 0h-219l67 508l22 120h-24l-20 -108l-135 -520h-216l95 700h120l-81 -508l-23 -114h24l21 102l136 520h210l-68 -520l-21 -102h24l23 114l118 508h120z" />
    <glyph glyph-name="X" unicode="X" 
d="M652 687l-216 -333v-18l90 -336h-140l-72 288h-18l-174 -288h-147v12l215 336v18l-92 334h138l76 -286h18l174 286h148v-13z" />
    <glyph glyph-name="Y" unicode="Y" 
d="M664 688l-290 -442h-30l-52 -246h-132l52 246h-30l-110 454h140l76 -334h18l214 334h144v-12z" />
    <glyph glyph-name="Z" unicode="Z" 
d="M126 700h474v-216l-479 -340v-18h384v-126h-493v216l480 340v18h-366v126z" />
    <glyph glyph-name="bracketleft" unicode="[" 
d="M326 754c6.66699 30 21.5 54.501 44.5 73.501s49.5 28.5 79.5 28.5h119v-120h-93c-18.667 0 -30 -10 -34 -30l-151 -712c-0.666992 -2 -1 -4.33301 -1 -7v-3c0 -13.333 7.66699 -20 23 -20h72v-120h-133c-30 0 -53.833 7.33301 -71.5 22s-26.5 36 -26.5 64
c0 5.33301 0.333008 10.666 1 15.999s1.66699 10.333 3 15z" />
    <glyph glyph-name="backslash" unicode="\" 
d="M416 -113l-120 -12l-100 938l119 12z" />
    <glyph glyph-name="bracketright" unicode="]" 
d="M293 -54c-6.66699 -30 -21.5 -54.501 -44.5 -73.501s-49.5 -28.5 -79.5 -28.5h-119v120h93c18.667 0 30 10 34 30l151 712c0 1.33301 0.166992 2.5 0.5 3.5s0.5 2.16699 0.5 3.5v3c0 13.333 -7.66699 20 -23 20h-72v120h133c30 0 53.833 -7.33301 71.5 -22
s26.5 -36 26.5 -64c0 -5.33301 -0.333008 -10.666 -1 -15.999s-1.66699 -10.333 -3 -15z" />
    <glyph glyph-name="asciicircum" unicode="^" 
d="M77 436l191 264h202l90 -276h-126l-64 210h-18l-136 -210h-139v12z" />
    <glyph glyph-name="underscore" unicode="_" 
d="M0 -48h490v-114h-490v114z" />
    <glyph glyph-name="grave" unicode="`" 
d="M435 570h-102l-84 136h134z" />
    <glyph glyph-name="a" unicode="a" 
d="M479 119l10.001 -7l48 34l63 -94l-59 -40c-26 -17.333 -53.333 -26 -82 -26c-25.333 0 -48 7 -68 21s-32.667 33.667 -38 59h-18c-6 -11.333 -13 -21.833 -21 -31.5s-17.833 -18 -29.5 -25s-25.334 -12.667 -41.001 -17s-34.167 -6.5 -55.5 -6.5
c-26 0 -50 5.16699 -72 15.5s-41.167 24.666 -57.5 42.999s-29.166 39.833 -38.499 64.5s-14 51.667 -14 81c0 44.667 6 86.334 18 125.001s29.333 72.5 52 101.5s50.5 51.833 83.5 68.5s70.167 25 111.5 25c36.667 0 65.667 -7.33301 87 -22s35.666 -34 42.999 -58h18
l14 66h126zM237.001 106c24 0 45.335 4.83301 64.002 14.5s34.167 22.5 46.5 38.5s21.833 34.833 28.5 56.5s10 44.5 10 68.5c0 31.333 -9 56.833 -27 76.5s-42 29.5 -72 29.5c-24 0 -45.333 -4.83301 -64 -14.5s-34.334 -22.5 -47.001 -38.5s-22.334 -34.833 -29.001 -56.5
s-10 -44.5 -10 -68.5c0 -28 8.16699 -52.667 24.5 -74s41.5 -32 75.5 -32z" />
    <glyph glyph-name="b" unicode="b" 
d="M297 714l-62.001 -290h18c34.667 57.333 87 86 157 86c51.333 0 92 -17.333 122 -52s45 -80.667 45 -138c0 -51.333 -7.16699 -97.666 -21.5 -138.999s-33.833 -76.5 -58.5 -105.5s-53.667 -51.167 -87 -66.5s-68.666 -23 -105.999 -23c-22 0 -40.5 2.33301 -55.5 7
s-27.333 11 -37 19s-17.167 17.167 -22.5 27.5s-9 21.166 -11 32.499h-18l-15 -72h-125l150 714h127zM287.999 106c24 0.666992 45.6641 5.82812 64.9971 15.4951s36 22.834 50 39.501s24.667 35.834 32 57.501s11 44.834 11 69.501c0 31.333 -9.16699 56.166 -27.5 74.499
s-43.166 27.5 -74.499 27.5c-23.333 0 -44.166 -4.66699 -62.499 -14s-34.166 -22.166 -47.499 -38.499s-23.5 -35.666 -30.5 -57.999s-10.5 -46.166 -10.5 -71.499c0 -32 8.33301 -57 25 -75s40 -27 70 -27z" />
    <glyph glyph-name="c" unicode="c" 
d="M534 182c-18.667 -59.333 -51.832 -106.835 -99.499 -142.502s-111.5 -53.5 -191.5 -53.5c-29.333 0 -57 4.66699 -83 14s-48.667 23.333 -68 42s-34.5 41.834 -45.5 69.501s-16.5 59.834 -16.5 96.501c0 41.333 7.16699 80.333 21.5 117s35.166 68.667 62.499 96
s60.333 49 99 65s82.667 24 132 24c36 0 67.667 -5.33301 95 -16s50 -25.167 68 -43.5s31.667 -39.833 41 -64.5s14 -50.667 14 -78l-128 -25c0 34 -8.5 60.333 -25.5 79s-44.5 28 -82.5 28c-24 0 -46.167 -4.5 -66.5 -13.5s-38 -21.333 -53 -37s-26.667 -34 -35 -55
s-12.5 -43.5 -12.5 -67.5c0 -38 10 -66 30 -84s45.333 -27 76 -27c42 0 74.667 9.33301 98 28s41 45 53 79z" />
    <glyph glyph-name="d" unicode="d" 
d="M479 119l10 -7l54 38l63 -94l-65 -44c-14 -9.33301 -27.833 -16 -41.5 -20s-27.167 -6 -40.5 -6c-25.333 0 -48 7 -68 21s-32.667 33.667 -38 59h-18c-6 -11.333 -13 -21.833 -21 -31.5s-17.833 -18 -29.5 -25s-25.334 -12.667 -41.001 -17s-34.167 -6.5 -55.5 -6.5
c-26 0 -50 5.16699 -72 15.5s-41.167 24.666 -57.5 42.999s-29.166 39.833 -38.499 64.5s-14 51.667 -14 81c0 44.667 6 86.334 18 125.001s29.333 72.5 52 101.5s50.5 51.833 83.5 68.5s70.167 25 111.5 25c35.333 0 64 -8 86 -24s36.333 -36.667 43 -62h18l61 290h127
l-62 -290zM237 106c24 0 45.335 4.83301 64.002 14.5s34.167 22.5 46.5 38.5s21.833 34.833 28.5 56.5s10 44.5 10 68.5c0 31.333 -9 56.833 -27 76.5s-42 29.5 -72 29.5c-24 0 -45.333 -4.83301 -64 -14.5s-34.334 -22.5 -47.001 -38.5s-22.334 -34.833 -29.001 -56.5
s-10 -44.5 -10 -68.5c0 -28 8.16699 -52.667 24.5 -74s41.5 -32 75.5 -32z" />
    <glyph glyph-name="e" unicode="e" 
d="M165 207c-1.33301 -5.33301 -2.00195 -11.0029 -2.00195 -17.0029c0 -24 9.16699 -44 27.5 -60s42.5 -24 72.5 -24c31.333 0 56.333 5.66699 75 17s33 24.666 43 39.999l100 -63c-8 -13.333 -18.5 -26.666 -31.5 -39.999s-29 -25.5 -48 -36.5s-41.333 -20 -67 -27
s-55.5 -10.5 -89.5 -10.5c-30.667 0 -58.834 4.83301 -84.501 14.5s-47.667 23 -66 40s-32.666 37.333 -42.999 61s-15.5 49.834 -15.5 78.501c0 45.333 6.83301 88 20.5 128s33.5 75 59.5 105s58 53.667 96 71s81.667 26 131 26c34.667 0 64.834 -5.5 90.501 -16.5
s46.834 -25.667 63.501 -44s29.167 -39.166 37.5 -62.499s12.5 -47.333 12.5 -72c0 -8 -0.5 -16.167 -1.5 -24.5s-2.83301 -19.166 -5.5 -32.499l-11 -51h-364zM322.998 395.997c-31.333 0 -58.5 -7.83105 -81.5 -23.498s-40.167 -34.834 -51.5 -57.501h234
c0 25.333 -7.83301 45.166 -23.5 59.499s-41.5 21.5 -77.5 21.5z" />
    <glyph glyph-name="f" unicode="f" 
d="M239 376h-141.001v120h167l22 102c2.66699 14 8 27.333 16 40s17.5 23.5 28.5 32.5s23.333 16.167 37 21.5s27.5 8 41.5 8h176v-120h-150c-18 0 -29 -10 -33 -30l-12 -54h169v-120h-195l-111 -496c-7.33301 -32.667 -21 -56.167 -41 -70.5s-41.667 -21.5 -65 -21.5
c-19.333 0 -38.166 4.5 -56.499 13.5s-32.5 21.833 -42.5 38.5l-63 101l97 59l44 -76l12 2z" />
    <glyph glyph-name="g" unicode="g" 
d="M384 72h-18.002c-7.33301 -11.333 -15.666 -22.166 -24.999 -32.499s-20.666 -19.5 -33.999 -27.5s-29.333 -14.333 -48 -19s-40.334 -7 -65.001 -7c-24 0 -46.5 4 -67.5 12s-39.167 20 -54.5 36s-27.5 36.167 -36.5 60.5s-13.5 52.833 -13.5 85.5
c0 41.333 6.16699 81.833 18.5 121.5s30.5 75 54.5 106s53.833 55.833 89.5 74.5s77.167 28 124.5 28c40.667 0 71.5 -7.83301 92.5 -23.5s34.167 -36.5 39.5 -62.5h18l15 72h126l-131 -618c-5.33301 -22.667 -16.666 -41.334 -33.999 -56.001s-37.333 -22 -60 -22h-308v120
h258c18 0 29 10 33 30zM258.998 106c24 0 46.167 5.00098 66.5 15.001s38 23.333 53 40s26.667 36 35 58s12.5 45 12.5 69c0 32 -9.33301 57 -28 75s-45 27 -79 27c-25.333 0 -48.333 -5 -69 -15s-38.167 -23.167 -52.5 -39.5s-25.5 -35.333 -33.5 -57
s-12 -43.834 -12 -66.501c0 -35.333 9.83301 -61.833 29.5 -79.5s45.5 -26.5 77.5 -26.5z" />
    <glyph glyph-name="h" unicode="h" 
d="M385 288c1.33301 7.33301 2.33496 13.1689 3.00195 17.502s1 9.16602 1 14.499c0 24 -7 42.667 -21 56s-33 20 -57 20c-34 0 -61.833 -12 -83.5 -36s-36.834 -56 -45.501 -96l-56 -264h-126l152 714h126l-61 -286h18c34 54.667 82.667 82 146 82
c41.333 0 75.166 -12.333 101.499 -37s39.5 -60.667 39.5 -108c0 -9.33301 -0.666992 -18.833 -2 -28.5s-3 -19.834 -5 -30.501l-40 -187l10 -7l64 44l63 -94l-75 -50c-25.333 -17.333 -52.333 -26 -81 -26c-14.667 0 -28.667 2.5 -42 7.5s-25 12.167 -35 21.5
s-18 20.666 -24 33.999s-9 28.333 -9 45c0 8.66699 1.33301 19.334 4 32.001z" />
    <glyph glyph-name="i" unicode="i" 
d="M380 12c-13.333 -9.33301 -27 -16 -41 -20s-27.667 -6 -41 -6c-14.667 0 -28.667 2.5 -42 7.5s-25 12 -35 21s-17.833 20 -23.5 33s-8.5 27.5 -8.5 43.5c0 12.667 1.33301 24.334 4 35.001l60 251l-10 7l-134 -92l-63 94l145 98c13.333 9.33301 27 16 41 20
s27.667 6 41 6c14.667 0 28.667 -2.5 42 -7.5s25 -12 35 -21s17.833 -20 23.5 -33s8.5 -27.5 8.5 -43.5c0 -12.667 -1.33301 -24.334 -4 -35.001l-60 -251l10 -7l134 92l63 -94zM467 643c0 -13.333 -2.5 -25.833 -7.5 -37.5s-11.833 -21.667 -20.5 -30
s-18.834 -15 -30.501 -20s-23.834 -7.5 -36.501 -7.5c-13.333 0 -25.666 2.5 -36.999 7.5s-21.333 11.667 -30 20s-15.5 18.333 -20.5 30s-7.5 24.167 -7.5 37.5s2.5 25.833 7.5 37.5s11.833 21.667 20.5 30s18.667 15 30 20s23.666 7.5 36.999 7.5
c12.667 0 24.834 -2.5 36.501 -7.5s21.834 -11.667 30.501 -20s15.5 -18.333 20.5 -30s7.5 -24.167 7.5 -37.5z" />
    <glyph glyph-name="j" unicode="j" 
d="M549 643c0 -13.333 -2.5 -25.833 -7.5 -37.5s-11.833 -21.667 -20.5 -30s-18.834 -15 -30.501 -20s-23.834 -7.5 -36.501 -7.5c-13.333 0 -25.666 2.5 -36.999 7.5s-21.333 11.667 -30 20s-15.5 18.333 -20.5 30s-7.5 24.167 -7.5 37.5s2.5 25.833 7.5 37.5
s11.833 21.667 20.5 30s18.667 15 30 20s23.666 7.5 36.999 7.5c12.667 0 24.834 -2.5 36.501 -7.5s21.834 -11.667 30.501 -20s15.5 -18.333 20.5 -30s7.5 -24.167 7.5 -37.5zM357 -98c-7.33301 -34.667 -21.999 -60.332 -43.999 -76.999s-48 -25 -78 -25h-235v120h205
c19.333 0 31.666 11 36.999 33l94 424l-10 7l-134 -92l-63 94l145 98c26 17.333 53.333 26 82 26c14.667 0 28.5 -2.5 41.5 -7.5s24.5 -12 34.5 -21s17.833 -20.333 23.5 -34s8.5 -28.834 8.5 -45.501c0 -11.333 -1 -22 -3 -32z" />
    <glyph glyph-name="k" unicode="k" 
d="M24 0l152 714.001h126l-85 -400h24l201 196l78 -84l-184 -172v-18l80 -132h12l55 38l61 -88l-45 -34c-16.667 -12.667 -32.834 -21.5 -48.501 -26.5s-30.834 -7.5 -45.501 -7.5c-21.333 0 -40.666 5.16699 -57.999 15.5s-31.666 25.166 -42.999 44.499l-90 148h-23
l-41 -194h-126z" />
    <glyph glyph-name="l" unicode="l" 
d="M373 12c-13.333 -9.33301 -27 -15.999 -41 -19.999s-27.667 -6 -41 -6c-14.667 0 -28.667 2.5 -42 7.5s-25 12 -35 21s-17.833 20 -23.5 33s-8.5 27.5 -8.5 43.5c0 12 1.33301 23.667 4 35l109 455l-10 7l-134 -92l-63 94l145 98c13.333 9.33301 27 16 41 20
s27.667 6 41 6c14.667 0 28.667 -2.5 42 -7.5s25 -12 35 -21s17.833 -20 23.5 -33s8.5 -27.5 8.5 -43.5c0 -10.667 -1.33301 -22.334 -4 -35.001l-109 -455l10 -7l134 92l63 -94l-145 -98v0z" />
    <glyph glyph-name="m" unicode="m" 
d="M431 348c1.33301 5.33301 1.99902 10.001 1.99902 14.001c0 18.667 -9 28 -27 28c-10.667 0 -18.667 -3.5 -24 -10.5s-9 -15.5 -11 -25.5l-76 -354h-126l74 348c1.33301 6.66699 2 11.334 2 14.001c0 18.667 -8.66699 28 -26 28c-19.333 0 -31.333 -12 -36 -36l-76 -354
h-125l105 496h126l-10 -48h18c5.33301 20.667 15.333 36.167 30 46.5s31.334 15.5 50.001 15.5c22 0 38.667 -6 50 -18s18.666 -26.667 21.999 -44h18c7.33301 18 18.5 32.833 33.5 44.5s34.5 17.5 58.5 17.5c28 0 49.5 -9 64.5 -27s22.5 -39.667 22.5 -65
c0 -4.66699 -0.166992 -8.83398 -0.5 -12.501s-1.16602 -8.16699 -2.49902 -13.5l-59 -273l10 -7l34 24l63 -94l-45 -30c-13.333 -9.33301 -26.833 -16 -40.5 -20s-27.167 -6 -40.5 -6c-14.667 0 -28.5 2.5 -41.5 7.5s-24.5 12.167 -34.5 21.5s-17.833 20.833 -23.5 34.5
s-8.5 29.167 -8.5 46.5c0 9.33301 1.33301 20.666 4 33.999z" />
    <glyph glyph-name="n" unicode="n" 
d="M379 288c2.66699 12.667 3.99902 23.333 3.99902 32c0 24 -7 42.667 -21 56s-33 20 -57 20c-30 0 -55.667 -10.667 -77 -32s-35.666 -50 -42.999 -86l-59 -278h-126l105 496h121l-17 -80h18c16 33.333 37.167 57.333 63.5 72s55.5 22 87.5 22
c42 0 75.5 -12.667 100.5 -38s37.5 -61 37.5 -107c0 -10.667 -0.666992 -20.5 -2 -29.5s-3 -18.833 -5 -29.5l-40 -187l10 -7l43 30l63 -94l-54 -36c-25.333 -17.333 -52.333 -26 -81 -26c-14.667 0 -28.667 2.5 -42 7.5s-25 12 -35 21s-18 20 -24 33s-9 27.833 -9 44.5
c0 8.66699 1 18.667 3 30z" />
    <glyph glyph-name="o" unicode="o" 
d="M558 310c0 -46.667 -6.66895 -89.8311 -20.002 -129.498s-33 -73.834 -59 -102.501s-58.5 -51.167 -97.5 -67.5s-84.167 -24.5 -135.5 -24.5c-29.333 0 -56.833 4.33301 -82.5 13s-48.167 21.5 -67.5 38.5s-34.666 37.833 -45.999 62.5s-17 52.667 -17 84
c0 51.333 8 97.166 24 137.499s37.833 74.5 65.5 102.5s60.334 49.333 98.001 64s78.167 22 121.5 22c31.333 0 60.333 -4.83301 87 -14.5s49.5 -23.167 68.5 -40.5s33.833 -38.333 44.5 -63s16 -52 16 -82zM264.998 104.003c24 0.666992 46.168 5.99902 66.501 15.999
s37.666 23.167 51.999 39.5s25.5 35.5 33.5 57.5s12 45.333 12 70c0 34.667 -9.33301 60.834 -28 78.501s-43.667 26.5 -75 26.5c-24 0 -46 -5.16699 -66 -15.5s-37.333 -24 -52 -41s-26 -36.5 -34 -58.5s-12 -45 -12 -69c0 -34 9.33301 -59.833 28 -77.5
s43.667 -26.5 75 -26.5z" />
    <glyph glyph-name="p" unicode="p" 
d="M121 -200l-126.003 -0.000976562l123 577l-10 7l-46 -34l-65 90l54 40c14 10 28.5 17.5 43.5 22.5s29.5 7.5 43.5 7.5c26.667 0 50 -7.66699 70 -23s32.333 -36.333 37 -63h18c32.667 57.333 86 86 160 86c22.667 0 44.334 -4.33301 65.001 -13
s38.834 -21.334 54.501 -38.001s28 -37.167 37 -61.5s13.5 -52.166 13.5 -83.499c0 -39.333 -4.83301 -78.666 -14.5 -117.999s-24.834 -74.5 -45.501 -105.5s-47.167 -56.167 -79.5 -75.5s-71.166 -29 -116.499 -29c-21.333 0 -40 2.5 -56 7.5s-29.667 11.5 -41 19.5
s-20.666 17.167 -27.999 27.5s-12.333 20.833 -15 31.5h-18zM312.997 105.999c24.667 0 46.333 4.5 65 13.5s34.167 21.5 46.5 37.5s21.5 35 27.5 57s9 46 9 72c0 28 -9 52.333 -27 73s-43 31 -75 31c-22.667 0 -43 -4.5 -61 -13.5s-33.333 -21.5 -46 -37.5
s-22.5 -35 -29.5 -57s-10.5 -46 -10.5 -72c0 -31.333 9 -56.5 27 -75.5s42.667 -28.5 74 -28.5z" />
    <glyph glyph-name="q" unicode="q" 
d="M256 106c24 0 45.999 5 65.999 15s37.333 23.5 52 40.5s26 36.5 34 58.5s12 45 12 69c0 32 -9.16699 56.833 -27.5 74.5s-43.833 26.5 -76.5 26.5c-24 0 -46.167 -5.16699 -66.5 -15.5s-37.666 -24 -51.999 -41s-25.5 -36.5 -33.5 -58.5s-12 -45 -12 -69
c0 -32.667 9.16699 -57.5 27.5 -74.5s43.833 -25.5 76.5 -25.5zM377.999 72l-18.0039 -0.000976562c-7.33301 -11.333 -15.666 -22.166 -24.999 -32.499s-20.5 -19.5 -33.5 -27.5s-28.5 -14.333 -46.5 -19s-39 -7 -63 -7c-23.333 0 -45.166 4.33301 -65.499 13
s-38.333 21 -54 37s-28 35.333 -37 58s-13.5 48 -13.5 76c0 44.667 6.16699 87.5 18.5 128.5s30.5 77.167 54.5 108.5s53.333 56.333 88 75s74.334 28 119.001 28c40.667 0 71.167 -8.33301 91.5 -25s34.166 -37 41.499 -61h18l15 72h126l-123 -575l10 -7l56 38l63 -94
l-67 -44c-13.333 -9.33301 -27.166 -16 -41.499 -20s-28.166 -6 -41.499 -6c-30 0 -55.5 9.5 -76.5 28.5s-31.5 45.167 -31.5 78.5c0 9.33301 1.33301 20.333 4 33z" />
    <glyph glyph-name="r" unicode="r" 
d="M178 378l-9.99902 6.00195l-79 -58l-67 90l80 60c15.333 11.333 31.5 19.833 48.5 25.5s33.167 8.5 48.5 8.5c26.667 0 50 -7.33301 70 -22s32 -35.334 36 -62.001h18c13.333 28 32 49 56 63s51 21 81 21c38 0 68.833 -11.833 92.5 -35.5s35.5 -56.5 35.5 -98.5
c0 -8.66699 -0.5 -17.167 -1.5 -25.5s-2.83301 -18.5 -5.5 -30.5l-5 -22l-134 -10l3 14c2 10 3 19 3 27c0 19.333 -5.33301 34.666 -16 45.999s-26.667 17 -48 17c-26.667 0 -47.834 -9 -63.501 -27s-27.167 -43.667 -34.5 -77l-36 -168h120v-120h-342v120h96z" />
    <glyph glyph-name="s" unicode="s" 
d="M322 396c-7.33301 0 -14.8301 -0.831055 -22.4971 -2.49805s-14.834 -4.16699 -21.501 -7.5s-12.167 -7.83301 -16.5 -13.5s-6.5 -12.5 -6.5 -20.5c0 -14 8 -24.333 24 -31s43.333 -12.334 82 -17.001c43.333 -5.33301 78.333 -18.5 105 -39.5s40 -51.167 40 -90.5
c0 -58.667 -20.5 -104.667 -61.5 -138s-97.833 -50 -170.5 -50c-36.667 0 -68.167 5.33301 -94.5 16s-48 24 -65 40s-29.833 33.667 -38.5 53s-13.334 37.666 -14.001 54.999l124 30c2 -22 11.333 -40.833 28 -56.5s42 -23.5 76 -23.5c23.333 0 43.666 3.66699 60.999 11
s26 20.333 26 39c0 14 -6.66699 25.167 -20 33.5s-38 14.166 -74 17.499c-48 4 -86.167 17.667 -114.5 41s-42.5 54.333 -42.5 93c0 28 5.83301 53 17.5 75s27.167 40.333 46.5 55s41.833 25.834 67.5 33.501s52.5 11.5 80.5 11.5c34.667 0 63.667 -4.66699 87 -14
s42.333 -21 57 -35s25.5 -29.167 32.5 -45.5s11.5 -31.5 13.5 -45.5l-122 -32c-2.66699 18 -11 32.167 -25 42.5s-33.667 15.5 -59 15.5z" />
    <glyph glyph-name="t" unicode="t" 
d="M218 376l-140 0.00292969v120h166l46 218h126l-46 -218h172v-120h-198l-56 -257l10 -7l134 92l63 -94l-145 -98c-25.333 -17.333 -52.333 -26 -81 -26c-14.667 0 -28.667 2.5 -42 7.5s-25 12.167 -35 21.5s-18 20.666 -24 33.999s-9 28.333 -9 45
c0 5.33301 0.333008 10.166 1 14.499s1.66699 10.166 3 17.499z" />
    <glyph glyph-name="u" unicode="u" 
d="M223 496l-61.999 -288c-2.66699 -11.333 -4 -22.333 -4 -33c0 -25.333 7 -44.166 21 -56.499s32.667 -18.5 56 -18.5c35.333 0 62.5 11.5 81.5 34.5s33.167 55.5 42.5 97.5l56 264h126l-82 -378l11 -6l36 26l63 -92l-47 -34c-12.667 -9.33301 -25.834 -16 -39.501 -20
s-27.167 -6 -40.5 -6c-27.333 0 -51.333 7.83301 -72 23.5s-32.334 38.5 -35.001 68.5h-18c-14.667 -34 -34.5 -57.833 -59.5 -71.5s-53.167 -20.5 -84.5 -20.5c-43.333 0 -78.666 13.167 -105.999 39.5s-41 63.166 -41 110.499c0 16.667 2 34.667 6 54l66 306h126z" />
    <glyph glyph-name="v" unicode="v" 
d="M135 374l-11.999 4l-39 -49l-87 71l47 60c13.333 16.667 28.833 29.167 46.5 37.5s36.167 12.5 55.5 12.5c14 0 27.667 -2.33301 41 -7s25.166 -11.5 35.499 -20.5s18.833 -20.5 25.5 -34.5s10.667 -30 12 -48l21 -340h18l202 444l113 -55l-210 -449h-243z" />
    <glyph glyph-name="w" unicode="w" 
d="M145 126l-11 -54h18l11 48l101 376h200l-52 -376l-10 -48h18l12 54l101 382l103 -25l-133 -483h-201l59 436h-18l-115 -436h-196l57 496h105z" />
    <glyph glyph-name="x" unicode="x" 
d="M365 235l52 -123h12l39 72l100 -52l-32 -64c-26.667 -54.667 -68.334 -82 -125.001 -82c-28 0 -50.833 6.33301 -68.5 19s-32.167 33 -43.5 61l-33 77l-165 -155l-85 89l200 187l-50 119h-12l-48 -77l-96 62l48 74c28.667 45.333 67.334 68 116.001 68
c49.333 0 85.333 -26 108 -78l32 -76l158 148l85 -89z" />
    <glyph glyph-name="y" unicode="y" 
d="M228 208c-1.33301 -4.66699 -2.33105 -9.66699 -2.99805 -15s-1 -10.666 -1 -15.999c0 -25.333 7.33301 -44.5 22 -57.5s34.667 -19.5 60 -19.5c36 0 63.667 11.667 83 35s33.666 57 42.999 101l55 260h126l-131 -618c-4.66699 -22.667 -15.667 -41.334 -33 -56.001
s-37.333 -22 -60 -22h-290v120h239c18 0 29 10 33 30l26 122h-18c-14.667 -30 -33.334 -51.833 -56.001 -65.5s-51 -20.5 -85 -20.5c-20 0 -38.667 3.5 -56 10.5s-32.666 17 -45.999 30s-23.833 29 -31.5 48s-11.5 40.833 -11.5 65.5c0 16.667 2 34 6 52l39 185l-10 7
l-60 -42l-63 94l73 49c12.667 8.66699 25.667 15 39 19s26.666 6 39.999 6c14.667 0 28.667 -2.5 42 -7.5s25 -12 35 -21s18 -20 24 -33s9 -27.833 9 -44.5c0 -9.33301 -1 -19.333 -3 -30z" />
    <glyph glyph-name="z" unicode="z" 
d="M469 120v-120h-429v197l374 165v18h-291v116h411v-194l-372 -164v-18h307z" />
    <glyph glyph-name="braceleft" unicode="{" 
d="M234 249c0.666992 3.33301 0.998047 5.33301 0.998047 6v3c0 13.333 -7.66699 20 -23 20h-50v144h82c18 0 29 9.66699 33 29l64 303c6.66699 30 21.5 54.5 44.5 73.5s49.5 28.5 79.5 28.5h119v-120h-93c-18.667 0 -30 -10 -34 -30l-57 -269
c-5.33301 -22.667 -16.666 -41.334 -33.999 -56.001s-37.666 -22 -60.999 -22h-9v-18h6c20 0 35.5 -5.66699 46.5 -17s16.5 -25.666 16.5 -42.999c0 -3.33301 -0.166992 -6.33301 -0.5 -9s-0.833008 -5.66699 -1.5 -9l-57 -269c-0.666992 -3.33301 -1 -5.5 -1 -6.5v-3.5
c0 -13.333 7.66699 -20 23 -20h72v-120h-133c-30 0 -53.833 7.33301 -71.5 22s-26.5 36 -26.5 64c0 5.33301 0.333008 10.5 1 15.5s1.66699 10.167 3 15.5z" />
    <glyph glyph-name="bar" unicode="|" 
d="M262 -156h-120l215 1012h120z" />
    <glyph glyph-name="braceright" unicode="}" 
d="M378 451c-0.666992 -3.33301 -0.998047 -5.33301 -0.998047 -6v-3c0 -13.333 7.66699 -20 23 -20h50v-144h-82c-18 0 -29 -9.66699 -33 -29l-64 -303c-6.66699 -30 -21.5 -54.5 -44.5 -73.5s-49.5 -28.5 -79.5 -28.5h-119v120h93c18.667 0 30 10 34 30l57 269
c5.33301 22.667 16.666 41.334 33.999 56.001s37.666 22 60.999 22h9v18h-6c-20 0 -35.5 5.66699 -46.5 17s-16.5 25.666 -16.5 42.999c0 3.33301 0.166992 6.33301 0.5 9s0.833008 5.66699 1.5 9l57 269c0.666992 3.33301 1 5.5 1 6.5v3.5c0 13.333 -7.66699 20 -23 20h-72
v120h133c30 0 53.833 -7.33301 71.5 -22s26.5 -36 26.5 -64c0 -5.33301 -0.333008 -10.5 -1 -15.5s-1.66699 -10.167 -3 -15.5z" />
    <glyph glyph-name="asciitilde" unicode="~" 
d="M335 376c8 -13.333 14.667 -22.5 20 -27.5s12.666 -7.5 21.999 -7.5c6.66699 0 13.167 1.83301 19.5 5.5s12.833 8.16699 19.5 13.5l86 63l70 -93l-121 -92c-11.333 -9.33301 -24.5 -17.5 -39.5 -24.5s-31.5 -10.5 -49.5 -10.5c-23.333 0 -41.666 4 -54.999 12
s-23.666 17.667 -30.999 29c-8 13.333 -14.667 22.5 -20 27.5s-12.666 7.5 -21.999 7.5c-6.66699 0 -13.167 -1.83301 -19.5 -5.5s-12.833 -8.16699 -19.5 -13.5l-86 -63l-70 93l121 92c11.333 9.33301 24.5 17.5 39.5 24.5s31.5 10.5 49.5 10.5
c23.333 0 41.666 -4 54.999 -12s23.666 -17.667 30.999 -29z" />
    <glyph glyph-name="uni00A0" unicode="&#xa0;" 
 />
    <glyph glyph-name="exclamdown" unicode="&#xa1;" 
d="M134 -200l104 482h132l-104 -482h-132zM232 419c0 13.333 2.5 25.833 7.5 37.5s11.833 21.667 20.5 30s18.667 15 30 20s23.666 7.5 36.999 7.5c12.667 0 24.834 -2.5 36.501 -7.5s21.834 -11.667 30.501 -20s15.5 -18.333 20.5 -30s7.5 -24.167 7.5 -37.5
s-2.5 -25.833 -7.5 -37.5s-11.833 -21.667 -20.5 -30s-18.834 -15 -30.501 -20s-23.834 -7.5 -36.501 -7.5c-13.333 0 -25.666 2.5 -36.999 7.5s-21.333 11.667 -30 20s-15.5 18.333 -20.5 30s-7.5 24.167 -7.5 37.5z" />
    <glyph glyph-name="cent" unicode="&#xa2;" 
d="M208 92c-50.667 9.33301 -90.166 32.1689 -118.499 68.502s-42.5 82.833 -42.5 139.5c0 40.667 6.66699 78.667 20 114s32 66.666 56 93.999s52.5 49.666 85.5 66.999s69.5 28.333 109.5 33l14 64h96l-14 -66c28.667 -5.33301 52.834 -14 72.501 -26
s35.667 -26.333 48 -43s21.166 -35 26.499 -55s8 -40 8 -60l-118 -26c0 22.667 -3.5 43.5 -10.5 62.5s-23.5 32.167 -49.5 39.5l-63 -295c15.333 4 28.666 10 39.999 18s21.333 16.667 30 26s15.834 19 21.501 29s10.5 19.333 14.5 28l106 -26
c-19.333 -49.333 -48.333 -91.333 -87 -126s-88.334 -55.667 -149.001 -63l-13 -61h-96zM164.001 315.003c0 -26.667 5.16699 -50 15.5 -70s27.833 -34 52.5 -42l62 293c-41.333 -10.667 -73.333 -32.5 -96 -65.5s-34 -71.5 -34 -115.5z" />
    <glyph glyph-name="sterling" unicode="&#xa3;" 
d="M148 282l-50.002 0.00292969v96h71l13 60c13.333 63.333 36.833 108.166 70.5 134.499s77.5 39.5 131.5 39.5c22 0 41.833 -3.5 59.5 -10.5s32.834 -16.833 45.501 -29.5s22.334 -27.334 29.001 -44.001s10 -34.334 10 -53.001c0 -10 -1.33301 -21.667 -4 -35l-4 -18
h-112l5 20c1.33301 5.33301 2 10.333 2 15c0 12 -3.83301 22.833 -11.5 32.5s-20.167 14.5 -37.5 14.5c-20 0 -35.5 -5.83301 -46.5 -17.5s-18.5 -26.5 -22.5 -44.5l-14 -64h61v-96h-82l-15 -72h205v-108h-392v108h73z" />
    <glyph glyph-name="currency" unicode="&#xa4;" 
d="M49 297c0 38 5.83008 73.5 17.4971 106.5s27.834 62.5 48.501 88.5l-41 53l93 77l43 -55c20.667 10.667 42.334 18.834 65.001 24.501s46.667 8.5 72 8.5s49.333 -3.5 72 -10.5s43.334 -17.167 62.001 -30.5l76 63l65 -82l-77 -64
c5.33301 -13.333 9.33301 -27.5 12 -42.5s4 -31.167 4 -48.5c0 -32.667 -5.83301 -64.334 -17.5 -95.001s-28.167 -58.667 -49.5 -84l41 -51l-93 -77l-43 53c-41.333 -20.667 -88 -31 -140 -31s-96 13.333 -132 40l-75 -62l-65 82l75 63c-8.66699 21.333 -13 46 -13 74z
M328.997 492c-25.333 0 -48.498 -4.66797 -69.498 -14.001s-39 -21.666 -54 -36.999s-26.5 -33.333 -34.5 -54s-12 -42 -12 -64c0 -34.667 10.667 -62.5 32 -83.5s50.666 -31.5 87.999 -31.5c20.667 0 41.167 3.83301 61.5 11.5s38.666 18.5 54.999 32.5
s29.5 30.833 39.5 50.5s15 41.167 15 64.5c0 37.333 -10.667 67.5 -32 90.5s-51 34.5 -89 34.5z" />
    <glyph glyph-name="yen" unicode="&#xa5;" 
d="M561 586l-131 -196h55v-96h-138l-7 -30h118v-96h-138l-14 -66h-126l14 66h-118v96h138l7 30h-118v96h75l-61 208h134l44 -208h12l128 208h126v-12z" />
    <glyph glyph-name="brokenbar" unicode="&#xa6;" 
d="M357 290l-95 -446h-120l95 446h120zM262 410l95 446h120l-95 -446h-120z" />
    <glyph glyph-name="section" unicode="&#xa7;" 
d="M399 598c1.33301 9.33301 -0.832031 16.9932 -6.49902 22.9932s-16.167 9 -31.5 9c-10 0 -19.167 -2.16699 -27.5 -6.5s-12.5 -11.5 -12.5 -21.5c0 -8.66699 4.5 -16 13.5 -22s24.167 -10.667 45.5 -14c30 -5.33301 52.667 -16 68 -32s23 -36.667 23 -62
c0 -16.667 -3.33301 -32.167 -10 -46.5s-15.667 -26.166 -27 -35.499c1.33301 -3.33301 2.66602 -7.66602 3.99902 -12.999s2 -10.666 2 -15.999c0 -26 -4.16699 -48 -12.5 -66s-19.5 -32.667 -33.5 -44s-30.333 -19.666 -49 -24.999s-38.334 -8 -59.001 -8
c-41.333 0 -73 9.66699 -95 29s-33 44 -33 74c0 6.66699 1 15.667 3 27l1 5h90l-1 -6c-0.666992 -3.33301 -1 -5.66602 -1 -6.99902v-3c0 -11.333 4.16699 -20 12.5 -26s19.5 -9 33.5 -9s26 2.83301 36 8.5s15 15.167 15 28.5c0 6.66699 -3.33301 13.334 -10 20.001
s-21.667 12.334 -45 17.001c-24.667 4.66699 -46.5 15 -65.5 31s-28.5 37.667 -28.5 65c0 16.667 3.16699 30.667 9.5 42s15.833 22.333 28.5 33c-3.33301 5.33301 -6 12 -8 20s-3 14.667 -3 20c0 39.333 13.833 70.333 41.5 93s62.834 34 105.501 34c38 0 67.333 -9 88 -27
s31 -40 31 -66c0 -3.33301 -0.166992 -6.83301 -0.5 -10.5s-0.833008 -7.16699 -1.5 -10.5l-1 -6h-90zM369.002 440.993c3.33301 4.66699 4.99902 11.333 4.99902 20c0 7.33301 -2.66699 13.333 -8 18s-15.666 8.66699 -30.999 12l-34 8c-4.66699 -4.66699 -7 -11 -7 -19
c0 -5.33301 2.66699 -10.5 8 -15.5s16.333 -9.83301 33 -14.5z" />
    <glyph glyph-name="dieresis" unicode="&#xa8;" 
d="M282 643c0 -13.333 -2.5 -25.833 -7.5 -37.5s-11.833 -21.667 -20.5 -30s-18.834 -15 -30.501 -20s-23.834 -7.5 -36.501 -7.5c-13.333 0 -25.666 2.5 -36.999 7.5s-21.333 11.667 -30 20s-15.5 18.333 -20.5 30s-7.5 24.167 -7.5 37.5s2.5 25.833 7.5 37.5
s11.833 21.667 20.5 30s18.667 15 30 20s23.666 7.5 36.999 7.5c12.667 0 24.834 -2.5 36.501 -7.5s21.834 -11.667 30.501 -20s15.5 -18.333 20.5 -30s7.5 -24.167 7.5 -37.5zM520 643c0 -13.333 -2.5 -25.833 -7.5 -37.5s-11.833 -21.667 -20.5 -30
s-18.834 -15 -30.501 -20s-23.834 -7.5 -36.501 -7.5c-13.333 0 -25.666 2.5 -36.999 7.5s-21.333 11.667 -30 20s-15.5 18.333 -20.5 30s-7.5 24.167 -7.5 37.5s2.5 25.833 7.5 37.5s11.833 21.667 20.5 30s18.667 15 30 20s23.666 7.5 36.999 7.5
c12.667 0 24.834 -2.5 36.501 -7.5s21.834 -11.667 30.501 -20s15.5 -18.333 20.5 -30s7.5 -24.167 7.5 -37.5z" />
    <glyph glyph-name="copyright" unicode="&#xa9;" 
d="M305 634c-11.333 0 -19.5 -3.33301 -24.5 -10s-7.5 -14 -7.5 -22v-92c0 -8 2.5 -15.333 7.5 -22s13.167 -10 24.5 -10s19.5 3.33301 24.5 10s7.5 14 7.5 22v16h78v-16c0 -30.667 -9.83301 -55.667 -29.5 -75s-46.5 -29 -80.5 -29c-32.667 0 -59.167 9.66699 -79.5 29
s-30.5 44.333 -30.5 75v92c0 30.667 10 55.667 30 75s46.667 29 80 29c34 0 60.833 -9.66699 80.5 -29s29.5 -44.333 29.5 -75v-16h-78v16c0 8 -2.5 15.333 -7.5 22s-13.167 10 -24.5 10zM28 556c0 38 7.33301 74 22 108s34.5 63.5 59.5 88.5s54.5 44.833 88.5 59.5
s70 22 108 22s74 -7.33301 108 -22s63.5 -34.5 88.5 -59.5s44.833 -54.5 59.5 -88.5s22 -70 22 -108s-7.33301 -74 -22 -108s-34.5 -63.5 -59.5 -88.5s-54.5 -44.833 -88.5 -59.5s-70 -22 -108 -22s-74 7.33301 -108 22s-63.5 34.5 -88.5 59.5s-44.833 54.5 -59.5 88.5
s-22 70 -22 108zM106 556c0 -28 5.16699 -54.167 15.5 -78.5s24.5 -45.5 42.5 -63.5s39.167 -32.167 63.5 -42.5s50.5 -15.5 78.5 -15.5s54.167 5.16699 78.5 15.5s45.5 24.5 63.5 42.5s32.167 39.167 42.5 63.5s15.5 50.5 15.5 78.5s-5.16699 54.167 -15.5 78.5
s-24.5 45.5 -42.5 63.5s-39.167 32.167 -63.5 42.5s-50.5 15.5 -78.5 15.5s-54.167 -5.16699 -78.5 -15.5s-45.5 -24.5 -63.5 -42.5s-32.167 -39.167 -42.5 -63.5s-15.5 -50.5 -15.5 -78.5z" />
    <glyph glyph-name="ordfeminine" unicode="&#xaa;" 
d="M372 446c-7.33301 -12 -17.501 -21.666 -30.501 -28.999s-29.5 -11 -49.5 -11c-31.333 0 -57.666 10.667 -78.999 32s-32 52 -32 92c0 22.667 3.5 44.667 10.5 66s17.333 40.166 31 56.499s30.667 29.333 51 39s43.5 14.5 69.5 14.5c20.667 0 36.5 -3.16699 47.5 -9.5
s19.167 -14.5 24.5 -24.5h9l6 28h84l-41 -193c-2 -11.333 2 -17 12 -17h16v-78h-87c-10 0 -18 2.83301 -24 8.5s-9 14.167 -9 25.5h-9zM321.999 484.001c26 0 46 9 60 27s21 39.667 21 65c0 15.333 -4.66699 27.833 -14 37.5s-23.333 14.5 -42 14.5
c-22.667 0 -41.667 -8 -57 -24s-23 -36.667 -23 -62c0 -21.333 5.33301 -36.333 16 -45s23.667 -13 39 -13z" />
    <glyph glyph-name="guillemotleft" unicode="&#xab;" 
d="M475 0l-194 162v168l299 166h6v-124l-215 -120v-18l110 -88v-146h-6zM223 0l-194 162v168l299 166h6v-124l-215 -120v-18l110 -88v-146h-6z" />
    <glyph glyph-name="logicalnot" unicode="&#xac;" 
d="M102 407h428v-12l-50 -233h-116l28 131h-290v114z" />
    <glyph glyph-name="registered" unicode="&#xae;" 
d="M28 556c0 38 7.33301 74 22 108s34.5 63.5 59.5 88.5s54.5 44.833 88.5 59.5s70 22 108 22s74 -7.33301 108 -22s63.5 -34.5 88.5 -59.5s44.833 -54.5 59.5 -88.5s22 -70 22 -108s-7.33301 -74 -22 -108s-34.5 -63.5 -59.5 -88.5s-54.5 -44.833 -88.5 -59.5
s-70 -22 -108 -22s-74 7.33301 -108 22s-63.5 34.5 -88.5 59.5s-44.833 54.5 -59.5 88.5s-22 70 -22 108zM106 556c0 -28 5.16699 -54.167 15.5 -78.5s24.5 -45.5 42.5 -63.5s39.167 -32.167 63.5 -42.5s50.5 -15.5 78.5 -15.5s54.167 5.16699 78.5 15.5
s45.5 24.5 63.5 42.5s32.167 39.167 42.5 63.5s15.5 50.5 15.5 78.5s-5.16699 54.167 -15.5 78.5s-24.5 45.5 -42.5 63.5s-39.167 32.167 -63.5 42.5s-50.5 15.5 -78.5 15.5s-54.167 -5.16699 -78.5 -15.5s-45.5 -24.5 -63.5 -42.5s-32.167 -39.167 -42.5 -63.5
s-15.5 -50.5 -15.5 -78.5zM408 412h-78v71c0 7.33301 -2.16699 13.333 -6.5 18s-10.5 7 -18.5 7h-11v-96h-78v288h106c30 0 52.833 -8 68.5 -24s23.5 -34.667 23.5 -56c0 -35.333 -13.333 -58.333 -40 -69v-9c12 -1.33301 20.667 -6 26 -14s8 -16.667 8 -26v-90zM294 580h16
c17.333 0 26 8 26 24s-8.66699 24 -26 24h-16v-48z" />
    <glyph glyph-name="macron" unicode="&#xaf;" 
d="M453 570h-294v102h294v-102z" />
    <glyph glyph-name="degree" unicode="&#xb0;" 
d="M198 569c0 22 4.16699 42.5 12.5 61.5s19.5 35.5 33.5 49.5s30.5 25.167 49.5 33.5s39.5 12.5 61.5 12.5s42.5 -4.16699 61.5 -12.5s35.5 -19.5 49.5 -33.5s25.167 -30.5 33.5 -49.5s12.5 -39.5 12.5 -61.5s-4.16699 -42.5 -12.5 -61.5s-19.5 -35.5 -33.5 -49.5
s-30.5 -25.167 -49.5 -33.5s-39.5 -12.5 -61.5 -12.5s-42.5 4.16699 -61.5 12.5s-35.5 19.5 -49.5 33.5s-25.167 30.5 -33.5 49.5s-12.5 39.5 -12.5 61.5zM306 569c0 -13.333 4.83301 -24.833 14.5 -34.5s21.167 -14.5 34.5 -14.5s24.833 4.83301 34.5 14.5
s14.5 21.167 14.5 34.5s-4.83301 24.833 -14.5 34.5s-21.167 14.5 -34.5 14.5s-24.833 -4.83301 -34.5 -14.5s-14.5 -21.167 -14.5 -34.5z" />
    <glyph glyph-name="plusminus" unicode="&#xb1;" 
d="M96 407h165l32 152h114l-32 -152h139v-114h-164l-32 -152h-114l32 152h-140v114zM30 108h418v-108h-418v108z" />
    <glyph glyph-name="twosuperior" unicode="&#xb2;" 
d="M390 484l-0.00488281 -72.0029h-221l14 66c6.66699 30 18.834 51.667 36.501 65s41.834 23.666 72.501 30.999c20 4.66699 34.667 9.33398 44 14.001s14 12.334 14 23.001c0 7.33301 -2.66699 13 -8 17s-11.666 6 -18.999 6c-10 0 -18.167 -3 -24.5 -9
s-10.166 -15 -11.499 -27h-78l1 6c5.33301 32.667 18.166 57.834 38.499 75.501s47.833 26.5 82.5 26.5c30 0 54.167 -7.66699 72.5 -23s27.5 -37 27.5 -65c0 -49.333 -31.333 -82 -94 -98c-27.333 -7.33301 -46.166 -13.166 -56.499 -17.499s-16.166 -10.5 -17.499 -18.5
h127z" />
    <glyph glyph-name="threesuperior" unicode="&#xb3;" 
d="M264 512c-2 -11.333 0 -19.834 6 -25.501s14 -8.5 24 -8.5c12 0 20.667 3.16699 26 9.5s8 13.833 8 22.5c0 7.33301 -2.66699 13.5 -8 18.5s-12.666 7.5 -21.999 7.5h-11v72l51 13v9h-108v70h180v-102l-52 -13v-9c14 -3.33301 25.333 -10.5 34 -21.5s13 -25.167 13 -42.5
c0 -31.333 -10.333 -56.833 -31 -76.5s-49 -29.5 -85 -29.5c-32.667 0 -57.834 8 -75.501 24s-26.5 36.667 -26.5 62c0 6.66699 0.666992 13.334 2 20.001h75z" />
    <glyph glyph-name="acute" unicode="&#xb4;" 
d="M475 694l-109 -124h-102l81 136h130v-12z" />
    <glyph glyph-name="mu" unicode="&#xb5;" 
d="M493 118l10.998 -6.00195l36 26l63 -92l-47 -34c-12.667 -9.33301 -25.834 -16 -39.501 -20s-27.167 -6 -40.5 -6c-25.333 0 -47.666 6.5 -66.999 19.5s-30.666 31.167 -33.999 54.5h-18c-3.33301 -13.333 -8.5 -24.666 -15.5 -33.999s-15.333 -17 -25 -23
s-20 -10.333 -31 -13s-21.833 -4 -32.5 -4c-29.333 0 -51.333 4.83301 -66 14.5s-24.667 21.5 -30 35.5h-18l-49 -236h-126l147 696h126l-58 -276c-3.33301 -16.667 -5 -30.667 -5 -42c0 -23.333 6.16699 -42.166 18.5 -56.499s34.166 -21.5 65.499 -21.5
c20 0 37.333 3.16699 52 9.5s27.334 15 38.001 26s19.334 23.667 26.001 38s11.667 29.833 15 46.5l58 276h126z" />
    <glyph glyph-name="paragraph" unicode="&#xb6;" 
d="M244 424h-8.99805c-16.667 0 -32.334 3.33301 -47.001 10s-27.334 15.667 -38.001 27s-19.167 24.666 -25.5 39.999s-9.5 32 -9.5 50c0 20.667 3.83301 40.834 11.5 60.501s19 37 34 52s33.667 27.167 56 36.5s47.833 14 76.5 14h256v-12l-103 -484h-108l84 394h-30
l-84 -394h-108zM265.002 526l19 86h-12c-17.333 0 -30.5 -5 -39.5 -15s-13.5 -22.333 -13.5 -37c0 -11.333 3.5 -19.833 10.5 -25.5s14.833 -8.5 23.5 -8.5h12z" />
    <glyph glyph-name="periodcentered" unicode="&#xb7;" 
d="M401 350c0 -13.333 -2.5 -25.833 -7.5 -37.5s-11.833 -21.667 -20.5 -30s-18.834 -15 -30.501 -20s-23.834 -7.5 -36.501 -7.5c-13.333 0 -25.666 2.5 -36.999 7.5s-21.333 11.667 -30 20s-15.5 18.333 -20.5 30s-7.5 24.167 -7.5 37.5s2.5 25.833 7.5 37.5
s11.833 21.667 20.5 30s18.667 15 30 20s23.666 7.5 36.999 7.5c12.667 0 24.834 -2.5 36.501 -7.5s21.834 -11.667 30.501 -20s15.5 -18.333 20.5 -30s7.5 -24.167 7.5 -37.5z" />
    <glyph glyph-name="cedilla" unicode="&#xb8;" 
d="M314 0l-19.999 -46h12c5.33301 6 12 11.167 20 15.5s18.333 6.5 31 6.5c19.333 0 35.333 -6.66699 48 -20s19 -32.666 19 -57.999c0 -34 -10.5 -60.833 -31.5 -80.5s-50.833 -29.5 -89.5 -29.5c-22.667 0 -41.334 1.83301 -56.001 5.5s-27 8.5 -37 14.5l37 69
c6.66699 -4.66699 14.167 -8.33398 22.5 -11.001s17.833 -4 28.5 -4c11.333 0 20.833 2.5 28.5 7.5s11.5 12.167 11.5 21.5c0 12.667 -6 19 -18 19c-9.33301 0 -16.333 -4.66699 -21 -14h-97v12l33 92h79z" />
    <glyph glyph-name="onesuperior" unicode="&#xb9;" 
d="M267 484l28 132h-6l-76 -56h-6v82l82 58h102l-46 -216h64v-72h-228v72h86z" />
    <glyph glyph-name="ordmasculine" unicode="&#xba;" 
d="M200 536c0 22 4.16797 43.1641 12.501 63.4971s20.166 38.5 35.499 54.5s33.833 28.667 55.5 38s46.167 14 73.5 14c17.333 0 33.833 -2.66699 49.5 -8s29.334 -13.166 41.001 -23.499s21 -23.166 28 -38.499s10.5 -33 10.5 -53c0 -27.333 -4.66699 -51.833 -14 -73.5
s-21.833 -40.167 -37.5 -55.5s-33.834 -27.166 -54.501 -35.499s-42.334 -12.5 -65.001 -12.5c-18.667 0 -36.167 2.5 -52.5 7.5s-30.666 12.833 -42.999 23.5s-22 24.167 -29 40.5s-10.5 35.833 -10.5 58.5zM340.001 483.997c24 0 43.332 8.33301 57.999 25s22 37 22 61
c0 17.333 -4.16699 31.333 -12.5 42s-22.166 16 -41.499 16c-12 0 -23 -2.5 -33 -7.5s-18.5 -11.5 -25.5 -19.5s-12.5 -17.333 -16.5 -28s-6 -22 -6 -34c0 -19.333 5.16699 -33.333 15.5 -42s23.5 -13 39.5 -13z" />
    <glyph glyph-name="guillemotright" unicode="&#xbb;" 
d="M111 496l194 -162v-168l-299 -166h-6v124l215 120v18l-110 88v146h6zM363 496l194 -162v-168l-299 -166h-6v124l215 120v18l-110 88v146h6z" />
    <glyph glyph-name="onequarter" unicode="&#xbc;" 
d="M521 510l41 -78l-472 -242l-41 78zM88 484l28 132h-6l-76 -56h-6v82l82 58h102l-46 -216h64v-72h-228v72h86zM389 288h140l-36 -170h34v-70h-49l-10 -48h-78l10 48h-120v87zM355 127v-9h60l25 118h-9z" />
    <glyph glyph-name="onehalf" unicode="&#xbd;" 
d="M89 484l28 132h-6l-76 -56h-6v82l82 58h102l-46 -216h64v-72h-228v72h86zM521 510l41 -78l-472 -242l-41 78zM474 73l-0.00488281 -72.0029h-221l14 66c6.66699 30 18.834 51.667 36.501 65s41.834 23.666 72.501 30.999c20 4.66699 34.667 9.33398 44 14.001
s14 12.334 14 23.001c0 7.33301 -2.66699 13 -8 17s-11.666 6 -18.999 6c-10 0 -18.167 -3 -24.5 -9s-10.166 -15 -11.499 -27h-78l1 6c5.33301 32.667 18.166 57.834 38.499 75.501s47.833 26.5 82.5 26.5c30 0 54.167 -7.66699 72.5 -23s27.5 -37 27.5 -65
c0 -49.333 -31.333 -82 -94 -98c-27.333 -7.33301 -46.166 -13.166 -56.499 -17.499s-16.166 -10.5 -17.499 -18.5h127z" />
    <glyph glyph-name="threequarters" unicode="&#xbe;" 
d="M389 289h140l-36 -170h34v-70h-49l-10 -48h-78l10 48h-120v87zM355 128v-9h60l25 118h-9zM521 510l41 -78l-472 -242l-41 78zM80 512c-2 -11.333 0 -19.834 6 -25.501s14 -8.5 24 -8.5c12 0 20.667 3.16699 26 9.5s8 13.833 8 22.5c0 7.33301 -2.66699 13.5 -8 18.5
s-12.666 7.5 -21.999 7.5h-11v72l51 13v9h-108v70h180v-102l-52 -13v-9c14 -3.33301 25.333 -10.5 34 -21.5s13 -25.167 13 -42.5c0 -31.333 -10.333 -56.833 -31 -76.5s-49 -29.5 -85 -29.5c-32.667 0 -57.834 8 -75.501 24s-26.5 36.667 -26.5 62
c0 6.66699 0.666992 13.334 2 20.001h75z" />
    <glyph glyph-name="questiondown" unicode="&#xbf;" 
d="M252 110c-35.333 0 -63.0049 -11.335 -83.0049 -34.002s-30 -50.667 -30 -84c0 -22 8 -40.833 24 -56.5s39 -23.5 69 -23.5c18.667 0 35.5 3.16699 50.5 9.5s28.333 14.833 40 25.5s21.167 23.167 28.5 37.5s12.666 29.5 15.999 45.5l7 36h132l-10 -48
c-7.33301 -34.667 -18.666 -66.167 -33.999 -94.5s-34.666 -52.666 -57.999 -72.999s-50.666 -36.166 -81.999 -47.499s-66.666 -17 -105.999 -17c-32 0 -61 5.16699 -87 15.5s-48.333 24.333 -67 42s-33 38.167 -43 61.5s-15 48.333 -15 75c0 30 5.33301 59.667 16 89
s25.834 55.5 45.501 78.5s43.5 41.667 71.5 56s59.667 21.5 95 21.5c21.333 0 34 10.333 38 31l6 26h126l-17 -80c-6 -28 -18.667 -50.333 -38 -67s-43.666 -25 -72.999 -25h-22zM261.995 418.998c0 13.333 2.5 25.833 7.5 37.5s11.833 21.667 20.5 30s18.667 15 30 20
s23.666 7.5 36.999 7.5c12.667 0 24.834 -2.5 36.501 -7.5s21.834 -11.667 30.501 -20s15.5 -18.333 20.5 -30s7.5 -24.167 7.5 -37.5s-2.5 -25.833 -7.5 -37.5s-11.833 -21.667 -20.5 -30s-18.834 -15 -30.501 -20s-23.834 -7.5 -36.501 -7.5
c-13.333 0 -25.666 2.5 -36.999 7.5s-21.333 11.667 -30 20s-15.5 18.333 -20.5 30s-7.5 24.167 -7.5 37.5z" />
    <glyph glyph-name="Agrave" unicode="&#xc0;" 
d="M388 150h-231l-64 -150h-141l308 700h244l17 -700h-131zM210 276h176l-5 358h-18zM434 774h-102l-84 136h134z" />
    <glyph glyph-name="Aacute" unicode="&#xc1;" 
d="M388 150h-231l-64 -150h-141l308 700h244l17 -700h-131zM210 276h176l-5 358h-18zM544 898l-109 -124h-102l81 136h130v-12z" />
    <glyph glyph-name="Acircumflex" unicode="&#xc2;" 
d="M388 150h-231l-64 -150h-141l308 700h244l17 -700h-131zM210 276h176l-5 358h-18zM226 786l102 124h172l55 -136h-111l-30 88h-12l-61 -88h-115v12z" />
    <glyph glyph-name="Atilde" unicode="&#xc3;" 
d="M388 150h-231l-64 -150h-141l308 700h244l17 -700h-131zM210 276h176l-5 358h-18zM422 885c4 -6 8.5 -11.5 13.5 -16.5s12.167 -7.5 21.5 -7.5c8 0 15.167 2.33301 21.5 7s12.833 11 19.5 19l28 34l68 -57l-62 -70c-22.667 -26.667 -51.334 -40 -86.001 -40
c-13.333 0 -26 3 -38 9s-22.333 15.667 -31 29c-4 6 -8.5 11.5 -13.5 16.5s-12.167 7.5 -21.5 7.5c-8 0 -15.167 -2.33301 -21.5 -7s-12.833 -11 -19.5 -19l-28 -34l-68 57l62 70c22.667 26.667 51.334 40 86.001 40c13.333 0 26 -3 38 -9s22.333 -15.667 31 -29z" />
    <glyph glyph-name="Adieresis" unicode="&#xc4;" 
d="M388 150h-231l-64 -150h-141l308 700h244l17 -700h-131zM210 276h176l-5 358h-18zM370 843c0 -13.333 -2.5 -25.833 -7.5 -37.5s-11.833 -21.667 -20.5 -30s-18.834 -15 -30.501 -20s-23.834 -7.5 -36.501 -7.5c-13.333 0 -25.666 2.5 -36.999 7.5s-21.333 11.667 -30 20
s-15.5 18.333 -20.5 30s-7.5 24.167 -7.5 37.5s2.5 25.833 7.5 37.5s11.833 21.667 20.5 30s18.667 15 30 20s23.666 7.5 36.999 7.5c12.667 0 24.834 -2.5 36.501 -7.5s21.834 -11.667 30.501 -20s15.5 -18.333 20.5 -30s7.5 -24.167 7.5 -37.5zM608 843
c0 -13.333 -2.5 -25.833 -7.5 -37.5s-11.833 -21.667 -20.5 -30s-18.834 -15 -30.501 -20s-23.834 -7.5 -36.501 -7.5c-13.333 0 -25.666 2.5 -36.999 7.5s-21.333 11.667 -30 20s-15.5 18.333 -20.5 30s-7.5 24.167 -7.5 37.5s2.5 25.833 7.5 37.5s11.833 21.667 20.5 30
s18.667 15 30 20s23.666 7.5 36.999 7.5c12.667 0 24.834 -2.5 36.501 -7.5s21.834 -11.667 30.501 -20s15.5 -18.333 20.5 -30s7.5 -24.167 7.5 -37.5z" />
    <glyph glyph-name="Aring" unicode="&#xc5;" 
d="M388 150h-231l-64 -150h-141l308 700h244l17 -700h-131zM210 276h176l-5 358h-18zM281 876c0 14.667 2.83301 28.667 8.5 42s13.334 24.833 23.001 34.5s21 17.334 34 23.001s27.167 8.5 42.5 8.5c14.667 0 28.667 -2.83301 42 -8.5s24.833 -13.334 34.5 -23.001
s17.334 -21.167 23.001 -34.5s8.5 -27.333 8.5 -42c0 -15.333 -2.83301 -29.5 -8.5 -42.5s-13.334 -24.333 -23.001 -34s-21.167 -17.334 -34.5 -23.001s-27.333 -8.5 -42 -8.5c-15.333 0 -29.5 2.83301 -42.5 8.5s-24.333 13.334 -34 23.001s-17.334 21 -23.001 34
s-8.5 27.167 -8.5 42.5zM359 876c0 -8.66699 2.83301 -15.834 8.5 -21.501s12.834 -8.5 21.501 -8.5s15.834 2.83301 21.501 8.5s8.5 12.834 8.5 21.501s-2.83301 15.834 -8.5 21.501s-12.834 8.5 -21.501 8.5s-15.834 -2.83301 -21.501 -8.5s-8.5 -12.834 -8.5 -21.501z
" />
    <glyph glyph-name="AE" unicode="&#xc6;" 
d="M214 12l29 138h-114l-66 -150h-131v12l309 688h387v-126h-163l-34 -160h136v-126h-163l-34 -162h148v-126h-304v12zM184 276h86l63 298h-18z" />
    <glyph glyph-name="Ccedilla" unicode="&#xc7;" 
d="M255 106c24.667 0 45.834 3.99707 63.501 11.9971s32.5 18.5 44.5 31.5s21.5 28 28.5 45s12.5 34.167 16.5 51.5l4 18h132l-4 -18c-9.33301 -41.333 -21.333 -77.666 -36 -108.999s-33.167 -57.666 -55.5 -78.999s-48.833 -38 -79.5 -50s-66.667 -19 -108 -21l-14 -33h12
c5.33301 6 12 11.167 20 15.5s18.333 6.5 31 6.5c19.333 0 35.333 -6.66699 48 -20s19 -32.666 19 -57.999c0 -34 -10.5 -60.833 -31.5 -80.5s-50.833 -29.5 -89.5 -29.5c-22.667 0 -41.334 1.83301 -56.001 5.5s-27 8.5 -37 14.5l37 69
c6.66699 -4.66699 14.167 -8.33398 22.5 -11.001s17.833 -4 28.5 -4c11.333 0 20.833 2.5 28.5 7.5s11.5 12.167 11.5 21.5c0 12.667 -6 19 -18 19c-9.33301 0 -16.333 -4.66699 -21 -14h-97v12l29 82c-50 8.66699 -89.667 30.5 -119 65.5s-44 81.5 -44 139.5
c0 12 0.666992 24 2 36s3.66602 25.667 6.99902 41l33 156c20.667 96.667 57.334 168.5 110.001 215.5s121.334 70.5 206.001 70.5c33.333 0 63.166 -5.33301 89.499 -16s48.666 -25.167 66.999 -43.5s32.333 -39.833 42 -64.5s14.5 -51 14.5 -79
c0 -9.33301 -0.666992 -18.666 -2 -27.999s-3 -19 -5 -29l-4 -18h-132l4 18c4 16 6 31.333 6 46c0 26 -7.5 48.167 -22.5 66.5s-41.167 27.5 -78.5 27.5c-22 0 -42 -4.16699 -60 -12.5s-33.667 -19.666 -47 -33.999s-24.5 -31 -33.5 -50s-15.833 -38.833 -20.5 -59.5
l-37 -176c-2 -10 -3.66699 -19.833 -5 -29.5s-2 -18.834 -2 -27.501c0 -30 7.83301 -54 23.5 -72s41.834 -27 78.501 -27z" />
    <glyph glyph-name="Egrave" unicode="&#xc8;" 
d="M18 12l146 688h415v-126h-310l-34 -160h271v-126h-298l-34 -162h295v-126h-451v12zM443 774h-102l-84 136h134z" />
    <glyph glyph-name="Eacute" unicode="&#xc9;" 
d="M18 12l146 688h415v-126h-310l-34 -160h271v-126h-298l-34 -162h295v-126h-451v12zM545 898l-109 -124h-102l81 136h130v-12z" />
    <glyph glyph-name="Ecircumflex" unicode="&#xca;" 
d="M18 12l146 688h415v-126h-310l-34 -160h271v-126h-298l-34 -162h295v-126h-451v12zM225 786l102 124h172l55 -136h-111l-30 88h-12l-61 -88h-115v12z" />
    <glyph glyph-name="Edieresis" unicode="&#xcb;" 
d="M18 12l146 688h415v-126h-310l-34 -160h271v-126h-298l-34 -162h295v-126h-451v12zM350 843c0 -13.333 -2.5 -25.833 -7.5 -37.5s-11.833 -21.667 -20.5 -30s-18.834 -15 -30.501 -20s-23.834 -7.5 -36.501 -7.5c-13.333 0 -25.666 2.5 -36.999 7.5
s-21.333 11.667 -30 20s-15.5 18.333 -20.5 30s-7.5 24.167 -7.5 37.5s2.5 25.833 7.5 37.5s11.833 21.667 20.5 30s18.667 15 30 20s23.666 7.5 36.999 7.5c12.667 0 24.834 -2.5 36.501 -7.5s21.834 -11.667 30.501 -20s15.5 -18.333 20.5 -30s7.5 -24.167 7.5 -37.5z
M588 843c0 -13.333 -2.5 -25.833 -7.5 -37.5s-11.833 -21.667 -20.5 -30s-18.834 -15 -30.501 -20s-23.834 -7.5 -36.501 -7.5c-13.333 0 -25.666 2.5 -36.999 7.5s-21.333 11.667 -30 20s-15.5 18.333 -20.5 30s-7.5 24.167 -7.5 37.5s2.5 25.833 7.5 37.5
s11.833 21.667 20.5 30s18.667 15 30 20s23.666 7.5 36.999 7.5c12.667 0 24.834 -2.5 36.501 -7.5s21.834 -11.667 30.501 -20s15.5 -18.333 20.5 -30s7.5 -24.167 7.5 -37.5z" />
    <glyph glyph-name="Igrave" unicode="&#xcc;" 
d="M125 700h456v-126h-162l-95 -448h162v-126h-456v126h162l95 448h-162v126zM422 774h-102l-84 136h134z" />
    <glyph glyph-name="Iacute" unicode="&#xcd;" 
d="M125 700h456v-126h-162l-95 -448h162v-126h-456v126h162l95 448h-162v126zM547 898l-109 -124h-102l81 136h130v-12z" />
    <glyph glyph-name="Icircumflex" unicode="&#xce;" 
d="M125 700h456v-126h-162l-95 -448h162v-126h-456v126h162l95 448h-162v126zM224 786l102 124h172l55 -136h-111l-30 88h-12l-61 -88h-115v12z" />
    <glyph glyph-name="Idieresis" unicode="&#xcf;" 
d="M125 700h456v-126h-162l-95 -448h162v-126h-456v126h162l95 448h-162v126zM358 843c0 -13.333 -2.5 -25.833 -7.5 -37.5s-11.833 -21.667 -20.5 -30s-18.834 -15 -30.501 -20s-23.834 -7.5 -36.501 -7.5c-13.333 0 -25.666 2.5 -36.999 7.5s-21.333 11.667 -30 20
s-15.5 18.333 -20.5 30s-7.5 24.167 -7.5 37.5s2.5 25.833 7.5 37.5s11.833 21.667 20.5 30s18.667 15 30 20s23.666 7.5 36.999 7.5c12.667 0 24.834 -2.5 36.501 -7.5s21.834 -11.667 30.501 -20s15.5 -18.333 20.5 -30s7.5 -24.167 7.5 -37.5zM596 843
c0 -13.333 -2.5 -25.833 -7.5 -37.5s-11.833 -21.667 -20.5 -30s-18.834 -15 -30.501 -20s-23.834 -7.5 -36.501 -7.5c-13.333 0 -25.666 2.5 -36.999 7.5s-21.333 11.667 -30 20s-15.5 18.333 -20.5 30s-7.5 24.167 -7.5 37.5s2.5 25.833 7.5 37.5s11.833 21.667 20.5 30
s18.667 15 30 20s23.666 7.5 36.999 7.5c12.667 0 24.834 -2.5 36.501 -7.5s21.834 -11.667 30.501 -20s15.5 -18.333 20.5 -30s7.5 -24.167 7.5 -37.5z" />
    <glyph glyph-name="Eth" unicode="&#xd0;" 
d="M51 410h82.999l35 164h-66v126h265c68 0 120.667 -17.167 158 -51.5s56 -79.833 56 -136.5c0 -9.33301 -0.666992 -19 -2 -29s-3 -20.333 -5 -31l-44 -210c-9.33301 -42.667 -22 -79.167 -38 -109.5s-36.5 -55.333 -61.5 -75s-54.667 -34.167 -89 -43.5
s-74.166 -14 -119.499 -14h-221v126h72l35 164h-58v120zM249.999 126c46 0 80.5 10.834 103.5 32.501s39.167 55.5 48.5 101.5l41 192c1.33301 5.33301 2.5 11.5 3.5 18.5s1.5 13.5 1.5 19.5c0 27.333 -8.33301 48.166 -25 62.499s-42.667 21.5 -78 21.5h-44l-35 -164h73
v-120h-98l-35 -164h44z" />
    <glyph glyph-name="Ntilde" unicode="&#xd1;" 
d="M340 66h18l135 634h126l-149 -700h-246l47 634h-18l-135 -634h-125l148 700h246zM425 883c4 -6 8.5 -11.5 13.5 -16.5s12.167 -7.5 21.5 -7.5c8 0 15.167 2.33301 21.5 7s12.833 11 19.5 19l28 34l68 -57l-62 -70c-22.667 -26.667 -51.334 -40 -86.001 -40
c-13.333 0 -26 3 -38 9s-22.333 15.667 -31 29c-4 6 -8.5 11.5 -13.5 16.5s-12.167 7.5 -21.5 7.5c-8 0 -15.167 -2.33301 -21.5 -7s-12.833 -11 -19.5 -19l-28 -34l-68 57l62 70c22.667 26.667 51.334 40 86.001 40c13.333 0 26 -3 38 -9s22.333 -15.667 31 -29z" />
    <glyph glyph-name="Ograve" unicode="&#xd2;" 
d="M65 428c20.667 98.667 55.167 171.003 103.5 217.003s114.833 69 199.5 69c35.333 0 66.666 -5.5 93.999 -16.5s50.333 -26.333 69 -46s32.834 -42.834 42.501 -69.501s14.5 -55.334 14.5 -86.001c0 -11.333 -0.5 -22.666 -1.5 -33.999s-2.83301 -22.666 -5.5 -33.999
l-33 -156c-20.667 -98.667 -55.167 -171 -103.5 -217s-114.833 -69 -199.5 -69c-35.333 0 -66.666 5.5 -93.999 16.5s-50.333 26.333 -69 46s-32.834 42.667 -42.501 69s-14.5 55.166 -14.5 86.499c0 11.333 0.5 22.666 1.5 33.999s2.83301 22.666 5.5 33.999zM257 106.003
c22.667 0 42.667 4.16602 60 12.499s32.5 19.5 45.5 33.5s23.667 30.667 32 50s14.833 40 19.5 62l37 172c2 10.667 3.5 19.834 4.5 27.501s1.5 15.167 1.5 22.5c0 34 -8.83301 60.5 -26.5 79.5s-42.5 28.5 -74.5 28.5c-22.667 0 -42.667 -4.16699 -60 -12.5
s-32.5 -19.5 -45.5 -33.5s-23.667 -30.667 -32 -50s-14.833 -40 -19.5 -62l-37 -172c-4 -18 -6 -34.667 -6 -50c0 -34 8.83301 -60.5 26.5 -79.5s42.5 -28.5 74.5 -28.5zM438 774.002h-102l-84 136h134z" />
    <glyph glyph-name="Oacute" unicode="&#xd3;" 
d="M65 428c20.667 98.667 55.167 171.003 103.5 217.003s114.833 69 199.5 69c35.333 0 66.666 -5.5 93.999 -16.5s50.333 -26.333 69 -46s32.834 -42.834 42.501 -69.501s14.5 -55.334 14.5 -86.001c0 -11.333 -0.5 -22.666 -1.5 -33.999s-2.83301 -22.666 -5.5 -33.999
l-33 -156c-20.667 -98.667 -55.167 -171 -103.5 -217s-114.833 -69 -199.5 -69c-35.333 0 -66.666 5.5 -93.999 16.5s-50.333 26.333 -69 46s-32.834 42.667 -42.501 69s-14.5 55.166 -14.5 86.499c0 11.333 0.5 22.666 1.5 33.999s2.83301 22.666 5.5 33.999zM257 106.003
c22.667 0 42.667 4.16602 60 12.499s32.5 19.5 45.5 33.5s23.667 30.667 32 50s14.833 40 19.5 62l37 172c2 10.667 3.5 19.834 4.5 27.501s1.5 15.167 1.5 22.5c0 34 -8.83301 60.5 -26.5 79.5s-42.5 28.5 -74.5 28.5c-22.667 0 -42.667 -4.16699 -60 -12.5
s-32.5 -19.5 -45.5 -33.5s-23.667 -30.667 -32 -50s-14.833 -40 -19.5 -62l-37 -172c-4 -18 -6 -34.667 -6 -50c0 -34 8.83301 -60.5 26.5 -79.5s42.5 -28.5 74.5 -28.5zM550 898.002l-109 -124h-102l81 136h130v-12z" />
    <glyph glyph-name="Ocircumflex" unicode="&#xd4;" 
d="M65 428c20.667 98.667 55.167 171.003 103.5 217.003s114.833 69 199.5 69c35.333 0 66.666 -5.5 93.999 -16.5s50.333 -26.333 69 -46s32.834 -42.834 42.501 -69.501s14.5 -55.334 14.5 -86.001c0 -11.333 -0.5 -22.666 -1.5 -33.999s-2.83301 -22.666 -5.5 -33.999
l-33 -156c-20.667 -98.667 -55.167 -171 -103.5 -217s-114.833 -69 -199.5 -69c-35.333 0 -66.666 5.5 -93.999 16.5s-50.333 26.333 -69 46s-32.834 42.667 -42.501 69s-14.5 55.166 -14.5 86.499c0 11.333 0.5 22.666 1.5 33.999s2.83301 22.666 5.5 33.999zM257 106.003
c22.667 0 42.667 4.16602 60 12.499s32.5 19.5 45.5 33.5s23.667 30.667 32 50s14.833 40 19.5 62l37 172c2 10.667 3.5 19.834 4.5 27.501s1.5 15.167 1.5 22.5c0 34 -8.83301 60.5 -26.5 79.5s-42.5 28.5 -74.5 28.5c-22.667 0 -42.667 -4.16699 -60 -12.5
s-32.5 -19.5 -45.5 -33.5s-23.667 -30.667 -32 -50s-14.833 -40 -19.5 -62l-37 -172c-4 -18 -6 -34.667 -6 -50c0 -34 8.83301 -60.5 26.5 -79.5s42.5 -28.5 74.5 -28.5zM237 786.002l102 124h172l55 -136h-111l-30 88h-12l-61 -88h-115v12z" />
    <glyph glyph-name="Otilde" unicode="&#xd5;" 
d="M65 428c20.667 98.667 55.167 171.003 103.5 217.003s114.833 69 199.5 69c35.333 0 66.666 -5.5 93.999 -16.5s50.333 -26.333 69 -46s32.834 -42.834 42.501 -69.501s14.5 -55.334 14.5 -86.001c0 -11.333 -0.5 -22.666 -1.5 -33.999s-2.83301 -22.666 -5.5 -33.999
l-33 -156c-20.667 -98.667 -55.167 -171 -103.5 -217s-114.833 -69 -199.5 -69c-35.333 0 -66.666 5.5 -93.999 16.5s-50.333 26.333 -69 46s-32.834 42.667 -42.501 69s-14.5 55.166 -14.5 86.499c0 11.333 0.5 22.666 1.5 33.999s2.83301 22.666 5.5 33.999zM257 106.003
c22.667 0 42.667 4.16602 60 12.499s32.5 19.5 45.5 33.5s23.667 30.667 32 50s14.833 40 19.5 62l37 172c2 10.667 3.5 19.834 4.5 27.501s1.5 15.167 1.5 22.5c0 34 -8.83301 60.5 -26.5 79.5s-42.5 28.5 -74.5 28.5c-22.667 0 -42.667 -4.16699 -60 -12.5
s-32.5 -19.5 -45.5 -33.5s-23.667 -30.667 -32 -50s-14.833 -40 -19.5 -62l-37 -172c-4 -18 -6 -34.667 -6 -50c0 -34 8.83301 -60.5 26.5 -79.5s42.5 -28.5 74.5 -28.5zM437 885.002c4 -6 8.5 -11.5 13.5 -16.5s12.167 -7.5 21.5 -7.5c8 0 15.167 2.33301 21.5 7
s12.833 11 19.5 19l28 34l68 -57l-62 -70c-22.667 -26.667 -51.334 -40 -86.001 -40c-13.333 0 -26 3 -38 9s-22.333 15.667 -31 29c-4 6 -8.5 11.5 -13.5 16.5s-12.167 7.5 -21.5 7.5c-8 0 -15.167 -2.33301 -21.5 -7s-12.833 -11 -19.5 -19l-28 -34l-68 57l62 70
c22.667 26.667 51.334 40 86.001 40c13.333 0 26 -3 38 -9s22.333 -15.667 31 -29z" />
    <glyph glyph-name="Odieresis" unicode="&#xd6;" 
d="M65 428c20.667 98.667 55.167 171.003 103.5 217.003s114.833 69 199.5 69c35.333 0 66.666 -5.5 93.999 -16.5s50.333 -26.333 69 -46s32.834 -42.834 42.501 -69.501s14.5 -55.334 14.5 -86.001c0 -11.333 -0.5 -22.666 -1.5 -33.999s-2.83301 -22.666 -5.5 -33.999
l-33 -156c-20.667 -98.667 -55.167 -171 -103.5 -217s-114.833 -69 -199.5 -69c-35.333 0 -66.666 5.5 -93.999 16.5s-50.333 26.333 -69 46s-32.834 42.667 -42.501 69s-14.5 55.166 -14.5 86.499c0 11.333 0.5 22.666 1.5 33.999s2.83301 22.666 5.5 33.999zM257 106.003
c22.667 0 42.667 4.16602 60 12.499s32.5 19.5 45.5 33.5s23.667 30.667 32 50s14.833 40 19.5 62l37 172c2 10.667 3.5 19.834 4.5 27.501s1.5 15.167 1.5 22.5c0 34 -8.83301 60.5 -26.5 79.5s-42.5 28.5 -74.5 28.5c-22.667 0 -42.667 -4.16699 -60 -12.5
s-32.5 -19.5 -45.5 -33.5s-23.667 -30.667 -32 -50s-14.833 -40 -19.5 -62l-37 -172c-4 -18 -6 -34.667 -6 -50c0 -34 8.83301 -60.5 26.5 -79.5s42.5 -28.5 74.5 -28.5zM357 843.002c0 -13.333 -2.5 -25.833 -7.5 -37.5s-11.833 -21.667 -20.5 -30s-18.834 -15 -30.501 -20
s-23.834 -7.5 -36.501 -7.5c-13.333 0 -25.666 2.5 -36.999 7.5s-21.333 11.667 -30 20s-15.5 18.333 -20.5 30s-7.5 24.167 -7.5 37.5s2.5 25.833 7.5 37.5s11.833 21.667 20.5 30s18.667 15 30 20s23.666 7.5 36.999 7.5c12.667 0 24.834 -2.5 36.501 -7.5
s21.834 -11.667 30.501 -20s15.5 -18.333 20.5 -30s7.5 -24.167 7.5 -37.5zM595 843.002c0 -13.333 -2.5 -25.833 -7.5 -37.5s-11.833 -21.667 -20.5 -30s-18.834 -15 -30.501 -20s-23.834 -7.5 -36.501 -7.5c-13.333 0 -25.666 2.5 -36.999 7.5s-21.333 11.667 -30 20
s-15.5 18.333 -20.5 30s-7.5 24.167 -7.5 37.5s2.5 25.833 7.5 37.5s11.833 21.667 20.5 30s18.667 15 30 20s23.666 7.5 36.999 7.5c12.667 0 24.834 -2.5 36.501 -7.5s21.834 -11.667 30.501 -20s15.5 -18.333 20.5 -30s7.5 -24.167 7.5 -37.5z" />
    <glyph glyph-name="multiply" unicode="&#xd7;" 
d="M520 481l-132 -131l132 -131l-81 -81l-133 131l-133 -131l-81 81l132 131l-132 131l81 81l133 -131l133 131z" />
    <glyph glyph-name="Oslash" unicode="&#xd8;" 
d="M65 428c20.667 98.667 55.166 170.999 103.499 216.999s114.833 69 199.5 69c13.333 0 25.833 -0.833008 37.5 -2.5s23.167 -4.16699 34.5 -7.5l42 77l92 -53l-42 -78c18 -19.333 31.833 -42.166 41.5 -68.499s14.5 -54.833 14.5 -85.5
c0 -11.333 -0.5 -22.666 -1.5 -33.999s-2.83301 -22.666 -5.5 -33.999l-33 -156c-20.667 -98.667 -55.167 -171 -103.5 -217s-114.833 -69 -199.5 -69c-23.333 0 -45.666 2.66699 -66.999 8l-47 -87l-91 56l45 83c-40 40 -60 92.667 -60 158c0 11.333 0.5 22.666 1.5 33.999
s2.83301 22.666 5.5 33.999zM155.999 213.999c0 -12 1 -22.333 3 -31l221 409c-4 0.666992 -8 1.16699 -12 1.5s-8 0.5 -12 0.5c-22.667 0 -42.667 -4.16699 -60 -12.5s-32.5 -19.5 -45.5 -33.5s-23.667 -30.667 -32 -50s-14.833 -40 -19.5 -62l-37 -172
c-4 -18 -6 -34.667 -6 -50zM256.999 105.999c22.667 0 42.667 4.16602 60 12.499s32.5 19.5 45.5 33.5s23.667 30.667 32 50s14.833 40 19.5 62l37 172c2 10.667 3.5 19.834 4.5 27.501s1.5 15.167 1.5 22.5c0 4 -0.166992 7.83301 -0.5 11.5s-0.833008 7.16699 -1.5 10.5
l-216 -401c2.66699 -0.666992 5.5 -1 8.5 -1h9.5z" />
    <glyph glyph-name="Ugrave" unicode="&#xd9;" 
d="M623 700l-96.999 -457.997c-9.33301 -45.333 -21.833 -84 -37.5 -116s-35.167 -58.5 -58.5 -79.5s-50.5 -36.333 -81.5 -46s-66.833 -14.5 -107.5 -14.5c-30 0 -58 4.5 -84 13.5s-48.333 22 -67 39s-33.334 38 -44.001 63s-16 53.5 -16 85.5
c0 10.667 0.333008 21.167 1 31.5s2.66699 22.166 6 35.499l94 446h132l-97 -458c-1.33301 -7.33301 -2.5 -14.333 -3.5 -21s-1.5 -13.334 -1.5 -20.001c0 -28.667 7.83301 -51 23.5 -67s39.167 -24 70.5 -24c40 0 70.833 10.667 92.5 32s37.167 54.666 46.5 99.999l97 458
h132zM431.001 774.003h-102l-84 136h134z" />
    <glyph glyph-name="Uacute" unicode="&#xda;" 
d="M623 700l-96.999 -457.997c-9.33301 -45.333 -21.833 -84 -37.5 -116s-35.167 -58.5 -58.5 -79.5s-50.5 -36.333 -81.5 -46s-66.833 -14.5 -107.5 -14.5c-30 0 -58 4.5 -84 13.5s-48.333 22 -67 39s-33.334 38 -44.001 63s-16 53.5 -16 85.5
c0 10.667 0.333008 21.167 1 31.5s2.66699 22.166 6 35.499l94 446h132l-97 -458c-1.33301 -7.33301 -2.5 -14.333 -3.5 -21s-1.5 -13.334 -1.5 -20.001c0 -28.667 7.83301 -51 23.5 -67s39.167 -24 70.5 -24c40 0 70.833 10.667 92.5 32s37.167 54.666 46.5 99.999l97 458
h132zM543.001 898.003l-109 -124h-102l81 136h130v-12z" />
    <glyph glyph-name="Ucircumflex" unicode="&#xdb;" 
d="M623 700l-96.999 -457.997c-9.33301 -45.333 -21.833 -84 -37.5 -116s-35.167 -58.5 -58.5 -79.5s-50.5 -36.333 -81.5 -46s-66.833 -14.5 -107.5 -14.5c-30 0 -58 4.5 -84 13.5s-48.333 22 -67 39s-33.334 38 -44.001 63s-16 53.5 -16 85.5
c0 10.667 0.333008 21.167 1 31.5s2.66699 22.166 6 35.499l94 446h132l-97 -458c-1.33301 -7.33301 -2.5 -14.333 -3.5 -21s-1.5 -13.334 -1.5 -20.001c0 -28.667 7.83301 -51 23.5 -67s39.167 -24 70.5 -24c40 0 70.833 10.667 92.5 32s37.167 54.666 46.5 99.999l97 458
h132zM223.001 786.003l102 124h172l55 -136h-111l-30 88h-12l-61 -88h-115v12z" />
    <glyph glyph-name="Udieresis" unicode="&#xdc;" 
d="M623 700l-96.999 -457.997c-9.33301 -45.333 -21.833 -84 -37.5 -116s-35.167 -58.5 -58.5 -79.5s-50.5 -36.333 -81.5 -46s-66.833 -14.5 -107.5 -14.5c-30 0 -58 4.5 -84 13.5s-48.333 22 -67 39s-33.334 38 -44.001 63s-16 53.5 -16 85.5
c0 10.667 0.333008 21.167 1 31.5s2.66699 22.166 6 35.499l94 446h132l-97 -458c-1.33301 -7.33301 -2.5 -14.333 -3.5 -21s-1.5 -13.334 -1.5 -20.001c0 -28.667 7.83301 -51 23.5 -67s39.167 -24 70.5 -24c40 0 70.833 10.667 92.5 32s37.167 54.666 46.5 99.999l97 458
h132zM361.001 843.003c0 -13.333 -2.5 -25.833 -7.5 -37.5s-11.833 -21.667 -20.5 -30s-18.834 -15 -30.501 -20s-23.834 -7.5 -36.501 -7.5c-13.333 0 -25.666 2.5 -36.999 7.5s-21.333 11.667 -30 20s-15.5 18.333 -20.5 30s-7.5 24.167 -7.5 37.5s2.5 25.833 7.5 37.5
s11.833 21.667 20.5 30s18.667 15 30 20s23.666 7.5 36.999 7.5c12.667 0 24.834 -2.5 36.501 -7.5s21.834 -11.667 30.501 -20s15.5 -18.333 20.5 -30s7.5 -24.167 7.5 -37.5zM599.001 843.003c0 -13.333 -2.5 -25.833 -7.5 -37.5s-11.833 -21.667 -20.5 -30
s-18.834 -15 -30.501 -20s-23.834 -7.5 -36.501 -7.5c-13.333 0 -25.666 2.5 -36.999 7.5s-21.333 11.667 -30 20s-15.5 18.333 -20.5 30s-7.5 24.167 -7.5 37.5s2.5 25.833 7.5 37.5s11.833 21.667 20.5 30s18.667 15 30 20s23.666 7.5 36.999 7.5
c12.667 0 24.834 -2.5 36.501 -7.5s21.834 -11.667 30.501 -20s15.5 -18.333 20.5 -30s7.5 -24.167 7.5 -37.5z" />
    <glyph glyph-name="Yacute" unicode="&#xdd;" 
d="M664 688l-290 -442h-30l-52 -246h-132l52 246h-30l-110 454h140l76 -334h18l214 334h144v-12zM529 898l-109 -124h-102l81 136h130v-12z" />
    <glyph glyph-name="Thorn" unicode="&#xde;" 
d="M159 132l-27.999 -131.998h-131l148 700h132l-28 -132h136c27.333 0 52.166 -4.5 74.499 -13.5s41.333 -21.333 57 -37s27.667 -33.834 36 -54.501s12.5 -42.334 12.5 -65.001c0 -36 -5.66699 -70.167 -17 -102.5s-28.333 -60.5 -51 -84.5s-50.5 -43.167 -83.5 -57.5
s-71.5 -21.5 -115.5 -21.5h-142zM186.001 258.002h129c16 0 31.167 2.66699 45.5 8s26.833 13 37.5 23s19.167 21.833 25.5 35.5s9.5 28.834 9.5 45.501c0 23.333 -7.33301 41.166 -22 53.499s-35 18.5 -61 18.5h-125z" />
    <glyph glyph-name="germandbls" unicode="&#xdf;" 
d="M350 346l26.999 0.000976562c22.667 0 44.334 -3.33301 65.001 -10s38.834 -16.667 54.501 -30s28.167 -29.833 37.5 -49.5s14 -42.834 14 -69.501c0 -28 -4.33301 -54.167 -13 -78.5s-21.5 -45.5 -38.5 -63.5s-38.333 -32.333 -64 -43s-55.5 -16 -89.5 -16
c-26.667 0 -50 4 -70 12s-36.667 18.833 -50 32.5s-23.333 29.167 -30 46.5s-10 35.666 -10 54.999l123 22c0 -15.333 3.83301 -27.166 11.5 -35.499s19.167 -12.5 34.5 -12.5c20 0 36 6.16699 48 18.5s18 28.5 18 48.5c0 21.333 -7.33301 37.5 -22 48.5
s-34.667 16.5 -60 16.5h-70v228h62c24 0 44.5 5.5 61.5 16.5s25.5 28.833 25.5 53.5c0 16.667 -6.33301 30.5 -19 41.5s-29.667 16.5 -51 16.5c-62.667 0 -100.667 -32.667 -114 -98l-106 -496h-125l79 376h-48v120h74l3 18c6 34 16.167 63.5 30.5 88.5
s32.166 45.833 53.499 62.5s45.5 29 72.5 37s56.167 12 87.5 12c58.667 0 105.5 -13.833 140.5 -41.5s52.5 -67.5 52.5 -119.5c0 -28.667 -4.83301 -54.167 -14.5 -76.5s-23.167 -41.333 -40.5 -57s-38 -28.167 -62 -37.5s-50 -15.333 -78 -18v-18z" />
    <glyph glyph-name="agrave" unicode="&#xe0;" 
d="M479 119l10.001 -7l48 34l63 -94l-59 -40c-26 -17.333 -53.333 -26 -82 -26c-25.333 0 -48 7 -68 21s-32.667 33.667 -38 59h-18c-6 -11.333 -13 -21.833 -21 -31.5s-17.833 -18 -29.5 -25s-25.334 -12.667 -41.001 -17s-34.167 -6.5 -55.5 -6.5
c-26 0 -50 5.16699 -72 15.5s-41.167 24.666 -57.5 42.999s-29.166 39.833 -38.499 64.5s-14 51.667 -14 81c0 44.667 6 86.334 18 125.001s29.333 72.5 52 101.5s50.5 51.833 83.5 68.5s70.167 25 111.5 25c36.667 0 65.667 -7.33301 87 -22s35.666 -34 42.999 -58h18
l14 66h126zM237.001 106c24 0 45.335 4.83301 64.002 14.5s34.167 22.5 46.5 38.5s21.833 34.833 28.5 56.5s10 44.5 10 68.5c0 31.333 -9 56.833 -27 76.5s-42 29.5 -72 29.5c-24 0 -45.333 -4.83301 -64 -14.5s-34.334 -22.5 -47.001 -38.5s-22.334 -34.833 -29.001 -56.5
s-10 -44.5 -10 -68.5c0 -28 8.16699 -52.667 24.5 -74s41.5 -32 75.5 -32zM332.003 570h-102l-84 136h134z" />
    <glyph glyph-name="aacute" unicode="&#xe1;" 
d="M479 119l10.001 -7l48 34l63 -94l-59 -40c-26 -17.333 -53.333 -26 -82 -26c-25.333 0 -48 7 -68 21s-32.667 33.667 -38 59h-18c-6 -11.333 -13 -21.833 -21 -31.5s-17.833 -18 -29.5 -25s-25.334 -12.667 -41.001 -17s-34.167 -6.5 -55.5 -6.5
c-26 0 -50 5.16699 -72 15.5s-41.167 24.666 -57.5 42.999s-29.166 39.833 -38.499 64.5s-14 51.667 -14 81c0 44.667 6 86.334 18 125.001s29.333 72.5 52 101.5s50.5 51.833 83.5 68.5s70.167 25 111.5 25c36.667 0 65.667 -7.33301 87 -22s35.666 -34 42.999 -58h18
l14 66h126zM237.001 106c24 0 45.335 4.83301 64.002 14.5s34.167 22.5 46.5 38.5s21.833 34.833 28.5 56.5s10 44.5 10 68.5c0 31.333 -9 56.833 -27 76.5s-42 29.5 -72 29.5c-24 0 -45.333 -4.83301 -64 -14.5s-34.334 -22.5 -47.001 -38.5s-22.334 -34.833 -29.001 -56.5
s-10 -44.5 -10 -68.5c0 -28 8.16699 -52.667 24.5 -74s41.5 -32 75.5 -32zM446.003 694l-109 -124h-102l81 136h130v-12z" />
    <glyph glyph-name="acircumflex" unicode="&#xe2;" 
d="M479 119l10.001 -7l48 34l63 -94l-59 -40c-26 -17.333 -53.333 -26 -82 -26c-25.333 0 -48 7 -68 21s-32.667 33.667 -38 59h-18c-6 -11.333 -13 -21.833 -21 -31.5s-17.833 -18 -29.5 -25s-25.334 -12.667 -41.001 -17s-34.167 -6.5 -55.5 -6.5
c-26 0 -50 5.16699 -72 15.5s-41.167 24.666 -57.5 42.999s-29.166 39.833 -38.499 64.5s-14 51.667 -14 81c0 44.667 6 86.334 18 125.001s29.333 72.5 52 101.5s50.5 51.833 83.5 68.5s70.167 25 111.5 25c36.667 0 65.667 -7.33301 87 -22s35.666 -34 42.999 -58h18
l14 66h126zM237.001 106c24 0 45.335 4.83301 64.002 14.5s34.167 22.5 46.5 38.5s21.833 34.833 28.5 56.5s10 44.5 10 68.5c0 31.333 -9 56.833 -27 76.5s-42 29.5 -72 29.5c-24 0 -45.333 -4.83301 -64 -14.5s-34.334 -22.5 -47.001 -38.5s-22.334 -34.833 -29.001 -56.5
s-10 -44.5 -10 -68.5c0 -28 8.16699 -52.667 24.5 -74s41.5 -32 75.5 -32zM151.003 582l102 124h172l55 -136h-111l-30 88h-12l-61 -88h-115v12z" />
    <glyph glyph-name="atilde" unicode="&#xe3;" 
d="M479 119l10.001 -7l48 34l63 -94l-59 -40c-26 -17.333 -53.333 -26 -82 -26c-25.333 0 -48 7 -68 21s-32.667 33.667 -38 59h-18c-6 -11.333 -13 -21.833 -21 -31.5s-17.833 -18 -29.5 -25s-25.334 -12.667 -41.001 -17s-34.167 -6.5 -55.5 -6.5
c-26 0 -50 5.16699 -72 15.5s-41.167 24.666 -57.5 42.999s-29.166 39.833 -38.499 64.5s-14 51.667 -14 81c0 44.667 6 86.334 18 125.001s29.333 72.5 52 101.5s50.5 51.833 83.5 68.5s70.167 25 111.5 25c36.667 0 65.667 -7.33301 87 -22s35.666 -34 42.999 -58h18
l14 66h126zM237.001 106c24 0 45.335 4.83301 64.002 14.5s34.167 22.5 46.5 38.5s21.833 34.833 28.5 56.5s10 44.5 10 68.5c0 31.333 -9 56.833 -27 76.5s-42 29.5 -72 29.5c-24 0 -45.333 -4.83301 -64 -14.5s-34.334 -22.5 -47.001 -38.5s-22.334 -34.833 -29.001 -56.5
s-10 -44.5 -10 -68.5c0 -28 8.16699 -52.667 24.5 -74s41.5 -32 75.5 -32zM368.003 681c4 -6 8.5 -11.5 13.5 -16.5s12.167 -7.5 21.5 -7.5c8 0 15.167 2.33301 21.5 7s12.833 11 19.5 19l28 34l68 -57l-62 -70c-22.667 -26.667 -51.334 -40 -86.001 -40
c-13.333 0 -26 3 -38 9s-22.333 15.667 -31 29c-4 6 -8.5 11.5 -13.5 16.5s-12.167 7.5 -21.5 7.5c-8 0 -15.167 -2.33301 -21.5 -7s-12.833 -11 -19.5 -19l-28 -34l-68 57l62 70c22.667 26.667 51.334 40 86.001 40c13.333 0 26 -3 38 -9s22.333 -15.667 31 -29z" />
    <glyph glyph-name="adieresis" unicode="&#xe4;" 
d="M479 119l10.001 -7l48 34l63 -94l-59 -40c-26 -17.333 -53.333 -26 -82 -26c-25.333 0 -48 7 -68 21s-32.667 33.667 -38 59h-18c-6 -11.333 -13 -21.833 -21 -31.5s-17.833 -18 -29.5 -25s-25.334 -12.667 -41.001 -17s-34.167 -6.5 -55.5 -6.5
c-26 0 -50 5.16699 -72 15.5s-41.167 24.666 -57.5 42.999s-29.166 39.833 -38.499 64.5s-14 51.667 -14 81c0 44.667 6 86.334 18 125.001s29.333 72.5 52 101.5s50.5 51.833 83.5 68.5s70.167 25 111.5 25c36.667 0 65.667 -7.33301 87 -22s35.666 -34 42.999 -58h18
l14 66h126zM237.001 106c24 0 45.335 4.83301 64.002 14.5s34.167 22.5 46.5 38.5s21.833 34.833 28.5 56.5s10 44.5 10 68.5c0 31.333 -9 56.833 -27 76.5s-42 29.5 -72 29.5c-24 0 -45.333 -4.83301 -64 -14.5s-34.334 -22.5 -47.001 -38.5s-22.334 -34.833 -29.001 -56.5
s-10 -44.5 -10 -68.5c0 -28 8.16699 -52.667 24.5 -74s41.5 -32 75.5 -32zM282.003 643c0 -13.333 -2.5 -25.833 -7.5 -37.5s-11.833 -21.667 -20.5 -30s-18.834 -15 -30.501 -20s-23.834 -7.5 -36.501 -7.5c-13.333 0 -25.666 2.5 -36.999 7.5s-21.333 11.667 -30 20
s-15.5 18.333 -20.5 30s-7.5 24.167 -7.5 37.5s2.5 25.833 7.5 37.5s11.833 21.667 20.5 30s18.667 15 30 20s23.666 7.5 36.999 7.5c12.667 0 24.834 -2.5 36.501 -7.5s21.834 -11.667 30.501 -20s15.5 -18.333 20.5 -30s7.5 -24.167 7.5 -37.5zM520.003 643
c0 -13.333 -2.5 -25.833 -7.5 -37.5s-11.833 -21.667 -20.5 -30s-18.834 -15 -30.501 -20s-23.834 -7.5 -36.501 -7.5c-13.333 0 -25.666 2.5 -36.999 7.5s-21.333 11.667 -30 20s-15.5 18.333 -20.5 30s-7.5 24.167 -7.5 37.5s2.5 25.833 7.5 37.5s11.833 21.667 20.5 30
s18.667 15 30 20s23.666 7.5 36.999 7.5c12.667 0 24.834 -2.5 36.501 -7.5s21.834 -11.667 30.501 -20s15.5 -18.333 20.5 -30s7.5 -24.167 7.5 -37.5z" />
    <glyph glyph-name="aring" unicode="&#xe5;" 
d="M479 119l10.001 -7l48 34l63 -94l-59 -40c-26 -17.333 -53.333 -26 -82 -26c-25.333 0 -48 7 -68 21s-32.667 33.667 -38 59h-18c-6 -11.333 -13 -21.833 -21 -31.5s-17.833 -18 -29.5 -25s-25.334 -12.667 -41.001 -17s-34.167 -6.5 -55.5 -6.5
c-26 0 -50 5.16699 -72 15.5s-41.167 24.666 -57.5 42.999s-29.166 39.833 -38.499 64.5s-14 51.667 -14 81c0 44.667 6 86.334 18 125.001s29.333 72.5 52 101.5s50.5 51.833 83.5 68.5s70.167 25 111.5 25c36.667 0 65.667 -7.33301 87 -22s35.666 -34 42.999 -58h18
l14 66h126zM237.001 106c24 0 45.335 4.83301 64.002 14.5s34.167 22.5 46.5 38.5s21.833 34.833 28.5 56.5s10 44.5 10 68.5c0 31.333 -9 56.833 -27 76.5s-42 29.5 -72 29.5c-24 0 -45.333 -4.83301 -64 -14.5s-34.334 -22.5 -47.001 -38.5s-22.334 -34.833 -29.001 -56.5
s-10 -44.5 -10 -68.5c0 -28 8.16699 -52.667 24.5 -74s41.5 -32 75.5 -32zM165.003 676c0 14.667 2.83301 28.667 8.5 42s13.334 24.833 23.001 34.5s21 17.334 34 23.001s27.167 8.5 42.5 8.5c14.667 0 28.667 -2.83301 42 -8.5s24.833 -13.334 34.5 -23.001
s17.334 -21.167 23.001 -34.5s8.5 -27.333 8.5 -42c0 -15.333 -2.83301 -29.5 -8.5 -42.5s-13.334 -24.333 -23.001 -34s-21.167 -17.334 -34.5 -23.001s-27.333 -8.5 -42 -8.5c-15.333 0 -29.5 2.83301 -42.5 8.5s-24.333 13.334 -34 23.001s-17.334 21 -23.001 34
s-8.5 27.167 -8.5 42.5zM243.003 676c0 -8.66699 2.83301 -15.834 8.5 -21.501s12.834 -8.5 21.501 -8.5s15.834 2.83301 21.501 8.5s8.5 12.834 8.5 21.501s-2.83301 15.834 -8.5 21.501s-12.834 8.5 -21.501 8.5s-15.834 -2.83301 -21.501 -8.5s-8.5 -12.834 -8.5 -21.501
z" />
    <glyph glyph-name="ae" unicode="&#xe6;" 
d="M195 188c-17.333 0 -31 -4.33301 -41 -13s-15 -20 -15 -34c0 -12 4 -20.833 12 -26.5s16.667 -8.5 26 -8.5h12l18 82h-12zM424 308c2 6.66699 3 13.666 3 20.999c0 16 -4.66699 28.833 -14 38.5s-22 15.834 -38 18.501l-17 -78h66zM310 509.999
c40.667 0 75.835 -5.16895 105.502 -15.502s54 -24.5 73 -42.5s33 -39.333 42 -64s13.5 -51 13.5 -79c0 -20.667 -2.33301 -42.667 -7 -66l-12 -55h-192l-17 -78c16 0 31.167 3.5 45.5 10.5s26.166 17.5 35.499 31.5l88 -64c-28 -36 -62.167 -62 -102.5 -78
s-88.833 -24 -145.5 -24h-29c-27.333 0 -53 2.5 -77 7.5s-45 13.333 -63 25s-32.167 26.667 -42.5 45s-15.5 40.833 -15.5 67.5c0 26 4.83301 49.833 14.5 71.5s23.5 40.334 41.5 56.001s40.167 27.834 66.5 36.501s56.166 13 89.499 13h10l17 78
c-18 0 -34.333 -4.5 -49 -13.5s-26.667 -21.167 -36 -36.5l-82 70c23.333 32 53.333 57.333 90 76s82.667 28 138 28z" />
    <glyph glyph-name="ccedilla" unicode="&#xe7;" 
d="M534 182c-18 -57.333 -49.3301 -103.5 -93.9971 -138.5s-104.334 -53.833 -179.001 -56.5l-14 -33h12c5.33301 6 12 11.167 20 15.5s18.333 6.5 31 6.5c19.333 0 35.333 -6.66699 48 -20s19 -32.666 19 -57.999c0 -34 -10.5 -60.833 -31.5 -80.5
s-50.833 -29.5 -89.5 -29.5c-22.667 0 -41.334 1.83301 -56.001 5.5s-27 8.5 -37 14.5l37 69c6.66699 -4.66699 14.167 -8.33398 22.5 -11.001s17.833 -4 28.5 -4c11.333 0 20.833 2.5 28.5 7.5s11.5 12.167 11.5 21.5c0 12.667 -6 19 -18 19
c-9.33301 0 -16.333 -4.66699 -21 -14h-97v12l30 85c-45.333 10 -82.5 33 -111.5 69s-43.5 84.667 -43.5 146c0 41.333 7.16699 80.333 21.5 117s35.166 68.667 62.499 96s60.333 49 99 65s82.667 24 132 24c36 0 67.667 -5.33301 95 -16s50 -25.167 68 -43.5
s31.667 -39.833 41 -64.5s14 -50.667 14 -78l-128 -25c0 34 -8.5 60.333 -25.5 79s-44.5 28 -82.5 28c-24 0 -46.167 -4.5 -66.5 -13.5s-38 -21.333 -53 -37s-26.667 -34 -35 -55s-12.5 -43.5 -12.5 -67.5c0 -38 10 -66 30 -84s45.333 -27 76 -27c42 0 74.667 9.33301 98 28
s41 45 53 79z" />
    <glyph glyph-name="egrave" unicode="&#xe8;" 
d="M165 207c-1.33301 -5.33301 -2.00195 -11.0029 -2.00195 -17.0029c0 -24 9.16699 -44 27.5 -60s42.5 -24 72.5 -24c31.333 0 56.333 5.66699 75 17s33 24.666 43 39.999l100 -63c-8 -13.333 -18.5 -26.666 -31.5 -39.999s-29 -25.5 -48 -36.5s-41.333 -20 -67 -27
s-55.5 -10.5 -89.5 -10.5c-30.667 0 -58.834 4.83301 -84.501 14.5s-47.667 23 -66 40s-32.666 37.333 -42.999 61s-15.5 49.834 -15.5 78.501c0 45.333 6.83301 88 20.5 128s33.5 75 59.5 105s58 53.667 96 71s81.667 26 131 26c34.667 0 64.834 -5.5 90.501 -16.5
s46.834 -25.667 63.501 -44s29.167 -39.166 37.5 -62.499s12.5 -47.333 12.5 -72c0 -8 -0.5 -16.167 -1.5 -24.5s-2.83301 -19.166 -5.5 -32.499l-11 -51h-364zM322.998 395.997c-31.333 0 -58.5 -7.83105 -81.5 -23.498s-40.167 -34.834 -51.5 -57.501h234
c0 25.333 -7.83301 45.166 -23.5 59.499s-41.5 21.5 -77.5 21.5zM404.998 569.999h-102l-84 136h134z" />
    <glyph glyph-name="eacute" unicode="&#xe9;" 
d="M165 207c-1.33301 -5.33301 -2.00195 -11.0029 -2.00195 -17.0029c0 -24 9.16699 -44 27.5 -60s42.5 -24 72.5 -24c31.333 0 56.333 5.66699 75 17s33 24.666 43 39.999l100 -63c-8 -13.333 -18.5 -26.666 -31.5 -39.999s-29 -25.5 -48 -36.5s-41.333 -20 -67 -27
s-55.5 -10.5 -89.5 -10.5c-30.667 0 -58.834 4.83301 -84.501 14.5s-47.667 23 -66 40s-32.666 37.333 -42.999 61s-15.5 49.834 -15.5 78.501c0 45.333 6.83301 88 20.5 128s33.5 75 59.5 105s58 53.667 96 71s81.667 26 131 26c34.667 0 64.834 -5.5 90.501 -16.5
s46.834 -25.667 63.501 -44s29.167 -39.166 37.5 -62.499s12.5 -47.333 12.5 -72c0 -8 -0.5 -16.167 -1.5 -24.5s-2.83301 -19.166 -5.5 -32.499l-11 -51h-364zM322.998 395.997c-31.333 0 -58.5 -7.83105 -81.5 -23.498s-40.167 -34.834 -51.5 -57.501h234
c0 25.333 -7.83301 45.166 -23.5 59.499s-41.5 21.5 -77.5 21.5zM513.998 693.999l-109 -124h-102l81 136h130v-12z" />
    <glyph glyph-name="ecircumflex" unicode="&#xea;" 
d="M165 207c-1.33301 -5.33301 -2.00195 -11.0029 -2.00195 -17.0029c0 -24 9.16699 -44 27.5 -60s42.5 -24 72.5 -24c31.333 0 56.333 5.66699 75 17s33 24.666 43 39.999l100 -63c-8 -13.333 -18.5 -26.666 -31.5 -39.999s-29 -25.5 -48 -36.5s-41.333 -20 -67 -27
s-55.5 -10.5 -89.5 -10.5c-30.667 0 -58.834 4.83301 -84.501 14.5s-47.667 23 -66 40s-32.666 37.333 -42.999 61s-15.5 49.834 -15.5 78.501c0 45.333 6.83301 88 20.5 128s33.5 75 59.5 105s58 53.667 96 71s81.667 26 131 26c34.667 0 64.834 -5.5 90.501 -16.5
s46.834 -25.667 63.501 -44s29.167 -39.166 37.5 -62.499s12.5 -47.333 12.5 -72c0 -8 -0.5 -16.167 -1.5 -24.5s-2.83301 -19.166 -5.5 -32.499l-11 -51h-364zM322.998 395.997c-31.333 0 -58.5 -7.83105 -81.5 -23.498s-40.167 -34.834 -51.5 -57.501h234
c0 25.333 -7.83301 45.166 -23.5 59.499s-41.5 21.5 -77.5 21.5zM186.998 581.999l102 124h172l55 -136h-111l-30 88h-12l-61 -88h-115v12z" />
    <glyph glyph-name="edieresis" unicode="&#xeb;" 
d="M165 207c-1.33301 -5.33301 -2.00195 -11.0029 -2.00195 -17.0029c0 -24 9.16699 -44 27.5 -60s42.5 -24 72.5 -24c31.333 0 56.333 5.66699 75 17s33 24.666 43 39.999l100 -63c-8 -13.333 -18.5 -26.666 -31.5 -39.999s-29 -25.5 -48 -36.5s-41.333 -20 -67 -27
s-55.5 -10.5 -89.5 -10.5c-30.667 0 -58.834 4.83301 -84.501 14.5s-47.667 23 -66 40s-32.666 37.333 -42.999 61s-15.5 49.834 -15.5 78.501c0 45.333 6.83301 88 20.5 128s33.5 75 59.5 105s58 53.667 96 71s81.667 26 131 26c34.667 0 64.834 -5.5 90.501 -16.5
s46.834 -25.667 63.501 -44s29.167 -39.166 37.5 -62.499s12.5 -47.333 12.5 -72c0 -8 -0.5 -16.167 -1.5 -24.5s-2.83301 -19.166 -5.5 -32.499l-11 -51h-364zM322.998 395.997c-31.333 0 -58.5 -7.83105 -81.5 -23.498s-40.167 -34.834 -51.5 -57.501h234
c0 25.333 -7.83301 45.166 -23.5 59.499s-41.5 21.5 -77.5 21.5zM326.998 642.999c0 -13.333 -2.5 -25.833 -7.5 -37.5s-11.833 -21.667 -20.5 -30s-18.834 -15 -30.501 -20s-23.834 -7.5 -36.501 -7.5c-13.333 0 -25.666 2.5 -36.999 7.5s-21.333 11.667 -30 20
s-15.5 18.333 -20.5 30s-7.5 24.167 -7.5 37.5s2.5 25.833 7.5 37.5s11.833 21.667 20.5 30s18.667 15 30 20s23.666 7.5 36.999 7.5c12.667 0 24.834 -2.5 36.501 -7.5s21.834 -11.667 30.501 -20s15.5 -18.333 20.5 -30s7.5 -24.167 7.5 -37.5zM564.998 642.999
c0 -13.333 -2.5 -25.833 -7.5 -37.5s-11.833 -21.667 -20.5 -30s-18.834 -15 -30.501 -20s-23.834 -7.5 -36.501 -7.5c-13.333 0 -25.666 2.5 -36.999 7.5s-21.333 11.667 -30 20s-15.5 18.333 -20.5 30s-7.5 24.167 -7.5 37.5s2.5 25.833 7.5 37.5s11.833 21.667 20.5 30
s18.667 15 30 20s23.666 7.5 36.999 7.5c12.667 0 24.834 -2.5 36.501 -7.5s21.834 -11.667 30.501 -20s15.5 -18.333 20.5 -30s7.5 -24.167 7.5 -37.5z" />
    <glyph glyph-name="igrave" unicode="&#xec;" 
d="M380 12c-13.333 -9.33301 -27 -16 -41 -20s-27.667 -6 -41 -6c-14.667 0 -28.667 2.5 -42 7.5s-25 12 -35 21s-17.833 20 -23.5 33s-8.5 27.5 -8.5 43.5c0 12.667 1.33301 24.334 4 35.001l60 251l-10 7l-134 -92l-63 94l145 98c13.333 9.33301 27 16 41 20
s27.667 6 41 6c14.667 0 28.667 -2.5 42 -7.5s25 -12 35 -21s17.833 -20 23.5 -33s8.5 -27.5 8.5 -43.5c0 -12.667 -1.33301 -24.334 -4 -35.001l-60 -251l10 -7l134 92l63 -94l-145 -98v0zM381 570h-102l-84 136h134z" />
    <glyph glyph-name="iacute" unicode="&#xed;" 
d="M380 12c-13.333 -9.33301 -27 -16 -41 -20s-27.667 -6 -41 -6c-14.667 0 -28.667 2.5 -42 7.5s-25 12 -35 21s-17.833 20 -23.5 33s-8.5 27.5 -8.5 43.5c0 12.667 1.33301 24.334 4 35.001l60 251l-10 7l-134 -92l-63 94l145 98c13.333 9.33301 27 16 41 20
s27.667 6 41 6c14.667 0 28.667 -2.5 42 -7.5s25 -12 35 -21s17.833 -20 23.5 -33s8.5 -27.5 8.5 -43.5c0 -12.667 -1.33301 -24.334 -4 -35.001l-60 -251l10 -7l134 92l63 -94l-145 -98v0zM488 694l-109 -124h-102l81 136h130v-12z" />
    <glyph glyph-name="icircumflex" unicode="&#xee;" 
d="M380 12c-13.333 -9.33301 -27 -16 -41 -20s-27.667 -6 -41 -6c-14.667 0 -28.667 2.5 -42 7.5s-25 12 -35 21s-17.833 20 -23.5 33s-8.5 27.5 -8.5 43.5c0 12.667 1.33301 24.334 4 35.001l60 251l-10 7l-134 -92l-63 94l145 98c13.333 9.33301 27 16 41 20
s27.667 6 41 6c14.667 0 28.667 -2.5 42 -7.5s25 -12 35 -21s17.833 -20 23.5 -33s8.5 -27.5 8.5 -43.5c0 -12.667 -1.33301 -24.334 -4 -35.001l-60 -251l10 -7l134 92l63 -94l-145 -98v0zM149 582l102 124h172l55 -136h-111l-30 88h-12l-61 -88h-115v12z" />
    <glyph glyph-name="idieresis" unicode="&#xef;" 
d="M380 12c-13.333 -9.33301 -27 -16 -41 -20s-27.667 -6 -41 -6c-14.667 0 -28.667 2.5 -42 7.5s-25 12 -35 21s-17.833 20 -23.5 33s-8.5 27.5 -8.5 43.5c0 12.667 1.33301 24.334 4 35.001l60 251l-10 7l-134 -92l-63 94l145 98c13.333 9.33301 27 16 41 20
s27.667 6 41 6c14.667 0 28.667 -2.5 42 -7.5s25 -12 35 -21s17.833 -20 23.5 -33s8.5 -27.5 8.5 -43.5c0 -12.667 -1.33301 -24.334 -4 -35.001l-60 -251l10 -7l134 92l63 -94l-145 -98v0zM296 643c0 -13.333 -2.5 -25.833 -7.5 -37.5s-11.833 -21.667 -20.5 -30
s-18.834 -15 -30.501 -20s-23.834 -7.5 -36.501 -7.5c-13.333 0 -25.666 2.5 -36.999 7.5s-21.333 11.667 -30 20s-15.5 18.333 -20.5 30s-7.5 24.167 -7.5 37.5s2.5 25.833 7.5 37.5s11.833 21.667 20.5 30s18.667 15 30 20s23.666 7.5 36.999 7.5
c12.667 0 24.834 -2.5 36.501 -7.5s21.834 -11.667 30.501 -20s15.5 -18.333 20.5 -30s7.5 -24.167 7.5 -37.5zM534 643c0 -13.333 -2.5 -25.833 -7.5 -37.5s-11.833 -21.667 -20.5 -30s-18.834 -15 -30.501 -20s-23.834 -7.5 -36.501 -7.5
c-13.333 0 -25.666 2.5 -36.999 7.5s-21.333 11.667 -30 20s-15.5 18.333 -20.5 30s-7.5 24.167 -7.5 37.5s2.5 25.833 7.5 37.5s11.833 21.667 20.5 30s18.667 15 30 20s23.666 7.5 36.999 7.5c12.667 0 24.834 -2.5 36.501 -7.5s21.834 -11.667 30.501 -20
s15.5 -18.333 20.5 -30s7.5 -24.167 7.5 -37.5z" />
    <glyph glyph-name="eth" unicode="&#xf0;" 
d="M427 464c-3.33301 23.333 -11.666 44.002 -24.999 62.002s-30.666 33.333 -51.999 46l-20 -38l-84 42l16 29c-21.333 4 -43 7 -65 9l44 114c14 -1.33301 27.5 -3 40.5 -5s25.833 -4.66699 38.5 -8l20 37l84 -42l-15 -27c48 -25.333 85.167 -62 111.5 -110
s39.5 -109.667 39.5 -185c0 -46.667 -6.16699 -93.834 -18.5 -141.501s-31.666 -90.834 -57.999 -129.501s-60.5 -70.167 -102.5 -94.5s-92.333 -36.5 -151 -36.5c-32.667 0 -62.334 4.66699 -89.001 14s-49.5 23 -68.5 41s-33.833 40.333 -44.5 67s-16 57 -16 91
c0 38.667 6.66699 76.667 20 114s32.166 70.5 56.499 99.5s53.666 52.5 87.999 70.5s72.833 27 115.5 27c32.667 0 58.167 -4.16699 76.5 -12.5s31.833 -19.5 40.5 -33.5h18zM244 106.002c24 0 45.999 5 65.999 15s37.5 23.5 52.5 40.5s26.667 36.667 35 59
s12.5 45.5 12.5 69.5c0 32 -9.33301 56.667 -28 74s-44.334 26 -77.001 26c-24 0 -46.167 -5.16699 -66.5 -15.5s-37.666 -24 -51.999 -41s-25.666 -36.5 -33.999 -58.5s-12.5 -45 -12.5 -69c0 -33.333 9.33301 -58.333 28 -75s44 -25 76 -25z" />
    <glyph glyph-name="ntilde" unicode="&#xf1;" 
d="M379 288c2.66699 12.667 3.99902 23.333 3.99902 32c0 24 -7 42.667 -21 56s-33 20 -57 20c-30 0 -55.667 -10.667 -77 -32s-35.666 -50 -42.999 -86l-59 -278h-126l105 496h121l-17 -80h18c16 33.333 37.167 57.333 63.5 72s55.5 22 87.5 22
c42 0 75.5 -12.667 100.5 -38s37.5 -61 37.5 -107c0 -10.667 -0.666992 -20.5 -2 -29.5s-3 -18.833 -5 -29.5l-40 -187l10 -7l43 30l63 -94l-54 -36c-25.333 -17.333 -52.333 -26 -81 -26c-14.667 0 -28.667 2.5 -42 7.5s-25 12 -35 21s-18 20 -24 33s-9 27.833 -9 44.5
c0 8.66699 1 18.667 3 30zM376.999 680.999c4 -6 8.5 -11.5 13.5 -16.5s12.167 -7.5 21.5 -7.5c8 0 15.167 2.33301 21.5 7s12.833 11 19.5 19l28 34l68 -57l-62 -70c-22.667 -26.667 -51.334 -40 -86.001 -40c-13.333 0 -26 3 -38 9s-22.333 15.667 -31 29
c-4 6 -8.5 11.5 -13.5 16.5s-12.167 7.5 -21.5 7.5c-8 0 -15.167 -2.33301 -21.5 -7s-12.833 -11 -19.5 -19l-28 -34l-68 57l62 70c22.667 26.667 51.334 40 86.001 40c13.333 0 26 -3 38 -9s22.333 -15.667 31 -29z" />
    <glyph glyph-name="ograve" unicode="&#xf2;" 
d="M558 310c0 -46.667 -6.66895 -89.8311 -20.002 -129.498s-33 -73.834 -59 -102.501s-58.5 -51.167 -97.5 -67.5s-84.167 -24.5 -135.5 -24.5c-29.333 0 -56.833 4.33301 -82.5 13s-48.167 21.5 -67.5 38.5s-34.666 37.833 -45.999 62.5s-17 52.667 -17 84
c0 51.333 8 97.166 24 137.499s37.833 74.5 65.5 102.5s60.334 49.333 98.001 64s78.167 22 121.5 22c31.333 0 60.333 -4.83301 87 -14.5s49.5 -23.167 68.5 -40.5s33.833 -38.333 44.5 -63s16 -52 16 -82zM264.998 104.003c24 0.666992 46.168 5.99902 66.501 15.999
s37.666 23.167 51.999 39.5s25.5 35.5 33.5 57.5s12 45.333 12 70c0 34.667 -9.33301 60.834 -28 78.501s-43.667 26.5 -75 26.5c-24 0 -46 -5.16699 -66 -15.5s-37.333 -24 -52 -41s-26 -36.5 -34 -58.5s-12 -45 -12 -69c0 -34 9.33301 -59.833 28 -77.5
s43.667 -26.5 75 -26.5zM404.999 570.002h-102l-84 136h134z" />
    <glyph glyph-name="oacute" unicode="&#xf3;" 
d="M558 310c0 -46.667 -6.66895 -89.8311 -20.002 -129.498s-33 -73.834 -59 -102.501s-58.5 -51.167 -97.5 -67.5s-84.167 -24.5 -135.5 -24.5c-29.333 0 -56.833 4.33301 -82.5 13s-48.167 21.5 -67.5 38.5s-34.666 37.833 -45.999 62.5s-17 52.667 -17 84
c0 51.333 8 97.166 24 137.499s37.833 74.5 65.5 102.5s60.334 49.333 98.001 64s78.167 22 121.5 22c31.333 0 60.333 -4.83301 87 -14.5s49.5 -23.167 68.5 -40.5s33.833 -38.333 44.5 -63s16 -52 16 -82zM264.998 104.003c24 0.666992 46.168 5.99902 66.501 15.999
s37.666 23.167 51.999 39.5s25.5 35.5 33.5 57.5s12 45.333 12 70c0 34.667 -9.33301 60.834 -28 78.501s-43.667 26.5 -75 26.5c-24 0 -46 -5.16699 -66 -15.5s-37.333 -24 -52 -41s-26 -36.5 -34 -58.5s-12 -45 -12 -69c0 -34 9.33301 -59.833 28 -77.5
s43.667 -26.5 75 -26.5zM512.999 694.002l-109 -124h-102l81 136h130v-12z" />
    <glyph glyph-name="ocircumflex" unicode="&#xf4;" 
d="M558 310c0 -46.667 -6.66895 -89.8311 -20.002 -129.498s-33 -73.834 -59 -102.501s-58.5 -51.167 -97.5 -67.5s-84.167 -24.5 -135.5 -24.5c-29.333 0 -56.833 4.33301 -82.5 13s-48.167 21.5 -67.5 38.5s-34.666 37.833 -45.999 62.5s-17 52.667 -17 84
c0 51.333 8 97.166 24 137.499s37.833 74.5 65.5 102.5s60.334 49.333 98.001 64s78.167 22 121.5 22c31.333 0 60.333 -4.83301 87 -14.5s49.5 -23.167 68.5 -40.5s33.833 -38.333 44.5 -63s16 -52 16 -82zM264.998 104.003c24 0.666992 46.168 5.99902 66.501 15.999
s37.666 23.167 51.999 39.5s25.5 35.5 33.5 57.5s12 45.333 12 70c0 34.667 -9.33301 60.834 -28 78.501s-43.667 26.5 -75 26.5c-24 0 -46 -5.16699 -66 -15.5s-37.333 -24 -52 -41s-26 -36.5 -34 -58.5s-12 -45 -12 -69c0 -34 9.33301 -59.833 28 -77.5
s43.667 -26.5 75 -26.5zM197.999 582.002l102 124h172l55 -136h-111l-30 88h-12l-61 -88h-115v12z" />
    <glyph glyph-name="otilde" unicode="&#xf5;" 
d="M558 310c0 -46.667 -6.66895 -89.8311 -20.002 -129.498s-33 -73.834 -59 -102.501s-58.5 -51.167 -97.5 -67.5s-84.167 -24.5 -135.5 -24.5c-29.333 0 -56.833 4.33301 -82.5 13s-48.167 21.5 -67.5 38.5s-34.666 37.833 -45.999 62.5s-17 52.667 -17 84
c0 51.333 8 97.166 24 137.499s37.833 74.5 65.5 102.5s60.334 49.333 98.001 64s78.167 22 121.5 22c31.333 0 60.333 -4.83301 87 -14.5s49.5 -23.167 68.5 -40.5s33.833 -38.333 44.5 -63s16 -52 16 -82zM264.998 104.003c24 0.666992 46.168 5.99902 66.501 15.999
s37.666 23.167 51.999 39.5s25.5 35.5 33.5 57.5s12 45.333 12 70c0 34.667 -9.33301 60.834 -28 78.501s-43.667 26.5 -75 26.5c-24 0 -46 -5.16699 -66 -15.5s-37.333 -24 -52 -41s-26 -36.5 -34 -58.5s-12 -45 -12 -69c0 -34 9.33301 -59.833 28 -77.5
s43.667 -26.5 75 -26.5zM408.999 681.002c4 -6 8.5 -11.5 13.5 -16.5s12.167 -7.5 21.5 -7.5c8 0 15.167 2.33301 21.5 7s12.833 11 19.5 19l28 34l68 -57l-62 -70c-22.667 -26.667 -51.334 -40 -86.001 -40c-13.333 0 -26 3 -38 9s-22.333 15.667 -31 29
c-4 6 -8.5 11.5 -13.5 16.5s-12.167 7.5 -21.5 7.5c-8 0 -15.167 -2.33301 -21.5 -7s-12.833 -11 -19.5 -19l-28 -34l-68 57l62 70c22.667 26.667 51.334 40 86.001 40c13.333 0 26 -3 38 -9s22.333 -15.667 31 -29z" />
    <glyph glyph-name="odieresis" unicode="&#xf6;" 
d="M558 310c0 -46.667 -6.66895 -89.8311 -20.002 -129.498s-33 -73.834 -59 -102.501s-58.5 -51.167 -97.5 -67.5s-84.167 -24.5 -135.5 -24.5c-29.333 0 -56.833 4.33301 -82.5 13s-48.167 21.5 -67.5 38.5s-34.666 37.833 -45.999 62.5s-17 52.667 -17 84
c0 51.333 8 97.166 24 137.499s37.833 74.5 65.5 102.5s60.334 49.333 98.001 64s78.167 22 121.5 22c31.333 0 60.333 -4.83301 87 -14.5s49.5 -23.167 68.5 -40.5s33.833 -38.333 44.5 -63s16 -52 16 -82zM264.998 104.003c24 0.666992 46.168 5.99902 66.501 15.999
s37.666 23.167 51.999 39.5s25.5 35.5 33.5 57.5s12 45.333 12 70c0 34.667 -9.33301 60.834 -28 78.501s-43.667 26.5 -75 26.5c-24 0 -46 -5.16699 -66 -15.5s-37.333 -24 -52 -41s-26 -36.5 -34 -58.5s-12 -45 -12 -69c0 -34 9.33301 -59.833 28 -77.5
s43.667 -26.5 75 -26.5zM338.999 643.002c0 -13.333 -2.5 -25.833 -7.5 -37.5s-11.833 -21.667 -20.5 -30s-18.834 -15 -30.501 -20s-23.834 -7.5 -36.501 -7.5c-13.333 0 -25.666 2.5 -36.999 7.5s-21.333 11.667 -30 20s-15.5 18.333 -20.5 30s-7.5 24.167 -7.5 37.5
s2.5 25.833 7.5 37.5s11.833 21.667 20.5 30s18.667 15 30 20s23.666 7.5 36.999 7.5c12.667 0 24.834 -2.5 36.501 -7.5s21.834 -11.667 30.501 -20s15.5 -18.333 20.5 -30s7.5 -24.167 7.5 -37.5zM576.999 643.002c0 -13.333 -2.5 -25.833 -7.5 -37.5
s-11.833 -21.667 -20.5 -30s-18.834 -15 -30.501 -20s-23.834 -7.5 -36.501 -7.5c-13.333 0 -25.666 2.5 -36.999 7.5s-21.333 11.667 -30 20s-15.5 18.333 -20.5 30s-7.5 24.167 -7.5 37.5s2.5 25.833 7.5 37.5s11.833 21.667 20.5 30s18.667 15 30 20
s23.666 7.5 36.999 7.5c12.667 0 24.834 -2.5 36.501 -7.5s21.834 -11.667 30.501 -20s15.5 -18.333 20.5 -30s7.5 -24.167 7.5 -37.5z" />
    <glyph glyph-name="divide" unicode="&#xf7;" 
d="M97 407h418v-114h-418v114zM356 159c0 -12 -2.33301 -23.167 -7 -33.5s-10.834 -19.5 -18.501 -27.5s-16.667 -14.167 -27 -18.5s-21.5 -6.5 -33.5 -6.5s-23.167 2.16699 -33.5 6.5s-19.333 10.5 -27 18.5s-13.834 17.167 -18.501 27.5s-7 21.5 -7 33.5
s2.33301 23.167 7 33.5s10.834 19.5 18.501 27.5s16.667 14.167 27 18.5s21.5 6.5 33.5 6.5s23.167 -2.16699 33.5 -6.5s19.333 -10.5 27 -18.5s13.834 -17.167 18.501 -27.5s7 -21.5 7 -33.5zM428 541c0 -12 -2.33301 -23.167 -7 -33.5s-10.834 -19.5 -18.501 -27.5
s-16.667 -14.167 -27 -18.5s-21.5 -6.5 -33.5 -6.5s-23.167 2.16699 -33.5 6.5s-19.333 10.5 -27 18.5s-13.834 17.167 -18.501 27.5s-7 21.5 -7 33.5s2.33301 23.167 7 33.5s10.834 19.5 18.501 27.5s16.667 14.167 27 18.5s21.5 6.5 33.5 6.5s23.167 -2.16699 33.5 -6.5
s19.333 -10.5 27 -18.5s13.834 -17.167 18.501 -27.5s7 -21.5 7 -33.5z" />
    <glyph glyph-name="oslash" unicode="&#xf8;" 
d="M558 310c0 -46.667 -6.66797 -89.832 -20.001 -129.499s-33 -73.834 -59 -102.501s-58.5 -51.167 -97.5 -67.5s-84.167 -24.5 -135.5 -24.5c-5.33301 0 -10.333 0.166992 -15 0.5s-9.66699 0.833008 -15 1.5l-32 -61l-91 55l22 41c-25.333 16.667 -45.333 38.5 -60 65.5
s-22 58.833 -22 95.5c0 51.333 8 97.166 24 137.499s37.833 74.5 65.5 102.5s60.334 49.333 98.001 64s78.167 22 121.5 22c11.333 0 23 -1 35 -3l31 58l94 -50l-24 -45c25.333 -17.333 45 -39.666 59 -66.999s21 -58.333 21 -93zM161.999 208.002
c0 -26.667 5.66699 -48.666 17 -65.999l135 249c-22.667 -2 -43.334 -8.33301 -62.001 -19s-34.667 -24.334 -48 -41.001s-23.666 -35.667 -30.999 -57s-11 -43.333 -11 -66zM428.999 287.003c0 24.667 -5.33301 45.667 -16 63l-133 -245c22 2 42.167 8.33301 60.5 19
s34 24.167 47 40.5s23.167 35 30.5 56s11 43.167 11 66.5z" />
    <glyph glyph-name="ugrave" unicode="&#xf9;" 
d="M223 496l-61.999 -288c-2.66699 -11.333 -4 -22.333 -4 -33c0 -25.333 7 -44.166 21 -56.499s32.667 -18.5 56 -18.5c35.333 0 62.5 11.5 81.5 34.5s33.167 55.5 42.5 97.5l56 264h126l-82 -378l11 -6l36 26l63 -92l-47 -34c-12.667 -9.33301 -25.834 -16 -39.501 -20
s-27.167 -6 -40.5 -6c-27.333 0 -51.333 7.83301 -72 23.5s-32.334 38.5 -35.001 68.5h-18c-14.667 -34 -34.5 -57.833 -59.5 -71.5s-53.167 -20.5 -84.5 -20.5c-43.333 0 -78.666 13.167 -105.999 39.5s-41 63.166 -41 110.499c0 16.667 2 34.667 6 54l66 306h126z
M381.001 570h-102l-84 136h134z" />
    <glyph glyph-name="uacute" unicode="&#xfa;" 
d="M223 496l-61.999 -288c-2.66699 -11.333 -4 -22.333 -4 -33c0 -25.333 7 -44.166 21 -56.499s32.667 -18.5 56 -18.5c35.333 0 62.5 11.5 81.5 34.5s33.167 55.5 42.5 97.5l56 264h126l-82 -378l11 -6l36 26l63 -92l-47 -34c-12.667 -9.33301 -25.834 -16 -39.501 -20
s-27.167 -6 -40.5 -6c-27.333 0 -51.333 7.83301 -72 23.5s-32.334 38.5 -35.001 68.5h-18c-14.667 -34 -34.5 -57.833 -59.5 -71.5s-53.167 -20.5 -84.5 -20.5c-43.333 0 -78.666 13.167 -105.999 39.5s-41 63.166 -41 110.499c0 16.667 2 34.667 6 54l66 306h126z
M492.001 694l-109 -124h-102l81 136h130v-12z" />
    <glyph glyph-name="ucircumflex" unicode="&#xfb;" 
d="M223 496l-61.999 -288c-2.66699 -11.333 -4 -22.333 -4 -33c0 -25.333 7 -44.166 21 -56.499s32.667 -18.5 56 -18.5c35.333 0 62.5 11.5 81.5 34.5s33.167 55.5 42.5 97.5l56 264h126l-82 -378l11 -6l36 26l63 -92l-47 -34c-12.667 -9.33301 -25.834 -16 -39.501 -20
s-27.167 -6 -40.5 -6c-27.333 0 -51.333 7.83301 -72 23.5s-32.334 38.5 -35.001 68.5h-18c-14.667 -34 -34.5 -57.833 -59.5 -71.5s-53.167 -20.5 -84.5 -20.5c-43.333 0 -78.666 13.167 -105.999 39.5s-41 63.166 -41 110.499c0 16.667 2 34.667 6 54l66 306h126z
M164.001 582l102 124h172l55 -136h-111l-30 88h-12l-61 -88h-115v12z" />
    <glyph glyph-name="udieresis" unicode="&#xfc;" 
d="M223 496l-61.999 -288c-2.66699 -11.333 -4 -22.333 -4 -33c0 -25.333 7 -44.166 21 -56.499s32.667 -18.5 56 -18.5c35.333 0 62.5 11.5 81.5 34.5s33.167 55.5 42.5 97.5l56 264h126l-82 -378l11 -6l36 26l63 -92l-47 -34c-12.667 -9.33301 -25.834 -16 -39.501 -20
s-27.167 -6 -40.5 -6c-27.333 0 -51.333 7.83301 -72 23.5s-32.334 38.5 -35.001 68.5h-18c-14.667 -34 -34.5 -57.833 -59.5 -71.5s-53.167 -20.5 -84.5 -20.5c-43.333 0 -78.666 13.167 -105.999 39.5s-41 63.166 -41 110.499c0 16.667 2 34.667 6 54l66 306h126z
M310.001 643c0 -13.333 -2.5 -25.833 -7.5 -37.5s-11.833 -21.667 -20.5 -30s-18.834 -15 -30.501 -20s-23.834 -7.5 -36.501 -7.5c-13.333 0 -25.666 2.5 -36.999 7.5s-21.333 11.667 -30 20s-15.5 18.333 -20.5 30s-7.5 24.167 -7.5 37.5s2.5 25.833 7.5 37.5
s11.833 21.667 20.5 30s18.667 15 30 20s23.666 7.5 36.999 7.5c12.667 0 24.834 -2.5 36.501 -7.5s21.834 -11.667 30.501 -20s15.5 -18.333 20.5 -30s7.5 -24.167 7.5 -37.5zM548.001 643c0 -13.333 -2.5 -25.833 -7.5 -37.5s-11.833 -21.667 -20.5 -30
s-18.834 -15 -30.501 -20s-23.834 -7.5 -36.501 -7.5c-13.333 0 -25.666 2.5 -36.999 7.5s-21.333 11.667 -30 20s-15.5 18.333 -20.5 30s-7.5 24.167 -7.5 37.5s2.5 25.833 7.5 37.5s11.833 21.667 20.5 30s18.667 15 30 20s23.666 7.5 36.999 7.5
c12.667 0 24.834 -2.5 36.501 -7.5s21.834 -11.667 30.501 -20s15.5 -18.333 20.5 -30s7.5 -24.167 7.5 -37.5z" />
    <glyph glyph-name="yacute" unicode="&#xfd;" 
d="M228 208c-1.33301 -4.66699 -2.33105 -9.66699 -2.99805 -15s-1 -10.666 -1 -15.999c0 -25.333 7.33301 -44.5 22 -57.5s34.667 -19.5 60 -19.5c36 0 63.667 11.667 83 35s33.666 57 42.999 101l55 260h126l-131 -618c-4.66699 -22.667 -15.667 -41.334 -33 -56.001
s-37.333 -22 -60 -22h-290v120h239c18 0 29 10 33 30l26 122h-18c-14.667 -30 -33.334 -51.833 -56.001 -65.5s-51 -20.5 -85 -20.5c-20 0 -38.667 3.5 -56 10.5s-32.666 17 -45.999 30s-23.833 29 -31.5 48s-11.5 40.833 -11.5 65.5c0 16.667 2 34 6 52l39 185l-10 7
l-60 -42l-63 94l73 49c12.667 8.66699 25.667 15 39 19s26.666 6 39.999 6c14.667 0 28.667 -2.5 42 -7.5s25 -12 35 -21s18 -20 24 -33s9 -27.833 9 -44.5c0 -9.33301 -1 -19.333 -3 -30zM532.002 694l-109 -124h-102l81 136h130v-12z" />
    <glyph glyph-name="thorn" unicode="&#xfe;" 
d="M82 -200l-126.003 -0.000976562l194 914h126l-64 -290h18c16 28 36.333 49.333 61 64s55.667 22 93 22c22.667 0 44.334 -4.33301 65.001 -13s38.834 -21.334 54.501 -38.001s28 -37.167 37 -61.5s13.5 -52.166 13.5 -83.499c0 -39.333 -4.83301 -78.666 -14.5 -117.999
s-24.834 -74.5 -45.501 -105.5s-47.167 -56.167 -79.5 -75.5s-71.166 -29 -116.499 -29c-21.333 0 -40 2.5 -56 7.5s-29.667 11.5 -41 19.5s-20.666 17.167 -27.999 27.5s-12.333 20.833 -15 31.5h-18zM273.997 105.999c24.667 0 46.333 4.49902 65 13.499
s34.167 21 46.5 36s21.5 32.667 27.5 53s9 41.833 9 64.5c0 34.667 -9 62.834 -27 84.501s-43 32.5 -75 32.5c-22.667 0 -43 -4.5 -61 -13.5s-33.333 -21.5 -46 -37.5s-22.5 -35 -29.5 -57s-10.5 -46 -10.5 -72c0 -31.333 9 -56.5 27 -75.5s42.667 -28.5 74 -28.5z" />
    <glyph glyph-name="ydieresis" unicode="&#xff;" 
d="M228 208c-1.33301 -4.66699 -2.33105 -9.66699 -2.99805 -15s-1 -10.666 -1 -15.999c0 -25.333 7.33301 -44.5 22 -57.5s34.667 -19.5 60 -19.5c36 0 63.667 11.667 83 35s33.666 57 42.999 101l55 260h126l-131 -618c-4.66699 -22.667 -15.667 -41.334 -33 -56.001
s-37.333 -22 -60 -22h-290v120h239c18 0 29 10 33 30l26 122h-18c-14.667 -30 -33.334 -51.833 -56.001 -65.5s-51 -20.5 -85 -20.5c-20 0 -38.667 3.5 -56 10.5s-32.666 17 -45.999 30s-23.833 29 -31.5 48s-11.5 40.833 -11.5 65.5c0 16.667 2 34 6 52l39 185l-10 7
l-60 -42l-63 94l73 49c12.667 8.66699 25.667 15 39 19s26.666 6 39.999 6c14.667 0 28.667 -2.5 42 -7.5s25 -12 35 -21s18 -20 24 -33s9 -27.833 9 -44.5c0 -9.33301 -1 -19.333 -3 -30zM361.002 643c0 -13.333 -2.5 -25.833 -7.5 -37.5s-11.833 -21.667 -20.5 -30
s-18.834 -15 -30.501 -20s-23.834 -7.5 -36.501 -7.5c-13.333 0 -25.666 2.5 -36.999 7.5s-21.333 11.667 -30 20s-15.5 18.333 -20.5 30s-7.5 24.167 -7.5 37.5s2.5 25.833 7.5 37.5s11.833 21.667 20.5 30s18.667 15 30 20s23.666 7.5 36.999 7.5
c12.667 0 24.834 -2.5 36.501 -7.5s21.834 -11.667 30.501 -20s15.5 -18.333 20.5 -30s7.5 -24.167 7.5 -37.5zM599.002 643c0 -13.333 -2.5 -25.833 -7.5 -37.5s-11.833 -21.667 -20.5 -30s-18.834 -15 -30.501 -20s-23.834 -7.5 -36.501 -7.5
c-13.333 0 -25.666 2.5 -36.999 7.5s-21.333 11.667 -30 20s-15.5 18.333 -20.5 30s-7.5 24.167 -7.5 37.5s2.5 25.833 7.5 37.5s11.833 21.667 20.5 30s18.667 15 30 20s23.666 7.5 36.999 7.5c12.667 0 24.834 -2.5 36.501 -7.5s21.834 -11.667 30.501 -20
s15.5 -18.333 20.5 -30s7.5 -24.167 7.5 -37.5z" />
    <glyph glyph-name="Amacron" unicode="&#x100;" 
d="M388 150h-231l-64 -150h-141l308 700h244l17 -700h-131zM210 276h176l-5 358h-18zM530 774h-294v102h294v-102z" />
    <glyph glyph-name="amacron" unicode="&#x101;" 
d="M479 119l10.001 -7l48 34l63 -94l-59 -40c-26 -17.333 -53.333 -26 -82 -26c-25.333 0 -48 7 -68 21s-32.667 33.667 -38 59h-18c-6 -11.333 -13 -21.833 -21 -31.5s-17.833 -18 -29.5 -25s-25.334 -12.667 -41.001 -17s-34.167 -6.5 -55.5 -6.5
c-26 0 -50 5.16699 -72 15.5s-41.167 24.666 -57.5 42.999s-29.166 39.833 -38.499 64.5s-14 51.667 -14 81c0 44.667 6 86.334 18 125.001s29.333 72.5 52 101.5s50.5 51.833 83.5 68.5s70.167 25 111.5 25c36.667 0 65.667 -7.33301 87 -22s35.666 -34 42.999 -58h18
l14 66h126zM237.001 106c24 0 45.335 4.83301 64.002 14.5s34.167 22.5 46.5 38.5s21.833 34.833 28.5 56.5s10 44.5 10 68.5c0 31.333 -9 56.833 -27 76.5s-42 29.5 -72 29.5c-24 0 -45.333 -4.83301 -64 -14.5s-34.334 -22.5 -47.001 -38.5s-22.334 -34.833 -29.001 -56.5
s-10 -44.5 -10 -68.5c0 -28 8.16699 -52.667 24.5 -74s41.5 -32 75.5 -32zM430.003 570h-294v102h294v-102z" />
    <glyph glyph-name="Abreve" unicode="&#x102;" 
d="M388 150h-231l-64 -150h-141l308 700h244l17 -700h-131zM210 276h176l-5 358h-18zM545 910l-3 -13.999c-9.33301 -42 -26.5 -72.833 -51.5 -92.5s-58.5 -29.5 -100.5 -29.5c-34 0 -61.5 9.5 -82.5 28.5s-31.5 42.833 -31.5 71.5c0 3.33301 0.333008 8.16602 1 14.499
s2 13.5 4 21.5h90c-1.33301 -5.33301 -2 -11 -2 -17c0 -20.667 11.333 -31 34 -31c28.667 0 45.667 14 51 42l1 6h90z" />
    <glyph glyph-name="abreve" unicode="&#x103;" 
d="M479 119l10.001 -7l48 34l63 -94l-59 -40c-26 -17.333 -53.333 -26 -82 -26c-25.333 0 -48 7 -68 21s-32.667 33.667 -38 59h-18c-6 -11.333 -13 -21.833 -21 -31.5s-17.833 -18 -29.5 -25s-25.334 -12.667 -41.001 -17s-34.167 -6.5 -55.5 -6.5
c-26 0 -50 5.16699 -72 15.5s-41.167 24.666 -57.5 42.999s-29.166 39.833 -38.499 64.5s-14 51.667 -14 81c0 44.667 6 86.334 18 125.001s29.333 72.5 52 101.5s50.5 51.833 83.5 68.5s70.167 25 111.5 25c36.667 0 65.667 -7.33301 87 -22s35.666 -34 42.999 -58h18
l14 66h126zM237.001 106c24 0 45.335 4.83301 64.002 14.5s34.167 22.5 46.5 38.5s21.833 34.833 28.5 56.5s10 44.5 10 68.5c0 31.333 -9 56.833 -27 76.5s-42 29.5 -72 29.5c-24 0 -45.333 -4.83301 -64 -14.5s-34.334 -22.5 -47.001 -38.5s-22.334 -34.833 -29.001 -56.5
s-10 -44.5 -10 -68.5c0 -28 8.16699 -52.667 24.5 -74s41.5 -32 75.5 -32zM468.003 700l-3 -13.999c-9.33301 -42 -26.5 -72.833 -51.5 -92.5s-58.5 -29.5 -100.5 -29.5c-34 0 -61.5 9.5 -82.5 28.5s-31.5 42.833 -31.5 71.5c0 3.33301 0.333008 8.16602 1 14.499
s2 13.5 4 21.5h90c-1.33301 -5.33301 -2 -11 -2 -17c0 -20.667 11.333 -31 34 -31c28.667 0 45.667 14 51 42l1 6h90z" />
    <glyph glyph-name="Aogonek" unicode="&#x104;" 
d="M475 0l-25 -55.999c-2 -5.33301 -3 -10 -3 -14c0 -10.667 6.33301 -16 19 -16h37v-84h-82c-21.333 0 -38.333 5.33301 -51 16s-19 25.667 -19 45c0 13.333 3.33301 27.666 10 42.999l29 66l-2 150h-231l-64 -150h-141l308 700h244l17 -700h-46zM210 276.001h176l-5 358
h-18z" />
    <glyph glyph-name="aogonek" unicode="&#x105;" 
d="M479 119l10.001 -7l48 34l63 -94l-158 -110c-5.33301 -4 -8 -8.66699 -8 -14c0 -3.33301 1.5 -6.5 4.5 -9.5s7.16699 -4.5 12.5 -4.5h63v-84h-124c-24 0 -43.167 7.5 -57.5 22.5s-21.5 32.5 -21.5 52.5c0 12.667 3.33301 25.167 10 37.5s17 23.833 31 34.5l40 29
c-21.333 14.667 -34.333 34.667 -39 60h-18c-6 -11.333 -13 -21.833 -21 -31.5s-17.833 -18 -29.5 -25s-25.334 -12.667 -41.001 -17s-34.167 -6.5 -55.5 -6.5c-26 0 -50 5.16699 -72 15.5s-41.167 24.666 -57.5 42.999s-29.166 39.833 -38.499 64.5s-14 51.667 -14 81
c0 44.667 6 86.334 18 125.001s29.333 72.5 52 101.5s50.5 51.833 83.5 68.5s70.167 25 111.5 25c36.667 0 65.667 -7.33301 87 -22s35.666 -34 42.999 -58h18l14 66h126zM237.001 106c24 0 45.335 4.83301 64.002 14.5s34.167 22.5 46.5 38.5s21.833 34.833 28.5 56.5
s10 44.5 10 68.5c0 31.333 -9 56.833 -27 76.5s-42 29.5 -72 29.5c-24 0 -45.333 -4.83301 -64 -14.5s-34.334 -22.5 -47.001 -38.5s-22.334 -34.833 -29.001 -56.5s-10 -44.5 -10 -68.5c0 -28 8.16699 -52.667 24.5 -74s41.5 -32 75.5 -32z" />
    <glyph glyph-name="Cacute" unicode="&#x106;" 
d="M255 106c24.667 0 45.833 3.99805 63.5 11.998s32.5 18.5 44.5 31.5s21.5 28 28.5 45s12.5 34.167 16.5 51.5l4 18h132l-4 -18c-9.33301 -43.333 -22 -81.166 -38 -113.499s-36.333 -59.333 -61 -81s-54 -38 -88 -49s-74 -16.5 -120 -16.5c-31.333 0 -60 4.66699 -86 14
s-48.333 23 -67 41s-33.167 39.833 -43.5 65.5s-15.5 55.167 -15.5 88.5c0 12 0.666992 24 2 36s3.66602 25.667 6.99902 41l33 156c20.667 96.667 57.334 168.5 110.001 215.5s121.334 70.5 206.001 70.5c33.333 0 63.166 -5.33301 89.499 -16s48.666 -25.167 66.999 -43.5
s32.333 -39.833 42 -64.5s14.5 -51 14.5 -79c0 -9.33301 -0.666992 -18.666 -2 -27.999s-3 -19 -5 -29l-4 -18h-132l4 18c4 16 6 31.333 6 46c0 26 -7.5 48.167 -22.5 66.5s-41.167 27.5 -78.5 27.5c-22 0 -42 -4.16699 -60 -12.5s-33.667 -19.666 -47 -33.999
s-24.5 -31 -33.5 -50s-15.833 -38.833 -20.5 -59.5l-37 -176c-2 -10 -3.66699 -19.833 -5 -29.5s-2 -18.834 -2 -27.501c0 -30 7.83301 -54 23.5 -72s41.834 -27 78.501 -27zM547.999 897.998l-109 -124h-102l81 136h130v-12z" />
    <glyph glyph-name="cacute" unicode="&#x107;" 
d="M534 182c-18.667 -59.333 -51.832 -106.835 -99.499 -142.502s-111.5 -53.5 -191.5 -53.5c-29.333 0 -57 4.66699 -83 14s-48.667 23.333 -68 42s-34.5 41.834 -45.5 69.501s-16.5 59.834 -16.5 96.501c0 41.333 7.16699 80.333 21.5 117s35.166 68.667 62.499 96
s60.333 49 99 65s82.667 24 132 24c36 0 67.667 -5.33301 95 -16s50 -25.167 68 -43.5s31.667 -39.833 41 -64.5s14 -50.667 14 -78l-128 -25c0 34 -8.5 60.333 -25.5 79s-44.5 28 -82.5 28c-24 0 -46.167 -4.5 -66.5 -13.5s-38 -21.333 -53 -37s-26.667 -34 -35 -55
s-12.5 -43.5 -12.5 -67.5c0 -38 10 -66 30 -84s45.333 -27 76 -27c42 0 74.667 9.33301 98 28s41 45 53 79zM510.002 693.998l-109 -124h-102l81 136h130v-12z" />
    <glyph glyph-name="Ccircumflex" unicode="&#x108;" 
d="M255 106c24.667 0 45.833 3.99805 63.5 11.998s32.5 18.5 44.5 31.5s21.5 28 28.5 45s12.5 34.167 16.5 51.5l4 18h132l-4 -18c-9.33301 -43.333 -22 -81.166 -38 -113.499s-36.333 -59.333 -61 -81s-54 -38 -88 -49s-74 -16.5 -120 -16.5c-31.333 0 -60 4.66699 -86 14
s-48.333 23 -67 41s-33.167 39.833 -43.5 65.5s-15.5 55.167 -15.5 88.5c0 12 0.666992 24 2 36s3.66602 25.667 6.99902 41l33 156c20.667 96.667 57.334 168.5 110.001 215.5s121.334 70.5 206.001 70.5c33.333 0 63.166 -5.33301 89.499 -16s48.666 -25.167 66.999 -43.5
s32.333 -39.833 42 -64.5s14.5 -51 14.5 -79c0 -9.33301 -0.666992 -18.666 -2 -27.999s-3 -19 -5 -29l-4 -18h-132l4 18c4 16 6 31.333 6 46c0 26 -7.5 48.167 -22.5 66.5s-41.167 27.5 -78.5 27.5c-22 0 -42 -4.16699 -60 -12.5s-33.667 -19.666 -47 -33.999
s-24.5 -31 -33.5 -50s-15.833 -38.833 -20.5 -59.5l-37 -176c-2 -10 -3.66699 -19.833 -5 -29.5s-2 -18.834 -2 -27.501c0 -30 7.83301 -54 23.5 -72s41.834 -27 78.501 -27zM223.999 785.998l102 124h172l55 -136h-111l-30 88h-12l-61 -88h-115v12z" />
    <glyph glyph-name="ccircumflex" unicode="&#x109;" 
d="M534 182c-18.667 -59.333 -51.832 -106.835 -99.499 -142.502s-111.5 -53.5 -191.5 -53.5c-29.333 0 -57 4.66699 -83 14s-48.667 23.333 -68 42s-34.5 41.834 -45.5 69.501s-16.5 59.834 -16.5 96.501c0 41.333 7.16699 80.333 21.5 117s35.166 68.667 62.499 96
s60.333 49 99 65s82.667 24 132 24c36 0 67.667 -5.33301 95 -16s50 -25.167 68 -43.5s31.667 -39.833 41 -64.5s14 -50.667 14 -78l-128 -25c0 34 -8.5 60.333 -25.5 79s-44.5 28 -82.5 28c-24 0 -46.167 -4.5 -66.5 -13.5s-38 -21.333 -53 -37s-26.667 -34 -35 -55
s-12.5 -43.5 -12.5 -67.5c0 -38 10 -66 30 -84s45.333 -27 76 -27c42 0 74.667 9.33301 98 28s41 45 53 79zM191.002 581.998l102 124h172l55 -136h-111l-30 88h-12l-61 -88h-115v12z" />
    <glyph glyph-name="Cdotaccent" unicode="&#x10a;" 
d="M255 106c24.667 0 45.833 3.99805 63.5 11.998s32.5 18.5 44.5 31.5s21.5 28 28.5 45s12.5 34.167 16.5 51.5l4 18h132l-4 -18c-9.33301 -43.333 -22 -81.166 -38 -113.499s-36.333 -59.333 -61 -81s-54 -38 -88 -49s-74 -16.5 -120 -16.5c-31.333 0 -60 4.66699 -86 14
s-48.333 23 -67 41s-33.167 39.833 -43.5 65.5s-15.5 55.167 -15.5 88.5c0 12 0.666992 24 2 36s3.66602 25.667 6.99902 41l33 156c20.667 96.667 57.334 168.5 110.001 215.5s121.334 70.5 206.001 70.5c33.333 0 63.166 -5.33301 89.499 -16s48.666 -25.167 66.999 -43.5
s32.333 -39.833 42 -64.5s14.5 -51 14.5 -79c0 -9.33301 -0.666992 -18.666 -2 -27.999s-3 -19 -5 -29l-4 -18h-132l4 18c4 16 6 31.333 6 46c0 26 -7.5 48.167 -22.5 66.5s-41.167 27.5 -78.5 27.5c-22 0 -42 -4.16699 -60 -12.5s-33.667 -19.666 -47 -33.999
s-24.5 -31 -33.5 -50s-15.833 -38.833 -20.5 -59.5l-37 -176c-2 -10 -3.66699 -19.833 -5 -29.5s-2 -18.834 -2 -27.501c0 -30 7.83301 -54 23.5 -72s41.834 -27 78.501 -27zM483.999 872.998c0 -13.333 -2.5 -25.833 -7.5 -37.5s-11.833 -21.667 -20.5 -30
s-18.834 -15 -30.501 -20s-23.834 -7.5 -36.501 -7.5c-13.333 0 -25.666 2.5 -36.999 7.5s-21.333 11.667 -30 20s-15.5 18.333 -20.5 30s-7.5 24.167 -7.5 37.5s2.5 25.833 7.5 37.5s11.833 21.667 20.5 30s18.667 15 30 20s23.666 7.5 36.999 7.5
c12.667 0 24.834 -2.5 36.501 -7.5s21.834 -11.667 30.501 -20s15.5 -18.333 20.5 -30s7.5 -24.167 7.5 -37.5z" />
    <glyph glyph-name="cdotaccent" unicode="&#x10b;" 
d="M534 182c-18.667 -59.333 -51.832 -106.835 -99.499 -142.502s-111.5 -53.5 -191.5 -53.5c-29.333 0 -57 4.66699 -83 14s-48.667 23.333 -68 42s-34.5 41.834 -45.5 69.501s-16.5 59.834 -16.5 96.501c0 41.333 7.16699 80.333 21.5 117s35.166 68.667 62.499 96
s60.333 49 99 65s82.667 24 132 24c36 0 67.667 -5.33301 95 -16s50 -25.167 68 -43.5s31.667 -39.833 41 -64.5s14 -50.667 14 -78l-128 -25c0 34 -8.5 60.333 -25.5 79s-44.5 28 -82.5 28c-24 0 -46.167 -4.5 -66.5 -13.5s-38 -21.333 -53 -37s-26.667 -34 -35 -55
s-12.5 -43.5 -12.5 -67.5c0 -38 10 -66 30 -84s45.333 -27 76 -27c42 0 74.667 9.33301 98 28s41 45 53 79zM443.002 642.998c0 -13.333 -2.5 -25.833 -7.5 -37.5s-11.833 -21.667 -20.5 -30s-18.834 -15 -30.501 -20s-23.834 -7.5 -36.501 -7.5
c-13.333 0 -25.666 2.5 -36.999 7.5s-21.333 11.667 -30 20s-15.5 18.333 -20.5 30s-7.5 24.167 -7.5 37.5s2.5 25.833 7.5 37.5s11.833 21.667 20.5 30s18.667 15 30 20s23.666 7.5 36.999 7.5c12.667 0 24.834 -2.5 36.501 -7.5s21.834 -11.667 30.501 -20
s15.5 -18.333 20.5 -30s7.5 -24.167 7.5 -37.5z" />
    <glyph glyph-name="Ccaron" unicode="&#x10c;" 
d="M255 106c24.667 0 45.833 3.99805 63.5 11.998s32.5 18.5 44.5 31.5s21.5 28 28.5 45s12.5 34.167 16.5 51.5l4 18h132l-4 -18c-9.33301 -43.333 -22 -81.166 -38 -113.499s-36.333 -59.333 -61 -81s-54 -38 -88 -49s-74 -16.5 -120 -16.5c-31.333 0 -60 4.66699 -86 14
s-48.333 23 -67 41s-33.167 39.833 -43.5 65.5s-15.5 55.167 -15.5 88.5c0 12 0.666992 24 2 36s3.66602 25.667 6.99902 41l33 156c20.667 96.667 57.334 168.5 110.001 215.5s121.334 70.5 206.001 70.5c33.333 0 63.166 -5.33301 89.499 -16s48.666 -25.167 66.999 -43.5
s32.333 -39.833 42 -64.5s14.5 -51 14.5 -79c0 -9.33301 -0.666992 -18.666 -2 -27.999s-3 -19 -5 -29l-4 -18h-132l4 18c4 16 6 31.333 6 46c0 26 -7.5 48.167 -22.5 66.5s-41.167 27.5 -78.5 27.5c-22 0 -42 -4.16699 -60 -12.5s-33.667 -19.666 -47 -33.999
s-24.5 -31 -33.5 -50s-15.833 -38.833 -20.5 -59.5l-37 -176c-2 -10 -3.66699 -19.833 -5 -29.5s-2 -18.834 -2 -27.501c0 -30 7.83301 -54 23.5 -72s41.834 -27 78.501 -27zM576.999 897.998l-102 -124h-172l-55 136h111l30 -88h12l61 88h115v-12z" />
    <glyph glyph-name="ccaron" unicode="&#x10d;" 
d="M534 182c-18.667 -59.333 -51.832 -106.835 -99.499 -142.502s-111.5 -53.5 -191.5 -53.5c-29.333 0 -57 4.66699 -83 14s-48.667 23.333 -68 42s-34.5 41.834 -45.5 69.501s-16.5 59.834 -16.5 96.501c0 41.333 7.16699 80.333 21.5 117s35.166 68.667 62.499 96
s60.333 49 99 65s82.667 24 132 24c36 0 67.667 -5.33301 95 -16s50 -25.167 68 -43.5s31.667 -39.833 41 -64.5s14 -50.667 14 -78l-128 -25c0 34 -8.5 60.333 -25.5 79s-44.5 28 -82.5 28c-24 0 -46.167 -4.5 -66.5 -13.5s-38 -21.333 -53 -37s-26.667 -34 -35 -55
s-12.5 -43.5 -12.5 -67.5c0 -38 10 -66 30 -84s45.333 -27 76 -27c42 0 74.667 9.33301 98 28s41 45 53 79zM541.002 693.998l-102 -124h-172l-55 136h111l30 -88h12l61 88h115v-12z" />
    <glyph glyph-name="Dcaron" unicode="&#x10e;" 
d="M103 700h264.999c68 0 120.667 -17.167 158 -51.5s56 -79.833 56 -136.5c0 -9.33301 -0.666992 -19 -2 -29s-3 -20.333 -5 -31l-44 -210c-9.33301 -42.667 -22 -79.167 -38 -109.5s-36.5 -55.333 -61.5 -75s-54.667 -34.167 -89 -43.5s-74.166 -14 -119.499 -14h-221v126
h72l95 448h-66v126zM249.999 126c46 0 80.5 10.834 103.5 32.501s39.167 55.5 48.5 101.5l41 192c1.33301 5.33301 2.5 11.5 3.5 18.5s1.5 13.5 1.5 19.5c0 27.333 -8.33301 48.166 -25 62.499s-42.667 21.5 -78 21.5h-44l-95 -448h44zM548.999 898.001l-102 -124h-172
l-55 136h111l30 -88h12l61 88h115v-12z" />
    <glyph glyph-name="dcaron" unicode="&#x10f;" 
d="M215 66c-11.333 -31.333 -26.835 -52.5 -46.502 -63.5s-43.167 -16.5 -70.5 -16.5c-15.333 0 -29.833 2.83301 -43.5 8.5s-25.667 14 -36 25s-18.666 24.833 -24.999 41.5s-9.5 36 -9.5 58c0 16.667 0.666992 34.667 2 54s4.66602 40 9.99902 62l21 95
c12.667 56 34.5 100 65.5 132s68.167 48 111.5 48c23.333 0 42 -5 56 -15s22.333 -23.667 25 -41h18l55 260h126l-125 -595l10 -7l63 44l63 -94l-74 -50c-13.333 -9.33301 -26.666 -16 -39.999 -20s-26.333 -6 -39 -6c-24 0 -45.167 7 -63.5 21s-30.166 33.667 -35.499 59
h-18zM631.998 496c-6.66699 -30.667 -20.168 -53.334 -40.501 -68.001s-43.166 -22 -68.499 -22h-52v78h53c18.667 0 30 10 34 30l2 12c-10.667 0 -20.667 2.16699 -30 6.5s-17.5 10.333 -24.5 18s-12.5 16.334 -16.5 26.001s-6 19.834 -6 30.501
c0 27.333 9.16699 49.666 27.5 66.999s40.833 26 67.5 26c22.667 0 41.5 -7 56.5 -21s22.5 -32.667 22.5 -56v-9c0 -2.66699 -0.666992 -6.66699 -2 -12zM217.997 390c-24 0 -43 -10.001 -57 -30.001s-24.667 -48 -32 -84l-12 -58c-4 -18 -6 -34.333 -6 -49
c0 -21.333 4.33301 -37.166 13 -47.499s20.667 -15.5 36 -15.5c22 0 39 7.83301 51 23.5s21 37.167 27 64.5l23 108c1.33301 6 2.33301 11.833 3 17.5s1 11.167 1 16.5c0 16 -3.83301 29 -11.5 39s-19.5 15 -35.5 15z" />
    <glyph glyph-name="Dcroat" unicode="&#x110;" 
d="M51 410h82.999l35 164h-66v126h265c68 0 120.667 -17.167 158 -51.5s56 -79.833 56 -136.5c0 -9.33301 -0.666992 -19 -2 -29s-3 -20.333 -5 -31l-44 -210c-9.33301 -42.667 -22 -79.167 -38 -109.5s-36.5 -55.333 -61.5 -75s-54.667 -34.167 -89 -43.5
s-74.166 -14 -119.499 -14h-221v126h72l35 164h-58v120zM249.999 126c46 0 80.5 10.834 103.5 32.501s39.167 55.5 48.5 101.5l41 192c1.33301 5.33301 2.5 11.5 3.5 18.5s1.5 13.5 1.5 19.5c0 27.333 -8.33301 48.166 -25 62.499s-42.667 21.5 -78 21.5h-44l-35 -164h73
v-120h-98l-35 -164h44z" />
    <glyph glyph-name="dcroat" unicode="&#x111;" 
d="M479 119l10 -7l54 38l63 -94l-65 -44c-13.333 -9.33301 -27 -16 -41 -20s-27.667 -6 -41 -6c-25.333 0 -48 7 -68 21s-32.667 33.667 -38 59h-18c-6 -11.333 -13 -21.833 -21 -31.5s-17.833 -18 -29.5 -25s-25.334 -12.667 -41.001 -17s-34.167 -6.5 -55.5 -6.5
c-26 0 -50 5.16699 -72 15.5s-41.167 24.666 -57.5 42.999s-29.166 39.833 -38.499 64.5s-14 51.667 -14 81c0 44.667 6 86.334 18 125.001s29.333 72.5 52 101.5s50.5 51.833 83.5 68.5s70.167 25 111.5 25c35.333 0 64 -8 86 -24s36.333 -36.667 43 -62h18l24 114h-171
v114h195l13 62h127l-13 -62h47v-114h-72l-24 -114zM237 106c24 0 45.335 4.83301 64.002 14.5s34.167 22.5 46.5 38.5s21.833 34.833 28.5 56.5s10 44.5 10 68.5c0 31.333 -9 56.833 -27 76.5s-42 29.5 -72 29.5c-24 0 -45.333 -4.83301 -64 -14.5
s-34.334 -22.5 -47.001 -38.5s-22.334 -34.833 -29.001 -56.5s-10 -44.5 -10 -68.5c0 -28 8.16699 -52.667 24.5 -74s41.5 -32 75.5 -32z" />
    <glyph glyph-name="Emacron" unicode="&#x112;" 
d="M18 12l146 688h415v-126h-310l-34 -160h271v-126h-298l-34 -162h295v-126h-451v12zM531 774h-294v102h294v-102z" />
    <glyph glyph-name="emacron" unicode="&#x113;" 
d="M165 207c-1.33301 -5.33301 -2.00195 -11.0029 -2.00195 -17.0029c0 -24 9.16699 -44 27.5 -60s42.5 -24 72.5 -24c31.333 0 56.333 5.66699 75 17s33 24.666 43 39.999l100 -63c-8 -13.333 -18.5 -26.666 -31.5 -39.999s-29 -25.5 -48 -36.5s-41.333 -20 -67 -27
s-55.5 -10.5 -89.5 -10.5c-30.667 0 -58.834 4.83301 -84.501 14.5s-47.667 23 -66 40s-32.666 37.333 -42.999 61s-15.5 49.834 -15.5 78.501c0 45.333 6.83301 88 20.5 128s33.5 75 59.5 105s58 53.667 96 71s81.667 26 131 26c34.667 0 64.834 -5.5 90.501 -16.5
s46.834 -25.667 63.501 -44s29.167 -39.166 37.5 -62.499s12.5 -47.333 12.5 -72c0 -8 -0.5 -16.167 -1.5 -24.5s-2.83301 -19.166 -5.5 -32.499l-11 -51h-364zM322.998 395.997c-31.333 0 -58.5 -7.83105 -81.5 -23.498s-40.167 -34.834 -51.5 -57.501h234
c0 25.333 -7.83301 45.166 -23.5 59.499s-41.5 21.5 -77.5 21.5zM502.998 569.999h-294v102h294v-102z" />
    <glyph glyph-name="Ebreve" unicode="&#x114;" 
d="M18 12l146 688h415v-126h-310l-34 -160h271v-126h-298l-34 -162h295v-126h-451v12zM534 910l-3 -13.999c-9.33301 -42 -26.5 -72.833 -51.5 -92.5s-58.5 -29.5 -100.5 -29.5c-34 0 -61.5 9.5 -82.5 28.5s-31.5 42.833 -31.5 71.5c0 3.33301 0.333008 8.16602 1 14.499
s2 13.5 4 21.5h90c-1.33301 -5.33301 -2 -11 -2 -17c0 -20.667 11.333 -31 34 -31c28.667 0 45.667 14 51 42l1 6h90z" />
    <glyph glyph-name="ebreve" unicode="&#x115;" 
d="M165 207c-1.33301 -5.33301 -2.00195 -11.0029 -2.00195 -17.0029c0 -24 9.16699 -44 27.5 -60s42.5 -24 72.5 -24c31.333 0 56.333 5.66699 75 17s33 24.666 43 39.999l100 -63c-8 -13.333 -18.5 -26.666 -31.5 -39.999s-29 -25.5 -48 -36.5s-41.333 -20 -67 -27
s-55.5 -10.5 -89.5 -10.5c-30.667 0 -58.834 4.83301 -84.501 14.5s-47.667 23 -66 40s-32.666 37.333 -42.999 61s-15.5 49.834 -15.5 78.501c0 45.333 6.83301 88 20.5 128s33.5 75 59.5 105s58 53.667 96 71s81.667 26 131 26c34.667 0 64.834 -5.5 90.501 -16.5
s46.834 -25.667 63.501 -44s29.167 -39.166 37.5 -62.499s12.5 -47.333 12.5 -72c0 -8 -0.5 -16.167 -1.5 -24.5s-2.83301 -19.166 -5.5 -32.499l-11 -51h-364zM322.998 395.997c-31.333 0 -58.5 -7.83105 -81.5 -23.498s-40.167 -34.834 -51.5 -57.501h234
c0 25.333 -7.83301 45.166 -23.5 59.499s-41.5 21.5 -77.5 21.5zM510.998 699.999l-3 -13.999c-9.33301 -42 -26.5 -72.833 -51.5 -92.5s-58.5 -29.5 -100.5 -29.5c-34 0 -61.5 9.5 -82.5 28.5s-31.5 42.833 -31.5 71.5c0 3.33301 0.333008 8.16602 1 14.499s2 13.5 4 21.5
h90c-1.33301 -5.33301 -2 -11 -2 -17c0 -20.667 11.333 -31 34 -31c28.667 0 45.667 14 51 42l1 6h90z" />
    <glyph glyph-name="Edotaccent" unicode="&#x116;" 
d="M18 12l146 688h415v-126h-310l-34 -160h271v-126h-298l-34 -162h295v-126h-451v12zM485 873c0 -13.333 -2.5 -25.833 -7.5 -37.5s-11.833 -21.667 -20.5 -30s-18.834 -15 -30.501 -20s-23.834 -7.5 -36.501 -7.5c-13.333 0 -25.666 2.5 -36.999 7.5
s-21.333 11.667 -30 20s-15.5 18.333 -20.5 30s-7.5 24.167 -7.5 37.5s2.5 25.833 7.5 37.5s11.833 21.667 20.5 30s18.667 15 30 20s23.666 7.5 36.999 7.5c12.667 0 24.834 -2.5 36.501 -7.5s21.834 -11.667 30.501 -20s15.5 -18.333 20.5 -30s7.5 -24.167 7.5 -37.5z" />
    <glyph glyph-name="edotaccent" unicode="&#x117;" 
d="M165 207c-1.33301 -5.33301 -2.00195 -11.0029 -2.00195 -17.0029c0 -24 9.16699 -44 27.5 -60s42.5 -24 72.5 -24c31.333 0 56.333 5.66699 75 17s33 24.666 43 39.999l100 -63c-8 -13.333 -18.5 -26.666 -31.5 -39.999s-29 -25.5 -48 -36.5s-41.333 -20 -67 -27
s-55.5 -10.5 -89.5 -10.5c-30.667 0 -58.834 4.83301 -84.501 14.5s-47.667 23 -66 40s-32.666 37.333 -42.999 61s-15.5 49.834 -15.5 78.501c0 45.333 6.83301 88 20.5 128s33.5 75 59.5 105s58 53.667 96 71s81.667 26 131 26c34.667 0 64.834 -5.5 90.501 -16.5
s46.834 -25.667 63.501 -44s29.167 -39.166 37.5 -62.499s12.5 -47.333 12.5 -72c0 -8 -0.5 -16.167 -1.5 -24.5s-2.83301 -19.166 -5.5 -32.499l-11 -51h-364zM322.998 395.997c-31.333 0 -58.5 -7.83105 -81.5 -23.498s-40.167 -34.834 -51.5 -57.501h234
c0 25.333 -7.83301 45.166 -23.5 59.499s-41.5 21.5 -77.5 21.5zM445.998 642.999c0 -13.333 -2.5 -25.833 -7.5 -37.5s-11.833 -21.667 -20.5 -30s-18.834 -15 -30.501 -20s-23.834 -7.5 -36.501 -7.5c-13.333 0 -25.666 2.5 -36.999 7.5s-21.333 11.667 -30 20
s-15.5 18.333 -20.5 30s-7.5 24.167 -7.5 37.5s2.5 25.833 7.5 37.5s11.833 21.667 20.5 30s18.667 15 30 20s23.666 7.5 36.999 7.5c12.667 0 24.834 -2.5 36.501 -7.5s21.834 -11.667 30.501 -20s15.5 -18.333 20.5 -30s7.5 -24.167 7.5 -37.5z" />
    <glyph glyph-name="Eogonek" unicode="&#x118;" 
d="M18 12l145.999 688.002h415v-126h-310l-34 -160h271v-126h-298l-34 -162h295v-126l-26 -56c-1.33301 -2.66699 -2.16602 -4.83398 -2.49902 -6.50098s-0.5 -4.16699 -0.5 -7.5c0 -10.667 6.33301 -16 19 -16h37v-84h-82c-21.333 0 -38.333 5.33301 -51 16
s-19 25.667 -19 45c0 13.333 3.33301 27.666 10 42.999l29 66h-365v12z" />
    <glyph glyph-name="eogonek" unicode="&#x119;" 
d="M165 207c-1.33301 -5.33301 -2.00098 -11.002 -2.00098 -17.002c0 -24 9.16699 -44 27.5 -60s42.5 -24 72.5 -24c31.333 0 56.333 5.66699 75 17s33 24.666 43 39.999l100 -63c-14.667 -24.667 -39 -49 -73 -73l-122 -85c-5.33301 -4 -8 -8.66699 -8 -14
c0 -3.33301 1.5 -6.5 4.5 -9.5s7.16699 -4.5 12.5 -4.5h49v-84h-110c-24 0 -42.833 7.33301 -56.5 22s-20.5 31.667 -20.5 51c0 12.667 3.16699 25.334 9.5 38.001s16.166 24.667 29.499 36l15 12c-26 3.33301 -49.667 10.333 -71 21s-39.833 24.167 -55.5 40.5
s-27.667 35.5 -36 57.5s-12.5 46 -12.5 72c0 45.333 6.83301 88 20.5 128s33.5 75 59.5 105s58 53.667 96 71s81.667 26 131 26c34.667 0 64.834 -5.5 90.501 -16.5s46.834 -25.667 63.501 -44s29.167 -39.166 37.5 -62.499s12.5 -47.333 12.5 -72
c0 -8 -0.5 -16.167 -1.5 -24.5s-2.83301 -19.166 -5.5 -32.499l-11 -51h-364zM322.999 395.998c-31.333 0 -58.5 -7.83105 -81.5 -23.498s-40.167 -34.834 -51.5 -57.501h234c0 25.333 -7.83301 45.166 -23.5 59.499s-41.5 21.5 -77.5 21.5z" />
    <glyph glyph-name="Ecaron" unicode="&#x11a;" 
d="M18 12l146 688h415v-126h-310l-34 -160h271v-126h-298l-34 -162h295v-126h-451v12zM571 898l-102 -124h-172l-55 136h111l30 -88h12l61 88h115v-12z" />
    <glyph glyph-name="ecaron" unicode="&#x11b;" 
d="M165 207c-1.33301 -5.33301 -2.00195 -11.0029 -2.00195 -17.0029c0 -24 9.16699 -44 27.5 -60s42.5 -24 72.5 -24c31.333 0 56.333 5.66699 75 17s33 24.666 43 39.999l100 -63c-8 -13.333 -18.5 -26.666 -31.5 -39.999s-29 -25.5 -48 -36.5s-41.333 -20 -67 -27
s-55.5 -10.5 -89.5 -10.5c-30.667 0 -58.834 4.83301 -84.501 14.5s-47.667 23 -66 40s-32.666 37.333 -42.999 61s-15.5 49.834 -15.5 78.501c0 45.333 6.83301 88 20.5 128s33.5 75 59.5 105s58 53.667 96 71s81.667 26 131 26c34.667 0 64.834 -5.5 90.501 -16.5
s46.834 -25.667 63.501 -44s29.167 -39.166 37.5 -62.499s12.5 -47.333 12.5 -72c0 -8 -0.5 -16.167 -1.5 -24.5s-2.83301 -19.166 -5.5 -32.499l-11 -51h-364zM322.998 395.997c-31.333 0 -58.5 -7.83105 -81.5 -23.498s-40.167 -34.834 -51.5 -57.501h234
c0 25.333 -7.83301 45.166 -23.5 59.499s-41.5 21.5 -77.5 21.5zM535.998 693.999l-102 -124h-172l-55 136h111l30 -88h12l61 88h115v-12z" />
    <glyph glyph-name="Gcircumflex" unicode="&#x11c;" 
d="M252 354l309.003 -0.000976562v-12l-72 -342h-120l17 78h-18c-13.333 -26 -33.333 -47.833 -60 -65.5s-62.667 -26.5 -108 -26.5c-26 0 -50 4.16699 -72 12.5s-41 20.833 -57 37.5s-28.5 37.167 -37.5 61.5s-13.5 52.5 -13.5 84.5c0 26 3.33301 54.667 10 86l35 164
c20.667 96.667 57.5 167.834 110.5 213.501s121.833 68.5 206.5 68.5c33.333 0 63.166 -5.16699 89.499 -15.5s48.5 -24.5 66.5 -42.5s31.833 -38.833 41.5 -62.5s14.5 -48.834 14.5 -75.501c0 -9.33301 -0.666992 -19.166 -2 -29.499s-3 -19.833 -5 -28.5l-3 -12h-132l3 12
c2 8 3.33301 15 4 21s1 12 1 18c0 28 -8.66699 49.833 -26 65.5s-42.666 23.5 -75.999 23.5c-18.667 0 -36.334 -3 -53.001 -9s-32.167 -15.5 -46.5 -28.5s-26.833 -30 -37.5 -51s-19.334 -46.833 -26.001 -77.5l-32 -148c-2.66699 -12 -4.33398 -22 -5.00098 -30
s-1 -16 -1 -24c0 -36 9.33301 -63 28 -81s44 -27 76 -27c39.333 0 71.5 10.5 96.5 31.5s41.167 49.167 48.5 84.5h-154v126zM233.003 785.999l102 124h172l55 -136h-111l-30 88h-12l-61 -88h-115v12z" />
    <glyph glyph-name="gcircumflex" unicode="&#x11d;" 
d="M384 72h-18.002c-7.33301 -11.333 -15.666 -22.166 -24.999 -32.499s-20.666 -19.5 -33.999 -27.5s-29.333 -14.333 -48 -19s-40.334 -7 -65.001 -7c-24 0 -46.5 4 -67.5 12s-39.167 20 -54.5 36s-27.5 36.167 -36.5 60.5s-13.5 52.833 -13.5 85.5
c0 41.333 6.16699 81.833 18.5 121.5s30.5 75 54.5 106s53.833 55.833 89.5 74.5s77.167 28 124.5 28c40.667 0 71.5 -7.83301 92.5 -23.5s34.167 -36.5 39.5 -62.5h18l15 72h126l-131 -618c-5.33301 -22.667 -16.666 -41.334 -33.999 -56.001s-37.333 -22 -60 -22h-308v120
h258c18 0 29 10 33 30zM258.998 106c24 0 46.167 5.00098 66.5 15.001s38 23.333 53 40s26.667 36 35 58s12.5 45 12.5 69c0 32 -9.33301 57 -28 75s-45 27 -79 27c-25.333 0 -48.333 -5 -69 -15s-38.167 -23.167 -52.5 -39.5s-25.5 -35.333 -33.5 -57
s-12 -43.834 -12 -66.501c0 -35.333 9.83301 -61.833 29.5 -79.5s45.5 -26.5 77.5 -26.5zM168.998 582.001l102 124h172l55 -136h-111l-30 88h-12l-61 -88h-115v12z" />
    <glyph glyph-name="Gbreve" unicode="&#x11e;" 
d="M252 354l309.003 -0.000976562v-12l-72 -342h-120l17 78h-18c-13.333 -26 -33.333 -47.833 -60 -65.5s-62.667 -26.5 -108 -26.5c-26 0 -50 4.16699 -72 12.5s-41 20.833 -57 37.5s-28.5 37.167 -37.5 61.5s-13.5 52.5 -13.5 84.5c0 26 3.33301 54.667 10 86l35 164
c20.667 96.667 57.5 167.834 110.5 213.501s121.833 68.5 206.5 68.5c33.333 0 63.166 -5.16699 89.499 -15.5s48.5 -24.5 66.5 -42.5s31.833 -38.833 41.5 -62.5s14.5 -48.834 14.5 -75.501c0 -9.33301 -0.666992 -19.166 -2 -29.499s-3 -19.833 -5 -28.5l-3 -12h-132l3 12
c2 8 3.33301 15 4 21s1 12 1 18c0 28 -8.66699 49.833 -26 65.5s-42.666 23.5 -75.999 23.5c-18.667 0 -36.334 -3 -53.001 -9s-32.167 -15.5 -46.5 -28.5s-26.833 -30 -37.5 -51s-19.334 -46.833 -26.001 -77.5l-32 -148c-2.66699 -12 -4.33398 -22 -5.00098 -30
s-1 -16 -1 -24c0 -36 9.33301 -63 28 -81s44 -27 76 -27c39.333 0 71.5 10.5 96.5 31.5s41.167 49.167 48.5 84.5h-154v126zM544.003 909.999l-3 -13.999c-9.33301 -42 -26.5 -72.833 -51.5 -92.5s-58.5 -29.5 -100.5 -29.5c-34 0 -61.5 9.5 -82.5 28.5
s-31.5 42.833 -31.5 71.5c0 3.33301 0.333008 8.16602 1 14.499s2 13.5 4 21.5h90c-1.33301 -5.33301 -2 -11 -2 -17c0 -20.667 11.333 -31 34 -31c28.667 0 45.667 14 51 42l1 6h90z" />
    <glyph glyph-name="gbreve" unicode="&#x11f;" 
d="M384 72h-18.002c-7.33301 -11.333 -15.666 -22.166 -24.999 -32.499s-20.666 -19.5 -33.999 -27.5s-29.333 -14.333 -48 -19s-40.334 -7 -65.001 -7c-24 0 -46.5 4 -67.5 12s-39.167 20 -54.5 36s-27.5 36.167 -36.5 60.5s-13.5 52.833 -13.5 85.5
c0 41.333 6.16699 81.833 18.5 121.5s30.5 75 54.5 106s53.833 55.833 89.5 74.5s77.167 28 124.5 28c40.667 0 71.5 -7.83301 92.5 -23.5s34.167 -36.5 39.5 -62.5h18l15 72h126l-131 -618c-5.33301 -22.667 -16.666 -41.334 -33.999 -56.001s-37.333 -22 -60 -22h-308v120
h258c18 0 29 10 33 30zM258.998 106c24 0 46.167 5.00098 66.5 15.001s38 23.333 53 40s26.667 36 35 58s12.5 45 12.5 69c0 32 -9.33301 57 -28 75s-45 27 -79 27c-25.333 0 -48.333 -5 -69 -15s-38.167 -23.167 -52.5 -39.5s-25.5 -35.333 -33.5 -57
s-12 -43.834 -12 -66.501c0 -35.333 9.83301 -61.833 29.5 -79.5s45.5 -26.5 77.5 -26.5zM490.998 700.001l-3 -13.999c-9.33301 -42 -26.5 -72.833 -51.5 -92.5s-58.5 -29.5 -100.5 -29.5c-34 0 -61.5 9.5 -82.5 28.5s-31.5 42.833 -31.5 71.5
c0 3.33301 0.333008 8.16602 1 14.499s2 13.5 4 21.5h90c-1.33301 -5.33301 -2 -11 -2 -17c0 -20.667 11.333 -31 34 -31c28.667 0 45.667 14 51 42l1 6h90z" />
    <glyph glyph-name="Gdotaccent" unicode="&#x120;" 
d="M252 354l309.003 -0.000976562v-12l-72 -342h-120l17 78h-18c-13.333 -26 -33.333 -47.833 -60 -65.5s-62.667 -26.5 -108 -26.5c-26 0 -50 4.16699 -72 12.5s-41 20.833 -57 37.5s-28.5 37.167 -37.5 61.5s-13.5 52.5 -13.5 84.5c0 26 3.33301 54.667 10 86l35 164
c20.667 96.667 57.5 167.834 110.5 213.501s121.833 68.5 206.5 68.5c33.333 0 63.166 -5.16699 89.499 -15.5s48.5 -24.5 66.5 -42.5s31.833 -38.833 41.5 -62.5s14.5 -48.834 14.5 -75.501c0 -9.33301 -0.666992 -19.166 -2 -29.499s-3 -19.833 -5 -28.5l-3 -12h-132l3 12
c2 8 3.33301 15 4 21s1 12 1 18c0 28 -8.66699 49.833 -26 65.5s-42.666 23.5 -75.999 23.5c-18.667 0 -36.334 -3 -53.001 -9s-32.167 -15.5 -46.5 -28.5s-26.833 -30 -37.5 -51s-19.334 -46.833 -26.001 -77.5l-32 -148c-2.66699 -12 -4.33398 -22 -5.00098 -30
s-1 -16 -1 -24c0 -36 9.33301 -63 28 -81s44 -27 76 -27c39.333 0 71.5 10.5 96.5 31.5s41.167 49.167 48.5 84.5h-154v126zM490.003 872.999c0 -13.333 -2.5 -25.833 -7.5 -37.5s-11.833 -21.667 -20.5 -30s-18.834 -15 -30.501 -20s-23.834 -7.5 -36.501 -7.5
c-13.333 0 -25.666 2.5 -36.999 7.5s-21.333 11.667 -30 20s-15.5 18.333 -20.5 30s-7.5 24.167 -7.5 37.5s2.5 25.833 7.5 37.5s11.833 21.667 20.5 30s18.667 15 30 20s23.666 7.5 36.999 7.5c12.667 0 24.834 -2.5 36.501 -7.5s21.834 -11.667 30.501 -20
s15.5 -18.333 20.5 -30s7.5 -24.167 7.5 -37.5z" />
    <glyph glyph-name="gdotaccent" unicode="&#x121;" 
d="M384 72h-18.002c-7.33301 -11.333 -15.666 -22.166 -24.999 -32.499s-20.666 -19.5 -33.999 -27.5s-29.333 -14.333 -48 -19s-40.334 -7 -65.001 -7c-24 0 -46.5 4 -67.5 12s-39.167 20 -54.5 36s-27.5 36.167 -36.5 60.5s-13.5 52.833 -13.5 85.5
c0 41.333 6.16699 81.833 18.5 121.5s30.5 75 54.5 106s53.833 55.833 89.5 74.5s77.167 28 124.5 28c40.667 0 71.5 -7.83301 92.5 -23.5s34.167 -36.5 39.5 -62.5h18l15 72h126l-131 -618c-5.33301 -22.667 -16.666 -41.334 -33.999 -56.001s-37.333 -22 -60 -22h-308v120
h258c18 0 29 10 33 30zM258.998 106c24 0 46.167 5.00098 66.5 15.001s38 23.333 53 40s26.667 36 35 58s12.5 45 12.5 69c0 32 -9.33301 57 -28 75s-45 27 -79 27c-25.333 0 -48.333 -5 -69 -15s-38.167 -23.167 -52.5 -39.5s-25.5 -35.333 -33.5 -57
s-12 -43.834 -12 -66.501c0 -35.333 9.83301 -61.833 29.5 -79.5s45.5 -26.5 77.5 -26.5zM414.998 643.001c0 -13.333 -2.5 -25.833 -7.5 -37.5s-11.833 -21.667 -20.5 -30s-18.834 -15 -30.501 -20s-23.834 -7.5 -36.501 -7.5c-13.333 0 -25.666 2.5 -36.999 7.5
s-21.333 11.667 -30 20s-15.5 18.333 -20.5 30s-7.5 24.167 -7.5 37.5s2.5 25.833 7.5 37.5s11.833 21.667 20.5 30s18.667 15 30 20s23.666 7.5 36.999 7.5c12.667 0 24.834 -2.5 36.501 -7.5s21.834 -11.667 30.501 -20s15.5 -18.333 20.5 -30s7.5 -24.167 7.5 -37.5z" />
    <glyph glyph-name="uni0122" unicode="&#x122;" 
d="M105 -134c0 12.667 2.33398 24.4971 7.00098 35.4971s11.167 20.5 19.5 28.5s18 14.333 29 19s22.833 7 35.5 7c12 0 23.5 -2.33301 34.5 -7s20.667 -11.167 29 -19.5s15 -18 20 -29s7.5 -22.833 7.5 -35.5c0 -3.33301 -0.166992 -6.66602 -0.5 -9.99902
s-0.833008 -6.66602 -1.5 -9.99902l-24 -114c-5.33301 -23.333 -17 -40.666 -35 -51.999s-40 -17 -66 -17h-48v78h42c11.333 0 19.833 1.5 25.5 4.5s9.16699 9.16699 10.5 18.5l3 19c-10.667 0 -21.334 1.66699 -32.001 5s-20.167 8.5 -28.5 15.5s-15 15.667 -20 26
s-7.5 22.833 -7.5 37.5zM252.001 353.997l309.003 -0.000976562v-12l-72 -342h-120l17 78h-18c-13.333 -26 -33.333 -47.833 -60 -65.5s-62.667 -26.5 -108 -26.5c-26 0 -50 4.16699 -72 12.5s-41 20.833 -57 37.5s-28.5 37.167 -37.5 61.5s-13.5 52.5 -13.5 84.5
c0 26 3.33301 54.667 10 86l35 164c20.667 96.667 57.5 167.834 110.5 213.501s121.833 68.5 206.5 68.5c33.333 0 63.166 -5.16699 89.499 -15.5s48.5 -24.5 66.5 -42.5s31.833 -38.833 41.5 -62.5s14.5 -48.834 14.5 -75.501c0 -9.33301 -0.666992 -19.166 -2 -29.499
s-3 -19.833 -5 -28.5l-3 -12h-132l3 12c2 8 3.33301 15 4 21s1 12 1 18c0 28 -8.66699 49.833 -26 65.5s-42.666 23.5 -75.999 23.5c-18.667 0 -36.334 -3 -53.001 -9s-32.167 -15.5 -46.5 -28.5s-26.833 -30 -37.5 -51s-19.334 -46.833 -26.001 -77.5l-32 -148
c-2.66699 -12 -4.33398 -22 -5.00098 -30s-1 -16 -1 -24c0 -36 9.33301 -63 28 -81s44 -27 76 -27c39.333 0 71.5 10.5 96.5 31.5s41.167 49.167 48.5 84.5h-154v126z" />
    <glyph glyph-name="uni0123" unicode="&#x123;" 
d="M435 664c0 -26 -8.83203 -47.5 -26.499 -64.5s-38.834 -25.5 -63.501 -25.5c-12.667 0 -24.5 2.33301 -35.5 7s-20.667 11.167 -29 19.5s-14.833 18 -19.5 29s-7 22.833 -7 35.5c0 3.33301 0.166992 6.5 0.5 9.5s0.833008 6.16699 1.5 9.5l23 114
c5.33301 24 17 41.667 35 53s40 17 66 17h73v-78h-67c-10.667 0 -18.834 -1.66699 -24.501 -5s-9.5 -9.66602 -11.5 -18.999l-3 -18c10.667 0 21.334 -1.5 32.001 -4.5s20.167 -8 28.5 -15s15 -15.833 20 -26.5s7.5 -23.334 7.5 -38.001zM384.001 72h-18.002
c-7.33301 -11.333 -15.666 -22.166 -24.999 -32.499s-20.666 -19.5 -33.999 -27.5s-29.333 -14.333 -48 -19s-40.334 -7 -65.001 -7c-24 0 -46.5 4 -67.5 12s-39.167 20 -54.5 36s-27.5 36.167 -36.5 60.5s-13.5 52.833 -13.5 85.5c0 41.333 6.16699 81.833 18.5 121.5
s30.5 75 54.5 106s53.833 55.833 89.5 74.5s77.167 28 124.5 28c40.667 0 71.5 -7.83301 92.5 -23.5s34.167 -36.5 39.5 -62.5h18l15 72h126l-131 -618c-5.33301 -22.667 -16.666 -41.334 -33.999 -56.001s-37.333 -22 -60 -22h-308v120h258c18 0 29 10 33 30zM258.999 106
c24 0 46.167 5.00098 66.5 15.001s38 23.333 53 40s26.667 36 35 58s12.5 45 12.5 69c0 32 -9.33301 57 -28 75s-45 27 -79 27c-25.333 0 -48.333 -5 -69 -15s-38.167 -23.167 -52.5 -39.5s-25.5 -35.333 -33.5 -57s-12 -43.834 -12 -66.501
c0 -35.333 9.83301 -61.833 29.5 -79.5s45.5 -26.5 77.5 -26.5z" />
    <glyph glyph-name="Hcircumflex" unicode="&#x124;" 
d="M148 700h132l-61 -286h200l61 286h132l-149 -700h-132l61 288h-200l-61 -288h-131zM217 786l102 124h172l55 -136h-111l-30 88h-12l-61 -88h-115v12z" />
    <glyph glyph-name="hcircumflex" unicode="&#x125;" 
d="M385 288c1.33301 7.33301 2.33496 13.1689 3.00195 17.502s1 9.16602 1 14.499c0 24 -7 42.667 -21 56s-33 20 -57 20c-34 0 -61.833 -12 -83.5 -36s-36.834 -56 -45.501 -96l-56 -264h-126l152 714h126l-61 -286h18c34 54.667 82.667 82 146 82
c41.333 0 75.166 -12.333 101.499 -37s39.5 -60.667 39.5 -108c0 -9.33301 -0.666992 -18.833 -2 -28.5s-3 -19.834 -5 -30.501l-40 -187l10 -7l64 44l63 -94l-75 -50c-25.333 -17.333 -52.333 -26 -81 -26c-14.667 0 -28.667 2.5 -42 7.5s-25 12.167 -35 21.5
s-18 20.666 -24 33.999s-9 28.333 -9 45c0 8.66699 1.33301 19.334 4 32.001zM172.002 786.003l102 124h172l55 -136h-111l-30 88h-12l-61 -88h-115v12z" />
    <glyph glyph-name="Hbar" unicode="&#x126;" 
d="M50 616h80l18 84h132l-18 -84h194l18 84h132l-18 -84h55v-120h-81l-105 -496h-132l61 288h-194l-61 -288h-131l105 496h-55v120zM413 414l17 82h-194l-17 -82h194z" />
    <glyph glyph-name="hbar" unicode="&#x127;" 
d="M385 288c1.33301 7.33301 2.33496 13.1689 3.00195 17.502s1 9.16602 1 14.499c0 24 -7 42.667 -21 56s-33 20 -57 20c-34 0 -61.833 -12 -83.5 -36s-36.834 -56 -45.501 -96l-56 -264h-126l114 538h-48v114h73l13 62h126l-13 -62h116v-114h-141l-23 -110h18
c34 54.667 82.667 82 146 82c41.333 0 75.166 -12.333 101.499 -37s39.5 -60.667 39.5 -108c0 -9.33301 -0.666992 -18.833 -2 -28.5s-3 -19.834 -5 -30.501l-40 -187l10 -7l64 44l63 -94l-75 -50c-25.333 -17.333 -52.333 -26 -81 -26c-14.667 0 -28.667 2.5 -42 7.5
s-25 12.167 -35 21.5s-18 20.666 -24 33.999s-9 28.333 -9 45c0 8.66699 1.33301 19.334 4 32.001z" />
    <glyph glyph-name="Itilde" unicode="&#x128;" 
d="M125 700h456v-126h-162l-95 -448h162v-126h-456v126h162l95 448h-162v126zM416 883c4 -6 8.5 -11.5 13.5 -16.5s12.167 -7.5 21.5 -7.5c8 0 15.167 2.33301 21.5 7s12.833 11 19.5 19l28 34l68 -57l-62 -70c-22.667 -26.667 -51.334 -40 -86.001 -40
c-13.333 0 -26 3 -38 9s-22.333 15.667 -31 29c-4 6 -8.5 11.5 -13.5 16.5s-12.167 7.5 -21.5 7.5c-8 0 -15.167 -2.33301 -21.5 -7s-12.833 -11 -19.5 -19l-28 -34l-68 57l62 70c22.667 26.667 51.334 40 86.001 40c13.333 0 26 -3 38 -9s22.333 -15.667 31 -29z" />
    <glyph glyph-name="itilde" unicode="&#x129;" 
d="M380 12c-13.333 -9.33301 -27 -16 -41 -20s-27.667 -6 -41 -6c-14.667 0 -28.667 2.5 -42 7.5s-25 12 -35 21s-17.833 20 -23.5 33s-8.5 27.5 -8.5 43.5c0 12.667 1.33301 24.334 4 35.001l60 251l-10 7l-134 -92l-63 94l145 98c13.333 9.33301 27 16 41 20
s27.667 6 41 6c14.667 0 28.667 -2.5 42 -7.5s25 -12 35 -21s17.833 -20 23.5 -33s8.5 -27.5 8.5 -43.5c0 -12.667 -1.33301 -24.334 -4 -35.001l-60 -251l10 -7l134 92l63 -94l-145 -98v0zM361 687c4 -6 8.5 -11.5 13.5 -16.5s12.167 -7.5 21.5 -7.5
c8 0 15.167 2.33301 21.5 7s12.833 11 19.5 19l28 34l68 -57l-62 -70c-22.667 -26.667 -51.334 -40 -86.001 -40c-13.333 0 -26 3 -38 9s-22.333 15.667 -31 29c-4 6 -8.5 11.5 -13.5 16.5s-12.167 7.5 -21.5 7.5c-8 0 -15.167 -2.33301 -21.5 -7s-12.833 -11 -19.5 -19
l-28 -34l-68 57l62 70c22.667 26.667 51.334 40 86.001 40c13.333 0 26 -3 38 -9s22.333 -15.667 31 -29z" />
    <glyph glyph-name="Imacron" unicode="&#x12a;" 
d="M125 700h456v-126h-162l-95 -448h162v-126h-456v126h162l95 448h-162v126zM517 774h-294v102h294v-102z" />
    <glyph glyph-name="imacron" unicode="&#x12b;" 
d="M380 12c-13.333 -9.33301 -27 -16 -41 -20s-27.667 -6 -41 -6c-14.667 0 -28.667 2.5 -42 7.5s-25 12 -35 21s-17.833 20 -23.5 33s-8.5 27.5 -8.5 43.5c0 12.667 1.33301 24.334 4 35.001l60 251l-10 7l-134 -92l-63 94l145 98c13.333 9.33301 27 16 41 20
s27.667 6 41 6c14.667 0 28.667 -2.5 42 -7.5s25 -12 35 -21s17.833 -20 23.5 -33s8.5 -27.5 8.5 -43.5c0 -12.667 -1.33301 -24.334 -4 -35.001l-60 -251l10 -7l134 92l63 -94l-145 -98v0zM453 570h-294v102h294v-102z" />
    <glyph glyph-name="Ibreve" unicode="&#x12c;" 
d="M125 700h456v-126h-162l-95 -448h162v-126h-456v126h162l95 448h-162v126zM543 910l-3 -13.999c-9.33301 -42 -26.5 -72.833 -51.5 -92.5s-58.5 -29.5 -100.5 -29.5c-34 0 -61.5 9.5 -82.5 28.5s-31.5 42.833 -31.5 71.5c0 3.33301 0.333008 8.16602 1 14.499
s2 13.5 4 21.5h90c-1.33301 -5.33301 -2 -11 -2 -17c0 -20.667 11.333 -31 34 -31c28.667 0 45.667 14 51 42l1 6h90z" />
    <glyph glyph-name="ibreve" unicode="&#x12d;" 
d="M380 12c-13.333 -9.33301 -27 -16 -41 -20s-27.667 -6 -41 -6c-14.667 0 -28.667 2.5 -42 7.5s-25 12 -35 21s-17.833 20 -23.5 33s-8.5 27.5 -8.5 43.5c0 12.667 1.33301 24.334 4 35.001l60 251l-10 7l-134 -92l-63 94l145 98c13.333 9.33301 27 16 41 20
s27.667 6 41 6c14.667 0 28.667 -2.5 42 -7.5s25 -12 35 -21s17.833 -20 23.5 -33s8.5 -27.5 8.5 -43.5c0 -12.667 -1.33301 -24.334 -4 -35.001l-60 -251l10 -7l134 92l63 -94l-145 -98v0zM490 700l-3 -13.999c-9.33301 -42 -26.5 -72.833 -51.5 -92.5
s-58.5 -29.5 -100.5 -29.5c-34 0 -61.5 9.5 -82.5 28.5s-31.5 42.833 -31.5 71.5c0 3.33301 0.333008 8.16602 1 14.499s2 13.5 4 21.5h90c-1.33301 -5.33301 -2 -11 -2 -17c0 -20.667 11.333 -31 34 -31c28.667 0 45.667 14 51 42l1 6h90z" />
    <glyph glyph-name="Iogonek" unicode="&#x12e;" 
d="M125 700l455.999 0.00195312v-126h-162l-95 -448h162v-126l-26 -56c-1.33301 -2.66699 -2.16602 -4.83398 -2.49902 -6.50098s-0.5 -4.16699 -0.5 -7.5c0 -10.667 6.33301 -16 19 -16h37v-84h-82c-21.333 0 -38.333 5.33301 -51 16s-19 25.667 -19 45
c0 13.333 3.33301 27.666 10 42.999l29 66h-370v126h162l95 448h-162v126z" />
    <glyph glyph-name="iogonek" unicode="&#x12f;" 
d="M228 -170c-24 0 -43.167 7.5 -57.5 22.5s-21.5 32.5 -21.5 52.5c0 12.667 3.33301 25.167 10 37.5s17 23.833 31 34.5l40 29c-12.667 9.33301 -22.667 21 -30 35s-11 30.667 -11 50c0 12.667 1.33301 24.334 4 35.001l60 251l-10 7l-134 -92l-63 94l145 98
c13.333 9.33301 27 16 41 20s27.667 6 41 6c14.667 0 28.667 -2.5 42 -7.5s25 -12 35 -21s17.833 -20 23.5 -33s8.5 -27.5 8.5 -43.5c0 -12.667 -1.33301 -24.334 -4 -35.001l-60 -251l10 -7l134 92l63 -94l-245 -168c-5.33301 -3.33301 -8 -8 -8 -14
c0 -9.33301 5.66699 -14 17 -14h63v-84h-124zM467 643c0 -13.333 -2.5 -25.833 -7.5 -37.5s-11.833 -21.667 -20.5 -30s-18.834 -15 -30.501 -20s-23.834 -7.5 -36.501 -7.5c-13.333 0 -25.666 2.5 -36.999 7.5s-21.333 11.667 -30 20s-15.5 18.333 -20.5 30
s-7.5 24.167 -7.5 37.5s2.5 25.833 7.5 37.5s11.833 21.667 20.5 30s18.667 15 30 20s23.666 7.5 36.999 7.5c12.667 0 24.834 -2.5 36.501 -7.5s21.834 -11.667 30.501 -20s15.5 -18.333 20.5 -30s7.5 -24.167 7.5 -37.5z" />
    <glyph glyph-name="Idotaccent" unicode="&#x130;" 
d="M125 700h456v-126h-162l-95 -448h162v-126h-456v126h162l95 448h-162v126zM471 873c0 -13.333 -2.5 -25.833 -7.5 -37.5s-11.833 -21.667 -20.5 -30s-18.834 -15 -30.501 -20s-23.834 -7.5 -36.501 -7.5c-13.333 0 -25.666 2.5 -36.999 7.5s-21.333 11.667 -30 20
s-15.5 18.333 -20.5 30s-7.5 24.167 -7.5 37.5s2.5 25.833 7.5 37.5s11.833 21.667 20.5 30s18.667 15 30 20s23.666 7.5 36.999 7.5c12.667 0 24.834 -2.5 36.501 -7.5s21.834 -11.667 30.501 -20s15.5 -18.333 20.5 -30s7.5 -24.167 7.5 -37.5z" />
    <glyph glyph-name="dotlessi" unicode="&#x131;" 
d="M380 12c-13.333 -9.33301 -27 -16 -41 -20s-27.667 -6 -41 -6c-14.667 0 -28.667 2.5 -42 7.5s-25 12 -35 21s-17.833 20 -23.5 33s-8.5 27.5 -8.5 43.5c0 12.667 1.33301 24.334 4 35.001l60 251l-10 7l-134 -92l-63 94l145 98c13.333 9.33301 27 16 41 20
s27.667 6 41 6c14.667 0 28.667 -2.5 42 -7.5s25 -12 35 -21s17.833 -20 23.5 -33s8.5 -27.5 8.5 -43.5c0 -12.667 -1.33301 -24.334 -4 -35.001l-60 -251l10 -7l134 92l63 -94l-145 -98v0z" />
    <glyph glyph-name="IJ" unicode="&#x132;" 
d="M265 700l-76 -358h-132l76 358h132zM479 210c-8.66699 -39.333 -20.166 -73.166 -34.499 -101.499s-32.166 -51.5 -53.499 -69.5s-46.333 -31.333 -75 -40s-61.334 -13 -98.001 -13c-28 0 -53.667 4 -77 12s-43.5 19.667 -60.5 35s-30.333 34.166 -40 56.499
s-14.5 48.166 -14.5 77.499c0 20.667 2.33301 41.334 7 62.001l10 47h132l-14 -66c-2 -9.33301 -3 -19 -3 -29c0 -22.667 6.66699 -40.167 20 -52.5s32.666 -18.5 57.999 -18.5c28.667 0 52.667 8.66699 72 26s32.333 42 39 74l78 366h-75v124h274v-124h-67z" />
    <glyph glyph-name="ij" unicode="&#x133;" 
d="M650 643c0 -13.333 -2.5 -25.833 -7.5 -37.5s-11.833 -21.667 -20.5 -30s-18.834 -15 -30.501 -20s-23.834 -7.5 -36.501 -7.5c-13.333 0 -25.666 2.5 -36.999 7.5s-21.333 11.667 -30 20s-15.5 18.333 -20.5 30s-7.5 24.167 -7.5 37.5s2.5 25.833 7.5 37.5
s11.833 21.667 20.5 30s18.667 15 30 20s23.666 7.5 36.999 7.5c12.667 0 24.834 -2.5 36.501 -7.5s21.834 -11.667 30.501 -20s15.5 -18.333 20.5 -30s7.5 -24.167 7.5 -37.5zM328 643c0 -13.333 -2.5 -25.833 -7.5 -37.5s-11.833 -21.667 -20.5 -30
s-18.834 -15 -30.501 -20s-23.834 -7.5 -36.501 -7.5c-13.333 0 -25.666 2.5 -36.999 7.5s-21.333 11.667 -30 20s-15.5 18.333 -20.5 30s-7.5 24.167 -7.5 37.5s2.5 25.833 7.5 37.5s11.833 21.667 20.5 30s18.667 15 30 20s23.666 7.5 36.999 7.5
c12.667 0 24.834 -2.5 36.501 -7.5s21.834 -11.667 30.501 -20s15.5 -18.333 20.5 -30s7.5 -24.167 7.5 -37.5zM207 208c-1.33301 -5.33301 -2.33105 -10.498 -2.99805 -15.498s-1 -10.167 -1 -15.5c0 -25.333 7.33301 -44.5 22 -57.5s34.667 -19.5 60 -19.5
c36 0 63.667 11.667 83 35s33.666 57 42.999 101l55 260h126l-131 -618c-4.66699 -22.667 -15.667 -41.334 -33 -56.001s-37.333 -22 -60 -22h-236v120h185c18 0 29 10 33 30l26 122h-18c-14.667 -30 -33.334 -51.833 -56.001 -65.5s-51 -20.5 -85 -20.5
c-20 0 -38.667 3.5 -56 10.5s-32.666 17 -45.999 30s-23.833 29 -31.5 48s-11.5 40.833 -11.5 65.5c0 15.333 2 32.666 6 51.999l39 185l-10 7l-60 -42l-63 94l73 49c12.667 8.66699 25.667 15 39 19s26.666 6 39.999 6c14.667 0 28.667 -2.5 42 -7.5s25 -12 35 -21
s18 -20 24 -33s9 -27.833 9 -44.5c0 -10 -1 -20 -3 -30z" />
    <glyph glyph-name="Jcircumflex" unicode="&#x134;" 
d="M476 210c-8.66699 -39.333 -20.166 -73.166 -34.499 -101.499s-32.166 -51.5 -53.499 -69.5s-46.333 -31.333 -75 -40s-61.334 -13 -98.001 -13c-28 0 -53.667 4 -77 12s-43.5 19.667 -60.5 35s-30.333 34.166 -40 56.499s-14.5 48.166 -14.5 77.499
c0 20.667 2.33301 41.334 7 62.001l10 47h132l-14 -66c-2 -9.33301 -3 -19 -3 -29c0 -22.667 6.66699 -40.167 20 -52.5s32.666 -18.5 57.999 -18.5c28.667 0 52.667 8.66699 72 26s32.333 42 39 74l78 366h-75v124h274v-124h-67zM347.001 786l102 124h172l55 -136h-111
l-30 88h-12l-61 -88h-115v12z" />
    <glyph glyph-name="jcircumflex" unicode="&#x135;" 
d="M357 -98c-7.33301 -34.667 -21.999 -60.3311 -43.999 -76.998s-48 -25 -78 -25h-235v120h205c19.333 0 31.666 11 36.999 33l94 424l-10 7l-134 -92l-63 94l145 98c26 17.333 53.333 26 82 26c14.667 0 28.5 -2.5 41.5 -7.5s24.5 -12 34.5 -21s17.833 -20.333 23.5 -34
s8.5 -28.834 8.5 -45.501c0 -10.667 -1 -21.334 -3 -32.001zM231.001 582.003l102 124h172l55 -136h-111l-30 88h-12l-61 -88h-115v12z" />
    <glyph glyph-name="uni0136" unicode="&#x136;" 
d="M146 -134c0 12.667 2.33398 24.4971 7.00098 35.4971s11.167 20.5 19.5 28.5s18 14.333 29 19s22.833 7 35.5 7c12 0 23.5 -2.33301 34.5 -7s20.667 -11.167 29 -19.5s15 -18 20 -29s7.5 -22.833 7.5 -35.5c0 -3.33301 -0.166992 -6.66602 -0.5 -9.99902
s-0.833008 -6.66602 -1.5 -9.99902l-24 -114c-5.33301 -23.333 -17 -40.666 -35 -51.999s-40 -17 -66 -17h-55v78h49c11.333 0 19.833 1.5 25.5 4.5s9.16699 9.16699 10.5 18.5l3 19c-10.667 0 -21.334 1.66699 -32.001 5s-20.167 8.5 -28.5 15.5s-15 15.667 -20 26
s-7.5 22.833 -7.5 37.5zM128.001 -0.00292969h-132l149 700h132l-61 -287h24l226 287h154v-12l-266 -332v-18l168 -332v-6h-146l-146 287h-42z" />
    <glyph glyph-name="uni0137" unicode="&#x137;" 
d="M165 -134c0 12.667 2.33398 24.4971 7.00098 35.4971s11.167 20.5 19.5 28.5s18 14.333 29 19s22.833 7 35.5 7c12 0 23.5 -2.33301 34.5 -7s20.667 -11.167 29 -19.5s15 -18 20 -29s7.5 -22.833 7.5 -35.5c0 -3.33301 -0.166992 -6.66602 -0.5 -9.99902
s-0.833008 -6.66602 -1.5 -9.99902l-24 -114c-5.33301 -23.333 -17 -40.666 -35 -51.999s-40 -17 -66 -17h-48v78h42c11.333 0 19.833 1.5 25.5 4.5s9.16699 9.16699 10.5 18.5l3 19c-10.667 0 -21.334 1.66699 -32.001 5s-20.167 8.5 -28.5 15.5s-15 15.667 -20 26
s-7.5 22.833 -7.5 37.5zM30.001 -0.00292969l152 714.001h126l-85 -400h24l201 196l78 -84l-184 -172v-18l80 -132h12l55 38l61 -88l-45 -34c-16.667 -12.667 -32.834 -21.5 -48.501 -26.5s-30.834 -7.5 -45.501 -7.5c-21.333 0 -40.666 5.16699 -57.999 15.5
s-31.666 25.166 -42.999 44.499l-90 148h-23l-41 -194h-126z" />
    <glyph glyph-name="kgreenlandic" unicode="&#x138;" 
d="M256 496l-39 -181.999h24l201 196l78 -84l-184 -172v-18l80 -132h12l55 38l61 -88l-45 -34c-16.667 -12.667 -32.834 -21.5 -48.501 -26.5s-30.834 -7.5 -45.501 -7.5c-21.333 0 -40.666 5.16699 -57.999 15.5s-31.666 25.166 -42.999 44.499l-90 148h-23l-41 -194h-126
l106 496h126z" />
    <glyph glyph-name="Lacute" unicode="&#x139;" 
d="M15 12l146 688h132l-122 -574h304v-126h-460v12zM401 898l-109 -124h-102l81 136h130v-12z" />
    <glyph glyph-name="lacute" unicode="&#x13a;" 
d="M373 12c-13.333 -9.33301 -27 -15.999 -41 -19.999s-27.667 -6 -41 -6c-14.667 0 -28.667 2.5 -42 7.5s-25 12 -35 21s-17.833 20 -23.5 33s-8.5 27.5 -8.5 43.5c0 12 1.33301 23.667 4 35l109 455l-10 7l-134 -92l-63 94l145 98c13.333 9.33301 27 16 41 20
s27.667 6 41 6c14.667 0 28.667 -2.5 42 -7.5s25 -12 35 -21s17.833 -20 23.5 -33s8.5 -27.5 8.5 -43.5c0 -10.667 -1.33301 -22.334 -4 -35.001l-109 -455l10 -7l134 92l63 -94l-145 -98v0zM540 902.001l-109 -124h-102l81 136h130v-12z" />
    <glyph glyph-name="uni013B" unicode="&#x13b;" 
d="M140 -134c0 12.667 2.33398 24.4971 7.00098 35.4971s11.167 20.5 19.5 28.5s18 14.333 29 19s22.833 7 35.5 7c12 0 23.5 -2.33301 34.5 -7s20.667 -11.167 29 -19.5s15 -18 20 -29s7.5 -22.833 7.5 -35.5c0 -3.33301 -0.166992 -6.66602 -0.5 -9.99902
s-0.833008 -6.66602 -1.5 -9.99902l-24 -114c-5.33301 -23.333 -17 -40.666 -35 -51.999s-40 -17 -66 -17h-55v78h49c11.333 0 19.833 1.5 25.5 4.5s9.16699 9.16699 10.5 18.5l3 19c-10.667 0 -21.334 1.66699 -32.001 5s-20.167 8.5 -28.5 15.5s-15 15.667 -20 26
s-7.5 22.833 -7.5 37.5zM15.001 11.9971l146 688h132l-122 -574h304v-126h-460v12z" />
    <glyph glyph-name="uni013C" unicode="&#x13c;" 
d="M142 -134c0 12.667 2.33398 24.4971 7.00098 35.4971s11.167 20.5 19.5 28.5s18 14.333 29 19s22.833 7 35.5 7c12 0 23.5 -2.33301 34.5 -7s20.667 -11.167 29 -19.5s15 -18 20 -29s7.5 -22.833 7.5 -35.5c0 -3.33301 -0.166992 -6.66602 -0.5 -9.99902
s-0.833008 -6.66602 -1.5 -9.99902l-24 -114c-5.33301 -23.333 -17 -40.666 -35 -51.999s-40 -17 -66 -17h-48v78h42c11.333 0 19.833 1.5 25.5 4.5s9.16699 9.16699 10.5 18.5l3 19c-10.667 0 -21.334 1.66699 -32.001 5s-20.167 8.5 -28.5 15.5s-15 15.667 -20 26
s-7.5 22.833 -7.5 37.5zM373.001 11.9971c-13.333 -9.33301 -27 -15.999 -41 -19.999s-27.667 -6 -41 -6c-14.667 0 -28.667 2.5 -42 7.5s-25 12 -35 21s-17.833 20 -23.5 33s-8.5 27.5 -8.5 43.5c0 12 1.33301 23.667 4 35l109 455l-10 7l-134 -92l-63 94l145 98
c13.333 9.33301 27 16 41 20s27.667 6 41 6c14.667 0 28.667 -2.5 42 -7.5s25 -12 35 -21s17.833 -20 23.5 -33s8.5 -27.5 8.5 -43.5c0 -10.667 -1.33301 -22.334 -4 -35.001l-109 -455l10 -7l134 92l63 -94l-145 -98v0z" />
    <glyph glyph-name="Lcaron" unicode="&#x13d;" 
d="M15 12l146 688h132l-122 -574h304v-126h-460v12zM415 610c0 26 8.83301 47.5 26.5 64.5s39.167 25.5 64.5 25.5c12 0 23.5 -2.33301 34.5 -7s20.667 -11.167 29 -19.5s15 -18 20 -29s7.5 -22.833 7.5 -35.5c0 -3.33301 -0.166992 -6.5 -0.5 -9.5
s-0.833008 -6.16699 -1.5 -9.5l-24 -114c-5.33301 -24 -17 -41.667 -35 -53s-40 -17 -66 -17h-78v78h75c19.333 0 30.333 8 33 24l3 15c-22 0 -42.167 7 -60.5 21s-27.5 36 -27.5 66z" />
    <glyph glyph-name="lcaron" unicode="&#x13e;" 
d="M414 610c0 26 8.83301 47.5 26.5 64.5s39.167 25.5 64.5 25.5c12 0 23.5 -2.33301 34.5 -7s20.667 -11.167 29 -19.5s15 -18 20 -29s7.5 -22.833 7.5 -35.5c0 -3.33301 -0.166992 -6.5 -0.5 -9.5s-0.833008 -6.16699 -1.5 -9.5l-24 -114
c-5.33301 -24 -17 -41.667 -35 -53s-40 -17 -66 -17h-77v78h74c19.333 0 30.333 8 33 24l3 15c-22 0 -42.167 7 -60.5 21s-27.5 36 -27.5 66zM303 12c-13.333 -9.33301 -27 -15.999 -41 -19.999s-27.667 -6 -41 -6c-14.667 0 -28.667 2.5 -42 7.5s-25 12 -35 21
s-17.833 20 -23.5 33s-8.5 27.5 -8.5 43.5c0 12 1.33301 23.667 4 35l109 455l-10 7l-134 -92l-63 94l145 98c13.333 9.33301 27 16 41 20s27.667 6 41 6c14.667 0 28.667 -2.5 42 -7.5s25 -12 35 -21s17.833 -20 23.5 -33s8.5 -27.5 8.5 -43.5
c0 -10.667 -1.33301 -22.334 -4 -35.001l-109 -455l10 -7l134 92l63 -94l-145 -98v0z" />
    <glyph glyph-name="Ldot" unicode="&#x13f;" 
d="M15 12l146 688h132l-122 -574h304v-126h-460v12zM578 350c0 -13.333 -2.5 -25.833 -7.5 -37.5s-11.833 -21.667 -20.5 -30s-18.834 -15 -30.501 -20s-23.834 -7.5 -36.501 -7.5c-13.333 0 -25.666 2.5 -36.999 7.5s-21.333 11.667 -30 20s-15.5 18.333 -20.5 30
s-7.5 24.167 -7.5 37.5s2.5 25.833 7.5 37.5s11.833 21.667 20.5 30s18.667 15 30 20s23.666 7.5 36.999 7.5c12.667 0 24.834 -2.5 36.501 -7.5s21.834 -11.667 30.501 -20s15.5 -18.333 20.5 -30s7.5 -24.167 7.5 -37.5z" />
    <glyph glyph-name="ldot" unicode="&#x140;" 
d="M314 12c-13.333 -9.33301 -27 -15.999 -41 -19.999s-27.667 -6 -41 -6c-14.667 0 -28.667 2.5 -42 7.5s-25 12 -35 21s-17.833 20 -23.5 33s-8.5 27.5 -8.5 43.5c0 12 1.33301 23.667 4 35l109 455l-10 7l-134 -92l-63 94l145 98c13.333 9.33301 27 16 41 20
s27.667 6 41 6c14.667 0 28.667 -2.5 42 -7.5s25 -12 35 -21s17.833 -20 23.5 -33s8.5 -27.5 8.5 -43.5c0 -10.667 -1.33301 -22.334 -4 -35.001l-109 -455l10 -7l134 92l63 -94l-145 -98v0zM563 350.001c0 -13.333 -2.5 -25.833 -7.5 -37.5s-11.833 -21.667 -20.5 -30
s-18.834 -15 -30.501 -20s-23.834 -7.5 -36.501 -7.5c-13.333 0 -25.666 2.5 -36.999 7.5s-21.333 11.667 -30 20s-15.5 18.333 -20.5 30s-7.5 24.167 -7.5 37.5s2.5 25.833 7.5 37.5s11.833 21.667 20.5 30s18.667 15 30 20s23.666 7.5 36.999 7.5
c12.667 0 24.834 -2.5 36.501 -7.5s21.834 -11.667 30.501 -20s15.5 -18.333 20.5 -30s7.5 -24.167 7.5 -37.5z" />
    <glyph glyph-name="Lslash" unicode="&#x141;" 
d="M15 12l52 245l-53 -14l-27 107l106 29l68 321h132l-60 -282l75 21l29 -107l-130 -36l-36 -170h304v-126h-460v12z" />
    <glyph glyph-name="lslash" unicode="&#x142;" 
d="M115 354l133 34.001l47 193l-10 7l-134 -92l-63 94l145 98c13.333 9.33301 27 16 41 20s27.667 6 41 6c14.667 0 28.667 -2.5 42 -7.5s25 -12 35 -21s17.833 -20 23.5 -33s8.5 -27.5 8.5 -43.5c0 -10.667 -1.33301 -22.334 -4 -35.001l-37 -152l79 20l29 -111l-138 -35
l-42 -177l10 -7l134 92l63 -94l-145 -98c-13.333 -9.33301 -27 -16 -41 -20s-27.667 -6 -41 -6c-14.667 0 -28.667 2.5 -42 7.5s-25 12 -35 21s-17.833 20 -23.5 33s-8.5 27.5 -8.5 43.5c0 12 1.33301 23.667 4 35l32 136l-74 -19z" />
    <glyph glyph-name="Nacute" unicode="&#x143;" 
d="M340 66h18l135 634h126l-149 -700h-246l47 634h-18l-135 -634h-125l148 700h246zM607 898l-109 -124h-102l81 136h130v-12z" />
    <glyph glyph-name="nacute" unicode="&#x144;" 
d="M379 288c2.66699 12.667 3.99902 23.333 3.99902 32c0 24 -7 42.667 -21 56s-33 20 -57 20c-30 0 -55.667 -10.667 -77 -32s-35.666 -50 -42.999 -86l-59 -278h-126l105 496h121l-17 -80h18c16 33.333 37.167 57.333 63.5 72s55.5 22 87.5 22
c42 0 75.5 -12.667 100.5 -38s37.5 -61 37.5 -107c0 -10.667 -0.666992 -20.5 -2 -29.5s-3 -18.833 -5 -29.5l-40 -187l10 -7l43 30l63 -94l-54 -36c-25.333 -17.333 -52.333 -26 -81 -26c-14.667 0 -28.667 2.5 -42 7.5s-25 12 -35 21s-18 20 -24 33s-9 27.833 -9 44.5
c0 8.66699 1 18.667 3 30zM550.999 693.999l-109 -124h-102l81 136h130v-12z" />
    <glyph glyph-name="uni0145" unicode="&#x145;" 
d="M76 -134c0 12.667 2.33398 24.4971 7.00098 35.4971s11.167 20.5 19.5 28.5s18 14.333 29 19s22.833 7 35.5 7c12 0 23.5 -2.33301 34.5 -7s20.667 -11.167 29 -19.5s15 -18 20 -29s7.5 -22.833 7.5 -35.5c0 -3.33301 -0.166992 -6.66602 -0.5 -9.99902
s-0.833008 -6.66602 -1.5 -9.99902l-24 -114c-5.33301 -23.333 -17 -40.666 -35 -51.999s-40 -17 -66 -17h-48v78h42c11.333 0 19.833 1.5 25.5 4.5s9.16699 9.16699 10.5 18.5l3 19c-10.667 0 -21.334 1.66699 -32.001 5s-20.167 8.5 -28.5 15.5s-15 15.667 -20 26
s-7.5 22.833 -7.5 37.5zM340.001 65.9971h18l135 634h126l-149 -700h-246l47 634h-18l-135 -634h-125l148 700h246z" />
    <glyph glyph-name="uni0146" unicode="&#x146;" 
d="M379 288c2.66699 12.667 3.99902 23.333 3.99902 32c0 24 -7 42.667 -21 56s-33 20 -57 20c-30 0 -55.667 -10.667 -77 -32s-35.666 -50 -42.999 -86l-59 -278h-126l105 496h121l-17 -80h18c16 33.333 37.167 57.333 63.5 72s55.5 22 87.5 22
c42 0 75.5 -12.667 100.5 -38s37.5 -61 37.5 -107c0 -10.667 -0.666992 -20.5 -2 -29.5s-3 -18.833 -5 -29.5l-40 -187l10 -7l43 30l63 -94l-54 -36c-25.333 -17.333 -52.333 -26 -81 -26c-14.667 0 -28.667 2.5 -42 7.5s-25 12 -35 21s-18 20 -24 33s-9 27.833 -9 44.5
c0 8.66699 1 18.667 3 30zM139.999 -137.001c0 13.333 2.49902 25.8301 7.49902 37.4971s11.833 21.667 20.5 30s18.667 14.833 30 19.5s23.666 7 36.999 7c12.667 0 24.834 -2.5 36.501 -7.5s21.834 -11.667 30.501 -20s15.5 -18.333 20.5 -30s7.5 -24.167 7.5 -37.5
c0 -3.33301 -0.166992 -6.66602 -0.5 -9.99902s-0.833008 -6.66602 -1.5 -9.99902l-25 -119c-5.33301 -25.333 -17.333 -43.833 -36 -55.5s-41.667 -17.5 -69 -17.5h-82v78h76c20.667 0 33 9.33301 37 28l3 17c-11.333 0 -22.5 1.83301 -33.5 5.5
s-20.833 9.33398 -29.5 17.001s-15.667 17 -21 28s-8 24.167 -8 39.5z" />
    <glyph glyph-name="Ncaron" unicode="&#x147;" 
d="M340 66h18l135 634h126l-149 -700h-246l47 634h-18l-135 -634h-125l148 700h246zM635 898l-102 -124h-172l-55 136h111l30 -88h12l61 88h115v-12z" />
    <glyph glyph-name="ncaron" unicode="&#x148;" 
d="M379 288c2.66699 12.667 3.99902 23.333 3.99902 32c0 24 -7 42.667 -21 56s-33 20 -57 20c-30 0 -55.667 -10.667 -77 -32s-35.666 -50 -42.999 -86l-59 -278h-126l105 496h121l-17 -80h18c16 33.333 37.167 57.333 63.5 72s55.5 22 87.5 22
c42 0 75.5 -12.667 100.5 -38s37.5 -61 37.5 -107c0 -10.667 -0.666992 -20.5 -2 -29.5s-3 -18.833 -5 -29.5l-40 -187l10 -7l43 30l63 -94l-54 -36c-25.333 -17.333 -52.333 -26 -81 -26c-14.667 0 -28.667 2.5 -42 7.5s-25 12 -35 21s-18 20 -24 33s-9 27.833 -9 44.5
c0 8.66699 1 18.667 3 30zM559.999 693.999l-102 -124h-172l-55 136h111l30 -88h12l61 88h115v-12z" />
    <glyph glyph-name="napostrophe" unicode="&#x149;" 
d="M104 736c0 26 8.83398 47.499 26.501 64.499s39.167 25.5 64.5 25.5c12 0 23.5 -2.33301 34.5 -7s20.667 -11.167 29 -19.5s15 -18 20 -29s7.5 -22.833 7.5 -35.5c0 -3.33301 -0.166992 -6.5 -0.5 -9.5s-0.833008 -6.5 -1.5 -10.5l-23 -108
c-5.33301 -23.333 -17 -40.666 -35 -51.999s-40 -17 -66 -17h-55v78h49c11.333 0 19.833 1.5 25.5 4.5s9.16699 9.16699 10.5 18.5l2 13c-10.667 0 -21.334 1.66699 -32.001 5s-20.167 8.5 -28.5 15.5s-15 15.667 -20 26s-7.5 22.833 -7.5 37.5zM379.001 287.999
c2.66699 12.667 3.99902 23.333 3.99902 32c0 24 -7 42.667 -21 56s-33 20 -57 20c-30 0 -55.667 -10.667 -77 -32s-35.666 -50 -42.999 -86l-59 -278h-126l105 496h121l-17 -80h18c16 33.333 37.167 57.333 63.5 72s55.5 22 87.5 22c42 0 75.5 -12.667 100.5 -38
s37.5 -61 37.5 -107c0 -10.667 -0.666992 -20.5 -2 -29.5s-3 -18.833 -5 -29.5l-40 -187l10 -7l43 30l63 -94l-54 -36c-25.333 -17.333 -52.333 -26 -81 -26c-14.667 0 -28.667 2.5 -42 7.5s-25 12 -35 21s-18 20 -24 33s-9 27.833 -9 44.5c0 8.66699 1 18.667 3 30z" />
    <glyph glyph-name="Eng" unicode="&#x14a;" 
d="M340 66l17.999 0.000976562l135 634h126l-170 -798c-7.33301 -34.667 -22.166 -60.334 -44.499 -77.001s-48.5 -25 -78.5 -25h-179v120h151c20.667 0 33 11 37 33l10 47h-121l47 634h-18l-135 -634h-125l148 700h246z" />
    <glyph glyph-name="eng" unicode="&#x14b;" 
d="M396 288c2 10.667 3.00098 19.6689 3.00098 27.002c0 25.333 -8 45.166 -24 59.499s-36.667 21.5 -62 21.5c-30 0 -57 -10.667 -81 -32s-39.667 -50 -47 -86l-59 -278h-126l105 496h126l-16 -74h18c17.333 30 38 52.167 62 66.5s53.667 21.5 89 21.5
c43.333 0 78.833 -12.833 106.5 -38.5s41.5 -62.5 41.5 -110.5c0 -16.667 -2 -35 -6 -55l-88 -404c-7.33301 -34.667 -22 -60.334 -44 -77.001s-48 -25 -78 -25h-111v120h81c19.333 0 31.666 11 36.999 33z" />
    <glyph glyph-name="Omacron" unicode="&#x14c;" 
d="M65 428c20.667 98.667 55.167 171.003 103.5 217.003s114.833 69 199.5 69c35.333 0 66.666 -5.5 93.999 -16.5s50.333 -26.333 69 -46s32.834 -42.834 42.501 -69.501s14.5 -55.334 14.5 -86.001c0 -11.333 -0.5 -22.666 -1.5 -33.999s-2.83301 -22.666 -5.5 -33.999
l-33 -156c-20.667 -98.667 -55.167 -171 -103.5 -217s-114.833 -69 -199.5 -69c-35.333 0 -66.666 5.5 -93.999 16.5s-50.333 26.333 -69 46s-32.834 42.667 -42.501 69s-14.5 55.166 -14.5 86.499c0 11.333 0.5 22.666 1.5 33.999s2.83301 22.666 5.5 33.999zM257 106.003
c22.667 0 42.667 4.16602 60 12.499s32.5 19.5 45.5 33.5s23.667 30.667 32 50s14.833 40 19.5 62l37 172c2 10.667 3.5 19.834 4.5 27.501s1.5 15.167 1.5 22.5c0 34 -8.83301 60.5 -26.5 79.5s-42.5 28.5 -74.5 28.5c-22.667 0 -42.667 -4.16699 -60 -12.5
s-32.5 -19.5 -45.5 -33.5s-23.667 -30.667 -32 -50s-14.833 -40 -19.5 -62l-37 -172c-4 -18 -6 -34.667 -6 -50c0 -34 8.83301 -60.5 26.5 -79.5s42.5 -28.5 74.5 -28.5zM535 774.002h-294v102h294v-102z" />
    <glyph glyph-name="omacron" unicode="&#x14d;" 
d="M558 310c0 -46.667 -6.66895 -89.8311 -20.002 -129.498s-33 -73.834 -59 -102.501s-58.5 -51.167 -97.5 -67.5s-84.167 -24.5 -135.5 -24.5c-29.333 0 -56.833 4.33301 -82.5 13s-48.167 21.5 -67.5 38.5s-34.666 37.833 -45.999 62.5s-17 52.667 -17 84
c0 51.333 8 97.166 24 137.499s37.833 74.5 65.5 102.5s60.334 49.333 98.001 64s78.167 22 121.5 22c31.333 0 60.333 -4.83301 87 -14.5s49.5 -23.167 68.5 -40.5s33.833 -38.333 44.5 -63s16 -52 16 -82zM264.998 104.003c24 0.666992 46.168 5.99902 66.501 15.999
s37.666 23.167 51.999 39.5s25.5 35.5 33.5 57.5s12 45.333 12 70c0 34.667 -9.33301 60.834 -28 78.501s-43.667 26.5 -75 26.5c-24 0 -46 -5.16699 -66 -15.5s-37.333 -24 -52 -41s-26 -36.5 -34 -58.5s-12 -45 -12 -69c0 -34 9.33301 -59.833 28 -77.5
s43.667 -26.5 75 -26.5zM508.999 570.002h-294v102h294v-102z" />
    <glyph glyph-name="Obreve" unicode="&#x14e;" 
d="M65 428c20.667 98.667 55.167 171.003 103.5 217.003s114.833 69 199.5 69c35.333 0 66.666 -5.5 93.999 -16.5s50.333 -26.333 69 -46s32.834 -42.834 42.501 -69.501s14.5 -55.334 14.5 -86.001c0 -11.333 -0.5 -22.666 -1.5 -33.999s-2.83301 -22.666 -5.5 -33.999
l-33 -156c-20.667 -98.667 -55.167 -171 -103.5 -217s-114.833 -69 -199.5 -69c-35.333 0 -66.666 5.5 -93.999 16.5s-50.333 26.333 -69 46s-32.834 42.667 -42.501 69s-14.5 55.166 -14.5 86.499c0 11.333 0.5 22.666 1.5 33.999s2.83301 22.666 5.5 33.999zM257 106.003
c22.667 0 42.667 4.16602 60 12.499s32.5 19.5 45.5 33.5s23.667 30.667 32 50s14.833 40 19.5 62l37 172c2 10.667 3.5 19.834 4.5 27.501s1.5 15.167 1.5 22.5c0 34 -8.83301 60.5 -26.5 79.5s-42.5 28.5 -74.5 28.5c-22.667 0 -42.667 -4.16699 -60 -12.5
s-32.5 -19.5 -45.5 -33.5s-23.667 -30.667 -32 -50s-14.833 -40 -19.5 -62l-37 -172c-4 -18 -6 -34.667 -6 -50c0 -34 8.83301 -60.5 26.5 -79.5s42.5 -28.5 74.5 -28.5zM550 910.002l-3 -13.999c-9.33301 -42 -26.5 -72.833 -51.5 -92.5s-58.5 -29.5 -100.5 -29.5
c-34 0 -61.5 9.5 -82.5 28.5s-31.5 42.833 -31.5 71.5c0 3.33301 0.333008 8.16602 1 14.499s2 13.5 4 21.5h90c-1.33301 -5.33301 -2 -11 -2 -17c0 -20.667 11.333 -31 34 -31c28.667 0 45.667 14 51 42l1 6h90z" />
    <glyph glyph-name="obreve" unicode="&#x14f;" 
d="M558 310c0 -46.667 -6.66895 -89.8311 -20.002 -129.498s-33 -73.834 -59 -102.501s-58.5 -51.167 -97.5 -67.5s-84.167 -24.5 -135.5 -24.5c-29.333 0 -56.833 4.33301 -82.5 13s-48.167 21.5 -67.5 38.5s-34.666 37.833 -45.999 62.5s-17 52.667 -17 84
c0 51.333 8 97.166 24 137.499s37.833 74.5 65.5 102.5s60.334 49.333 98.001 64s78.167 22 121.5 22c31.333 0 60.333 -4.83301 87 -14.5s49.5 -23.167 68.5 -40.5s33.833 -38.333 44.5 -63s16 -52 16 -82zM264.998 104.003c24 0.666992 46.168 5.99902 66.501 15.999
s37.666 23.167 51.999 39.5s25.5 35.5 33.5 57.5s12 45.333 12 70c0 34.667 -9.33301 60.834 -28 78.501s-43.667 26.5 -75 26.5c-24 0 -46 -5.16699 -66 -15.5s-37.333 -24 -52 -41s-26 -36.5 -34 -58.5s-12 -45 -12 -69c0 -34 9.33301 -59.833 28 -77.5
s43.667 -26.5 75 -26.5zM508.999 700.002l-3 -13.999c-9.33301 -42 -26.5 -72.833 -51.5 -92.5s-58.5 -29.5 -100.5 -29.5c-34 0 -61.5 9.5 -82.5 28.5s-31.5 42.833 -31.5 71.5c0 3.33301 0.333008 8.16602 1 14.499s2 13.5 4 21.5h90c-1.33301 -5.33301 -2 -11 -2 -17
c0 -20.667 11.333 -31 34 -31c28.667 0 45.667 14 51 42l1 6h90z" />
    <glyph glyph-name="Ohungarumlaut" unicode="&#x150;" 
d="M65 428c20.667 98.667 55.167 171.003 103.5 217.003s114.833 69 199.5 69c35.333 0 66.666 -5.5 93.999 -16.5s50.333 -26.333 69 -46s32.834 -42.834 42.501 -69.501s14.5 -55.334 14.5 -86.001c0 -11.333 -0.5 -22.666 -1.5 -33.999s-2.83301 -22.666 -5.5 -33.999
l-33 -156c-20.667 -98.667 -55.167 -171 -103.5 -217s-114.833 -69 -199.5 -69c-35.333 0 -66.666 5.5 -93.999 16.5s-50.333 26.333 -69 46s-32.834 42.667 -42.501 69s-14.5 55.166 -14.5 86.499c0 11.333 0.5 22.666 1.5 33.999s2.83301 22.666 5.5 33.999zM257 106.003
c22.667 0 42.667 4.16602 60 12.499s32.5 19.5 45.5 33.5s23.667 30.667 32 50s14.833 40 19.5 62l37 172c2 10.667 3.5 19.834 4.5 27.501s1.5 15.167 1.5 22.5c0 34 -8.83301 60.5 -26.5 79.5s-42.5 28.5 -74.5 28.5c-22.667 0 -42.667 -4.16699 -60 -12.5
s-32.5 -19.5 -45.5 -33.5s-23.667 -30.667 -32 -50s-14.833 -40 -19.5 -62l-37 -172c-4 -18 -6 -34.667 -6 -50c0 -34 8.83301 -60.5 26.5 -79.5s42.5 -28.5 74.5 -28.5zM459 898.002l-109 -124h-102l81 136h130v-12zM635 898.002l-109 -124h-102l81 136h130v-12z" />
    <glyph glyph-name="ohungarumlaut" unicode="&#x151;" 
d="M558 310c0 -46.667 -6.66895 -89.8311 -20.002 -129.498s-33 -73.834 -59 -102.501s-58.5 -51.167 -97.5 -67.5s-84.167 -24.5 -135.5 -24.5c-29.333 0 -56.833 4.33301 -82.5 13s-48.167 21.5 -67.5 38.5s-34.666 37.833 -45.999 62.5s-17 52.667 -17 84
c0 51.333 8 97.166 24 137.499s37.833 74.5 65.5 102.5s60.334 49.333 98.001 64s78.167 22 121.5 22c31.333 0 60.333 -4.83301 87 -14.5s49.5 -23.167 68.5 -40.5s33.833 -38.333 44.5 -63s16 -52 16 -82zM264.998 104.003c24 0.666992 46.168 5.99902 66.501 15.999
s37.666 23.167 51.999 39.5s25.5 35.5 33.5 57.5s12 45.333 12 70c0 34.667 -9.33301 60.834 -28 78.501s-43.667 26.5 -75 26.5c-24 0 -46 -5.16699 -66 -15.5s-37.333 -24 -52 -41s-26 -36.5 -34 -58.5s-12 -45 -12 -69c0 -34 9.33301 -59.833 28 -77.5
s43.667 -26.5 75 -26.5zM426.999 694.002l-109 -124h-102l81 136h130v-12zM602.999 694.002l-109 -124h-102l81 136h130v-12z" />
    <glyph glyph-name="OE" unicode="&#x152;" 
d="M624 700l-0.000976562 -126h-163l-34 -160h136v-126h-163l-34 -162h148v-126h-303c-31.333 0 -59.833 4.5 -85.5 13.5s-47.667 22.333 -66 40s-32.666 39.167 -42.999 64.5s-15.5 54.333 -15.5 87c0 24.667 3 51.667 9 81l27 128c21.333 101.333 58 174.333 110 219
s121.667 67 209 67h268zM328.999 574c-22.667 0 -42.667 -4.16602 -60 -12.499s-32.5 -19.5 -45.5 -33.5s-24 -30.5 -33 -49.5s-15.833 -39.833 -20.5 -62.5l-29 -132c-2 -10 -3.66699 -19.667 -5 -29s-2 -18.333 -2 -27c0 -30.667 7.66699 -55.334 23 -74.001
s41 -28 77 -28z" />
    <glyph glyph-name="oe" unicode="&#x153;" 
d="M33 204c0 44.667 8.5 85.834 25.5 123.501s40 70 69 97s62.667 48 101 63s78.833 22.5 121.5 22.5c34.667 0 65.667 -5.33301 93 -16s50.5 -25.167 69.5 -43.5s33.333 -40.166 43 -65.499s14.5 -53 14.5 -83c0 -10 -0.666992 -20.5 -2 -31.5s-3 -21.167 -5 -30.5l-11 -52
h-192l-17 -78c30.667 0 57.667 14 81 42l88 -64c-31.333 -35.333 -66.5 -61.166 -105.5 -77.499s-86.833 -24.5 -143.5 -24.5c-30 0 -58.833 4.66699 -86.5 14s-52.167 23.166 -73.5 41.499s-38.333 41.166 -51 68.499s-19 58.666 -19 93.999zM275 382
c-40 -15.333 -68.833 -38.667 -86.5 -70s-26.5 -66 -26.5 -104c0 -22.667 5 -41.667 15 -57s23.667 -27 41 -35zM451 307.999c1.33301 4 1.99902 9.66699 1.99902 17c0 16 -4.66699 29.833 -14 41.5s-21.666 18.167 -36.999 19.5l-17 -78h66z" />
    <glyph glyph-name="Racute" unicode="&#x154;" 
d="M464 0l-134 0.000976562l45 210c1.33301 6.66699 2 12 2 16c0 11.333 -3.66699 20.5 -11 27.5s-18.666 10.5 -33.999 10.5h-145l-56 -264h-131l148 700h246c32.667 0 61.5 -4.5 86.5 -13.5s46 -21 63 -36s29.667 -32.833 38 -53.5s12.5 -42.334 12.5 -65.001
c0 -48.667 -11.167 -88.167 -33.5 -118.5s-56.5 -53.166 -102.5 -68.499v-18c19.333 -2 34.166 -8.83301 44.499 -20.5s15.5 -26.5 15.5 -44.5c0 -6.66699 -0.666992 -13.334 -2 -20.001zM214 390.001h120c35.333 0 64.333 9.33301 87 28s34 44 34 76
c0 25.333 -6.83301 45 -20.5 59s-34.5 21 -62.5 21h-119zM511 898.001l-109 -124h-102l81 136h130v-12z" />
    <glyph glyph-name="racute" unicode="&#x155;" 
d="M178 378l-9.99902 6.00195l-79 -58l-67 90l80 60c15.333 11.333 31.5 19.833 48.5 25.5s33.167 8.5 48.5 8.5c26.667 0 50 -7.33301 70 -22s32 -35.334 36 -62.001h18c13.333 28 32 49 56 63s51 21 81 21c38 0 68.833 -11.833 92.5 -35.5s35.5 -56.5 35.5 -98.5
c0 -8.66699 -0.5 -17.167 -1.5 -25.5s-2.83301 -18.5 -5.5 -30.5l-5 -22l-134 -10l3 14c2 10 3 19 3 27c0 19.333 -5.33301 34.666 -16 45.999s-26.667 17 -48 17c-26.667 0 -47.834 -9 -63.501 -27s-27.167 -43.667 -34.5 -77l-36 -168h120v-120h-342v120h96z
M560.001 694.002l-109 -124h-102l81 136h130v-12z" />
    <glyph glyph-name="uni0156" unicode="&#x156;" 
d="M121 -134c0 12.667 2.33398 24.4971 7.00098 35.4971s11.167 20.5 19.5 28.5s18 14.333 29 19s22.833 7 35.5 7c12 0 23.5 -2.33301 34.5 -7s20.667 -11.167 29 -19.5s15 -18 20 -29s7.5 -22.833 7.5 -35.5c0 -3.33301 -0.166992 -6.66602 -0.5 -9.99902
s-0.833008 -6.66602 -1.5 -9.99902l-24 -114c-5.33301 -23.333 -17 -40.666 -35 -51.999s-40 -17 -66 -17h-55v78h49c11.333 0 19.833 1.5 25.5 4.5s9.16699 9.16699 10.5 18.5l3 19c-10.667 0 -21.334 1.66699 -32.001 5s-20.167 8.5 -28.5 15.5s-15 15.667 -20 26
s-7.5 22.833 -7.5 37.5zM463.001 -0.00292969l-134 0.000976562l45 210c1.33301 6.66699 2 12 2 16c0 11.333 -3.66699 20.5 -11 27.5s-18.666 10.5 -33.999 10.5h-145l-56 -264h-131l148 700h246c32.667 0 61.5 -4.5 86.5 -13.5s46 -21 63 -36s29.667 -32.833 38 -53.5
s12.5 -42.334 12.5 -65.001c0 -48.667 -11.167 -88.167 -33.5 -118.5s-56.5 -53.166 -102.5 -68.499v-18c19.333 -2 34.166 -8.83301 44.499 -20.5s15.5 -26.5 15.5 -44.5c0 -6.66699 -0.666992 -13.334 -2 -20.001zM213.001 389.998h120c35.333 0 64.333 9.33301 87 28
s34 44 34 76c0 25.333 -6.83301 45 -20.5 59s-34.5 21 -62.5 21h-119z" />
    <glyph glyph-name="uni0157" unicode="&#x157;" 
d="M48 -134c0 12.667 2.33398 24.4971 7.00098 35.4971s11.167 20.5 19.5 28.5s18 14.333 29 19s22.833 7 35.5 7c12 0 23.5 -2.33301 34.5 -7s20.667 -11.167 29 -19.5s15 -18 20 -29s7.5 -22.833 7.5 -35.5c0 -3.33301 -0.166992 -6.66602 -0.5 -9.99902
s-0.833008 -6.66602 -1.5 -9.99902l-24 -114c-5.33301 -23.333 -17 -40.666 -35 -51.999s-40 -17 -66 -17h-48v78h42c11.333 0 19.833 1.5 25.5 4.5s9.16699 9.16699 10.5 18.5l3 19c-10.667 0 -21.334 1.66699 -32.001 5s-20.167 8.5 -28.5 15.5s-15 15.667 -20 26
s-7.5 22.833 -7.5 37.5zM178.001 377.997l-9.99902 6.00195l-79 -58l-67 90l80 60c15.333 11.333 31.5 19.833 48.5 25.5s33.167 8.5 48.5 8.5c26.667 0 50 -7.33301 70 -22s32 -35.334 36 -62.001h18c13.333 28 32 49 56 63s51 21 81 21c38 0 68.833 -11.833 92.5 -35.5
s35.5 -56.5 35.5 -98.5c0 -8.66699 -0.5 -17.167 -1.5 -25.5s-2.83301 -18.5 -5.5 -30.5l-5 -22l-134 -10l3 14c2 10 3 19 3 27c0 19.333 -5.33301 34.666 -16 45.999s-26.667 17 -48 17c-26.667 0 -47.834 -9 -63.501 -27s-27.167 -43.667 -34.5 -77l-36 -168h120v-120
h-342v120h96z" />
    <glyph glyph-name="Rcaron" unicode="&#x158;" 
d="M464 0l-134 0.000976562l45 210c1.33301 6.66699 2 12 2 16c0 11.333 -3.66699 20.5 -11 27.5s-18.666 10.5 -33.999 10.5h-145l-56 -264h-131l148 700h246c32.667 0 61.5 -4.5 86.5 -13.5s46 -21 63 -36s29.667 -32.833 38 -53.5s12.5 -42.334 12.5 -65.001
c0 -48.667 -11.167 -88.167 -33.5 -118.5s-56.5 -53.166 -102.5 -68.499v-18c19.333 -2 34.166 -8.83301 44.499 -20.5s15.5 -26.5 15.5 -44.5c0 -6.66699 -0.666992 -13.334 -2 -20.001zM214 390.001h120c35.333 0 64.333 9.33301 87 28s34 44 34 76
c0 25.333 -6.83301 45 -20.5 59s-34.5 21 -62.5 21h-119zM544 898.001l-102 -124h-172l-55 136h111l30 -88h12l61 88h115v-12z" />
    <glyph glyph-name="rcaron" unicode="&#x159;" 
d="M178 378l-9.99902 6.00195l-79 -58l-67 90l80 60c15.333 11.333 31.5 19.833 48.5 25.5s33.167 8.5 48.5 8.5c26.667 0 50 -7.33301 70 -22s32 -35.334 36 -62.001h18c13.333 28 32 49 56 63s51 21 81 21c38 0 68.833 -11.833 92.5 -35.5s35.5 -56.5 35.5 -98.5
c0 -8.66699 -0.5 -17.167 -1.5 -25.5s-2.83301 -18.5 -5.5 -30.5l-5 -22l-134 -10l3 14c2 10 3 19 3 27c0 19.333 -5.33301 34.666 -16 45.999s-26.667 17 -48 17c-26.667 0 -47.834 -9 -63.501 -27s-27.167 -43.667 -34.5 -77l-36 -168h120v-120h-342v120h96z
M574.001 694.002l-102 -124h-172l-55 136h111l30 -88h12l61 88h115v-12z" />
    <glyph glyph-name="Sacute" unicode="&#x15a;" 
d="M457 475c2 10 3 18.9971 3 26.9971c0 26 -9.33301 47.167 -28 63.5s-47.334 24.5 -86.001 24.5c-15.333 0 -30.333 -1.66699 -45 -5s-27.667 -8.5 -39 -15.5s-20.333 -15.833 -27 -26.5s-10 -23 -10 -37c0 -23.333 9.83301 -41.666 29.5 -54.999
s51.5 -23.666 95.5 -30.999c62 -10 110.833 -29.833 146.5 -59.5s53.5 -72.834 53.5 -129.501c0 -38 -6.83301 -72 -20.5 -102s-33 -55.667 -58 -77s-55.167 -37.666 -90.5 -48.999s-75 -17 -119 -17c-42 0 -78.667 5.5 -110 16.5s-57.166 26 -77.499 45
s-35.5 41.167 -45.5 66.5s-15 52.666 -15 81.999c0 8.66699 0.333008 17.334 1 26.001s2 17.667 4 27l5 23h132l-4 -17c-2.66699 -12.667 -4 -27 -4 -43c0 -32 10.167 -57 30.5 -75s50.833 -27 91.5 -27c44 0 78.333 9.16699 103 27.5s37 43.5 37 75.5
c0 25.333 -10.5 45 -31.5 59s-56.167 24.667 -105.5 32c-23.333 3.33301 -46.166 9.33301 -68.499 18s-42.166 20.667 -59.499 36s-31.333 34.166 -42 56.499s-16 48.833 -16 79.5c0 31.333 5.83301 60.5 17.5 87.5s29 50.333 52 70s51.333 35 85 46s72.5 16.5 116.5 16.5
c37.333 0 70.666 -4.66699 99.999 -14s54.166 -22.333 74.499 -39s35.833 -36.5 46.5 -59.5s16 -47.833 16 -74.5c0 -7.33301 -0.333008 -14.666 -1 -21.999s-2 -15.666 -4 -24.999l-4 -18h-132zM525 897.997l-109 -124h-102l81 136h130v-12z" />
    <glyph glyph-name="sacute" unicode="&#x15b;" 
d="M322 396c-7.33301 0 -14.8301 -0.831055 -22.4971 -2.49805s-14.834 -4.16699 -21.501 -7.5s-12.167 -7.83301 -16.5 -13.5s-6.5 -12.5 -6.5 -20.5c0 -14 8 -24.333 24 -31s43.333 -12.334 82 -17.001c43.333 -5.33301 78.333 -18.5 105 -39.5s40 -51.167 40 -90.5
c0 -58.667 -20.5 -104.667 -61.5 -138s-97.833 -50 -170.5 -50c-36.667 0 -68.167 5.33301 -94.5 16s-48 24 -65 40s-29.833 33.667 -38.5 53s-13.334 37.666 -14.001 54.999l124 30c2 -22 11.333 -40.833 28 -56.5s42 -23.5 76 -23.5c23.333 0 43.666 3.66699 60.999 11
s26 20.333 26 39c0 14 -6.66699 25.167 -20 33.5s-38 14.166 -74 17.499c-48 4 -86.167 17.667 -114.5 41s-42.5 54.333 -42.5 93c0 28 5.83301 53 17.5 75s27.167 40.333 46.5 55s41.833 25.834 67.5 33.501s52.5 11.5 80.5 11.5c34.667 0 63.667 -4.66699 87 -14
s42.333 -21 57 -35s25.5 -29.167 32.5 -45.5s11.5 -31.5 13.5 -45.5l-122 -32c-2.66699 18 -11 32.167 -25 42.5s-33.667 15.5 -59 15.5zM510.003 694.002l-109 -124h-102l81 136h130v-12z" />
    <glyph glyph-name="Scircumflex" unicode="&#x15c;" 
d="M457 475c2 10 3 18.9971 3 26.9971c0 26 -9.33301 47.167 -28 63.5s-47.334 24.5 -86.001 24.5c-15.333 0 -30.333 -1.66699 -45 -5s-27.667 -8.5 -39 -15.5s-20.333 -15.833 -27 -26.5s-10 -23 -10 -37c0 -23.333 9.83301 -41.666 29.5 -54.999
s51.5 -23.666 95.5 -30.999c62 -10 110.833 -29.833 146.5 -59.5s53.5 -72.834 53.5 -129.501c0 -38 -6.83301 -72 -20.5 -102s-33 -55.667 -58 -77s-55.167 -37.666 -90.5 -48.999s-75 -17 -119 -17c-42 0 -78.667 5.5 -110 16.5s-57.166 26 -77.499 45
s-35.5 41.167 -45.5 66.5s-15 52.666 -15 81.999c0 8.66699 0.333008 17.334 1 26.001s2 17.667 4 27l5 23h132l-4 -17c-2.66699 -12.667 -4 -27 -4 -43c0 -32 10.167 -57 30.5 -75s50.833 -27 91.5 -27c44 0 78.333 9.16699 103 27.5s37 43.5 37 75.5
c0 25.333 -10.5 45 -31.5 59s-56.167 24.667 -105.5 32c-23.333 3.33301 -46.166 9.33301 -68.499 18s-42.166 20.667 -59.499 36s-31.333 34.166 -42 56.499s-16 48.833 -16 79.5c0 31.333 5.83301 60.5 17.5 87.5s29 50.333 52 70s51.333 35 85 46s72.5 16.5 116.5 16.5
c37.333 0 70.666 -4.66699 99.999 -14s54.166 -22.333 74.499 -39s35.833 -36.5 46.5 -59.5s16 -47.833 16 -74.5c0 -7.33301 -0.333008 -14.666 -1 -21.999s-2 -15.666 -4 -24.999l-4 -18h-132zM216 785.997l102 124h172l55 -136h-111l-30 88h-12l-61 -88h-115v12z" />
    <glyph glyph-name="scircumflex" unicode="&#x15d;" 
d="M322 396c-7.33301 0 -14.8301 -0.831055 -22.4971 -2.49805s-14.834 -4.16699 -21.501 -7.5s-12.167 -7.83301 -16.5 -13.5s-6.5 -12.5 -6.5 -20.5c0 -14 8 -24.333 24 -31s43.333 -12.334 82 -17.001c43.333 -5.33301 78.333 -18.5 105 -39.5s40 -51.167 40 -90.5
c0 -58.667 -20.5 -104.667 -61.5 -138s-97.833 -50 -170.5 -50c-36.667 0 -68.167 5.33301 -94.5 16s-48 24 -65 40s-29.833 33.667 -38.5 53s-13.334 37.666 -14.001 54.999l124 30c2 -22 11.333 -40.833 28 -56.5s42 -23.5 76 -23.5c23.333 0 43.666 3.66699 60.999 11
s26 20.333 26 39c0 14 -6.66699 25.167 -20 33.5s-38 14.166 -74 17.499c-48 4 -86.167 17.667 -114.5 41s-42.5 54.333 -42.5 93c0 28 5.83301 53 17.5 75s27.167 40.333 46.5 55s41.833 25.834 67.5 33.501s52.5 11.5 80.5 11.5c34.667 0 63.667 -4.66699 87 -14
s42.333 -21 57 -35s25.5 -29.167 32.5 -45.5s11.5 -31.5 13.5 -45.5l-122 -32c-2.66699 18 -11 32.167 -25 42.5s-33.667 15.5 -59 15.5zM201.003 582.002l102 124h172l55 -136h-111l-30 88h-12l-61 -88h-115v12z" />
    <glyph glyph-name="Scedilla" unicode="&#x15e;" 
d="M457 475c2 10 3.00195 18.9971 3.00195 26.9971c0 26 -9.33301 47.167 -28 63.5s-47.334 24.5 -86.001 24.5c-15.333 0 -30.333 -1.66699 -45 -5s-27.667 -8.5 -39 -15.5s-20.333 -15.833 -27 -26.5s-10 -23 -10 -37c0 -23.333 9.83301 -41.666 29.5 -54.999
s51.5 -23.666 95.5 -30.999c62 -10 110.833 -29.833 146.5 -59.5s53.5 -72.834 53.5 -129.501c0 -38 -6.83301 -72 -20.5 -102s-33 -55.667 -58 -77s-55.167 -37.666 -90.5 -48.999s-75 -17 -119 -17h-10l-14 -32h12c5.33301 6 12 11.167 20 15.5s18.333 6.5 31 6.5
c19.333 0 35.333 -6.66699 48 -20s19 -32.666 19 -57.999c0 -34 -10.5 -60.833 -31.5 -80.5s-50.833 -29.5 -89.5 -29.5c-22.667 0 -41.334 1.83301 -56.001 5.5s-27 8.5 -37 14.5l37 69c6.66699 -4.66699 14.167 -8.33398 22.5 -11.001s17.833 -4 28.5 -4
c11.333 0 20.833 2.5 28.5 7.5s11.5 12.167 11.5 21.5c0 12.667 -6 19 -18 19c-9.33301 0 -16.333 -4.66699 -21 -14h-97v12l31 87c-56 13.333 -97.167 38.166 -123.5 74.499s-39.5 78.5 -39.5 126.5c0 8.66699 0.333008 17.334 1 26.001s2 17.667 4 27l5 23h132l-4 -17
c-2.66699 -12.667 -4 -27 -4 -43c0 -32 10.167 -57 30.5 -75s50.833 -27 91.5 -27c44 0 78.333 9.16699 103 27.5s37 43.5 37 75.5c0 25.333 -10.5 45 -31.5 59s-56.167 24.667 -105.5 32c-23.333 3.33301 -46.166 9.33301 -68.499 18s-42.166 20.667 -59.499 36
s-31.333 34.166 -42 56.499s-16 48.833 -16 79.5c0 31.333 5.83301 60.5 17.5 87.5s29 50.333 52 70s51.333 35 85 46s72.5 16.5 116.5 16.5c37.333 0 70.666 -4.66699 99.999 -14s54.166 -22.333 74.499 -39s35.833 -36.5 46.5 -59.5s16 -47.833 16 -74.5
c0 -7.33301 -0.333008 -14.666 -1 -21.999s-2 -15.666 -4 -24.999l-4 -18h-132z" />
    <glyph glyph-name="scedilla" unicode="&#x15f;" 
d="M322 396c-7.33301 0 -14.8301 -0.832031 -22.4971 -2.49902s-14.834 -4.16699 -21.501 -7.5s-12.167 -7.83301 -16.5 -13.5s-6.5 -12.5 -6.5 -20.5c0 -14 8 -24.333 24 -31s43.333 -12.334 82 -17.001c43.333 -5.33301 78.333 -18.5 105 -39.5s40 -51.167 40 -90.5
c0 -56.667 -19.667 -101.667 -59 -135s-93.333 -51 -162 -53l-14 -32h12c5.33301 6 12 11.167 20 15.5s18.333 6.5 31 6.5c19.333 0 35.333 -6.66699 48 -20s19 -32.666 19 -57.999c0 -34 -10.5 -60.833 -31.5 -80.5s-50.833 -29.5 -89.5 -29.5
c-22.667 0 -41.334 1.83301 -56.001 5.5s-27 8.5 -37 14.5l37 69c6.66699 -4.66699 14.167 -8.33398 22.5 -11.001s17.833 -4 28.5 -4c11.333 0 20.833 2.5 28.5 7.5s11.5 12.167 11.5 21.5c0 12.667 -6 19 -18 19c-9.33301 0 -16.333 -4.66699 -21 -14h-97v12l30 85
c-25.333 6 -47 14.667 -65 26s-33 24.333 -45 39s-21 30 -27 46s-9.33301 31.333 -10 46l124 30c2 -22 11.333 -40.833 28 -56.5s42 -23.5 76 -23.5c23.333 0 43.666 3.66699 60.999 11s26 20.333 26 39c0 14 -6.66699 25.167 -20 33.5s-38 14.166 -74 17.499
c-48 4 -86.167 17.667 -114.5 41s-42.5 54.333 -42.5 93c0 28 5.83301 53 17.5 75s27.167 40.333 46.5 55s41.833 25.834 67.5 33.501s52.5 11.5 80.5 11.5c34.667 0 63.667 -4.66699 87 -14s42.333 -21 57 -35s25.5 -29.167 32.5 -45.5s11.5 -31.5 13.5 -45.5l-122 -32
c-2.66699 18 -11 32.167 -25 42.5s-33.667 15.5 -59 15.5z" />
    <glyph glyph-name="Scaron" unicode="&#x160;" 
d="M457 475c2 10 3 18.9971 3 26.9971c0 26 -9.33301 47.167 -28 63.5s-47.334 24.5 -86.001 24.5c-15.333 0 -30.333 -1.66699 -45 -5s-27.667 -8.5 -39 -15.5s-20.333 -15.833 -27 -26.5s-10 -23 -10 -37c0 -23.333 9.83301 -41.666 29.5 -54.999
s51.5 -23.666 95.5 -30.999c62 -10 110.833 -29.833 146.5 -59.5s53.5 -72.834 53.5 -129.501c0 -38 -6.83301 -72 -20.5 -102s-33 -55.667 -58 -77s-55.167 -37.666 -90.5 -48.999s-75 -17 -119 -17c-42 0 -78.667 5.5 -110 16.5s-57.166 26 -77.499 45
s-35.5 41.167 -45.5 66.5s-15 52.666 -15 81.999c0 8.66699 0.333008 17.334 1 26.001s2 17.667 4 27l5 23h132l-4 -17c-2.66699 -12.667 -4 -27 -4 -43c0 -32 10.167 -57 30.5 -75s50.833 -27 91.5 -27c44 0 78.333 9.16699 103 27.5s37 43.5 37 75.5
c0 25.333 -10.5 45 -31.5 59s-56.167 24.667 -105.5 32c-23.333 3.33301 -46.166 9.33301 -68.499 18s-42.166 20.667 -59.499 36s-31.333 34.166 -42 56.499s-16 48.833 -16 79.5c0 31.333 5.83301 60.5 17.5 87.5s29 50.333 52 70s51.333 35 85 46s72.5 16.5 116.5 16.5
c37.333 0 70.666 -4.66699 99.999 -14s54.166 -22.333 74.499 -39s35.833 -36.5 46.5 -59.5s16 -47.833 16 -74.5c0 -7.33301 -0.333008 -14.666 -1 -21.999s-2 -15.666 -4 -24.999l-4 -18h-132zM567 897.997l-102 -124h-172l-55 136h111l30 -88h12l61 88h115v-12z" />
    <glyph glyph-name="scaron" unicode="&#x161;" 
d="M322 396c-7.33301 0 -14.8301 -0.831055 -22.4971 -2.49805s-14.834 -4.16699 -21.501 -7.5s-12.167 -7.83301 -16.5 -13.5s-6.5 -12.5 -6.5 -20.5c0 -14 8 -24.333 24 -31s43.333 -12.334 82 -17.001c43.333 -5.33301 78.333 -18.5 105 -39.5s40 -51.167 40 -90.5
c0 -58.667 -20.5 -104.667 -61.5 -138s-97.833 -50 -170.5 -50c-36.667 0 -68.167 5.33301 -94.5 16s-48 24 -65 40s-29.833 33.667 -38.5 53s-13.334 37.666 -14.001 54.999l124 30c2 -22 11.333 -40.833 28 -56.5s42 -23.5 76 -23.5c23.333 0 43.666 3.66699 60.999 11
s26 20.333 26 39c0 14 -6.66699 25.167 -20 33.5s-38 14.166 -74 17.499c-48 4 -86.167 17.667 -114.5 41s-42.5 54.333 -42.5 93c0 28 5.83301 53 17.5 75s27.167 40.333 46.5 55s41.833 25.834 67.5 33.501s52.5 11.5 80.5 11.5c34.667 0 63.667 -4.66699 87 -14
s42.333 -21 57 -35s25.5 -29.167 32.5 -45.5s11.5 -31.5 13.5 -45.5l-122 -32c-2.66699 18 -11 32.167 -25 42.5s-33.667 15.5 -59 15.5zM541.003 694.002l-102 -124h-172l-55 136h111l30 -88h12l61 88h115v-12z" />
    <glyph glyph-name="uni0162" unicode="&#x162;" 
d="M100 700h504.001v-126h-186l-122 -574h-63l-10 -46h12c5.33301 6 12 11.167 20 15.5s18.333 6.5 31 6.5c19.333 0 35.333 -6.66699 48 -20s19 -32.666 19 -57.999c0 -34 -10.5 -60.833 -31.5 -80.5s-50.833 -29.5 -89.5 -29.5c-22.667 0 -41.334 1.83301 -56.001 5.5
s-27 8.5 -37 14.5l37 69c6.66699 -4.66699 14.167 -8.33398 22.5 -11.001s17.833 -4 28.5 -4c11.333 0 20.833 2.5 28.5 7.5s11.5 12.167 11.5 21.5c0 12.667 -6 19 -18 19c-9.33301 0 -16.333 -4.66699 -21 -14h-84v12l142 666h-186v126z" />
    <glyph glyph-name="uni0163" unicode="&#x163;" 
d="M218 376l-139.999 0.00292969v120h166l46 218h126l-46 -218h172v-120h-198l-56 -257l10 -7l134 92l63 -94l-145 -98c-13.333 -9.33301 -26.833 -16 -40.5 -20s-27.167 -6 -40.5 -6h-4l-13 -32h12c5.33301 6 12 11.167 20 15.5s18.333 6.5 31 6.5
c19.333 0 35.333 -6.66699 48 -20s19 -32.666 19 -57.999c0 -34 -10.5 -60.833 -31.5 -80.5s-50.833 -29.5 -89.5 -29.5c-22.667 0 -41.334 1.83301 -56.001 5.5s-27 8.5 -37 14.5l37 69c6.66699 -4.66699 14.167 -8.33398 22.5 -11.001s17.833 -4 28.5 -4
c11.333 0 20.833 2.5 28.5 7.5s11.5 12.167 11.5 21.5c0 12.667 -6 19 -18 19c-9.33301 0 -16.333 -4.66699 -21 -14h-97v12l36 102c-11.333 9.33301 -20.333 21.166 -27 35.499s-10 30.5 -10 48.5c0 5.33301 0.333008 10.166 1 14.499s1.66699 10.166 3 17.499z" />
    <glyph glyph-name="Tcaron" unicode="&#x164;" 
d="M100 700h504v-126h-186l-122 -574h-132l122 574h-186v126zM562 898l-102 -124h-172l-55 136h111l30 -88h12l61 88h115v-12z" />
    <glyph glyph-name="tcaron" unicode="&#x165;" 
d="M218 376l-140 0.00292969v120h166l46 218h126l-46 -218h44v-120h-70l-56 -257l10 -7l134 92l63 -94l-145 -98c-25.333 -17.333 -52.333 -26 -81 -26c-14.667 0 -28.667 2.5 -42 7.5s-25 12.167 -35 21.5s-18 20.666 -24 33.999s-9 28.333 -9 45
c0 5.33301 0.333008 10.166 1 14.499s1.66699 10.166 3 17.499zM450 606.003c0 13.333 2.49902 25.833 7.49902 37.5s11.833 21.667 20.5 30s18.667 14.833 30 19.5s23.666 7 36.999 7c12.667 0 24.834 -2.5 36.501 -7.5s21.834 -11.667 30.501 -20s15.5 -18.333 20.5 -30
s7.5 -24.167 7.5 -37.5c0 -3.33301 -0.166992 -6.66602 -0.5 -9.99902s-0.833008 -6.66602 -1.5 -9.99902l-29 -136c-5.33301 -25.333 -17.333 -43.833 -36 -55.5s-41.667 -17.5 -69 -17.5h-54v78h48c20.667 0 33 9.33301 37 28l7 34c-11.333 0 -22.5 1.83301 -33.5 5.5
s-20.833 9.16699 -29.5 16.5s-15.667 16.666 -21 27.999s-8 24.666 -8 39.999z" />
    <glyph glyph-name="Tbar" unicode="&#x166;" 
d="M100 700h504v-126h-186l-27 -125h125v-120h-150l-70 -329h-132l70 329h-126v120h151l27 125h-186v126z" />
    <glyph glyph-name="tbar" unicode="&#x167;" 
d="M179 202l-95 0.00292969v114h120l14 60h-140v120h166l46 218h126l-46 -218h172v-120h-198l-13 -60h47v-114h-72l-18 -83l10 -7l134 92l63 -94l-145 -98c-25.333 -17.333 -52.333 -26 -81 -26c-14.667 0 -28.667 2.5 -42 7.5s-25 12.167 -35 21.5s-18 20.666 -24 33.999
s-9 28.333 -9 45c0 5.33301 0.333008 10.166 1 14.499s1.66699 10.166 3 17.499z" />
    <glyph glyph-name="Utilde" unicode="&#x168;" 
d="M623 700l-96.999 -457.997c-9.33301 -45.333 -21.833 -84 -37.5 -116s-35.167 -58.5 -58.5 -79.5s-50.5 -36.333 -81.5 -46s-66.833 -14.5 -107.5 -14.5c-30 0 -58 4.5 -84 13.5s-48.333 22 -67 39s-33.334 38 -44.001 63s-16 53.5 -16 85.5
c0 10.667 0.333008 21.167 1 31.5s2.66699 22.166 6 35.499l94 446h132l-97 -458c-1.33301 -7.33301 -2.5 -14.333 -3.5 -21s-1.5 -13.334 -1.5 -20.001c0 -28.667 7.83301 -51 23.5 -67s39.167 -24 70.5 -24c40 0 70.833 10.667 92.5 32s37.167 54.666 46.5 99.999l97 458
h132zM427.001 885.003c4 -6 8.5 -11.5 13.5 -16.5s12.167 -7.5 21.5 -7.5c8 0 15.167 2.33301 21.5 7s12.833 11 19.5 19l28 34l68 -57l-62 -70c-22.667 -26.667 -51.334 -40 -86.001 -40c-13.333 0 -26 3 -38 9s-22.333 15.667 -31 29c-4 6 -8.5 11.5 -13.5 16.5
s-12.167 7.5 -21.5 7.5c-8 0 -15.167 -2.33301 -21.5 -7s-12.833 -11 -19.5 -19l-28 -34l-68 57l62 70c22.667 26.667 51.334 40 86.001 40c13.333 0 26 -3 38 -9s22.333 -15.667 31 -29z" />
    </font>
</defs>
</svg>
